P2
# teste100.pgm
128 99
233
0 0 0 0 0 0 0 0 0 0 0 0 0 0 0 0 0 0 0 0 0 0 0 0 0 0 0 0 0 0 0 0 0 0 0 0 0 0 0 0 0 1 1 0 0 0 0 0 0 0 0 0 0 0 0 0 0 0 0 0 0 0 0 0 0 0 0 0 0 0 0 0 0 0 0 0 0 0 0 0 0 0 0 0 1 0 0 0 0 0 0 0 0 0 0 0 0 0 0 0 0 0 0 0 0 0 0 0 0 0 0 0 0 0 0 0 0 0 0 0 0 0 0 0 0 0 0 0 
0 0 0 0 0 0 0 0 0 0 0 0 0 0 0 0 0 0 0 0 0 0 0 0 0 0 0 0 0 0 0 0 0 0 0 0 0 0 0 0 0 1 1 0 0 0 0 0 0 0 0 0 0 0 0 0 0 0 0 0 0 0 0 0 0 0 0 0 0 0 0 0 0 0 0 0 0 0 0 0 0 0 0 0 1 1 0 0 0 0 0 0 0 0 0 0 0 0 0 0 0 0 0 0 0 0 0 0 0 0 0 0 0 0 0 0 0 0 0 0 0 0 0 0 0 0 0 0 
0 0 0 0 0 0 0 0 0 0 0 0 0 0 0 0 0 0 0 0 0 0 0 0 0 0 0 0 0 0 0 0 0 0 0 0 0 0 0 0 1 1 1 0 0 0 0 0 0 0 1 4 3 2 0 0 0 0 0 0 0 0 0 0 0 0 0 0 0 0 0 0 0 0 0 0 0 0 0 0 0 0 0 0 1 1 0 0 0 0 0 0 0 0 0 0 0 0 0 0 0 0 0 0 0 0 0 0 0 0 0 0 0 0 0 0 0 0 0 0 0 0 0 0 0 0 0 0 
0 0 0 0 0 0 0 0 0 0 0 0 0 0 0 0 0 0 0 0 0 0 0 0 0 0 0 0 0 0 0 0 0 0 0 0 0 0 0 0 0 1 1 2 8 13 17 16 15 16 17 20 23 23 22 18 15 15 15 9 2 0 0 0 0 0 0 0 0 0 0 0 0 0 0 0 0 0 0 0 0 0 0 0 1 1 0 0 0 0 0 0 0 0 0 0 0 0 0 0 0 0 0 0 0 0 0 0 0 0 0 0 0 0 0 0 0 0 0 0 0 0 0 0 0 0 0 0 
0 0 0 0 0 0 0 0 0 0 0 0 0 0 0 0 0 0 0 0 0 0 0 0 0 0 0 0 0 0 0 0 0 0 0 0 0 0 0 0 4 16 22 23 25 30 53 78 103 125 144 156 162 162 157 143 125 103 79 55 32 21 15 10 1 0 0 0 0 0 0 0 0 0 0 0 0 0 0 0 0 0 0 0 1 1 0 0 0 0 0 0 0 0 0 0 0 0 0 0 0 0 0 0 0 0 0 0 0 0 0 0 0 0 0 0 0 0 0 0 0 0 0 0 0 0 0 0 
0 0 0 0 0 0 0 0 0 0 0 0 0 0 0 0 0 0 0 0 0 0 0 0 0 0 0 0 0 0 0 0 0 0 0 0 0 0 8 19 25 26 35 72 117 158 184 196 201 204 208 210 207 208 211 209 206 201 193 179 156 122 81 43 23 15 11 1 0 0 0 0 0 0 0 0 0 0 0 0 0 0 0 0 1 1 0 0 0 0 0 0 0 0 0 0 0 0 0 0 0 0 0 0 0 0 0 0 0 0 0 0 0 0 0 0 0 0 0 0 0 0 0 0 0 0 0 0 
0 0 0 0 0 0 0 0 0 0 0 0 0 0 0 0 0 0 0 0 0 0 0 0 0 0 0 0 0 0 0 0 0 0 0 0 8 25 25 24 53 108 163 193 204 205 207 208 209 210 212 212 212 211 212 211 210 208 206 207 208 201 186 162 126 82 40 18 12 1 0 0 0 0 0 0 0 0 0 0 0 0 0 0 1 1 0 0 0 0 0 0 0 0 0 0 0 0 0 0 0 0 0 0 0 0 0 0 0 0 0 0 0 0 0 0 0 0 0 0 0 0 0 0 0 0 0 0 
0 0 0 0 0 0 0 0 0 0 0 0 0 0 0 0 0 0 0 0 0 0 0 0 0 0 0 0 0 0 0 0 0 0 7 27 23 23 63 132 183 200 203 206 211 211 200 194 191 186 188 195 192 179 178 194 211 218 216 211 205 205 211 212 203 184 154 106 55 22 12 2 0 0 0 0 0 0 0 0 0 0 0 0 1 1 0 0 0 0 0 0 0 0 0 0 0 0 0 0 0 0 0 0 0 0 0 0 0 0 0 0 0 0 0 0 0 0 0 0 0 0 0 0 0 0 0 0 
0 0 0 0 0 0 0 0 0 0 0 0 0 0 0 0 0 0 0 0 0 0 0 0 0 0 0 0 0 0 0 0 4 28 24 22 58 137 188 199 197 205 208 210 208 196 191 176 162 158 160 166 166 153 153 164 176 190 207 216 214 211 210 207 207 215 211 196 165 107 45 25 11 0 0 0 0 0 0 0 0 0 0 0 1 1 0 0 0 0 0 0 0 0 0 0 0 0 0 0 0 0 0 0 0 0 0 0 0 0 0 0 0 0 0 0 0 0 0 0 0 0 0 0 0 0 0 0 
0 0 0 0 0 0 0 0 0 0 0 0 0 0 0 0 0 0 0 0 0 0 0 0 0 0 0 0 0 0 0 22 28 19 37 118 184 199 196 203 206 210 213 200 184 171 159 157 162 162 169 173 170 167 170 170 173 185 196 207 218 219 215 214 212 210 207 214 212 195 156 84 32 18 2 0 0 0 0 0 0 0 0 0 1 1 0 0 0 0 0 0 0 0 0 0 0 0 0 0 0 0 0 0 0 0 0 0 0 0 0 0 0 0 0 0 0 0 0 0 0 0 0 0 0 0 0 0 
0 0 0 0 0 0 0 0 0 0 0 0 0 0 0 0 0 0 0 0 0 0 0 0 0 0 0 0 0 9 31 21 21 86 172 197 198 202 206 210 217 202 175 173 172 172 178 174 156 143 135 136 132 131 141 147 149 153 171 186 201 219 228 229 220 214 210 209 207 214 210 186 127 48 22 6 0 0 0 0 0 0 0 0 1 1 0 0 0 0 0 0 0 0 0 0 0 0 0 0 0 0 0 0 0 0 0 0 0 0 0 0 0 0 0 0 0 0 0 0 0 0 0 0 0 0 0 0 
0 0 0 0 0 0 0 0 0 0 0 0 0 0 0 0 0 0 0 0 0 0 0 0 0 0 0 0 23 24 14 51 144 194 195 199 210 213 216 205 183 174 180 185 178 166 158 143 152 155 154 154 154 157 160 163 153 142 142 158 174 182 199 217 232 233 223 213 209 207 209 212 198 159 71 24 10 0 0 0 0 0 0 0 1 1 0 0 0 0 0 0 0 0 0 0 0 0 0 0 0 0 0 0 0 0 0 0 0 0 0 0 0 0 0 0 0 0 0 0 0 0 0 0 0 0 0 0 
0 0 0 0 0 0 0 0 0 0 0 0 0 0 0 0 0 0 0 0 0 0 0 0 0 0 4 25 21 20 79 171 193 195 208 213 218 212 194 182 190 192 172 158 155 145 138 138 148 152 143 137 130 129 145 154 151 149 148 146 151 171 179 183 195 210 227 233 224 211 205 203 208 201 169 86 25 11 0 0 0 0 0 1 1 1 0 0 0 0 0 0 0 0 0 0 0 0 0 0 0 0 0 0 0 0 0 0 0 0 0 0 0 0 0 0 0 0 0 0 0 0 0 0 0 0 0 0 
0 0 0 0 0 0 0 0 0 0 0 0 0 0 0 0 0 0 0 0 0 0 0 0 0 10 23 20 28 106 179 188 203 216 217 217 204 192 189 190 181 161 154 157 154 150 152 150 142 128 100 94 89 91 98 118 140 143 147 149 151 157 177 184 186 186 192 212 230 231 220 207 201 200 202 178 97 27 12 0 0 0 0 1 1 1 0 0 0 0 0 0 0 0 0 0 0 0 0 0 0 0 0 0 0 0 0 0 0 0 0 0 0 0 0 0 0 0 0 0 0 0 0 0 0 0 0 0 
0 0 0 0 0 0 0 0 0 0 0 0 0 0 0 0 0 0 0 0 0 0 0 0 14 21 18 34 124 181 187 204 219 220 211 194 190 194 186 170 159 162 167 159 144 138 119 114 112 100 95 96 94 97 102 107 125 142 139 131 130 132 148 170 178 184 186 185 192 213 226 225 210 202 201 205 181 107 27 12 0 0 0 0 1 1 0 0 0 0 0 0 0 0 0 0 0 0 0 0 0 0 0 0 0 0 0 0 0 0 0 0 0 0 0 0 0 0 0 0 0 0 0 0 0 0 0 0 
0 0 0 0 0 0 0 0 0 0 0 0 0 0 0 0 0 0 0 0 0 0 2 20 17 18 43 134 177 189 214 217 216 199 183 194 190 177 162 161 165 156 148 138 130 109 99 102 102 102 111 119 123 129 134 137 139 144 153 157 153 141 133 135 156 168 173 179 178 180 197 220 222 216 204 200 203 184 120 33 11 0 0 0 1 2 1 0 0 0 0 0 0 0 0 0 0 0 0 0 0 0 0 0 0 0 0 0 0 0 0 0 0 0 0 0 0 0 0 0 0 0 0 0 0 0 0 0 
0 0 0 0 0 0 0 0 0 0 0 0 0 0 0 0 0 0 0 0 0 5 17 14 19 56 144 173 188 218 217 211 186 182 190 179 164 159 162 159 163 160 153 148 130 123 121 122 124 126 130 128 132 139 137 136 135 134 138 141 143 140 143 150 137 139 154 165 179 180 173 186 208 217 216 204 203 201 183 131 37 8 0 1 1 1 0 0 0 0 0 0 0 0 0 0 0 0 0 0 0 0 0 0 0 0 0 0 0 0 0 0 0 0 0 0 0 0 0 0 0 0 0 0 0 0 0 0 
0 0 0 0 0 0 0 0 0 0 0 0 0 0 0 0 0 0 0 0 6 17 12 19 73 150 172 191 219 217 206 178 176 183 172 158 147 149 158 163 161 144 123 119 126 133 139 144 148 156 154 144 144 152 149 151 152 150 151 152 153 151 149 147 152 145 133 135 158 173 172 170 169 197 211 216 208 203 200 187 139 37 7 1 1 1 0 0 0 0 0 0 0 0 0 0 0 0 0 0 0 0 0 0 0 0 0 0 0 0 0 0 0 0 0 0 0 0 0 0 0 0 0 0 0 0 0 0 
0 0 0 0 0 0 0 0 0 0 0 0 0 0 0 0 0 0 0 5 16 11 21 82 157 175 191 218 216 200 175 171 177 169 151 146 157 158 155 135 121 120 132 141 146 146 143 140 143 143 142 129 124 133 134 133 135 135 134 136 138 145 153 157 149 138 135 133 128 149 161 159 162 168 193 202 217 211 203 196 185 131 31 5 2 1 1 0 0 0 0 0 0 0 0 0 0 0 0 0 0 0 0 0 0 0 0 0 0 0 0 0 0 0 0 0 0 0 0 0 0 0 0 0 0 0 0 0 
0 0 0 0 0 0 0 0 0 0 0 0 0 0 0 0 0 0 3 16 10 22 91 160 169 191 212 214 194 169 164 172 166 149 150 154 150 142 120 112 131 142 143 142 139 136 137 132 125 125 124 122 118 124 129 133 133 132 128 119 116 119 119 133 152 155 143 135 135 128 138 156 152 158 173 183 189 215 209 200 188 181 113 21 4 2 0 0 0 0 0 0 0 0 0 0 0 0 0 0 0 0 0 0 0 0 0 0 0 0 0 0 0 0 0 0 0 0 0 0 0 0 0 0 0 0 0 0 
0 0 0 0 0 0 0 0 0 0 0 0 0 0 0 0 0 1 16 10 20 90 157 164 188 205 209 186 169 163 169 160 150 158 154 138 122 110 116 139 142 136 134 129 130 132 130 125 131 127 128 126 128 128 127 127 131 130 123 119 122 123 120 115 122 141 154 140 138 143 124 133 150 147 163 173 172 185 217 208 197 184 170 87 12 2 0 0 0 0 0 0 0 0 0 0 0 0 0 0 0 0 0 0 0 0 0 0 0 0 0 0 0 0 0 0 0 0 0 0 0 0 0 0 0 0 0 0 
0 0 0 0 0 0 0 0 0 0 0 0 0 0 0 0 0 11 9 15 80 151 159 184 197 206 185 166 158 167 157 157 159 147 124 115 108 116 142 146 132 131 132 134 131 128 127 125 130 113 121 132 131 120 109 110 119 122 127 135 134 128 121 113 112 121 139 147 133 139 142 117 125 148 148 164 178 167 186 217 209 190 179 152 55 6 0 0 0 0 0 0 0 0 0 0 0 0 0 0 0 0 0 0 0 0 0 0 0 0 0 0 0 0 0 0 0 0 0 0 0 0 0 0 0 0 0 0 
0 0 0 0 0 0 0 0 0 0 0 0 0 0 0 0 5 12 10 63 146 153 179 194 204 192 166 151 162 153 161 161 140 117 116 106 113 142 141 135 133 133 132 128 127 125 121 119 101 94 107 112 110 117 111 109 107 107 110 131 140 135 131 122 120 120 125 143 139 128 134 134 114 124 144 150 164 175 153 191 219 203 184 172 125 25 2 0 0 0 0 0 0 0 0 0 0 0 0 0 0 0 0 0 0 0 0 0 0 0 0 0 0 0 0 0 0 0 0 0 0 0 0 0 0 0 0 0 
0 0 0 0 0 0 0 0 0 0 0 0 0 0 0 1 12 10 46 132 148 167 194 197 198 167 146 161 154 160 158 141 119 115 105 109 133 139 135 138 123 101 91 86 86 84 85 83 84 96 113 96 91 118 111 108 106 107 108 111 115 126 131 127 122 125 124 129 137 130 124 131 120 111 130 144 151 169 159 155 205 220 193 185 164 82 8 0 0 0 0 0 0 0 0 0 0 0 0 0 0 0 0 0 0 0 0 0 0 0 0 0 0 0 0 0 0 0 0 0 0 0 0 0 0 0 0 0 
0 0 0 0 0 0 0 0 0 0 0 0 0 0 0 6 10 20 104 145 155 189 194 195 177 150 147 155 157 157 150 123 111 106 100 119 134 137 140 130 100 85 84 83 79 75 79 84 92 97 118 102 87 102 88 84 84 80 87 91 90 92 113 133 139 130 125 126 132 130 120 121 130 112 116 135 144 154 171 141 174 214 205 184 172 136 27 0 0 0 0 0 0 0 0 0 0 0 0 0 0 0 0 0 0 0 0 0 0 0 0 0 0 0 0 0 0 0 0 0 0 0 0 0 0 0 0 0 
0 0 0 0 0 0 0 0 0 0 0 0 0 0 2 8 10 76 141 145 176 194 185 185 158 138 150 153 157 153 137 114 106 105 116 137 140 140 133 111 92 86 84 80 79 78 82 81 84 88 116 110 88 91 87 85 85 82 80 79 79 79 84 97 118 133 131 124 127 134 121 117 127 130 114 124 136 144 163 143 145 188 211 186 177 156 68 3 0 0 0 0 0 0 0 0 0 0 0 0 0 0 0 0 0 0 0 0 0 0 0 0 0 0 0 0 0 0 0 0 0 0 0 0 0 0 0 0 
0 0 0 0 0 0 0 0 0 0 0 0 0 0 5 9 37 124 144 152 191 180 175 167 142 133 149 150 152 149 124 107 102 110 137 144 140 133 117 94 86 81 77 75 77 80 84 88 90 95 106 106 97 98 94 92 95 94 91 86 81 78 78 81 90 116 134 132 125 133 132 113 120 128 128 126 132 127 149 146 132 165 203 194 181 163 119 14 0 0 0 0 0 0 0 0 0 0 0 0 0 0 0 0 0 0 0 0 0 0 0 0 0 0 0 0 0 0 0 0 0 0 0 0 0 0 0 0 
0 0 0 0 0 0 0 0 0 0 0 0 0 0 6 14 88 136 141 171 189 164 172 147 138 133 145 150 149 131 105 101 110 134 153 133 124 119 100 84 76 74 74 77 83 91 94 96 96 92 87 90 93 79 73 73 84 98 99 96 92 87 81 78 80 100 133 140 130 132 140 127 109 122 131 138 131 125 132 148 140 156 186 192 180 166 142 41 0 0 0 0 0 0 0 0 0 0 0 0 0 0 0 0 0 0 0 0 0 0 0 0 0 0 0 0 0 0 0 0 0 0 0 0 0 0 0 0 
0 0 0 0 0 0 0 0 0 0 0 0 0 3 6 39 117 143 148 185 172 162 166 139 126 133 149 147 143 109 100 109 129 154 137 115 118 107 88 75 74 77 84 93 96 96 93 93 82 75 74 70 82 72 74 73 74 82 79 91 96 99 94 87 78 83 114 143 142 136 136 140 124 113 123 144 137 124 116 140 135 146 170 194 181 171 150 67 2 0 0 0 0 0 0 0 0 0 0 0 0 0 0 0 0 0 0 0 0 0 0 0 0 0 0 0 0 0 0 0 0 0 0 0 0 0 0 0 
0 0 0 0 0 0 0 0 0 0 0 0 0 3 10 75 129 139 163 185 151 159 153 138 116 141 145 141 123 98 106 129 151 144 108 111 112 96 79 77 82 92 97 99 93 89 77 75 76 77 76 72 74 73 75 75 75 73 70 72 75 90 98 97 92 82 93 128 149 141 132 140 144 123 115 137 148 122 114 129 126 147 160 193 188 179 157 88 5 0 0 0 0 0 0 0 0 0 0 0 0 0 0 0 0 0 0 0 0 0 0 0 0 0 0 0 0 0 0 0 0 0 0 0 0 0 0 0 
0 0 0 0 0 0 0 0 0 0 0 0 0 4 20 98 134 148 179 174 143 154 139 127 110 148 135 137 108 101 125 153 155 129 107 108 98 82 81 86 97 102 97 87 81 73 73 74 77 76 76 74 72 73 75 75 76 75 74 72 71 72 82 95 100 95 88 108 141 146 132 128 141 142 120 122 148 125 104 124 124 144 149 183 189 175 157 105 8 0 0 0 0 0 0 0 0 0 0 0 0 0 0 0 0 0 0 0 0 0 0 0 0 0 0 0 0 0 0 0 0 0 0 0 0 0 0 0 
0 0 0 0 0 0 0 0 0 0 0 0 0 4 35 117 138 163 183 153 145 150 133 112 123 143 134 133 103 109 146 159 145 115 100 101 79 75 89 100 101 89 74 74 70 71 73 74 76 76 76 73 74 72 73 73 85 84 73 76 74 76 75 84 95 101 101 110 125 138 135 124 129 143 139 120 145 133 100 111 115 142 160 182 196 174 156 119 14 0 0 0 0 0 0 0 0 0 0 0 0 0 0 0 0 0 0 0 0 0 0 0 0 0 0 0 0 0 0 0 0 0 0 0 0 0 0 0 
0 0 0 0 0 0 0 0 0 0 0 0 1 5 51 126 140 172 172 144 146 147 128 105 134 139 127 126 105 114 154 152 125 98 98 101 81 90 99 97 85 75 73 75 75 77 74 73 77 77 76 75 74 73 71 68 68 70 71 76 77 76 75 75 88 99 116 126 116 119 130 126 117 131 150 132 130 138 103 105 109 141 162 174 198 181 165 137 26 0 0 0 0 0 0 0 0 0 0 0 0 0 0 0 0 0 0 0 0 0 0 0 0 0 0 0 0 0 0 0 0 0 0 0 0 0 0 0 
0 0 0 0 0 0 0 0 0 0 0 0 2 7 65 130 142 171 158 141 141 146 120 113 137 133 121 124 108 117 156 140 101 90 96 107 96 100 100 89 77 76 78 79 81 79 79 75 78 78 87 90 88 87 85 83 79 75 73 76 80 81 80 79 92 117 126 124 114 109 120 126 114 120 144 146 124 130 107 105 105 140 163 178 199 186 170 150 39 0 0 0 0 0 0 0 0 0 0 0 0 0 0 0 0 0 0 0 0 0 0 0 0 0 0 0 0 0 0 0 0 0 0 0 0 0 0 0 
0 0 0 0 0 0 0 0 0 0 0 0 2 10 76 134 150 172 156 141 141 145 118 126 140 125 118 111 106 122 152 123 94 88 95 117 115 101 98 89 80 79 80 80 77 78 80 77 83 88 104 113 112 112 110 110 101 88 77 76 82 92 95 104 108 107 98 113 118 116 116 129 118 114 133 146 124 126 118 98 101 147 163 177 194 190 176 158 52 1 0 0 0 0 0 0 0 0 0 0 0 0 0 0 0 0 0 0 0 0 0 0 0 0 0 0 0 0 0 0 0 0 0 0 0 0 0 0 
0 0 0 0 0 0 0 0 0 0 0 0 2 13 85 141 159 175 155 144 140 141 121 136 135 118 111 105 109 125 140 105 88 90 103 122 127 114 110 109 96 84 79 79 81 78 77 81 83 97 115 123 124 122 119 118 110 95 83 77 82 100 109 95 79 90 106 111 110 113 125 138 126 110 116 144 135 126 124 93 103 143 158 175 191 192 182 164 64 3 0 0 0 0 0 0 0 0 0 0 0 0 0 0 0 0 0 0 0 0 0 0 0 0 0 0 0 0 0 0 0 0 0 0 0 0 0 0 
0 0 0 0 0 0 0 0 0 0 0 0 2 12 90 145 167 177 161 150 143 142 131 146 131 116 110 109 117 120 128 98 95 105 115 120 118 106 106 103 99 97 101 107 96 89 75 74 80 96 115 122 129 118 112 115 107 97 83 73 82 102 101 87 77 81 75 66 73 83 107 130 139 128 115 135 150 136 127 92 114 149 160 170 191 202 184 166 76 5 0 0 0 0 0 0 0 0 0 0 0 0 0 0 0 0 0 0 0 0 0 0 0 0 0 0 0 0 0 0 0 0 0 0 0 0 0 0 
0 0 0 0 0 0 0 0 0 0 0 0 6 13 93 147 170 178 157 149 146 146 139 150 133 118 107 106 123 117 119 97 109 117 106 89 73 70 73 71 67 67 72 86 94 97 74 73 75 91 115 122 131 117 110 110 112 95 78 76 92 98 91 80 75 73 71 70 70 72 84 110 129 131 142 131 156 149 134 94 124 149 161 165 184 204 186 170 90 6 0 0 0 0 0 0 0 0 0 0 0 0 0 0 0 0 0 0 0 0 0 0 0 0 0 0 0 0 0 0 0 0 0 0 0 0 0 0 
0 0 0 0 0 0 0 0 0 0 0 0 7 12 96 151 173 178 159 150 143 141 150 158 141 127 110 107 127 118 120 115 124 102 77 69 70 72 74 72 67 62 60 62 76 97 97 81 75 98 128 125 128 123 117 121 115 91 75 91 98 77 81 85 87 88 87 86 86 92 93 104 122 120 126 149 151 171 146 100 124 144 155 154 171 199 188 175 102 8 0 0 0 0 0 0 0 0 0 0 0 0 0 0 0 0 0 0 0 0 0 0 0 0 0 0 0 0 0 0 0 0 0 0 0 0 0 0 
0 0 0 0 0 0 0 0 0 0 0 0 7 11 101 154 172 175 156 146 142 132 153 159 145 130 125 122 125 120 130 134 101 72 72 74 76 81 88 84 80 75 64 63 66 87 106 107 99 120 146 144 140 135 133 140 124 92 65 72 73 72 81 83 84 83 81 85 87 90 92 105 124 125 124 152 157 170 163 109 114 142 148 149 162 193 189 176 120 15 0 0 0 0 0 0 0 0 0 0 0 0 0 0 0 0 0 0 0 0 0 0 0 0 0 0 0 0 0 0 0 0 0 0 0 0 0 0 
0 0 0 0 0 0 0 0 0 0 0 0 7 12 102 155 176 177 154 144 143 122 154 150 135 126 129 134 134 131 142 129 78 67 79 88 88 87 82 78 76 75 75 79 79 84 107 113 114 116 138 152 160 143 150 138 116 75 58 68 65 67 69 73 77 77 79 85 84 92 103 114 133 137 125 138 154 166 173 119 105 134 141 136 148 179 187 176 133 25 0 0 0 0 0 0 0 0 0 0 0 0 0 0 0 0 0 0 0 0 0 0 0 0 0 0 0 0 0 0 0 0 0 0 0 0 0 0 
0 0 0 0 0 0 0 0 0 0 0 0 7 13 108 156 173 182 144 141 138 114 149 144 132 118 126 127 139 148 157 125 92 90 93 87 82 77 70 69 67 65 65 79 101 103 112 114 110 109 128 149 158 138 146 133 112 78 67 76 66 58 64 76 84 96 98 93 91 92 102 116 132 135 119 120 138 162 170 126 100 128 136 126 134 170 191 179 140 37 0 0 0 0 0 0 0 0 0 0 0 0 0 0 0 0 0 0 0 0 0 0 0 0 0 0 0 0 0 0 0 0 0 0 0 0 0 0 
0 0 0 0 0 0 0 0 0 0 0 0 6 15 112 156 173 184 143 144 130 111 140 145 119 111 120 127 137 138 148 111 105 107 102 101 96 85 79 73 70 70 75 89 106 117 109 110 105 101 127 144 134 126 139 139 124 93 80 77 60 57 71 96 101 95 95 94 93 94 100 114 133 132 120 112 133 156 165 132 99 114 128 123 127 154 184 179 144 47 1 0 0 0 0 0 0 0 0 0 0 0 0 0 0 0 0 0 0 0 0 0 0 0 0 0 0 0 0 0 0 0 0 0 0 0 0 0 
0 0 0 0 0 0 0 0 0 0 0 0 8 15 114 156 176 184 143 141 117 111 133 134 104 105 112 133 133 127 140 109 102 102 99 97 102 99 95 87 80 76 87 106 110 113 109 104 101 97 122 125 118 129 129 135 131 106 91 73 58 70 86 89 95 97 95 95 97 98 100 115 140 133 118 114 135 158 165 134 96 109 127 128 125 137 169 174 147 55 2 0 0 0 0 0 0 0 0 0 0 0 0 0 0 0 0 0 0 0 0 0 0 0 0 0 0 0 0 0 0 0 0 0 0 0 0 0 
0 0 0 0 0 0 0 0 0 0 0 0 7 15 113 157 177 176 129 125 110 102 127 119 99 102 114 155 155 131 134 104 84 87 85 79 78 83 91 95 91 96 108 114 106 100 104 107 107 104 129 119 109 120 120 135 145 125 94 71 79 76 69 68 75 92 98 96 94 97 103 112 135 132 117 116 138 157 162 135 97 109 112 129 122 121 157 176 150 61 2 0 0 0 0 0 0 0 0 0 0 0 0 0 0 0 0 0 0 0 0 0 0 0 0 0 0 0 0 0 0 0 0 0 0 0 0 0 
0 0 0 0 0 0 0 0 0 0 0 0 8 18 111 159 179 172 111 118 108 101 113 114 102 102 114 161 168 146 126 98 80 77 77 77 76 75 88 89 77 84 107 122 117 105 99 94 88 106 135 121 106 99 105 117 145 138 106 88 72 59 62 64 71 87 94 94 96 96 101 111 128 130 115 117 140 152 153 133 99 109 111 133 123 113 138 170 150 67 2 0 0 0 0 0 0 0 0 0 0 0 0 0 0 0 0 0 0 0 0 0 0 0 0 0 0 0 0 0 0 0 0 0 0 0 0 0 
0 0 0 0 0 0 0 0 0 0 0 0 8 14 108 161 180 164 110 118 107 106 105 116 111 98 118 150 166 152 134 107 79 76 74 78 78 74 84 91 83 88 104 114 109 111 109 96 90 111 128 122 107 108 114 112 134 139 103 90 74 69 66 68 77 87 87 88 93 95 97 112 125 124 112 121 145 153 153 131 106 112 103 131 121 109 136 172 150 69 2 0 0 0 0 0 0 0 0 0 0 0 0 0 0 0 0 0 0 0 0 0 0 0 0 0 0 0 0 0 0 0 0 0 0 0 0 0 
0 0 0 0 0 0 0 0 0 0 0 0 8 15 100 163 180 152 114 110 109 112 102 118 116 100 119 144 156 153 138 118 79 77 77 81 77 74 81 90 92 96 104 109 106 103 107 90 82 109 111 113 98 90 107 105 116 142 101 88 71 63 62 72 81 89 87 87 94 98 101 111 127 125 111 122 155 162 145 131 113 113 98 131 114 111 137 174 143 66 2 0 0 0 0 0 0 0 0 0 0 0 0 0 0 0 0 0 0 0 0 0 0 0 0 0 0 0 0 0 0 0 0 0 0 0 0 0 
0 0 0 0 0 0 0 0 0 0 0 0 5 14 90 162 176 144 120 110 112 114 95 116 119 101 120 141 148 155 144 130 85 78 79 78 77 80 78 83 94 104 108 108 103 97 108 87 83 115 109 91 94 85 96 96 111 140 123 88 69 58 60 70 78 83 87 91 100 101 101 112 128 119 103 124 156 151 123 136 115 107 96 134 105 112 140 172 139 61 2 0 0 0 0 0 0 0 0 0 0 0 0 0 0 0 0 0 0 0 0 0 0 0 0 0 0 0 0 0 0 0 0 0 0 0 0 0 
0 0 0 0 0 0 0 0 0 0 0 0 2 14 83 158 175 143 122 107 110 115 92 106 123 105 117 142 144 148 149 135 99 86 83 84 84 90 88 92 101 113 112 104 97 89 98 80 84 109 107 91 94 94 101 107 103 120 149 105 69 62 64 70 75 87 90 95 98 96 100 102 113 105 99 124 150 134 106 139 119 100 105 135 90 118 147 166 133 54 1 0 0 0 0 0 0 0 0 0 0 0 0 0 0 0 0 0 0 0 0 0 0 0 0 0 0 0 0 0 0 0 0 0 0 0 0 0 
0 0 0 0 0 0 0 0 0 0 0 0 1 13 77 153 169 149 124 104 108 120 96 98 124 111 116 142 144 147 152 138 108 91 90 85 93 103 96 97 109 114 106 104 98 91 97 83 92 122 94 92 90 101 110 105 103 110 141 123 96 67 61 71 83 92 90 91 91 94 98 95 105 100 96 123 144 126 103 135 124 98 118 124 82 124 158 164 125 45 1 0 0 0 0 0 0 0 0 0 0 0 0 0 0 0 0 0 0 0 0 0 0 0 0 0 0 0 0 0 0 0 0 0 0 0 0 0 
0 0 0 0 0 0 0 0 0 7 5 0 0 12 69 147 163 152 128 104 103 120 101 88 115 118 118 144 140 135 145 134 112 95 94 84 95 100 89 97 114 120 107 104 105 110 105 88 104 114 94 95 96 108 111 104 108 114 122 134 132 132 86 73 88 88 87 84 89 93 94 85 99 95 98 133 146 125 122 137 123 99 126 109 80 123 164 151 108 35 1 0 0 0 0 0 0 0 0 0 0 0 0 0 0 0 0 0 0 0 0 0 0 0 0 0 0 0 0 0 0 0 0 0 0 0 0 0 
0 0 0 0 0 0 0 0 0 0 6 2 0 9 55 137 160 151 124 106 94 116 104 90 100 118 128 147 126 118 129 130 117 97 90 85 90 98 88 102 120 127 115 109 118 133 122 95 123 112 107 104 100 104 108 115 115 109 107 128 118 117 118 114 94 83 83 88 89 87 81 80 100 93 108 144 125 90 111 142 138 114 122 94 88 119 164 137 102 30 1 0 0 0 0 0 0 0 0 0 0 0 0 0 0 0 0 0 0 0 0 0 0 0 0 0 0 0 0 0 0 0 0 0 0 0 0 0 
0 0 0 0 0 0 0 0 0 0 7 8 1 8 44 128 159 149 119 110 91 104 109 91 95 112 135 146 113 123 138 116 123 110 92 91 95 95 89 102 120 127 115 124 149 140 110 104 137 104 108 111 107 111 110 106 118 110 106 125 125 115 92 116 124 125 117 101 95 90 73 84 103 101 128 136 107 94 108 151 150 122 118 85 93 133 164 126 95 23 0 0 0 0 0 0 0 0 0 0 0 0 0 0 0 0 0 0 0 0 0 0 0 0 0 0 0 0 0 0 0 0 0 0 0 0 0 0 
0 0 0 0 0 0 0 0 0 0 4 10 0 10 37 114 155 143 118 111 96 99 118 97 95 105 144 148 111 123 134 115 110 117 97 92 87 88 106 111 124 136 137 141 150 137 104 116 137 104 113 118 111 120 111 106 111 110 107 119 139 111 77 109 143 163 166 157 149 135 106 112 139 145 148 122 97 111 133 156 149 132 114 83 100 148 154 112 93 16 0 0 0 7 6 0 0 0 0 0 0 0 0 0 0 0 0 0 0 0 0 0 0 0 0 0 0 0 0 0 0 0 0 0 0 0 0 0 
0 0 0 0 0 0 0 0 0 0 2 9 1 7 30 103 152 151 125 118 108 95 112 109 91 103 144 145 114 118 119 100 91 104 102 105 117 127 127 119 131 137 120 109 116 131 110 113 142 111 112 115 113 116 110 88 93 88 101 125 136 91 81 92 112 133 133 126 126 145 156 158 149 137 138 111 126 135 135 150 157 134 123 86 108 155 114 100 87 9 2 2 6 0 0 0 0 0 0 0 0 0 0 0 0 0 0 0 0 0 0 0 0 0 0 0 0 0 0 0 0 0 0 0 0 0 0 0 
0 0 0 0 0 0 0 0 0 0 0 7 5 7 23 93 143 161 139 122 116 95 97 115 101 109 144 145 118 116 106 94 77 83 122 139 136 134 127 113 116 129 125 108 96 101 88 102 141 111 106 114 98 113 100 69 72 76 90 108 121 91 105 116 123 111 96 96 107 125 136 147 138 133 126 98 128 148 136 156 168 140 110 113 167 155 101 114 80 6 0 0 6 4 0 0 0 0 0 0 0 0 0 0 0 0 0 0 0 0 0 0 0 0 0 0 0 0 0 0 0 0 0 0 0 0 0 0 
0 0 0 0 0 0 0 0 0 0 0 7 7 9 15 81 133 159 153 119 122 105 93 123 115 104 148 152 119 122 117 120 117 106 123 140 131 135 136 137 118 115 91 74 78 86 69 80 123 106 90 88 93 108 86 65 73 67 78 96 108 101 115 120 134 129 116 106 103 139 136 140 133 139 133 119 135 157 156 169 181 147 119 164 188 138 100 120 67 4 0 1 1 1 0 0 0 0 0 0 0 0 0 0 0 0 0 0 0 0 0 0 0 0 0 0 0 0 0 0 0 0 0 0 0 0 0 0 
0 0 0 0 0 0 0 0 0 0 0 6 9 12 13 60 118 156 158 128 118 128 112 122 137 123 146 157 132 113 141 148 154 152 149 141 126 131 127 111 74 78 83 74 66 63 64 88 100 102 90 73 84 97 86 83 83 80 84 106 113 105 130 142 138 134 155 160 157 164 158 160 159 140 106 127 123 157 165 180 203 192 157 197 193 140 130 114 41 4 1 0 1 0 0 0 0 0 0 0 0 0 0 0 0 0 0 0 0 0 0 0 0 0 0 0 0 0 0 0 0 0 0 0 0 0 0 0 
0 0 0 0 0 0 0 0 0 0 0 7 12 12 9 41 112 148 156 149 129 166 132 143 154 148 140 142 149 141 156 170 163 159 152 126 105 104 108 95 100 102 95 71 68 65 82 108 89 93 90 79 79 112 102 88 73 82 74 93 105 119 128 135 132 136 143 133 153 173 160 150 154 112 109 105 112 135 153 190 210 201 188 208 174 122 112 94 19 5 3 1 1 0 0 0 0 0 0 0 0 0 0 0 0 0 0 0 0 0 0 0 0 0 0 0 0 0 0 0 0 0 0 0 0 0 0 0 
0 0 0 0 0 0 0 0 0 0 0 4 5 8 11 16 66 132 152 158 153 168 198 178 165 159 155 146 140 156 171 166 163 144 155 152 132 102 111 114 113 111 108 91 82 88 94 104 100 89 79 81 85 109 104 92 76 82 81 84 98 100 125 147 138 130 126 128 141 156 144 137 152 124 101 117 139 152 161 167 176 166 166 173 155 140 122 105 21 6 2 2 3 0 0 0 0 0 0 0 0 0 0 0 0 0 0 0 0 0 0 0 0 0 0 0 0 0 0 0 0 0 0 0 0 0 0 0 
0 0 0 0 0 0 0 0 0 0 0 7 3 4 10 12 41 123 154 150 175 173 175 166 149 144 163 155 134 162 168 162 174 149 144 150 155 147 141 133 127 123 119 106 91 96 117 94 96 88 73 77 84 116 107 108 91 71 73 88 97 99 105 133 135 124 122 133 152 150 136 120 113 89 89 113 129 145 154 163 152 159 139 134 126 136 128 73 12 5 2 3 4 0 0 0 0 0 0 0 0 0 0 0 0 0 0 0 0 0 0 0 0 0 0 0 0 0 0 0 0 0 0 0 0 0 0 0 
0 0 0 0 0 0 0 0 0 0 0 7 2 1 9 11 22 98 149 142 152 181 177 172 183 170 184 165 141 136 145 159 162 164 160 150 143 141 124 134 130 118 107 100 88 94 122 77 75 95 105 97 92 126 132 116 83 71 73 93 107 121 124 129 95 79 109 140 142 151 147 111 113 127 142 144 126 138 144 150 156 164 119 109 124 129 119 37 8 4 2 0 5 0 0 0 0 0 0 0 0 0 0 0 0 0 0 0 0 0 0 0 0 0 0 0 0 0 0 0 0 0 0 0 0 0 0 0 
0 0 0 0 0 0 0 0 0 0 0 8 3 2 4 8 14 67 140 156 136 169 175 169 172 183 186 174 146 155 147 149 161 170 155 137 127 135 112 108 99 100 101 88 92 114 134 71 79 100 122 117 93 99 113 107 81 83 93 101 93 107 126 138 115 82 99 124 122 131 122 115 116 132 158 159 157 142 132 137 133 133 119 113 122 111 86 14 11 9 1 0 3 2 0 0 0 0 0 0 0 0 0 0 0 0 0 0 0 0 0 0 0 0 0 0 0 0 0 0 0 0 0 0 0 0 0 0 
0 0 0 0 0 0 0 0 0 0 0 4 7 3 2 5 10 39 119 146 124 142 163 159 170 176 158 143 144 174 175 153 142 150 160 159 143 138 136 97 86 81 97 109 102 106 137 94 102 119 126 124 104 101 126 125 101 91 97 107 90 115 134 140 134 102 101 110 117 109 87 118 135 148 157 162 171 167 148 141 133 119 113 105 104 118 48 8 5 7 1 0 0 3 0 0 0 0 0 0 0 0 0 0 0 0 0 0 0 0 0 0 0 0 0 0 0 0 0 0 0 0 0 0 0 0 0 0 
0 0 0 0 0 0 0 0 0 0 0 0 8 9 1 7 13 20 90 115 98 121 163 162 162 166 163 136 132 164 170 139 125 124 137 144 144 142 133 95 73 83 107 100 107 125 136 132 129 109 129 137 127 124 150 148 130 112 110 122 114 131 128 140 129 126 109 110 102 94 109 125 142 139 147 160 176 178 186 166 156 122 103 90 79 91 24 11 7 10 3 0 1 4 0 0 0 0 0 0 0 0 0 0 0 0 0 0 0 0 0 0 0 0 0 0 0 0 0 0 0 0 0 0 0 0 0 0 
0 0 0 0 0 0 0 0 0 0 0 0 1 8 7 9 13 12 58 124 106 108 158 176 164 172 175 141 144 157 153 142 123 119 105 115 128 132 119 102 85 110 103 108 124 130 144 124 131 136 138 137 138 146 153 132 131 142 135 134 132 140 135 148 143 141 114 88 87 109 109 133 142 114 135 167 185 186 198 192 149 116 96 75 87 64 17 15 8 9 6 0 2 3 0 0 0 0 0 0 0 0 0 0 0 0 0 0 0 0 0 0 0 0 0 0 0 0 0 0 0 0 0 0 0 0 0 0 
0 0 0 0 0 0 0 0 0 0 0 0 3 3 5 10 14 10 28 109 102 93 132 147 186 174 170 157 172 169 153 136 142 130 104 92 113 117 116 124 119 133 117 119 128 141 153 127 142 150 144 151 162 165 166 163 154 152 147 157 165 152 159 159 155 142 119 97 98 117 125 137 135 112 122 170 186 185 185 188 147 114 75 53 98 35 13 14 11 8 8 6 7 2 0 0 0 0 0 0 0 0 0 0 0 0 0 0 0 0 0 0 0 0 0 0 0 0 0 0 0 0 0 0 0 0 0 0 
0 0 0 0 0 0 0 0 0 0 0 3 1 2 5 9 13 11 12 74 109 88 118 138 189 172 160 167 166 167 160 148 134 138 123 111 106 116 128 140 164 138 133 142 152 166 162 155 168 161 160 171 174 170 174 178 176 159 141 144 155 168 171 173 153 132 123 133 144 138 125 119 122 122 123 158 151 191 185 181 137 111 42 65 77 19 12 10 12 8 3 3 2 0 0 0 0 0 0 0 0 0 0 0 0 0 0 0 0 0 0 0 0 0 0 0 0 0 0 0 0 0 0 0 0 0 0 0 
0 0 0 0 0 0 0 0 0 0 4 8 7 6 7 7 10 8 10 44 94 94 108 145 170 170 149 168 162 162 170 169 144 128 115 121 122 121 129 146 153 159 155 158 165 167 153 160 168 165 166 160 160 167 161 163 152 144 139 140 142 160 168 151 173 183 160 168 163 141 119 114 127 131 127 105 153 193 178 165 118 78 70 75 69 16 12 9 11 8 3 0 0 0 0 0 0 0 0 0 0 0 0 0 0 0 0 0 0 0 0 0 0 0 0 0 0 0 0 0 0 0 0 0 0 0 0 0 
0 0 0 0 0 0 0 0 0 0 0 7 14 13 8 3 3 9 8 31 94 109 102 108 121 140 158 167 172 142 155 179 155 127 106 102 111 121 129 136 139 157 171 167 171 181 174 163 166 177 171 163 166 171 177 159 147 140 121 110 125 141 150 163 191 186 157 151 153 131 102 97 104 119 144 127 165 168 155 153 103 72 74 107 68 17 12 9 7 11 3 0 0 0 0 0 0 0 0 0 0 0 0 0 0 0 0 0 0 0 0 0 0 0 0 0 0 0 0 0 0 0 0 0 0 0 0 0 
0 0 0 0 0 0 0 0 0 0 0 3 14 13 8 5 3 13 13 22 69 114 111 118 80 114 150 151 172 142 127 130 134 112 112 117 113 117 129 135 133 158 187 184 184 181 185 160 147 162 160 167 172 175 172 151 157 165 144 126 145 150 143 171 193 177 183 166 136 90 70 81 105 118 166 177 186 179 155 103 107 78 78 107 40 16 10 7 5 7 7 1 1 3 1 0 0 0 0 0 0 0 0 0 0 0 0 0 0 0 0 0 0 0 0 0 0 0 0 0 0 0 0 0 0 0 0 0 
0 0 0 0 0 0 0 0 0 0 0 6 13 9 5 8 6 11 17 18 31 90 123 134 94 101 129 164 177 157 140 107 125 113 90 105 118 127 135 128 128 165 193 194 188 184 192 159 139 143 158 175 175 183 163 138 154 169 159 137 159 158 151 177 197 168 166 144 130 111 81 92 109 131 176 178 196 161 148 94 68 64 65 71 14 18 11 6 4 0 6 12 11 9 9 0 0 0 0 0 0 0 0 0 0 0 0 0 0 0 0 0 0 0 0 0 0 0 0 0 0 0 0 0 0 0 0 0 
0 0 0 0 0 0 0 0 0 0 0 2 12 12 8 9 9 8 13 16 19 45 105 132 121 117 108 163 185 168 163 121 108 124 94 84 83 81 88 100 147 176 185 189 188 169 185 159 133 137 174 177 163 197 193 166 164 167 162 140 172 160 145 172 169 143 165 172 167 150 127 114 136 157 168 164 151 98 110 63 49 66 96 32 8 13 11 9 3 7 5 4 10 9 3 0 0 0 0 0 0 0 0 0 0 0 0 0 0 0 0 0 0 0 0 0 0 0 0 0 0 0 0 0 0 0 0 0 
0 0 0 0 0 0 0 0 0 0 0 0 9 13 6 7 4 6 10 12 23 31 60 108 115 121 125 150 162 163 182 148 119 111 106 87 79 79 89 151 120 173 171 188 193 164 151 144 141 144 179 180 181 208 210 174 142 146 149 150 163 140 165 194 168 178 191 168 158 192 160 126 132 143 109 85 99 101 107 74 77 78 47 19 4 5 4 8 8 6 4 3 9 3 0 0 0 0 0 0 0 0 0 0 0 0 0 0 0 0 0 0 0 0 0 0 0 0 0 0 0 0 0 0 0 0 0 0 
0 0 0 0 0 0 0 0 0 0 0 0 1 3 5 5 3 1 6 14 16 26 37 64 80 89 115 97 98 135 164 148 143 139 122 99 93 89 127 184 187 190 169 179 206 206 185 162 177 179 200 220 207 202 199 186 166 171 191 196 180 158 197 222 205 211 201 221 191 128 157 147 80 76 59 74 84 99 104 74 53 37 22 15 14 6 2 3 4 7 4 8 12 0 0 0 0 0 0 0 0 0 0 0 0 0 0 0 0 0 0 0 0 0 0 0 0 0 0 0 0 0 0 0 0 0 0 0 
0 0 0 0 0 0 0 0 0 0 0 0 0 0 2 3 1 0 0 7 13 25 24 36 68 90 89 36 31 42 102 92 125 141 136 141 142 153 178 201 196 174 186 201 206 212 214 147 153 165 177 207 182 178 173 146 119 102 118 138 166 180 197 206 170 174 193 196 169 166 125 119 126 99 76 100 106 118 87 44 33 33 40 19 15 1 2 2 3 4 4 11 7 0 0 0 0 0 0 0 0 0 0 0 0 0 0 0 0 0 0 0 0 0 0 0 0 0 0 0 0 0 0 0 0 0 0 0 
0 0 0 0 0 0 0 0 0 0 0 0 0 1 2 5 5 4 1 3 9 10 18 23 37 42 30 26 48 35 76 63 53 58 72 102 76 75 87 90 108 117 119 167 165 141 138 103 123 108 102 125 131 125 125 121 90 64 77 74 79 94 69 142 127 170 136 70 65 75 86 108 76 47 51 87 97 113 59 28 27 29 19 3 3 2 7 8 5 2 0 2 1 0 0 0 0 0 0 0 0 0 0 0 0 0 0 0 0 0 0 0 0 0 0 0 0 0 0 0 0 0 0 0 0 0 0 0 
0 0 0 0 0 0 0 0 0 0 0 0 0 0 2 0 2 4 3 0 5 8 12 18 22 25 23 23 45 41 73 68 41 38 62 107 88 71 81 73 95 87 66 69 100 119 72 58 72 80 79 98 110 116 118 114 98 67 64 61 83 92 62 63 67 106 82 98 110 101 100 75 44 33 39 86 99 108 52 28 29 28 16 2 3 2 5 2 1 0 1 2 1 0 0 0 0 0 0 0 0 0 0 0 0 0 0 0 0 0 0 0 0 0 0 0 0 0 0 0 0 0 0 0 0 0 0 0 
0 0 0 0 0 0 0 0 0 0 0 0 0 0 0 0 0 0 0 0 3 6 8 18 20 27 27 25 48 54 78 83 65 65 71 96 85 66 152 176 184 167 97 79 87 114 97 71 99 92 76 89 86 83 84 86 94 88 91 93 119 123 109 109 139 161 126 78 103 120 128 82 70 86 93 118 110 103 52 36 29 23 17 4 1 0 0 0 0 0 0 0 0 0 0 0 0 0 0 0 0 0 0 0 0 0 0 0 0 0 0 0 0 0 0 0 0 0 0 0 0 0 0 0 0 0 0 0 
0 0 0 0 0 0 0 0 0 0 0 0 0 0 0 0 0 0 0 0 0 0 3 10 11 21 33 30 51 67 80 97 67 82 72 98 98 90 141 145 150 160 181 149 146 163 144 164 120 91 84 105 101 102 98 106 127 132 129 148 171 184 179 176 153 183 134 103 123 118 175 137 121 118 118 136 121 99 60 50 18 4 0 0 0 0 0 0 0 0 0 0 0 0 0 0 0 0 0 0 0 0 0 0 0 0 0 0 0 0 0 0 0 0 0 0 0 0 0 0 0 0 0 0 0 0 0 0 
0 0 0 0 0 0 0 0 0 0 0 0 0 0 0 0 0 0 0 0 0 0 0 7 13 12 21 26 50 71 68 77 71 85 72 91 89 89 159 98 129 157 203 190 173 195 133 163 176 163 123 120 126 125 124 145 178 165 135 138 149 192 193 197 160 185 141 154 105 179 174 149 101 69 49 91 91 80 64 61 29 9 0 0 0 0 0 0 0 0 0 0 0 0 0 0 0 0 0 0 0 0 0 0 0 0 0 0 0 0 0 0 0 0 0 0 0 0 0 0 0 0 0 0 0 0 0 0 
0 0 0 0 0 0 0 0 0 0 0 0 0 0 0 0 0 0 0 0 0 0 0 2 10 14 27 38 46 68 64 86 65 90 102 126 119 133 116 69 129 133 127 113 118 174 144 177 154 109 106 97 98 92 91 87 101 89 78 81 104 115 94 134 173 127 124 99 119 104 100 99 60 80 86 113 111 70 43 41 15 6 2 0 1 3 5 5 3 2 0 0 0 0 0 0 0 0 0 0 0 0 0 0 0 0 0 0 0 0 0 0 0 0 0 0 0 0 0 0 0 0 0 0 0 0 0 0 
0 0 0 0 0 0 0 0 0 0 0 0 0 0 0 0 0 0 0 0 0 0 2 2 12 14 18 26 27 54 54 79 54 59 68 79 62 87 147 133 111 95 84 84 94 157 175 172 111 110 92 79 84 79 110 71 77 88 88 82 97 104 93 80 97 144 146 152 120 76 79 95 63 56 84 105 97 55 30 21 12 12 2 0 0 0 3 4 3 1 0 0 0 0 0 0 0 0 0 0 0 0 0 0 0 0 0 0 0 0 0 0 0 0 0 0 0 0 0 0 0 0 0 0 0 0 0 0 
0 0 0 0 0 0 0 0 0 0 0 0 0 0 0 0 0 0 0 0 0 0 0 4 9 13 15 23 23 41 52 74 65 64 66 52 35 41 65 79 89 88 98 128 112 148 169 149 121 104 92 80 86 83 82 75 108 111 105 85 97 103 93 77 69 120 141 146 133 81 65 68 68 48 82 113 103 62 30 18 16 13 4 0 0 0 2 4 4 2 0 0 0 0 0 0 0 0 0 0 0 0 0 0 0 0 0 0 0 0 0 0 0 0 0 0 0 0 0 0 0 0 0 0 0 0 0 0 
0 0 0 0 0 0 0 0 0 0 0 0 0 0 0 0 0 0 0 0 0 0 0 1 7 12 13 23 22 36 55 74 82 62 77 41 30 40 71 109 109 90 82 101 108 139 141 111 128 119 94 77 84 83 82 89 97 89 102 90 101 120 135 112 97 104 133 143 134 104 70 46 62 48 75 111 100 60 27 16 16 12 2 0 0 0 2 3 3 2 0 0 0 0 0 0 0 0 0 0 0 0 0 0 0 0 0 0 0 0 0 0 0 0 0 0 0 0 0 0 0 0 0 0 0 0 0 0 
0 0 0 0 0 0 0 0 0 0 0 0 0 0 0 0 0 0 0 0 0 0 0 1 3 11 11 19 22 32 43 61 88 68 82 46 62 84 80 67 76 71 76 89 112 143 143 114 127 141 111 72 80 86 91 95 95 90 99 101 100 140 114 95 93 99 106 122 131 119 109 77 68 63 66 109 84 44 23 15 15 11 1 0 0 0 2 4 4 2 0 0 0 0 0 0 0 0 0 0 0 0 0 0 0 0 0 0 0 0 0 0 0 0 0 0 0 0 0 0 0 0 0 0 0 0 0 0 
0 0 0 0 0 0 0 0 0 0 0 0 0 0 0 0 0 0 0 0 0 0 0 0 2 9 10 14 19 31 39 55 85 76 89 58 91 66 43 56 60 65 73 91 120 137 136 130 129 113 120 79 76 94 83 71 77 76 85 104 110 123 122 111 102 111 103 90 89 102 98 102 96 88 70 105 78 40 21 15 14 9 0 0 0 0 3 4 5 3 1 0 0 0 0 0 0 0 0 0 0 0 0 0 0 0 0 0 0 0 0 0 0 0 0 0 0 0 0 0 0 0 0 0 0 0 0 0 
0 0 0 0 0 0 0 0 0 0 0 0 0 0 0 0 0 0 0 0 0 0 0 0 1 3 10 8 15 26 36 58 90 85 89 67 100 61 49 50 52 75 78 111 114 119 113 104 93 86 112 107 86 83 77 73 73 74 87 120 126 101 129 117 115 108 122 83 69 55 61 68 106 111 93 107 79 38 18 16 13 6 0 0 0 0 1 3 4 3 1 0 0 0 0 0 0 0 0 0 0 0 0 0 0 0 0 0 0 0 0 0 0 0 0 0 0 0 0 0 0 0 0 0 0 0 0 0 
0 0 0 0 0 0 0 0 0 0 0 0 0 0 0 0 0 0 0 0 0 0 0 0 1 1 7 10 11 20 37 61 79 88 78 61 96 61 53 42 50 79 94 122 102 111 108 84 64 66 95 118 119 89 83 90 87 96 105 130 117 82 104 116 118 94 122 97 76 52 49 59 103 101 116 101 54 27 16 19 17 6 0 0 0 0 1 3 4 3 1 0 0 0 0 0 0 0 0 0 0 0 0 0 0 0 0 0 0 0 0 0 0 0 0 0 0 0 0 0 0 0 0 0 0 0 0 0 
0 0 0 0 0 0 0 0 0 0 0 0 0 0 0 0 0 0 0 0 0 0 0 0 0 1 3 7 12 17 24 30 48 49 52 61 98 73 54 40 51 84 100 90 74 98 108 82 55 58 91 111 123 121 107 87 91 112 119 113 83 61 87 110 125 82 79 94 88 55 47 70 105 71 79 37 20 19 17 20 17 6 0 0 0 0 0 3 4 3 1 0 0 0 0 0 0 0 0 0 0 0 0 0 0 0 0 0 0 0 0 0 0 0 0 0 0 0 0 0 0 0 0 0 0 0 0 0 
0 0 0 0 0 0 0 0 0 0 0 0 0 0 0 0 0 0 0 0 0 0 0 0 0 0 3 5 11 18 20 22 19 14 32 68 114 96 49 41 48 76 81 54 54 67 105 92 58 64 74 90 111 116 110 102 113 121 115 90 71 66 95 105 112 73 57 80 91 55 41 76 122 90 58 22 16 17 17 19 14 6 0 0 0 0 1 3 4 3 1 0 0 0 0 0 0 0 0 0 0 0 0 0 0 0 0 0 0 0 0 0 0 0 0 0 0 0 0 0 0 0 0 0 0 0 0 0 
0 0 0 0 0 0 0 0 0 0 0 0 0 0 0 0 0 0 0 0 0 0 0 0 0 0 2 5 7 14 19 18 19 20 19 36 94 99 47 35 51 86 86 50 52 63 94 81 73 92 80 82 103 111 118 122 132 128 108 81 68 62 85 105 116 66 52 86 111 67 42 64 116 75 35 20 15 16 18 19 13 6 1 0 0 0 0 2 3 3 2 0 0 0 0 0 0 0 0 0 0 0 0 0 0 0 0 0 0 0 0 0 0 0 0 0 0 0 0 0 0 0 0 0 0 0 0 0 
0 0 0 0 0 0 0 0 0 0 0 0 0 0 0 0 0 0 0 0 0 0 0 0 0 0 0 1 6 9 17 17 16 19 20 13 37 85 78 57 79 112 90 52 58 72 116 85 76 97 101 98 101 114 125 132 139 139 116 91 82 82 80 100 124 79 52 83 130 117 84 94 88 32 24 18 13 15 18 14 11 6 1 0 0 0 0 1 3 3 2 0 0 0 0 0 0 0 0 0 0 0 0 0 0 0 0 0 0 0 0 0 0 0 0 0 0 0 0 0 0 0 0 0 0 0 0 0 
0 0 0 0 0 0 0 0 0 0 0 0 0 0 0 0 0 0 0 0 0 0 0 0 0 0 0 1 4 8 10 16 15 18 20 14 13 41 95 100 111 121 83 54 74 100 128 99 68 85 111 98 94 116 129 136 147 142 127 101 69 81 96 105 132 98 63 75 123 131 108 97 42 27 21 14 12 18 15 12 11 6 1 0 0 0 0 1 3 4 2 0 0 0 0 0 0 0 0 0 0 0 0 0 0 0 0 0 0 0 0 0 0 0 0 0 0 0 0 0 0 0 0 0 0 0 0 0 
0 0 0 0 0 0 0 0 0 0 0 0 0 0 0 0 0 0 0 0 0 0 0 0 0 0 0 0 3 8 9 15 16 16 21 15 11 19 32 68 83 88 79 69 83 115 133 103 64 72 106 105 109 126 137 146 148 142 136 126 94 75 102 112 139 111 75 76 97 92 66 34 26 29 18 11 12 16 12 11 9 6 1 0 0 0 0 2 4 4 2 0 0 0 0 0 0 0 0 0 0 0 0 0 0 0 0 0 0 0 0 0 0 0 0 0 0 0 0 0 0 0 0 0 0 0 0 0 
0 0 0 0 0 0 0 0 0 0 0 0 0 0 0 0 0 0 0 0 0 0 0 0 0 0 0 0 0 6 7 12 15 16 21 16 14 22 25 26 31 46 73 83 102 113 125 111 93 95 129 131 132 131 126 130 126 133 144 137 128 104 109 126 137 110 84 84 72 44 27 23 29 27 20 11 12 13 12 11 9 5 1 0 0 0 0 2 4 4 2 0 0 0 0 0 0 0 0 0 0 0 0 0 0 0 0 0 0 0 0 0 0 0 0 0 0 0 0 0 0 0 0 0 0 0 0 0 
0 0 0 0 0 0 0 0 0 0 0 0 0 0 0 0 0 0 0 0 0 0 0 0 0 0 0 0 0 6 5 12 12 18 20 18 15 19 25 28 32 34 46 71 88 86 103 117 110 115 130 139 135 116 100 100 96 109 130 131 131 129 135 133 121 80 69 59 42 39 26 25 30 24 19 12 12 12 13 9 8 4 0 0 0 0 0 2 3 3 2 0 0 0 0 0 0 0 0 0 0 0 0 0 0 0 0 0 0 0 0 0 0 0 0 0 0 0 0 0 0 0 0 0 0 0 0 0 
0 0 0 0 0 0 0 0 0 0 0 0 0 0 0 0 0 0 0 0 0 0 0 0 0 0 0 0 0 5 3 11 11 15 23 17 16 18 22 31 30 29 31 41 48 52 64 98 120 118 110 108 98 88 94 107 105 107 121 107 114 122 136 137 92 55 53 52 40 34 24 25 31 22 17 14 13 11 14 11 8 3 1 0 0 0 0 1 3 3 2 0 0 0 0 0 0 0 0 0 0 0 0 0 0 0 0 0 0 0 0 0 0 0 0 0 0 0 0 0 0 0 0 0 0 0 0 0 
