P2
# teste.pgm
128 99
93
0 0 0 0 0 0 0 0 0 0 0 0 0 0 0 0 0 0 0 0 0 0 0 0 0 0 0 0 0 0 0 0 0 0 0 0 0 0 0 0 0 0 0 0 0 0 0 0 0 0 0 0 0 0 0 0 0 0 0 0 0 0 0 0 0 0 0 0 0 0 0 0 0 0 0 0 0 0 0 0 0 0 0 0 0 0 0 0 0 0 0 0 0 0 0 1 2 0 0 0 0 0 0 0 0 0 0 0 0 0 0 0 0 0 0 0 0 0 0 0 0 0 0 0 0 0 0 0 
0 0 0 0 0 0 0 0 0 0 0 0 0 0 0 0 0 0 0 0 0 0 0 0 0 0 0 0 0 0 0 0 0 0 0 0 0 0 0 0 0 0 0 0 0 0 0 0 0 0 0 0 0 0 0 0 0 0 0 0 0 0 0 0 0 0 0 0 0 0 0 0 0 0 0 0 0 0 0 0 0 0 0 0 0 0 0 0 0 0 0 0 0 0 0 1 1 0 0 0 0 0 0 0 0 0 0 0 0 0 0 0 0 0 0 0 0 0 0 0 0 0 0 0 0 0 0 0 
0 0 0 0 0 0 0 0 0 0 0 0 0 0 0 0 0 0 0 0 0 0 0 0 0 0 0 0 0 0 0 0 0 0 0 0 0 0 0 0 0 0 0 0 0 0 0 0 0 0 0 1 2 2 1 0 0 0 0 0 0 0 0 0 0 0 0 0 0 0 0 0 0 0 0 0 0 0 0 0 0 0 0 0 0 0 0 0 0 0 0 0 0 0 0 1 1 0 0 0 0 0 0 0 0 0 0 0 0 0 0 0 0 0 0 0 0 0 0 0 0 0 0 0 0 0 0 0 
0 0 0 0 0 0 0 0 0 0 0 0 0 0 0 0 0 0 0 0 0 0 0 0 0 0 0 0 0 0 0 0 0 0 0 0 0 0 0 0 0 0 0 0 6 12 16 17 17 18 20 23 26 25 23 20 17 15 13 11 4 0 0 0 0 0 0 0 0 0 0 0 0 0 0 0 0 0 0 0 0 0 0 0 0 0 0 0 0 0 0 0 0 0 0 1 1 0 0 0 0 0 0 0 0 0 0 0 0 0 0 0 0 0 0 0 0 0 0 0 0 0 0 0 0 0 0 0 
0 0 0 0 0 0 0 0 0 0 0 0 0 0 0 0 0 0 0 0 0 0 0 0 0 0 0 0 0 0 0 0 0 0 0 0 0 0 0 0 5 13 18 22 23 31 47 64 78 87 91 93 93 93 93 92 88 79 65 48 30 20 16 10 2 0 0 0 0 0 0 0 0 0 0 0 0 0 0 0 0 0 0 0 0 0 0 0 0 0 0 0 0 0 0 1 1 0 0 0 0 0 0 0 0 0 0 0 0 0 0 0 0 0 0 0 0 0 0 0 0 0 0 0 0 0 0 0 
0 0 0 0 0 0 0 0 0 0 0 0 0 0 0 0 0 0 0 0 0 0 0 0 0 0 0 0 0 0 0 0 0 0 0 0 0 1 8 16 22 23 33 57 82 93 92 89 87 86 85 86 87 87 86 86 86 88 90 92 93 85 65 39 22 15 10 1 0 0 0 0 0 0 0 0 0 0 0 0 0 0 0 0 0 0 0 0 0 0 0 0 0 0 0 1 1 0 0 0 0 0 0 0 0 0 0 0 0 0 0 0 0 0 0 0 0 0 0 0 0 0 0 0 0 0 0 0 
0 0 0 0 0 0 0 0 0 0 0 0 0 0 0 0 0 0 0 0 0 0 0 0 0 0 0 0 0 0 0 0 0 0 0 0 8 20 23 24 46 78 93 90 86 85 85 85 83 82 81 80 80 80 80 80 81 83 85 86 86 88 91 93 87 64 35 17 12 1 0 0 0 0 0 0 0 0 0 0 0 0 0 0 0 0 0 0 0 0 0 0 0 0 0 1 1 0 0 0 0 0 0 0 0 0 0 0 0 0 0 0 0 0 0 0 0 0 0 0 0 0 0 0 0 0 0 0 
0 0 0 0 0 0 0 0 0 0 0 0 0 0 0 0 0 0 0 0 0 0 0 0 0 0 0 0 0 0 0 0 0 0 7 23 23 25 53 87 92 88 86 85 84 82 83 86 89 90 89 86 87 91 92 88 81 76 78 81 83 85 85 86 87 91 93 77 43 21 13 1 0 0 0 0 0 0 0 0 0 0 0 0 0 0 0 0 0 0 0 0 0 0 0 1 2 0 0 0 0 0 0 0 0 0 0 0 0 0 0 0 0 0 0 0 0 0 0 0 0 0 0 0 0 0 0 0 
0 0 0 0 0 0 0 0 0 0 0 0 0 0 0 0 0 0 0 0 0 0 0 0 0 0 0 0 0 0 0 0 4 25 24 22 51 88 91 88 87 86 84 82 83 88 91 93 93 93 93 93 93 93 93 93 93 90 80 74 76 79 82 84 85 86 86 89 93 78 41 22 10 0 0 0 0 0 0 0 0 0 0 0 0 0 0 0 0 0 0 0 0 0 0 1 1 0 0 0 0 0 0 0 0 0 0 0 0 0 0 0 0 0 0 0 0 0 0 0 0 0 0 0 0 0 0 0 
0 0 0 0 0 0 0 0 0 0 0 0 0 0 0 0 0 0 0 0 0 0 0 0 0 0 0 0 0 0 0 22 24 20 37 82 92 89 88 87 85 82 84 90 93 93 93 92 92 91 92 93 93 92 93 93 93 93 93 88 77 73 74 77 80 83 85 85 86 89 92 65 28 18 2 0 0 0 0 0 0 0 0 0 0 0 0 0 0 0 0 0 0 0 0 1 2 0 0 0 0 0 0 0 0 0 0 0 0 0 0 0 0 0 0 0 0 0 0 0 0 0 0 0 0 0 0 0 
0 0 0 0 0 0 0 0 0 0 0 0 0 0 0 0 0 0 0 0 0 0 0 0 0 0 0 0 0 9 26 21 24 67 92 89 88 87 85 82 80 86 92 93 93 93 93 92 91 91 91 92 91 91 92 93 93 93 93 93 92 85 76 72 72 76 80 82 85 85 86 91 85 41 21 5 0 0 0 0 0 0 0 0 0 0 0 0 0 0 0 0 0 0 0 1 2 0 0 0 0 0 0 0 0 0 0 0 0 0 0 0 0 0 0 0 0 0 0 0 0 0 0 0 0 0 0 0 
0 0 0 0 0 0 0 0 0 0 0 0 0 0 0 0 0 0 0 0 0 0 0 0 0 0 0 0 21 23 17 42 88 91 89 87 84 82 79 82 90 92 93 93 93 93 93 92 92 92 90 91 90 90 92 93 93 93 93 93 93 92 88 82 75 71 73 76 80 82 83 85 88 92 57 22 10 0 0 0 0 0 0 0 0 0 0 0 0 0 0 0 0 0 0 1 2 0 0 0 0 0 0 0 0 0 0 0 0 0 0 0 0 0 0 0 0 0 0 0 0 0 0 0 0 0 0 0 
0 0 0 0 0 0 0 0 0 0 0 0 0 0 0 0 0 0 0 0 0 0 0 0 0 0 4 24 19 18 62 92 90 88 85 82 79 79 86 91 92 93 93 93 93 93 93 93 93 92 89 89 88 88 91 93 93 93 93 93 93 93 92 90 86 80 74 71 73 77 81 83 85 88 92 68 23 12 0 0 0 0 0 0 0 0 0 0 0 0 0 0 0 0 0 1 2 0 0 0 0 0 0 0 0 0 0 0 0 0 0 0 0 0 0 0 0 0 0 0 0 0 0 0 0 0 0 0 
0 0 0 0 0 0 0 0 0 0 0 0 0 0 0 0 0 0 0 0 0 0 0 0 0 9 24 17 24 76 92 90 86 82 79 77 81 89 92 93 93 93 93 93 93 93 93 93 92 90 88 88 86 87 89 91 93 93 93 93 93 93 93 92 91 90 86 80 74 71 75 79 83 86 88 92 73 25 13 0 0 0 0 0 0 0 0 0 0 0 0 0 0 0 0 1 2 0 0 0 0 0 0 0 0 0 0 0 0 0 0 0 0 0 0 0 0 0 0 0 0 0 0 0 0 0 0 0 
0 0 0 0 0 0 0 0 0 0 0 0 0 0 0 0 0 0 0 0 0 0 0 0 13 21 15 31 83 92 90 85 81 77 79 86 91 92 93 93 93 93 93 93 93 93 91 90 89 88 87 86 86 87 87 88 90 92 93 93 93 93 93 93 93 93 92 90 88 82 76 74 77 82 86 87 92 78 28 12 0 0 0 0 0 0 0 0 0 0 0 0 0 0 0 1 2 0 0 0 0 0 0 0 0 0 0 0 0 0 0 0 0 0 0 0 0 0 0 0 0 0 0 0 0 0 0 0 
0 0 0 0 0 0 0 0 0 0 0 0 0 0 0 0 0 0 0 0 0 0 3 18 19 14 40 88 93 89 84 80 77 84 90 92 92 93 93 93 93 93 93 91 91 89 87 87 86 86 86 85 85 87 87 87 87 88 91 92 92 92 93 93 93 93 93 93 93 91 88 81 76 78 82 86 88 91 83 32 11 0 0 0 0 0 0 0 0 0 0 0 0 0 0 1 2 0 0 0 0 0 0 0 0 0 0 0 0 0 0 0 0 0 0 0 0 0 0 0 0 0 0 0 0 0 0 0 
0 0 0 0 0 0 0 0 0 0 0 0 0 0 0 0 0 0 0 0 0 5 16 16 15 49 91 93 89 83 78 79 89 92 93 93 93 93 93 93 93 92 91 91 88 86 86 85 86 86 86 84 84 86 87 87 87 87 88 89 89 90 91 92 93 93 93 93 93 93 93 91 86 79 78 82 85 87 92 86 35 8 0 0 0 0 0 0 0 0 0 0 0 0 0 1 2 0 0 0 0 0 0 0 0 0 0 0 0 0 0 0 0 0 0 0 0 0 0 0 0 0 0 0 0 0 0 0 
0 0 0 0 0 0 0 0 0 0 0 0 0 0 0 0 0 0 0 0 6 15 14 17 59 92 93 89 82 78 83 92 93 93 93 93 93 93 93 92 92 92 90 88 86 86 85 85 86 85 85 82 82 86 86 87 87 87 87 88 88 89 90 90 91 92 92 93 93 93 93 93 93 89 83 80 82 85 88 91 87 33 6 0 0 0 0 0 0 0 0 0 0 0 0 1 2 0 0 0 0 0 0 0 0 0 0 0 0 0 0 0 0 0 0 0 0 0 0 0 0 0 0 0 0 0 0 0 
0 0 0 0 0 0 0 0 0 0 0 0 0 0 0 0 0 0 0 5 15 12 18 63 93 93 89 83 78 85 92 93 93 93 93 93 92 92 91 90 89 88 87 86 86 85 84 85 85 83 84 81 81 85 85 86 87 87 87 87 87 88 88 89 89 89 90 91 92 93 92 93 93 93 91 85 80 82 84 89 92 85 26 3 0 0 0 0 0 0 0 0 0 0 0 1 2 0 0 0 0 0 0 0 0 0 0 0 0 0 0 0 0 0 0 0 0 0 0 0 0 0 0 0 0 0 0 0 
0 0 0 0 0 0 0 0 0 0 0 0 0 0 0 0 0 0 4 15 12 18 66 93 93 90 85 80 87 93 93 93 93 93 93 91 91 90 89 88 87 86 86 86 85 83 84 84 83 83 82 80 81 85 86 85 86 86 86 87 86 86 86 86 87 87 88 90 91 92 92 92 92 93 93 92 87 80 81 86 90 93 78 18 1 0 0 0 0 0 0 0 0 0 0 1 2 0 0 0 0 0 0 0 0 0 0 0 0 0 0 0 0 0 0 0 0 0 0 0 0 0 0 0 0 0 0 0 
0 0 0 0 0 0 0 0 0 0 0 0 0 0 0 0 0 1 14 12 18 65 93 93 91 86 80 88 93 93 93 93 93 92 91 89 89 88 87 87 86 85 85 83 83 83 83 82 83 81 78 78 80 84 85 85 86 85 85 86 87 86 85 85 85 86 87 89 90 91 91 91 92 92 93 93 93 89 80 83 87 91 93 66 10 0 0 0 0 0 0 0 0 0 0 1 2 0 0 0 0 0 0 0 0 0 0 0 0 0 0 0 0 0 0 0 0 0 0 0 0 0 0 0 0 0 0 0 
0 0 0 0 0 0 0 0 0 0 0 0 0 0 0 0 0 10 11 15 60 92 93 92 88 82 89 93 93 93 93 92 92 91 88 88 88 87 87 86 84 83 82 83 83 82 81 81 82 78 77 79 80 81 83 83 84 84 84 85 86 84 84 84 83 84 86 87 89 89 89 90 90 91 92 93 93 93 88 80 83 88 92 91 46 4 0 0 0 0 0 0 0 0 0 1 2 0 0 0 0 0 0 0 0 0 0 0 0 0 0 0 0 0 0 0 0 0 0 0 0 0 0 0 0 0 0 0 
0 0 0 0 0 0 0 0 0 0 0 0 0 0 0 0 5 11 13 51 90 93 93 90 84 88 93 93 93 92 92 91 90 88 87 87 87 87 86 84 83 82 82 82 81 80 80 80 78 76 77 79 79 81 81 80 82 82 81 81 82 83 83 82 82 81 83 86 87 88 88 88 89 89 90 92 93 93 93 87 80 85 90 93 84 23 1 0 0 0 0 0 0 0 0 1 2 0 0 0 0 0 0 0 0 0 0 0 0 0 0 0 0 0 0 0 0 0 0 0 0 0 0 0 0 0 0 0 
0 0 0 0 0 0 0 0 0 0 0 0 0 0 0 1 11 12 41 87 93 93 91 86 88 93 93 93 92 92 91 89 88 88 88 87 86 84 83 82 80 78 77 77 78 78 78 79 79 78 80 80 79 80 79 79 80 80 80 80 80 81 82 81 81 82 82 82 86 87 87 87 87 88 90 91 93 93 93 93 85 82 88 92 92 63 6 0 0 0 0 0 0 0 0 1 2 0 0 0 0 0 0 0 0 0 0 0 0 0 0 0 0 0 0 0 0 0 0 0 0 0 0 0 0 0 0 0 
0 0 0 0 0 0 0 0 0 0 0 0 0 0 0 7 10 24 78 91 93 92 88 88 93 93 92 92 92 91 90 88 88 87 86 85 84 83 81 79 76 76 77 78 77 78 79 79 79 79 81 81 79 79 78 78 78 78 78 79 79 79 81 81 81 81 82 82 84 85 86 86 86 87 89 90 92 92 92 93 92 85 86 90 93 86 27 1 0 0 0 0 0 0 0 1 2 0 0 0 0 0 0 0 0 0 0 0 0 0 0 0 0 0 0 0 0 0 0 0 0 0 0 0 0 0 0 0 
0 0 0 0 0 0 0 0 0 0 0 0 0 0 2 8 13 61 89 92 93 91 90 92 93 91 91 91 92 91 89 87 86 87 86 83 83 81 79 77 77 77 78 78 77 77 79 78 78 79 82 81 79 80 79 79 78 79 78 78 78 80 80 80 80 80 81 81 82 83 84 86 86 86 88 90 91 91 91 91 92 90 86 89 93 92 56 4 0 0 0 0 0 0 0 1 2 0 0 0 0 0 0 0 0 0 0 0 0 0 0 0 0 0 0 0 0 0 0 0 0 0 0 0 0 0 0 0 
0 0 0 0 0 0 0 0 0 0 0 0 0 0 5 8 36 84 91 93 92 91 93 93 91 90 91 91 91 90 88 86 86 85 84 81 80 80 79 77 77 77 77 77 78 79 79 79 78 79 82 83 81 81 76 77 79 79 78 78 77 78 79 79 79 79 79 80 81 82 82 85 86 85 87 90 91 91 91 90 91 93 90 89 92 93 79 16 0 0 0 0 0 0 0 1 2 0 0 0 0 0 0 0 0 0 0 0 0 0 0 0 0 0 0 0 0 0 0 0 0 0 0 0 0 0 0 0 
0 0 0 0 0 0 0 0 0 0 0 0 0 0 7 14 67 88 92 93 91 93 93 92 90 90 90 91 90 89 86 85 84 84 82 80 80 79 78 77 77 76 77 78 77 79 79 79 80 78 80 82 82 79 75 75 76 79 79 78 77 77 78 79 80 80 80 80 81 82 82 84 86 86 87 89 91 91 90 89 89 93 92 90 91 93 89 34 2 0 0 0 0 0 0 1 2 0 0 0 0 0 0 0 0 0 0 0 0 0 0 0 0 0 0 0 0 0 0 0 0 0 0 0 0 0 0 0 
0 0 0 0 0 0 0 0 0 0 0 0 0 2 6 33 82 90 93 92 92 93 93 90 89 89 90 91 89 87 86 85 84 83 81 81 80 78 77 77 77 77 77 77 77 79 80 80 80 78 77 78 82 76 74 73 75 77 76 77 78 78 77 78 79 81 80 81 81 81 82 83 85 86 86 89 91 91 89 88 88 93 93 90 91 93 91 51 3 0 0 0 0 0 0 1 2 0 0 0 0 0 0 0 0 0 0 0 0 0 0 0 0 0 0 0 0 0 0 0 0 0 0 0 0 0 0 0 
0 0 0 0 0 0 0 0 0 0 0 0 0 4 8 57 87 91 93 92 93 93 92 89 89 88 89 89 88 87 86 85 85 82 80 80 80 78 78 77 77 77 77 77 78 79 78 79 79 77 76 77 80 77 74 74 75 75 74 75 76 78 78 78 79 80 81 82 83 82 82 83 85 85 86 89 91 89 88 87 86 92 93 91 91 93 92 64 6 0 0 0 0 0 0 1 2 0 0 0 0 0 0 0 0 0 0 0 0 0 0 0 0 0 0 0 0 0 0 0 0 0 0 0 0 0 0 0 
0 0 0 0 0 0 0 0 0 0 0 0 0 5 16 74 89 92 93 93 92 92 91 88 87 87 88 88 86 86 86 86 85 81 81 81 80 79 77 78 79 77 76 76 79 78 77 78 78 77 76 76 80 76 75 75 75 75 75 75 75 76 78 80 80 80 82 82 83 83 83 83 84 85 85 88 89 88 87 87 86 90 93 92 91 93 93 74 10 0 0 0 0 0 0 1 2 0 0 0 0 0 0 0 0 0 0 0 0 0 0 0 0 0 0 0 0 0 0 0 0 0 0 0 0 0 0 0 
0 0 0 0 0 0 0 0 0 0 0 0 1 5 30 83 90 93 93 93 90 91 90 87 86 86 86 87 85 85 86 85 84 83 81 81 80 78 79 78 76 75 76 77 77 77 76 77 77 76 75 75 79 76 75 74 75 75 76 76 77 78 77 79 81 81 82 83 83 83 84 84 85 85 86 87 88 87 86 85 85 90 93 92 90 92 93 82 15 0 0 0 0 0 0 1 2 0 0 0 0 0 0 0 0 0 0 0 0 0 0 0 0 0 0 0 0 0 0 0 0 0 0 0 0 0 0 0 
0 0 0 0 0 0 0 0 0 0 0 0 1 6 43 86 91 93 93 91 89 90 90 87 84 84 85 86 84 84 85 85 84 83 81 82 80 79 77 74 75 75 75 75 76 76 76 75 75 75 75 76 76 75 74 73 73 74 75 77 77 78 78 78 80 83 82 84 85 84 84 84 84 85 85 87 86 85 85 83 83 89 93 93 90 92 93 87 24 1 0 0 0 0 0 1 2 0 0 0 0 0 0 0 0 0 0 0 0 0 0 0 0 0 0 0 0 0 0 0 0 0 0 0 0 0 0 0 
0 0 0 0 0 0 0 0 0 0 0 0 2 6 53 88 92 93 93 91 89 90 91 86 83 82 84 86 83 82 85 85 84 83 83 82 81 79 77 74 74 74 75 75 75 75 75 74 74 74 76 78 76 74 73 72 71 73 74 74 76 77 78 78 79 81 82 83 85 85 85 85 85 85 85 87 84 82 84 84 83 89 93 93 90 91 93 90 33 2 0 0 0 0 0 1 2 0 0 0 0 0 0 0 0 0 0 0 0 0 0 0 0 0 0 0 0 0 0 0 0 0 0 0 0 0 0 0 
0 0 0 0 0 0 0 0 0 0 0 0 2 8 59 89 93 93 93 91 89 90 90 87 83 81 84 84 81 82 85 85 84 83 83 83 81 80 80 77 76 75 74 75 74 74 74 74 74 74 76 78 76 74 72 72 71 71 72 74 74 76 77 77 76 80 82 84 87 87 86 86 85 86 85 86 82 81 83 82 83 91 93 93 90 90 93 92 43 2 0 0 0 0 0 1 2 0 0 0 0 0 0 0 0 0 0 0 0 0 0 0 0 0 0 0 0 0 0 0 0 0 0 0 0 0 0 0 
0 0 0 0 0 0 0 0 0 0 0 0 3 10 65 90 93 93 93 92 90 90 90 87 84 81 83 82 79 81 86 85 84 84 83 84 83 82 83 84 82 79 76 76 75 76 75 76 74 74 76 77 77 74 73 73 71 70 72 73 74 77 76 76 79 82 84 86 87 87 88 87 87 86 86 88 84 81 81 81 84 91 93 93 90 90 92 93 51 3 0 0 0 0 0 1 2 0 0 0 0 0 0 0 0 0 0 0 0 0 0 0 0 0 0 0 0 0 0 0 0 0 0 0 0 0 0 0 
0 0 0 0 0 0 0 0 0 0 0 0 3 11 68 91 93 93 93 92 91 91 91 88 85 82 82 82 79 81 87 85 85 85 86 85 82 78 76 76 74 75 78 79 78 76 76 76 75 75 77 76 79 75 73 73 71 69 71 72 73 76 79 81 78 76 75 76 77 79 82 85 89 90 88 89 88 83 81 83 87 91 93 93 90 89 92 93 60 5 0 0 0 0 0 1 2 0 0 0 0 0 0 0 0 0 0 0 0 0 0 0 0 0 0 0 0 0 0 0 0 0 0 0 0 0 0 0 
0 0 0 0 0 0 0 0 0 0 0 0 4 12 70 92 93 93 93 93 92 92 91 89 86 83 82 79 78 83 88 86 87 88 84 80 76 70 67 69 69 68 69 72 76 80 78 76 73 73 75 76 80 77 74 73 71 69 70 70 75 80 78 75 73 72 73 73 73 75 76 78 82 88 91 91 91 87 83 86 89 91 92 93 91 88 91 93 69 7 0 0 0 0 0 1 2 0 0 0 0 0 0 0 0 0 0 0 0 0 0 0 0 0 0 0 0 0 0 0 0 0 0 0 0 0 0 0 
0 0 0 0 0 0 0 0 0 0 0 0 5 13 72 92 93 93 93 93 92 92 92 91 89 86 83 79 79 86 88 88 89 83 77 73 71 68 67 70 69 68 68 69 71 74 78 78 73 74 75 77 79 79 76 74 71 69 69 73 79 73 72 71 72 74 75 75 76 78 77 76 77 82 90 93 92 91 87 88 89 90 91 93 93 89 91 93 76 10 0 0 0 0 0 1 2 0 0 0 0 0 0 0 0 0 0 0 0 0 0 0 0 0 0 0 0 0 0 0 0 0 0 0 0 0 0 0 
0 0 0 0 0 0 0 0 0 0 0 0 6 13 73 93 93 93 93 92 91 91 91 91 90 87 86 83 82 88 90 90 83 75 73 72 70 70 71 73 72 70 68 69 71 74 74 78 75 75 77 78 80 82 81 77 73 71 70 78 75 70 70 70 73 75 76 77 77 79 80 80 81 84 89 93 93 92 90 89 89 89 90 92 93 91 90 93 83 15 0 0 0 0 0 1 2 0 0 0 0 0 0 0 0 0 0 0 0 0 0 0 0 0 0 0 0 0 0 0 0 0 0 0 0 0 0 0 
0 0 0 0 0 0 0 0 0 0 0 0 7 13 73 93 93 93 92 91 91 91 90 89 89 89 87 86 89 89 91 88 77 74 72 71 70 71 72 71 71 71 69 69 70 71 75 76 77 76 79 82 85 84 86 80 75 72 71 78 70 67 66 69 73 75 77 78 78 80 81 80 83 87 89 91 92 92 92 90 88 87 88 90 92 92 91 93 87 22 0 0 0 0 0 1 2 0 0 0 0 0 0 0 0 0 0 0 0 0 0 0 0 0 0 0 0 0 0 0 0 0 0 0 0 0 0 0 
0 0 0 0 0 0 0 0 0 0 0 0 7 14 74 93 93 93 91 90 90 90 89 88 88 89 87 86 90 91 92 87 82 78 76 74 73 72 70 70 70 70 70 70 70 71 75 77 77 77 80 83 87 84 87 81 76 73 75 76 67 64 68 72 74 76 77 78 79 80 81 81 84 86 86 87 89 92 92 90 87 86 87 87 90 93 91 93 90 31 1 0 0 0 0 1 2 0 0 0 0 0 0 0 0 0 0 0 0 0 0 0 0 0 0 0 0 0 0 0 0 0 0 0 0 0 0 0 
0 0 0 0 0 0 0 0 0 0 0 0 7 15 75 93 93 92 90 90 90 89 88 86 86 86 86 86 89 90 90 88 86 82 79 77 76 74 71 70 71 71 71 71 71 72 73 76 76 77 80 84 85 83 85 84 79 77 77 73 65 66 71 74 75 75 76 76 77 78 80 81 82 83 85 85 87 91 92 90 86 84 84 84 87 92 92 93 91 38 2 0 0 0 0 1 2 0 0 0 0 0 0 0 0 0 0 0 0 0 0 0 0 0 0 0 0 0 0 0 0 0 0 0 0 0 0 0 
0 0 0 0 0 0 0 0 0 0 0 0 7 16 76 93 92 92 89 89 89 88 85 83 83 85 85 86 87 87 87 84 81 81 78 75 74 73 71 69 69 70 71 72 72 72 72 75 77 77 80 79 79 82 81 83 81 79 77 69 66 69 71 73 73 74 73 74 76 77 78 79 82 83 84 84 87 90 91 89 84 82 82 83 84 91 93 93 91 44 2 0 0 0 0 1 2 0 0 0 0 0 0 0 0 0 0 0 0 0 0 0 0 0 0 0 0 0 0 0 0 0 0 0 0 0 0 0 
0 0 0 0 0 0 0 0 0 0 0 0 7 16 77 93 92 92 88 88 86 85 82 79 80 83 84 87 87 85 85 83 78 78 75 73 71 72 71 69 68 69 71 72 71 71 72 73 76 78 82 81 78 79 79 83 81 82 79 70 69 69 71 70 68 71 72 73 75 76 78 78 80 81 82 83 87 90 90 90 85 81 80 81 81 88 93 93 92 49 3 0 0 0 0 1 2 0 0 0 0 0 0 0 0 0 0 0 0 0 0 0 0 0 0 0 0 0 0 0 0 0 0 0 0 0 0 0 
0 0 0 0 0 0 0 0 0 0 0 0 8 16 76 93 92 92 85 85 83 82 78 76 77 79 82 87 87 85 83 83 78 76 73 71 70 70 70 68 68 70 70 71 69 69 72 71 71 78 85 86 82 76 77 74 83 81 77 72 72 72 72 66 67 70 72 73 75 75 77 78 79 81 81 82 87 89 89 91 88 81 80 81 82 86 91 93 92 52 3 0 0 0 0 1 2 0 0 0 0 0 0 0 0 0 0 0 0 0 0 0 0 0 0 0 0 0 0 0 0 0 0 0 0 0 0 0 
0 0 0 0 0 0 0 0 0 0 0 0 7 16 75 93 92 92 85 83 80 80 78 77 77 77 83 86 86 85 83 82 79 75 73 72 71 71 71 70 68 68 70 71 70 71 73 70 68 76 84 86 78 72 73 67 77 84 73 74 72 71 68 67 69 71 72 73 74 75 76 76 77 79 80 83 87 89 91 91 89 82 79 80 82 86 90 93 92 53 3 0 0 0 0 1 2 0 0 0 0 0 0 0 0 0 0 0 0 0 0 0 0 0 0 0 0 0 0 0 0 0 0 0 0 0 0 0 
0 0 0 0 0 0 0 0 0 0 0 0 7 15 72 93 93 90 84 81 81 80 78 77 77 78 84 84 85 85 84 82 79 75 73 72 71 71 71 71 69 68 67 69 70 71 73 68 68 77 84 81 69 66 70 65 69 86 70 72 71 69 67 70 71 72 73 73 74 75 76 76 78 79 79 85 90 91 90 90 89 82 79 79 81 85 90 93 91 51 3 0 0 0 0 1 2 0 0 0 0 0 0 0 0 0 0 0 0 0 0 0 0 0 0 0 0 0 0 0 0 0 0 0 0 0 0 0 
0 0 0 0 0 0 0 0 0 0 0 0 5 14 67 93 93 89 83 81 80 80 78 77 76 78 83 84 84 85 86 83 79 78 74 71 72 73 72 71 70 69 66 65 66 69 71 67 70 78 81 72 68 67 71 64 65 82 78 71 69 67 66 71 71 71 73 74 75 75 75 75 78 77 78 85 91 90 89 90 88 81 79 78 81 84 90 93 90 48 2 0 0 0 0 1 2 0 0 0 0 0 0 0 0 0 0 0 0 0 0 0 0 0 0 0 0 0 0 0 0 0 0 0 0 0 0 0 
0 0 0 0 0 0 0 0 0 0 0 0 4 14 63 92 93 90 84 81 79 79 79 76 76 76 82 84 83 84 86 84 78 78 75 74 74 75 74 72 71 69 67 65 65 67 69 63 70 80 79 70 69 71 74 66 64 71 83 73 68 65 66 71 71 72 73 74 74 73 74 75 77 76 78 85 90 88 88 89 88 81 79 78 80 83 90 93 89 43 2 0 0 0 0 1 2 0 0 0 0 0 0 0 0 0 0 0 0 0 0 0 0 0 0 0 0 0 0 0 0 0 0 0 0 0 0 0 
0 0 0 0 0 0 0 0 0 0 0 0 2 13 59 92 93 91 84 81 79 78 78 78 76 74 80 84 84 84 86 84 78 77 75 74 75 75 74 74 71 69 65 65 64 66 66 64 73 81 73 69 68 73 77 69 66 64 81 78 75 69 68 71 72 73 73 73 72 72 73 76 75 75 77 84 88 88 87 89 87 80 79 78 79 83 91 93 86 39 2 0 0 0 0 1 2 0 0 0 0 0 0 0 0 0 0 0 0 0 0 0 0 0 0 0 0 0 0 0 0 0 0 0 0 0 0 0 
0 0 0 0 0 0 0 0 0 5 5 0 0 11 53 90 93 91 85 80 78 77 78 78 76 73 78 84 84 84 86 83 79 77 76 74 74 73 73 73 72 71 68 65 69 74 72 70 75 76 70 67 68 75 77 71 68 66 73 81 82 80 77 75 74 74 75 74 72 73 74 75 73 74 78 84 86 87 88 89 87 80 78 76 77 83 91 91 82 34 2 0 0 0 0 1 2 0 0 0 0 0 0 0 0 0 0 0 0 0 0 0 0 0 0 0 0 0 0 0 0 0 0 0 0 0 0 0 
0 0 0 0 0 0 0 0 0 3 8 3 0 9 45 88 93 91 85 80 77 77 78 78 75 72 79 85 85 84 85 83 78 76 76 75 74 73 72 73 76 76 74 70 72 74 76 72 78 72 70 67 68 74 74 72 71 68 70 84 86 86 82 77 75 73 74 75 73 71 71 73 73 73 78 85 86 86 88 90 89 81 76 76 77 83 92 90 78 30 1 0 0 0 0 1 2 0 0 0 0 0 0 0 0 0 0 0 0 0 0 0 0 0 0 0 0 0 0 0 0 0 0 0 0 0 0 0 
0 0 0 0 0 0 0 0 0 1 4 8 2 7 37 84 93 91 83 79 75 75 78 79 77 72 79 85 85 84 85 84 79 77 77 75 73 73 73 74 76 75 73 74 79 81 78 75 80 68 68 67 68 76 73 69 71 71 74 86 87 84 81 82 82 81 79 77 74 72 71 74 76 79 80 86 88 87 88 90 91 84 76 76 77 85 92 89 73 25 1 0 0 0 0 1 2 0 0 0 0 0 0 0 0 0 0 0 0 0 0 0 0 0 0 0 0 0 0 0 0 0 0 0 0 0 0 0 
0 0 0 0 0 0 0 0 0 0 3 9 4 7 29 78 92 92 83 79 77 77 78 78 78 74 80 84 85 86 87 87 84 79 77 76 74 74 77 77 78 78 78 79 76 76 74 80 81 67 67 67 68 78 73 69 69 68 72 84 90 84 80 81 83 87 91 89 87 86 87 87 88 88 90 91 88 86 88 91 91 88 79 76 81 89 92 86 69 17 1 0 0 7 4 1 2 0 0 0 0 0 0 0 0 0 0 0 0 0 0 0 0 0 0 0 0 0 0 0 0 0 0 0 0 0 0 0 
0 0 0 0 0 0 0 0 0 0 2 9 5 6 23 72 91 92 85 82 80 76 76 78 77 77 81 84 85 85 87 87 87 88 85 82 82 83 84 83 83 80 73 72 77 77 75 80 80 66 67 70 69 78 73 66 66 67 71 86 90 82 80 80 82 87 92 93 92 92 93 93 92 89 89 91 90 88 88 91 91 89 86 82 81 91 90 84 64 12 3 2 5 2 1 1 2 0 0 0 0 0 0 0 0 0 0 0 0 0 0 0 0 0 0 0 0 0 0 0 0 0 0 0 0 0 0 0 
0 0 0 0 0 0 0 0 0 0 1 8 5 7 18 66 89 93 90 83 80 75 74 77 79 83 83 84 86 86 86 86 85 86 87 88 88 86 84 82 82 79 77 77 77 75 74 79 81 70 68 73 71 79 74 65 66 70 76 88 89 83 80 81 83 88 92 93 93 93 93 92 91 88 89 89 91 92 91 91 91 90 88 88 92 91 86 83 57 9 3 2 4 1 0 1 2 0 0 0 0 0 0 0 0 0 0 0 0 0 0 0 0 0 0 0 0 0 0 0 0 0 0 0 0 0 0 0 
0 0 0 0 0 0 0 0 0 0 0 7 6 8 13 57 86 93 92 85 80 75 76 82 85 84 85 87 86 86 87 89 90 89 87 88 87 86 86 85 83 79 75 74 74 73 74 77 82 77 70 71 72 80 74 68 71 75 80 85 85 84 83 83 85 89 92 92 92 92 92 92 92 93 92 92 93 93 93 93 93 93 92 93 93 91 82 81 45 6 3 2 2 1 0 1 2 0 0 0 0 0 0 0 0 0 0 0 0 0 0 0 0 0 0 0 0 0 0 0 0 0 0 0 0 0 0 0 
0 0 0 0 0 0 0 0 0 0 0 6 7 9 12 47 84 92 93 89 83 82 84 85 88 87 87 90 89 86 90 92 93 93 93 92 91 91 88 83 78 75 75 73 70 71 75 82 82 74 74 74 71 80 74 70 71 78 81 81 84 81 83 84 86 90 93 93 93 93 93 93 93 92 90 91 91 93 93 93 93 92 93 92 91 88 86 79 29 6 4 3 2 1 0 1 2 0 0 0 0 0 0 0 0 0 0 0 0 0 0 0 0 0 0 0 0 0 0 0 0 0 0 0 0 0 0 0 
0 0 0 0 0 0 0 0 0 0 0 7 9 7 8 33 81 92 93 92 90 92 91 90 91 91 91 90 89 89 91 93 93 93 93 92 93 92 90 83 81 79 77 73 72 72 80 83 76 71 73 75 75 85 77 70 69 74 79 79 82 82 82 84 85 87 90 92 93 93 93 92 92 90 90 90 91 92 93 93 92 91 90 91 93 87 86 68 15 6 5 2 2 0 0 1 2 0 0 0 0 0 0 0 0 0 0 0 0 0 0 0 0 0 0 0 0 0 0 0 0 0 0 0 0 0 0 0 
0 0 0 0 0 0 0 0 0 0 0 4 10 7 7 11 52 88 93 93 93 92 92 93 93 93 92 91 91 91 93 93 93 93 93 93 92 92 91 85 82 81 81 77 75 74 79 82 78 72 73 77 77 83 84 74 68 71 75 79 80 79 83 84 84 85 86 90 91 90 88 90 90 88 90 92 92 92 93 93 93 93 93 93 92 86 85 73 16 5 7 4 2 1 0 1 2 0 0 0 0 0 0 0 0 0 0 0 0 0 0 0 0 0 0 0 0 0 0 0 0 0 0 0 0 0 0 0 
0 0 0 0 0 0 0 0 0 0 0 6 8 5 6 9 33 84 93 93 93 92 92 93 93 93 93 93 90 89 91 93 93 93 93 93 93 93 91 83 80 81 82 80 77 77 82 81 78 75 74 78 79 85 84 77 68 67 70 75 79 78 77 83 84 85 87 89 90 87 86 87 85 88 90 92 91 92 91 92 93 93 93 91 86 86 86 53 8 4 7 5 2 1 0 1 2 0 0 0 0 0 0 0 0 0 0 0 0 0 0 0 0 0 0 0 0 0 0 0 0 0 0 0 0 0 0 0 
0 0 0 0 0 0 0 0 0 0 0 6 5 4 4 8 21 72 92 93 93 93 93 93 93 93 93 93 91 90 89 91 92 93 93 93 93 92 89 85 81 80 82 83 77 76 82 78 76 77 77 76 73 82 86 81 69 68 73 75 79 82 81 81 78 78 84 88 89 89 89 87 87 91 92 93 92 92 91 91 92 93 90 87 88 88 81 29 6 4 6 5 2 1 0 1 2 0 0 0 0 0 0 0 0 0 0 0 0 0 0 0 0 0 0 0 0 0 0 0 0 0 0 0 0 0 0 0 
0 0 0 0 0 0 0 0 0 0 0 4 4 4 3 8 16 52 90 93 92 91 93 92 92 93 93 92 92 92 90 88 90 91 92 92 92 91 89 86 80 79 79 77 77 79 84 77 80 83 81 78 74 78 85 86 74 73 76 74 79 85 85 87 81 73 74 79 82 84 87 86 87 92 93 93 93 93 92 91 90 91 89 85 85 86 63 14 7 6 6 4 3 1 0 1 2 0 0 0 0 0 0 0 0 0 0 0 0 0 0 0 0 0 0 0 0 0 0 0 0 0 0 0 0 0 0 0 
0 0 0 0 0 0 0 0 0 0 0 3 4 3 3 8 14 30 83 91 90 90 92 92 92 91 90 89 91 93 93 89 86 87 91 92 91 90 88 81 75 73 77 80 79 80 87 81 84 85 84 82 77 77 87 87 80 78 79 80 81 86 87 88 86 75 71 71 76 80 83 88 91 91 92 93 93 93 93 92 92 91 86 78 79 83 38 10 6 6 6 2 2 2 0 1 2 0 0 0 0 0 0 0 0 0 0 0 0 0 0 0 0 0 0 0 0 0 0 0 0 0 0 0 0 0 0 0 
0 0 0 0 0 0 0 0 0 0 0 3 4 3 2 8 14 17 66 87 87 89 91 92 91 91 90 89 90 92 93 91 85 84 89 92 92 91 85 75 69 75 78 81 81 83 87 87 86 86 88 88 83 82 91 89 84 80 83 84 83 88 88 88 86 80 71 69 75 82 85 90 90 89 91 93 93 93 92 93 92 87 81 70 75 69 19 10 6 6 5 2 2 2 0 1 1 0 0 0 0 0 0 0 0 0 0 0 0 0 0 0 0 0 0 0 0 0 0 0 0 0 0 0 0 0 0 0 
0 0 0 0 0 0 0 0 0 0 0 2 4 3 1 5 12 13 42 85 89 87 91 93 93 92 91 91 92 92 93 90 85 85 85 87 86 84 80 76 72 78 79 82 85 87 88 89 90 90 92 92 93 93 93 91 91 91 89 89 88 91 92 90 88 81 73 72 79 86 84 83 88 87 90 93 93 93 91 93 90 84 75 71 79 49 12 11 7 7 5 2 2 2 0 1 1 0 0 0 0 0 0 0 0 0 0 0 0 0 0 0 0 0 0 0 0 0 0 0 0 0 0 0 0 0 0 0 
0 0 0 0 0 0 0 0 0 0 0 2 4 3 1 4 10 13 24 77 87 83 87 90 93 93 93 92 93 93 93 91 89 88 84 85 81 75 72 79 80 82 83 85 89 91 91 91 93 93 93 93 93 93 92 93 93 93 92 92 92 93 93 93 90 87 86 85 86 88 82 83 87 86 87 92 93 92 92 93 88 79 69 70 76 29 10 11 6 6 5 2 2 2 0 1 1 0 0 0 0 0 0 0 0 0 0 0 0 0 0 0 0 0 0 0 0 0 0 0 0 0 0 0 0 0 0 0 
0 0 0 0 0 0 0 0 0 0 0 2 5 2 1 4 10 12 14 57 85 85 82 86 92 93 93 93 93 92 93 92 90 89 86 85 83 79 78 81 90 90 89 89 90 92 93 93 93 92 92 92 92 92 93 93 93 92 91 91 92 93 93 93 93 92 92 91 92 85 80 80 84 85 84 91 93 92 93 92 88 84 75 77 66 18 8 8 5 5 4 2 2 2 1 1 1 0 0 0 0 0 0 0 0 0 0 0 0 0 0 0 0 0 0 0 0 0 0 0 0 0 0 0 0 0 0 0 
0 0 0 0 0 0 0 0 0 0 1 3 5 2 1 4 9 9 12 36 74 83 83 84 90 93 93 93 92 92 92 92 91 89 85 85 85 85 87 89 91 93 93 93 93 93 93 93 93 92 92 92 92 93 92 93 93 93 91 92 92 93 93 93 93 93 93 93 92 83 76 76 80 85 87 91 93 92 93 88 83 78 81 77 56 15 8 7 5 4 4 2 3 3 1 1 1 0 0 0 0 0 0 0 0 0 0 0 0 0 0 0 0 0 0 0 0 0 0 0 0 0 0 0 0 0 0 0 
0 0 0 0 0 0 0 0 0 0 0 4 12 9 2 4 7 8 11 26 67 83 86 82 86 91 93 93 93 91 91 91 90 87 82 82 83 84 86 89 91 93 93 93 93 93 93 93 93 93 93 93 93 93 93 92 93 93 91 91 92 93 93 93 93 93 93 93 92 81 71 75 82 87 92 93 93 93 93 88 76 70 76 76 50 15 7 5 6 4 3 3 3 3 1 1 1 0 0 0 0 0 0 0 0 0 0 0 0 0 0 0 0 0 0 0 0 0 0 0 0 0 0 0 0 0 0 0 
0 0 0 0 0 0 0 0 0 0 0 4 12 12 8 6 7 10 12 19 56 78 85 84 83 85 92 93 93 91 89 89 90 82 78 79 80 83 84 85 88 92 93 93 93 93 93 93 93 93 93 93 93 93 93 90 90 92 89 88 90 92 93 93 92 93 93 93 92 82 73 75 81 86 93 92 92 92 93 80 70 69 76 73 35 14 5 3 5 4 3 3 3 3 2 1 1 0 0 0 0 0 0 0 0 0 0 0 0 0 0 0 0 0 0 0 0 0 0 0 0 0 0 0 0 0 0 0 
0 0 0 0 0 0 0 0 0 0 0 3 10 10 9 7 8 11 15 15 31 69 84 84 78 83 91 93 93 93 91 89 90 82 74 77 80 81 81 81 84 91 93 93 93 93 93 93 93 93 93 93 93 93 92 85 85 88 88 87 89 93 93 93 91 92 93 93 92 85 76 76 82 90 93 93 92 93 92 75 65 65 65 54 18 13 7 4 4 5 5 5 6 4 2 1 1 0 0 0 0 0 0 0 0 0 0 0 0 0 0 0 0 0 0 0 0 0 0 0 0 0 0 0 0 0 0 0 
0 0 0 0 0 0 0 0 0 0 0 2 10 10 9 8 8 9 12 14 16 44 80 82 81 81 87 93 93 93 93 91 89 87 79 74 74 75 76 80 87 92 93 93 93 93 93 92 92 92 93 93 92 93 93 89 87 89 89 87 91 93 93 92 92 92 93 93 93 88 86 86 90 92 93 92 88 80 80 63 56 70 72 33 11 8 8 6 5 5 5 6 12 5 2 0 1 0 0 0 0 0 0 0 0 0 0 0 0 0 0 0 0 0 0 0 0 0 0 0 0 0 0 0 0 0 0 0 
0 0 0 0 0 0 0 0 0 0 0 0 9 10 6 6 5 5 8 14 18 25 59 76 74 72 83 92 93 93 93 92 90 90 86 79 79 80 83 89 91 93 91 93 93 93 93 93 93 93 93 93 93 91 91 93 93 93 93 93 93 93 91 90 92 92 93 91 92 93 92 92 92 91 84 75 72 71 73 63 74 76 46 17 10 1 1 4 4 5 5 6 8 4 0 0 1 0 0 0 0 0 0 0 0 0 0 0 0 0 0 0 0 0 0 0 0 0 0 0 0 0 0 0 0 0 0 0 
0 0 0 0 0 0 0 0 0 0 0 0 3 6 4 2 2 2 4 10 16 20 33 66 69 62 72 79 78 92 93 93 92 91 89 82 83 86 89 92 92 90 89 89 87 85 88 84 87 91 91 91 91 92 92 93 93 92 91 91 89 88 82 81 84 79 89 87 92 92 92 91 80 70 64 68 68 67 69 62 60 42 27 21 12 1 0 0 1 3 4 7 7 0 0 0 0 0 0 0 0 0 0 0 0 0 0 0 0 0 0 0 0 0 0 0 0 0 0 0 0 0 0 0 0 0 0 0 
0 0 0 0 0 0 0 0 0 0 0 0 0 2 3 1 1 0 0 6 13 19 23 40 65 68 56 49 57 63 75 81 90 90 88 87 85 89 93 93 92 92 91 91 88 86 88 89 90 93 93 93 93 93 93 93 93 93 93 93 93 88 84 90 92 89 91 92 93 91 87 79 71 64 62 71 73 71 58 43 37 36 33 24 17 0 0 0 0 1 2 6 7 0 0 0 1 0 0 0 0 0 0 0 0 0 0 0 0 0 0 0 0 0 0 0 0 0 0 0 0 0 0 0 0 0 0 0 
0 0 0 0 0 0 0 0 0 0 0 0 0 2 4 4 4 2 2 3 9 13 18 21 33 45 33 38 57 54 55 53 66 68 66 73 67 61 63 63 72 85 92 92 91 91 90 85 89 79 76 81 84 85 83 81 75 72 80 78 76 83 78 91 89 93 87 67 54 55 50 56 54 48 49 64 68 67 44 27 26 24 18 7 2 0 3 3 2 1 2 8 5 0 0 0 1 0 0 0 0 0 0 0 0 0 0 0 0 0 0 0 0 0 0 0 0 0 0 0 0 0 0 0 0 0 0 0 
0 0 0 0 0 0 0 0 0 0 0 0 0 0 2 2 2 2 2 1 5 9 12 15 20 21 21 31 57 56 52 53 54 55 53 56 59 52 57 59 67 70 67 67 71 74 67 60 63 65 52 62 71 72 72 71 61 52 62 62 67 77 70 65 64 73 72 76 80 77 55 54 54 48 49 63 68 66 42 27 26 23 15 6 2 0 1 1 1 2 3 5 1 0 0 0 1 0 0 0 0 0 0 0 0 0 0 0 0 0 0 0 0 0 0 0 0 0 0 0 0 0 0 0 0 0 0 0 
0 0 0 0 0 0 0 0 0 0 0 0 0 0 0 0 0 0 0 0 3 8 9 14 19 24 26 33 58 62 55 55 57 59 57 56 63 73 86 88 91 91 81 77 78 79 75 76 79 71 63 72 75 76 75 74 70 64 75 80 80 84 78 73 84 92 76 69 80 72 70 70 65 62 62 70 72 68 44 30 27 22 13 8 1 0 0 0 0 0 1 0 0 0 0 0 1 0 0 0 0 0 0 0 0 0 0 0 0 0 0 0 0 0 0 0 0 0 0 0 0 0 0 0 0 0 0 0 
0 0 0 0 0 0 0 0 0 0 0 0 0 0 0 0 0 0 0 0 0 3 4 7 14 27 32 40 62 70 65 61 64 69 69 70 77 86 87 91 93 93 93 90 91 93 93 93 92 87 84 87 86 86 85 87 86 83 85 91 92 93 92 92 93 93 89 90 81 88 85 82 75 70 68 69 68 64 45 34 23 16 9 7 0 0 0 0 0 0 0 0 0 0 0 0 0 0 0 0 0 0 0 0 0 0 0 0 0 0 0 0 0 0 0 0 0 0 0 0 0 0 0 0 0 0 0 0 
0 0 0 0 0 0 0 0 0 0 0 0 0 0 0 0 0 0 0 0 0 1 3 4 8 22 27 35 53 65 61 61 68 73 75 75 78 83 87 84 93 93 93 93 93 92 92 91 93 93 93 93 93 93 93 93 93 93 93 93 93 93 93 93 93 93 93 89 92 92 88 88 77 64 52 59 63 50 29 22 16 9 6 1 0 0 0 0 0 0 0 0 0 0 0 0 0 0 0 0 0 0 0 0 0 0 0 0 0 0 0 0 0 0 0 0 0 0 0 0 0 0 0 0 0 0 0 0 
0 0 0 0 0 0 0 0 0 0 0 0 0 0 0 0 0 0 0 0 0 0 2 3 7 16 26 33 47 63 63 60 62 63 63 59 64 73 79 80 88 88 85 80 88 91 93 93 93 93 92 90 91 90 91 89 90 90 90 89 91 92 88 89 91 87 90 92 92 93 82 59 44 45 52 67 65 42 24 20 12 7 6 1 0 0 0 0 1 1 1 1 1 1 2 2 2 1 0 0 0 0 0 0 0 0 0 0 0 0 0 0 0 0 0 0 0 0 0 0 0 0 0 0 0 0 0 0 
0 0 0 0 0 0 0 0 0 0 0 0 0 0 0 0 0 0 0 0 0 0 3 6 8 14 19 20 30 48 58 57 56 56 51 49 48 60 74 84 83 83 81 74 78 85 89 90 87 86 85 75 80 77 79 73 79 80 80 80 83 89 88 79 84 88 90 85 90 86 76 57 46 48 60 77 69 42 23 16 16 12 7 1 0 0 0 0 0 0 0 0 0 1 1 1 1 0 0 0 0 0 0 0 0 0 0 0 0 0 0 0 0 0 0 0 0 0 0 0 0 0 0 0 0 0 0 0 
0 0 0 0 0 0 0 0 0 0 0 0 0 0 0 0 0 0 0 0 0 0 1 6 8 12 17 19 23 40 54 62 61 59 51 45 47 56 69 78 77 77 77 78 81 87 89 89 85 83 80 70 74 73 74 72 78 82 84 81 80 84 80 73 69 80 87 88 87 81 73 57 48 51 67 81 70 44 23 18 17 11 6 0 0 0 0 0 0 0 0 0 0 0 1 1 1 0 0 0 0 0 0 0 0 0 0 0 0 0 0 0 0 0 0 0 0 0 0 0 0 0 0 0 0 0 0 0 
0 0 0 0 0 0 0 0 0 0 0 0 0 0 0 0 0 0 0 0 0 0 0 4 8 9 15 20 21 35 50 63 64 60 54 47 43 50 61 75 73 69 72 73 77 82 86 89 88 84 82 76 78 77 76 73 79 78 84 86 83 86 86 80 78 76 82 85 81 75 65 52 48 55 71 82 69 45 23 18 16 11 5 0 0 0 0 0 0 0 0 0 1 1 1 1 1 0 0 0 0 0 0 0 0 0 0 0 0 0 0 0 0 0 0 0 0 0 0 0 0 0 0 0 0 0 0 0 
0 0 0 0 0 0 0 0 0 0 0 0 0 0 0 0 0 0 0 0 0 0 0 2 6 8 12 18 21 30 44 59 64 62 57 50 46 49 51 56 61 65 70 72 76 80 83 86 90 88 85 81 80 79 76 74 77 76 81 85 86 91 89 82 78 74 77 80 82 77 66 55 51 57 74 83 67 46 24 17 14 10 3 0 0 0 0 0 0 0 0 0 1 1 1 1 0 0 0 0 0 0 0 0 0 0 0 0 0 0 0 0 0 0 0 0 0 0 0 0 0 0 0 0 0 0 0 0 
0 0 0 0 0 0 0 0 0 0 0 0 0 0 0 0 0 0 0 0 0 0 0 0 4 7 10 15 19 26 40 53 66 65 60 55 49 46 47 51 56 62 70 73 78 79 79 82 88 85 83 80 78 78 74 74 76 77 80 83 86 88 86 80 78 78 76 73 75 75 67 60 56 60 75 81 66 46 24 16 14 9 2 0 0 0 0 0 0 0 0 0 1 1 1 1 0 0 0 0 0 0 0 0 0 0 0 0 0 0 0 0 0 0 0 0 0 0 0 0 0 0 0 0 0 0 0 0 
0 0 0 0 0 0 0 0 0 0 0 0 0 0 0 0 0 0 0 0 0 0 0 0 2 4 9 12 17 23 38 48 65 64 63 60 54 49 47 50 55 59 68 76 80 79 75 74 78 81 83 79 75 76 75 73 75 77 80 80 83 82 81 78 80 81 79 70 64 62 58 58 60 66 76 80 65 40 18 15 14 8 1 0 0 0 0 0 0 0 0 0 1 1 1 1 0 0 0 0 0 0 0 0 0 0 0 0 0 0 0 0 0 0 0 0 0 0 0 0 0 0 0 0 0 0 0 0 
0 0 0 0 0 0 0 0 0 0 0 0 0 0 0 0 0 0 0 0 0 0 0 0 0 4 5 11 14 18 30 46 57 61 65 63 57 52 48 47 52 58 68 74 77 76 75 71 71 75 82 77 73 72 73 75 75 77 77 78 81 80 77 73 75 76 75 69 62 56 53 60 65 69 78 70 43 22 16 15 15 8 1 0 0 0 0 0 0 0 0 0 1 1 2 1 0 0 0 0 0 0 0 0 0 0 0 0 0 0 0 0 0 0 0 0 0 0 0 0 0 0 0 0 0 0 0 0 
0 0 0 0 0 0 0 0 0 0 0 0 0 0 0 0 0 0 0 0 0 0 0 0 0 2 4 8 13 16 19 30 37 42 61 65 59 55 51 45 49 57 64 66 72 74 74 70 69 75 83 79 75 74 76 76 76 77 77 77 78 76 74 71 72 71 69 63 62 55 52 61 67 73 77 39 16 16 16 17 15 7 1 0 0 0 0 0 0 0 0 0 1 1 1 1 0 0 0 0 0 0 0 0 0 0 0 0 0 0 0 0 0 0 0 0 0 0 0 0 0 0 0 0 0 0 0 0 
0 0 0 0 0 0 0 0 0 0 0 0 0 0 0 0 0 0 0 0 0 0 0 0 0 0 5 4 11 16 18 18 17 16 29 64 65 61 56 53 51 53 58 60 65 67 70 70 72 77 78 77 74 72 70 73 79 77 74 73 76 75 75 71 69 68 61 60 60 58 59 66 70 75 59 22 14 14 16 16 13 6 0 0 0 0 0 0 0 0 0 0 0 1 1 1 0 0 0 0 0 0 0 0 0 0 0 0 0 0 0 0 0 0 0 0 0 0 0 0 0 0 0 0 0 0 0 0 
0 0 0 0 0 0 0 0 0 0 0 0 0 0 0 0 0 0 0 0 0 0 0 0 0 0 1 4 8 12 17 17 17 17 12 34 63 66 62 58 57 56 58 61 65 64 66 70 77 79 75 75 76 75 73 73 78 79 74 72 76 77 80 75 72 68 66 65 63 63 67 71 72 64 32 18 13 14 16 16 11 5 1 0 0 0 0 0 0 0 0 0 1 1 1 0 0 0 0 0 0 0 0 0 0 0 0 0 0 0 0 0 0 0 0 0 0 0 0 0 0 0 0 0 0 0 0 0 
0 0 0 0 0 0 0 0 0 0 0 0 0 0 0 0 0 0 0 0 0 0 0 0 0 0 0 3 6 9 15 17 16 17 13 12 33 60 67 66 63 61 62 65 70 71 70 70 74 78 75 76 77 75 75 79 83 82 80 78 79 82 80 75 73 71 70 70 69 71 74 74 62 34 22 16 12 14 16 14 10 5 1 0 0 0 0 0 0 0 0 0 0 1 1 1 0 0 0 0 0 0 0 0 0 0 0 0 0 0 0 0 0 0 0 0 0 0 0 0 0 0 0 0 0 0 0 0 
0 0 0 0 0 0 0 0 0 0 0 0 0 0 0 0 0 0 0 0 0 0 0 0 0 0 0 2 5 7 11 16 17 17 13 12 16 30 54 65 68 70 69 70 76 77 72 71 71 78 78 76 76 75 75 80 82 81 82 80 77 78 79 78 76 76 78 77 75 74 73 60 33 24 21 16 13 15 14 13 9 5 1 0 0 0 0 0 0 0 0 0 0 1 1 1 0 0 0 0 0 0 0 0 0 0 0 0 0 0 0 0 0 0 0 0 0 0 0 0 0 0 0 0 0 0 0 0 
0 0 0 0 0 0 0 0 0 0 0 0 0 0 0 0 0 0 0 0 0 0 0 0 0 0 0 0 4 6 8 14 16 18 14 11 15 20 27 45 62 70 73 76 80 81 78 76 77 81 78 74 74 78 80 82 82 81 83 84 81 79 83 81 80 81 82 81 77 69 52 31 26 24 21 16 14 14 14 12 9 5 0 0 0 0 0 0 0 0 0 0 0 1 1 0 0 0 0 0 0 0 0 0 0 0 0 0 0 0 0 0 0 0 0 0 0 0 0 0 0 0 0 0 0 0 0 0 
0 0 0 0 0 0 0 0 0 0 0 0 0 0 0 0 0 0 0 0 0 0 0 0 0 0 0 0 1 7 7 12 15 17 14 11 12 19 24 27 35 53 67 74 80 83 81 80 80 81 81 78 79 79 77 78 79 80 83 83 83 80 83 84 83 81 82 79 66 44 28 26 26 23 19 15 13 13 13 11 9 4 0 0 0 0 0 0 0 0 0 0 0 1 1 0 0 0 0 0 0 0 0 0 0 0 0 0 0 0 0 0 0 0 0 0 0 0 0 0 0 0 0 0 0 0 0 0 
0 0 0 0 0 0 0 0 0 0 0 0 0 0 0 0 0 0 0 0 0 0 0 0 0 0 0 0 0 6 5 10 13 17 14 11 11 18 24 27 29 31 37 52 69 76 77 77 77 80 82 82 80 77 76 77 77 80 83 80 82 83 85 83 81 77 70 54 38 34 27 26 24 21 17 15 12 14 13 11 8 3 0 0 0 0 0 0 0 0 0 0 1 1 1 0 0 0 0 0 0 0 0 0 0 0 0 0 0 0 0 0 0 0 0 0 0 0 0 0 0 0 0 0 0 0 0 0 
0 0 0 0 0 0 0 0 0 0 0 0 0 0 0 0 0 0 0 0 0 0 0 0 0 0 0 0 0 4 6 8 12 16 15 12 11 18 24 26 29 30 30 34 44 58 66 70 72 74 79 81 79 78 78 79 79 80 84 83 83 80 80 77 72 60 47 42 37 33 26 26 24 21 16 13 14 14 13 12 8 3 0 0 0 0 0 0 0 0 0 0 0 1 1 0 0 0 0 0 0 0 0 0 0 0 0 0 0 0 0 0 0 0 0 0 0 0 0 0 0 0 0 0 0 0 0 0 
