P2
# teste4.pgm
128 99
93
0 0 0 0 0 0 0 0 0 0 0 0 0 0 0 0 0 0 0 0 0 0 0 0 0 0 0 0 0 0 0 0 0 1 0 0 0 0 0 0 0 0 0 0 0 0 0 0 0 0 0 0 0 0 0 0 0 0 0 0 0 0 0 0 0 0 0 0 0 0 0 0 0 0 0 0 0 0 0 0 0 0 0 0 0 0 0 0 0 0 0 0 0 0 0 0 0 0 0 0 0 0 0 0 0 0 0 0 0 0 0 0 0 0 0 0 0 0 0 0 0 0 0 0 0 0 0 0 
0 0 0 0 0 0 0 0 0 0 0 0 0 0 0 0 0 0 0 0 0 0 0 0 0 0 0 0 0 0 0 0 0 1 0 0 0 0 0 0 0 0 0 0 0 0 0 0 0 0 0 0 0 0 0 0 0 0 0 0 0 0 0 0 0 0 0 0 0 0 0 0 0 0 0 0 0 0 0 0 0 0 0 0 0 0 0 0 0 0 0 0 0 0 0 0 0 0 0 0 0 0 0 0 0 0 0 0 0 0 0 0 0 0 0 0 0 0 0 0 0 0 0 0 0 0 0 0 
0 0 0 0 0 0 0 0 0 0 0 0 0 0 0 0 0 0 0 0 0 0 0 0 0 0 0 0 0 0 0 0 0 0 0 0 0 0 0 0 0 0 0 0 0 0 0 0 0 0 0 1 2 2 0 0 0 0 0 0 0 0 0 0 0 0 0 0 0 0 0 0 0 0 0 0 0 0 0 0 0 0 0 0 0 0 0 0 0 0 0 0 0 0 0 0 0 0 0 0 0 0 0 0 0 0 0 0 0 0 0 0 0 0 0 0 0 0 0 0 0 0 0 0 0 0 0 0 
0 0 0 0 0 0 0 0 0 0 0 0 0 0 0 0 0 0 0 0 0 0 0 0 0 0 0 0 0 0 0 0 0 0 0 0 0 0 0 0 0 0 0 0 6 13 16 17 17 18 20 22 26 26 24 20 17 14 14 11 3 0 0 0 0 0 0 0 0 0 0 0 0 0 0 0 0 0 0 0 0 0 0 0 0 0 0 0 0 0 0 0 0 0 0 0 0 0 0 0 0 0 0 0 0 0 0 0 0 0 0 0 0 0 0 0 0 0 0 0 0 0 0 0 0 0 0 0 
0 0 0 0 0 0 0 0 0 0 0 0 0 0 0 0 0 0 0 0 0 0 0 0 0 0 0 0 0 0 0 0 0 0 0 0 0 0 0 0 5 12 17 22 22 30 48 64 78 87 91 93 93 93 93 92 88 79 65 47 31 20 16 10 1 0 0 0 0 0 0 0 0 0 0 0 0 0 0 0 0 0 0 0 0 0 0 0 0 0 0 0 0 0 0 0 0 0 0 0 0 0 0 0 0 0 0 0 0 0 0 0 0 0 0 0 0 0 0 0 0 0 0 0 0 0 0 0 
0 0 0 0 0 0 0 0 0 0 0 0 0 0 0 0 0 0 0 0 0 0 0 0 0 0 0 0 0 0 0 0 0 0 0 0 0 0 8 16 22 23 33 57 82 93 92 89 87 85 85 86 87 87 86 86 87 88 90 92 93 85 65 39 21 15 10 1 0 0 0 0 0 0 0 0 0 0 0 0 0 0 0 0 0 0 0 0 0 0 0 0 0 0 0 0 0 0 0 0 0 0 0 0 0 0 0 0 0 0 0 0 0 0 0 0 0 0 0 0 0 0 0 0 0 0 0 0 
0 0 0 0 0 0 0 0 0 0 0 0 0 0 0 0 0 0 0 0 0 0 0 0 0 0 0 0 0 0 0 0 0 0 0 0 8 20 21 24 46 78 93 90 86 86 85 85 83 82 80 80 80 80 80 80 81 83 85 86 87 88 91 93 87 63 36 17 12 1 0 0 0 0 0 0 0 0 0 0 0 0 0 0 0 0 0 0 0 0 0 0 0 0 0 0 0 0 0 0 0 0 0 0 0 0 0 0 0 0 0 0 0 0 0 0 0 0 0 0 0 0 0 0 0 0 0 0 
0 0 0 0 0 0 0 0 0 0 0 0 0 0 0 0 0 0 0 0 0 0 0 0 0 0 0 0 0 0 0 0 0 0 7 22 24 24 53 87 92 88 86 85 83 82 83 86 89 90 89 86 87 91 92 88 81 77 78 81 82 84 85 86 88 91 93 77 44 21 13 1 0 0 0 0 0 0 0 0 0 0 0 0 0 0 0 0 0 0 0 0 0 0 0 0 0 0 0 0 0 0 0 0 0 0 0 0 0 0 0 0 0 0 0 0 0 0 0 0 0 0 0 0 0 0 0 0 
0 0 0 0 0 0 0 0 0 0 0 0 0 0 0 0 0 0 0 0 0 0 0 0 0 0 0 0 0 0 0 0 4 26 23 21 50 88 91 88 88 86 84 82 84 88 91 93 93 93 93 93 93 93 93 93 93 89 79 74 76 80 82 83 85 86 86 89 93 78 40 22 9 0 0 0 0 0 0 0 0 0 0 0 0 0 0 0 0 0 0 0 0 0 0 0 0 0 0 0 0 0 0 0 0 0 0 0 0 0 0 0 0 0 0 0 0 0 0 0 0 0 0 0 0 0 0 0 
0 0 0 0 0 0 0 0 0 0 0 0 0 0 0 0 0 0 0 0 0 0 0 0 0 0 0 0 0 0 0 22 24 19 37 82 92 89 88 87 85 82 84 91 93 93 93 93 92 91 92 93 93 92 93 93 93 93 93 88 77 73 74 76 80 83 84 86 86 89 92 65 28 17 2 0 0 0 0 0 0 0 0 0 0 0 0 0 0 0 0 0 0 0 0 0 0 0 0 0 0 0 0 0 0 0 0 0 0 0 0 0 0 0 0 0 0 0 0 0 0 0 0 0 0 0 0 0 
0 0 0 0 0 0 0 0 0 0 0 0 0 0 0 0 0 0 0 0 0 0 0 0 0 0 0 0 0 9 26 21 23 67 92 89 88 87 85 82 80 87 92 93 93 93 93 91 91 91 91 92 92 92 92 93 93 92 93 93 92 86 77 72 72 76 80 82 84 85 86 91 85 41 21 5 0 0 0 0 0 0 0 0 0 0 0 0 0 0 0 0 0 0 0 0 0 0 0 0 0 0 0 0 0 0 0 0 0 0 0 0 0 0 0 0 0 0 0 0 0 0 0 0 0 0 0 0 
0 0 0 0 0 0 0 0 0 0 0 0 0 0 0 0 0 0 0 0 0 0 0 0 0 0 0 0 21 23 18 42 88 90 89 87 84 82 80 82 89 92 93 93 93 93 93 92 92 91 89 90 89 89 92 92 93 93 93 93 93 92 88 82 75 71 73 76 80 82 83 85 88 92 57 22 10 0 0 0 0 0 0 0 0 0 0 0 0 0 0 0 0 0 0 0 0 0 0 0 0 0 0 0 0 0 0 0 0 0 0 0 0 0 0 0 0 0 0 0 0 0 0 0 0 0 0 0 
0 0 0 0 0 0 0 0 0 0 0 0 0 0 0 0 0 0 0 0 0 0 0 0 0 0 4 25 20 18 61 92 90 88 85 82 79 79 86 91 92 93 93 93 93 93 93 93 93 92 90 89 89 89 91 92 92 93 93 93 93 93 92 90 86 80 74 72 73 77 81 83 85 88 92 67 23 12 0 0 0 0 0 0 0 0 0 0 0 0 0 0 0 0 0 0 0 0 0 0 0 0 0 0 0 0 0 0 0 0 0 0 0 0 0 0 0 0 0 0 0 0 0 0 0 0 0 0 
0 0 0 0 0 0 0 0 0 0 0 0 0 0 0 0 0 0 0 0 0 0 0 0 0 10 24 17 23 76 92 90 86 82 79 76 81 89 92 93 93 93 93 93 93 93 93 93 91 90 88 89 88 88 89 91 93 93 93 93 93 93 93 93 91 89 86 80 75 72 75 79 83 86 88 92 73 25 13 0 0 0 0 0 0 0 0 0 0 0 0 0 0 0 0 0 0 0 0 0 0 0 0 0 0 0 0 0 0 0 0 0 0 0 0 0 0 0 0 0 0 0 0 0 0 0 0 0 
0 0 0 0 0 0 0 0 0 0 0 0 0 0 0 0 0 0 0 0 0 0 0 0 13 22 15 31 83 92 90 85 81 77 79 86 91 92 92 93 93 93 93 93 93 93 92 90 90 89 87 86 85 87 88 87 90 92 93 93 93 93 93 93 93 93 92 91 88 82 75 74 77 83 86 87 92 78 28 13 0 0 0 0 0 0 0 0 0 0 0 0 0 0 0 0 0 0 0 0 0 0 0 0 0 0 0 0 0 0 0 0 0 0 0 0 0 0 0 0 0 0 0 0 0 0 0 0 
0 0 0 0 0 0 0 0 0 0 0 0 0 0 0 0 0 0 0 0 0 0 3 17 19 14 40 88 92 89 84 79 77 84 90 92 92 92 93 93 93 93 93 92 92 90 88 87 85 84 84 83 82 84 85 85 85 86 89 92 92 92 93 93 93 93 93 93 93 91 88 81 76 78 82 86 88 91 83 33 12 0 0 0 0 0 0 0 0 0 0 0 0 0 0 0 0 0 0 0 0 0 0 0 0 0 0 0 0 0 0 0 0 0 0 0 0 0 0 0 0 0 0 0 0 0 0 0 
0 0 0 0 0 0 0 0 0 0 0 0 0 0 0 0 0 0 0 0 0 4 16 15 15 48 90 93 88 83 77 79 89 92 93 93 93 93 93 93 93 92 92 91 88 86 86 84 85 84 86 85 85 87 88 88 89 89 89 90 90 91 90 91 92 93 93 93 93 93 92 91 86 79 78 82 85 88 91 87 35 8 0 0 0 0 0 0 0 0 0 0 0 0 0 0 0 0 0 0 0 0 0 0 0 0 0 0 0 0 0 0 0 0 0 0 0 0 0 0 0 0 0 0 0 0 0 0 
0 0 0 0 0 0 0 0 0 0 0 0 0 0 0 0 0 0 0 0 6 15 13 17 58 92 93 88 82 77 83 92 93 93 93 93 93 92 92 93 92 92 92 89 87 86 84 84 84 83 83 83 83 85 84 84 84 86 87 88 88 89 90 91 91 91 92 93 93 93 93 93 93 89 83 80 82 85 88 91 88 34 6 0 0 0 0 0 0 0 0 0 0 0 0 0 0 0 0 0 0 0 0 0 0 0 0 0 0 0 0 0 0 0 0 0 0 0 0 0 0 0 0 0 0 0 0 0 
0 0 0 0 0 0 0 0 0 0 0 0 0 0 0 0 0 0 0 5 14 13 19 63 93 93 89 83 78 85 93 93 93 93 93 93 92 93 92 91 91 90 86 83 83 83 83 85 85 84 84 80 82 86 86 86 87 87 86 87 87 87 87 88 89 90 90 91 93 92 92 93 93 93 92 84 80 82 84 89 92 85 26 2 0 0 0 0 0 0 0 0 0 0 0 0 0 0 0 0 0 0 0 0 0 0 0 0 0 0 0 0 0 0 0 0 0 0 0 0 0 0 0 0 0 0 0 0 
0 0 0 0 0 0 0 0 0 0 0 0 0 0 0 0 0 0 4 14 13 18 66 93 93 90 84 80 88 93 93 93 93 93 92 91 92 90 90 89 87 82 83 84 84 83 84 85 85 85 84 81 83 88 87 87 88 87 87 87 87 87 87 87 86 86 89 90 91 93 92 92 92 93 93 92 87 80 81 85 90 92 78 18 1 0 0 0 0 0 0 0 0 0 0 0 0 0 0 0 0 0 0 0 0 0 0 0 0 0 0 0 0 0 0 0 0 0 0 0 0 0 0 0 0 0 0 0 
0 0 0 0 0 0 0 0 0 0 0 0 0 0 0 0 0 1 14 12 18 64 93 93 91 86 81 89 93 93 93 93 92 92 91 90 89 89 87 84 82 84 86 86 84 84 84 84 84 83 79 79 80 85 85 84 84 84 84 86 88 87 87 87 86 84 86 90 90 90 92 91 91 92 93 93 93 88 81 83 87 91 93 66 10 0 0 0 0 0 0 0 0 0 0 0 0 0 0 0 0 0 0 0 0 0 0 0 0 0 0 0 0 0 0 0 0 0 0 0 0 0 0 0 0 0 0 0 
0 0 0 0 0 0 0 0 0 0 0 0 0 0 0 0 0 11 11 15 60 92 93 92 88 82 89 93 93 93 93 92 92 92 89 88 88 87 84 84 85 86 85 85 84 83 81 80 81 77 76 77 77 80 82 82 83 82 82 82 83 82 83 84 84 83 84 86 90 89 89 90 89 91 92 93 93 93 87 81 84 88 92 91 45 3 0 0 0 0 0 0 0 0 0 0 0 0 0 0 0 0 0 0 0 0 0 0 0 0 0 0 0 0 0 0 0 0 0 0 0 0 0 0 0 0 0 0 
0 0 0 0 0 0 0 0 0 0 0 0 0 0 0 0 5 12 13 51 90 93 93 90 84 89 93 93 93 92 91 92 90 89 88 87 87 85 84 85 84 82 82 82 80 79 79 79 78 75 76 77 78 80 80 80 82 82 82 80 80 80 80 81 82 81 81 85 87 89 88 88 89 89 90 92 93 93 93 87 81 84 90 93 84 23 1 0 0 0 0 0 0 0 0 0 0 0 0 0 0 0 0 0 0 0 0 0 0 0 0 0 0 0 0 0 0 0 0 0 0 0 0 0 0 0 0 0 
0 0 0 0 0 0 0 0 0 0 0 0 0 0 0 1 11 12 41 87 92 93 91 86 88 93 93 92 92 91 91 89 88 89 88 86 83 83 83 82 81 79 78 78 78 79 80 81 80 78 81 82 82 81 81 81 82 82 82 82 82 83 82 80 80 82 82 81 85 87 88 87 87 88 89 91 93 92 93 93 84 82 87 92 93 64 6 0 0 0 0 0 0 0 0 0 0 0 0 0 0 0 0 0 0 0 0 0 0 0 0 0 0 0 0 0 0 0 0 0 0 0 0 0 0 0 0 0 
0 0 0 0 0 0 0 0 0 0 0 0 0 0 0 7 10 24 77 91 93 93 88 88 93 93 92 91 92 92 90 88 89 87 86 82 81 81 81 80 79 79 80 80 81 81 82 82 80 79 81 82 81 80 80 81 81 81 81 82 82 83 84 82 80 81 83 82 82 84 85 86 86 87 88 90 92 92 91 93 92 84 86 90 93 86 27 1 0 0 0 0 0 0 0 0 0 0 0 0 0 0 0 0 0 0 0 0 0 0 0 0 0 0 0 0 0 0 0 0 0 0 0 0 0 0 0 0 
0 0 0 0 0 0 0 0 0 0 0 0 0 0 2 8 12 61 89 92 93 91 90 93 93 92 90 91 92 91 89 88 86 86 83 79 80 82 82 81 81 81 81 81 81 80 81 80 78 79 81 81 79 81 78 78 78 78 78 78 80 83 84 84 81 79 80 82 80 82 83 86 86 87 87 89 91 92 91 91 92 90 86 89 93 92 57 3 0 0 0 0 0 0 0 0 0 0 0 0 0 0 0 0 0 0 0 0 0 0 0 0 0 0 0 0 0 0 0 0 0 0 0 0 0 0 0 0 
0 0 0 0 0 0 0 0 0 0 0 0 0 0 6 7 36 84 91 93 92 91 93 93 92 90 90 91 91 89 89 87 85 84 81 78 83 85 83 81 79 79 78 78 78 78 78 75 74 77 82 82 80 80 74 75 77 76 75 73 74 76 80 83 83 82 78 79 81 79 81 85 86 86 88 89 91 92 91 89 91 93 90 89 92 93 79 16 0 0 0 0 0 0 0 0 0 0 0 0 0 0 0 0 0 0 0 0 0 0 0 0 0 0 0 0 0 0 0 0 0 0 0 0 0 0 0 0 
0 0 0 0 0 0 0 0 0 0 0 0 0 0 6 15 67 88 92 93 91 93 93 93 90 90 90 92 89 89 87 83 82 84 81 83 85 82 79 78 77 76 75 74 73 74 75 76 78 79 83 84 83 81 75 75 77 78 77 75 74 74 74 77 82 85 81 78 80 81 79 82 86 86 88 89 90 91 91 88 89 93 92 90 91 93 89 34 1 0 0 0 0 0 0 0 0 0 0 0 0 0 0 0 0 0 0 0 0 0 0 0 0 0 0 0 0 0 0 0 0 0 0 0 0 0 0 0 
0 0 0 0 0 0 0 0 0 0 0 0 0 2 7 33 82 90 93 92 92 93 93 90 89 89 90 91 89 88 85 82 84 84 84 86 82 76 76 78 76 73 72 72 75 78 80 82 82 80 76 78 82 72 70 75 77 79 79 80 79 77 74 73 76 84 84 81 80 81 80 79 85 86 87 90 90 90 90 88 86 92 93 90 91 93 91 50 2 0 0 0 0 0 0 0 0 0 0 0 0 0 0 0 0 0 0 0 0 0 0 0 0 0 0 0 0 0 0 0 0 0 0 0 0 0 0 0 
0 0 0 0 0 0 0 0 0 0 0 0 0 3 7 57 87 91 93 92 93 93 92 89 89 87 90 90 88 87 84 83 85 84 85 82 78 76 79 77 73 71 73 77 80 81 81 79 77 74 71 71 77 71 72 72 70 69 73 77 80 81 80 76 73 78 83 84 82 81 82 81 83 84 87 90 90 88 89 88 85 91 93 91 91 93 93 64 5 0 0 1 0 0 0 0 0 0 0 0 0 0 0 0 0 0 0 0 0 0 0 0 0 0 0 0 0 0 0 0 0 0 0 0 0 0 0 0 
0 0 0 0 0 0 0 0 0 0 0 0 0 5 15 74 89 93 93 93 92 92 91 87 87 87 89 88 86 85 84 85 87 86 85 79 77 77 77 75 74 74 78 79 81 78 72 74 76 75 75 74 76 75 76 75 73 73 72 71 71 77 81 82 79 75 81 85 84 81 82 84 84 82 86 89 89 85 88 87 86 89 93 92 91 93 93 75 9 0 0 1 0 0 0 0 0 0 0 0 0 0 0 0 0 0 0 0 0 0 0 0 0 0 0 0 0 0 0 0 0 0 0 0 0 0 0 0 
0 0 0 0 0 0 0 0 0 0 0 0 1 5 29 83 90 93 93 92 90 91 90 87 85 87 87 86 85 83 84 87 88 87 81 78 79 76 75 75 78 82 81 76 72 72 76 77 78 79 79 78 79 78 78 77 77 76 77 77 75 72 74 81 83 81 80 83 85 84 82 84 86 84 84 89 88 85 86 85 86 89 93 92 91 92 93 82 15 0 0 1 0 0 0 0 0 0 0 0 0 0 0 0 0 0 0 0 0 0 0 0 0 0 0 0 0 0 0 0 0 0 0 0 0 0 0 0 
0 0 0 0 0 0 0 0 0 0 0 0 1 5 42 86 91 93 93 91 90 90 90 87 84 86 85 85 83 82 86 89 87 83 77 80 79 75 73 76 81 81 77 73 72 76 78 76 77 77 77 77 76 74 72 71 71 73 76 78 77 75 73 76 83 87 83 81 84 86 85 83 85 86 83 87 87 84 84 83 84 89 93 93 91 92 93 87 23 0 0 0 0 0 0 0 0 0 0 0 0 0 0 0 0 0 0 0 0 0 0 0 0 0 0 0 0 0 0 0 0 0 0 0 0 0 0 0 
0 0 0 0 0 0 0 0 0 0 0 0 2 7 53 87 92 93 93 90 89 90 91 85 84 83 84 84 82 82 87 88 85 81 80 81 79 77 78 80 80 78 76 77 76 75 77 75 75 74 76 77 75 74 73 71 71 72 71 74 81 80 79 77 79 81 82 80 81 85 86 84 83 87 84 84 86 81 84 84 84 89 93 93 91 91 93 90 32 1 0 0 0 0 0 0 0 0 0 0 0 0 0 0 0 0 0 0 0 0 0 0 0 0 0 0 0 0 0 0 0 0 0 0 0 0 0 0 
0 0 0 0 0 0 0 0 0 0 0 0 2 7 60 89 93 93 93 91 90 90 90 86 84 82 84 81 79 83 89 87 83 81 80 81 81 83 84 82 81 78 76 78 78 75 73 72 72 72 75 79 77 77 74 72 69 69 68 71 78 78 76 71 71 81 84 84 85 86 87 85 83 86 87 85 83 81 82 81 83 91 93 93 90 90 93 92 42 2 0 0 0 0 0 0 0 0 0 0 0 0 0 0 0 0 0 0 0 0 0 0 0 0 0 0 0 0 0 0 0 0 0 0 0 0 0 0 
0 0 0 0 0 0 0 0 0 0 0 0 3 11 65 90 93 93 93 92 90 90 90 87 84 82 82 79 79 85 89 85 81 81 81 83 85 85 86 86 85 84 80 75 75 78 76 72 67 70 76 78 80 79 76 72 69 66 66 70 76 76 75 74 77 82 85 85 85 87 88 87 85 86 87 88 84 83 80 81 85 92 93 93 90 90 92 93 51 3 0 0 0 0 0 0 0 0 0 0 0 0 0 0 0 0 0 0 0 0 0 0 0 0 0 0 0 0 0 0 0 0 0 0 0 0 0 0 
0 0 0 0 0 0 0 0 0 0 0 0 3 11 68 91 93 93 93 93 91 91 90 88 86 82 81 79 79 85 89 85 81 83 86 86 83 80 77 76 76 76 78 75 74 72 77 73 67 69 74 78 81 79 75 74 71 65 65 69 73 74 78 80 76 74 72 73 75 79 85 87 88 89 88 89 89 85 80 83 87 91 93 93 90 89 92 93 60 4 0 1 0 0 0 0 0 0 0 0 0 0 0 0 0 0 0 0 0 0 0 0 0 0 0 0 0 0 0 0 0 0 0 0 0 0 0 0 
0 0 0 0 0 0 0 0 0 0 0 0 4 13 70 92 93 93 93 93 92 92 91 90 87 83 81 77 78 86 90 84 84 88 85 82 76 70 68 71 71 66 65 69 72 77 77 75 68 70 76 78 81 80 76 78 74 68 66 66 71 79 77 75 75 73 75 75 73 75 81 84 83 85 90 91 91 89 82 86 88 91 92 93 91 89 91 93 68 6 0 1 0 0 0 0 0 0 0 0 0 0 0 0 0 0 0 0 0 0 0 0 0 0 0 0 0 0 0 0 0 0 0 0 0 0 0 0 
0 0 0 0 0 0 0 0 0 0 0 0 5 13 72 92 93 93 93 93 92 91 91 91 89 85 82 76 79 88 90 87 88 85 80 76 75 73 72 73 71 67 63 62 66 71 74 75 70 70 77 80 80 80 79 78 74 67 63 67 76 71 71 72 72 73 73 74 73 74 77 80 80 79 88 93 92 92 88 87 89 90 91 93 93 89 91 93 75 9 0 1 0 0 0 0 0 0 0 0 0 0 0 0 0 0 0 0 0 0 0 0 0 0 0 0 0 0 0 0 0 0 0 0 0 0 0 0 
0 0 0 0 0 0 0 0 0 0 0 0 6 13 72 93 93 93 93 92 91 91 90 91 91 86 84 82 82 90 91 90 83 78 75 71 70 71 72 71 68 66 63 65 68 71 72 77 74 73 77 80 82 82 82 77 70 63 64 73 70 67 69 70 72 73 74 76 75 76 80 83 83 83 87 93 93 92 91 89 88 89 89 92 93 91 90 93 83 14 0 1 0 0 0 0 0 0 0 0 0 0 0 0 0 0 0 0 0 0 0 0 0 0 0 0 0 0 0 0 0 0 0 0 0 0 0 0 
0 0 0 0 0 0 0 0 0 0 0 0 6 13 73 93 93 93 92 92 91 91 89 90 90 87 85 86 90 91 91 87 77 76 71 69 71 71 70 67 66 65 64 64 68 71 75 77 78 76 81 85 86 84 86 81 75 68 66 75 65 63 65 69 73 75 76 79 78 79 80 82 84 87 89 90 92 92 92 89 87 87 88 90 92 92 90 93 87 22 0 1 0 0 0 0 0 0 0 0 0 0 0 0 0 0 0 0 0 0 0 0 0 0 0 0 0 0 0 0 0 0 0 0 0 0 0 0 
0 0 0 0 0 0 0 0 0 0 0 0 7 14 74 93 93 92 90 90 91 90 88 89 89 89 86 85 91 92 92 86 80 78 75 73 73 71 69 66 66 66 66 68 69 72 76 77 75 74 78 84 87 85 87 83 78 71 73 74 62 59 65 73 76 77 76 78 77 76 80 83 85 85 86 87 89 92 92 90 87 87 87 87 90 93 91 93 90 30 1 1 0 0 0 0 0 0 0 0 0 0 0 0 0 0 0 0 0 0 0 0 0 0 0 0 0 0 0 0 0 0 0 0 0 0 0 0 
0 0 0 0 0 0 0 0 0 0 0 0 7 15 75 93 93 92 89 91 90 89 87 88 87 86 85 85 91 92 91 86 84 82 78 77 77 73 68 66 67 70 71 70 72 71 73 77 74 74 79 84 84 82 85 85 80 75 76 70 60 62 68 72 73 73 74 76 76 76 79 84 84 82 85 86 87 91 92 89 86 85 84 85 87 92 91 93 91 37 1 1 1 0 0 0 0 0 0 0 0 0 0 0 0 0 0 0 0 0 0 0 0 0 0 0 0 0 0 0 0 0 0 0 0 0 0 0 
0 0 0 0 0 0 0 0 0 0 0 0 7 16 76 93 92 92 89 90 89 87 84 85 85 85 84 85 89 90 88 83 81 80 76 75 75 71 70 65 64 66 70 75 73 71 71 73 74 73 79 79 77 82 83 85 84 79 75 67 62 64 68 72 73 73 72 73 76 75 78 83 83 79 84 84 86 91 91 88 85 83 81 83 84 90 92 93 92 43 3 1 1 0 0 0 0 0 0 0 0 0 0 0 0 0 0 0 0 0 0 0 0 0 0 0 0 0 0 0 0 0 0 0 0 0 0 0 
0 0 0 0 0 0 0 0 0 0 0 0 7 16 77 93 92 92 87 88 87 85 80 81 82 82 84 87 87 87 86 82 77 77 74 73 72 70 68 64 64 66 70 72 71 71 71 71 72 72 80 79 78 80 80 85 83 81 77 68 64 65 69 71 69 71 71 72 74 76 79 82 82 78 81 83 85 90 89 88 87 82 78 81 81 87 93 93 92 48 2 1 1 0 0 0 0 0 0 0 0 0 0 0 0 0 0 0 0 0 0 0 0 0 0 0 0 0 0 0 0 0 0 0 0 0 0 0 
0 0 0 0 0 0 0 0 0 0 0 0 7 16 75 93 92 92 85 85 84 82 75 79 80 77 82 87 86 86 85 81 77 76 72 72 71 68 67 63 63 67 69 72 70 68 71 70 69 75 84 85 81 75 76 75 85 79 76 70 68 68 68 65 67 70 70 72 74 75 78 81 79 78 81 82 85 90 88 89 90 82 78 82 82 86 91 93 92 52 2 1 1 0 0 0 0 0 0 0 0 0 0 0 0 0 0 0 0 0 0 0 0 0 0 0 0 0 0 0 0 0 0 0 0 0 0 0 
0 0 0 0 0 0 0 0 0 0 0 0 7 16 75 93 92 92 85 83 81 80 75 79 79 75 81 86 84 85 84 80 78 75 73 72 71 70 68 65 65 69 74 74 71 70 72 70 65 73 83 85 76 72 75 71 82 86 73 71 68 67 66 66 69 71 70 71 73 75 78 80 76 76 81 82 87 91 90 91 91 82 78 81 82 86 90 93 92 52 3 1 1 0 0 0 0 0 0 0 0 0 0 0 0 0 0 0 0 0 0 0 0 0 0 0 0 0 0 0 0 0 0 0 0 0 0 0 
0 0 0 0 0 0 0 0 0 0 0 0 7 16 72 93 93 91 85 80 81 81 75 78 79 75 81 85 83 83 84 81 78 76 73 73 72 71 70 66 67 68 70 70 70 70 72 68 67 77 83 78 66 63 70 65 71 88 71 71 67 64 64 71 74 74 71 71 74 75 77 78 75 77 81 84 90 92 90 90 91 82 78 79 82 85 90 93 91 51 2 0 1 0 0 0 0 0 0 0 0 0 0 0 0 0 0 0 0 0 0 0 0 0 0 0 0 0 0 0 0 0 0 0 0 0 0 0 
0 0 0 0 0 0 0 0 0 0 0 0 6 14 67 93 93 90 84 79 81 80 75 77 79 77 80 84 81 82 86 82 77 79 74 71 73 73 71 67 67 69 68 67 65 67 69 66 68 77 79 69 66 64 70 64 66 84 80 70 67 62 64 73 73 72 70 73 75 76 76 76 75 77 79 85 92 91 89 90 90 81 79 78 81 85 90 93 90 47 2 1 1 0 0 0 0 0 0 0 0 0 0 0 0 0 0 0 0 0 0 0 0 0 0 0 0 0 0 0 0 0 0 0 0 0 0 0 
0 0 0 0 0 0 0 0 0 0 0 0 4 14 64 92 93 90 85 80 79 80 76 76 77 77 79 85 80 81 85 84 77 79 75 72 73 73 72 69 69 72 69 66 65 66 66 61 66 78 77 67 65 66 73 67 65 72 85 73 66 61 63 72 73 73 72 73 74 74 74 74 75 77 79 85 91 89 88 90 90 81 79 78 80 83 90 93 88 43 1 0 0 0 0 0 0 0 0 0 0 0 0 0 0 0 0 0 0 0 0 0 0 0 0 0 0 0 0 0 0 0 0 0 0 0 0 0 
0 0 0 0 0 0 0 0 0 0 0 0 2 14 60 92 93 91 85 80 78 79 76 77 76 76 77 86 81 81 85 84 77 78 75 71 73 74 72 71 72 73 69 66 64 65 62 60 68 79 69 64 63 69 76 71 67 66 81 81 75 67 65 72 73 73 72 72 73 74 72 73 74 77 77 85 89 87 88 89 89 80 80 78 78 83 91 93 86 39 1 0 0 0 0 0 0 0 0 0 0 0 0 0 0 0 0 0 0 0 0 0 0 0 0 0 0 0 0 0 0 0 0 0 0 0 0 0 
0 0 0 0 0 0 0 0 0 5 4 0 0 11 53 90 93 91 85 81 76 79 77 77 75 74 77 85 82 83 85 83 77 77 76 72 72 73 71 71 73 75 71 67 69 74 72 65 75 74 67 64 64 72 73 69 69 67 73 83 83 80 76 76 77 75 75 73 72 73 71 71 75 76 78 85 86 83 87 91 88 80 80 76 77 83 91 91 81 33 1 1 0 0 0 0 0 0 0 0 0 0 0 0 0 0 0 0 0 0 0 0 0 0 0 0 0 0 0 0 0 0 0 0 0 0 0 0 
0 0 0 0 0 0 0 0 0 3 8 3 0 8 45 88 93 91 84 81 75 77 79 77 74 73 78 85 84 84 86 83 76 75 74 74 71 71 69 71 78 78 76 72 74 76 76 68 79 71 71 68 66 72 73 70 71 69 74 85 84 85 85 78 74 72 73 75 75 72 68 71 77 73 78 87 85 87 89 90 89 82 77 75 77 82 92 90 77 30 1 0 0 0 0 0 0 0 0 0 0 0 0 0 0 0 0 0 0 0 0 0 0 0 0 0 0 0 0 0 0 0 0 0 0 0 0 0 
0 0 0 0 0 0 0 0 0 0 4 9 2 8 37 84 93 91 82 80 74 75 80 79 76 72 79 85 86 83 86 85 77 76 75 73 71 71 70 74 77 77 77 77 80 81 77 73 81 67 70 69 69 76 73 68 72 73 78 87 86 84 80 84 83 81 79 77 77 74 70 74 77 76 81 88 89 87 88 89 91 86 75 74 78 85 92 89 72 24 0 0 0 0 0 0 0 0 0 0 0 0 0 0 0 0 0 0 0 0 0 0 0 0 0 0 0 0 0 0 0 0 0 0 0 0 0 0 
0 0 0 0 0 0 0 0 0 0 3 8 3 7 29 78 92 92 83 79 78 75 79 79 78 73 79 84 86 85 89 88 83 78 76 72 71 73 75 79 80 81 82 83 78 79 72 79 84 69 72 72 71 81 75 70 70 70 70 86 90 84 78 83 86 89 91 90 88 87 87 85 86 88 89 92 89 87 88 91 91 90 78 77 80 88 91 85 69 16 1 1 1 7 4 0 0 0 0 0 0 0 0 0 0 0 0 0 0 0 0 0 0 0 0 0 0 0 0 0 0 0 0 0 0 0 0 0 
0 0 0 0 0 0 0 0 0 0 3 9 4 5 23 72 91 92 86 81 81 74 75 80 78 76 80 83 86 85 87 87 87 88 84 80 81 84 86 84 84 83 76 73 80 78 75 80 82 69 72 74 75 81 76 67 67 66 70 87 90 81 74 77 80 86 91 92 91 92 92 92 91 89 89 90 90 90 89 91 92 89 84 83 80 91 89 83 64 10 3 3 7 3 1 0 0 0 0 0 0 0 0 0 0 0 0 0 0 0 0 0 0 0 0 0 0 0 0 0 0 0 0 0 0 0 0 0 
0 0 0 0 0 0 0 0 0 0 1 6 5 7 18 65 89 93 90 82 80 74 72 78 81 81 81 84 86 85 84 88 83 85 86 88 88 86 85 83 82 80 78 79 78 76 69 74 82 72 72 76 75 82 74 65 67 69 73 87 88 82 77 79 81 84 90 91 91 92 92 91 92 88 89 87 90 92 91 89 91 89 89 89 92 91 84 81 56 7 2 2 3 1 0 0 0 0 0 0 0 0 0 0 0 0 0 0 0 0 0 0 0 0 0 0 0 0 0 0 0 0 0 0 0 0 0 0 
0 0 0 0 0 0 0 0 0 0 0 4 7 8 11 57 86 93 93 85 80 77 74 82 87 85 83 86 86 85 87 90 89 87 85 87 87 87 88 87 83 81 75 68 68 71 71 76 83 80 70 69 72 78 74 66 66 74 76 79 83 83 83 85 86 88 91 91 90 92 90 91 92 92 92 90 92 93 93 93 93 92 93 93 93 90 82 80 45 5 2 4 2 1 0 0 0 0 0 0 0 0 0 0 0 0 0 0 0 0 0 0 0 0 0 0 0 0 0 0 0 0 0 0 0 0 0 0 
0 0 0 0 0 0 0 0 0 0 0 3 9 9 11 47 83 92 93 90 83 84 84 85 87 88 87 89 87 85 90 90 93 93 93 91 91 91 89 83 78 75 71 65 64 63 70 78 82 73 72 72 70 81 75 68 69 76 79 80 83 81 84 87 87 90 93 93 93 93 92 93 93 91 90 91 92 93 93 93 92 91 93 92 90 90 87 79 29 5 3 3 2 0 0 0 0 0 0 0 0 0 0 0 0 0 0 0 0 0 0 0 0 0 0 0 0 0 0 0 0 0 0 0 0 0 0 0 
0 0 0 0 0 0 0 0 0 0 0 4 11 8 8 32 80 92 93 92 91 92 90 90 91 91 92 91 90 89 91 93 93 93 93 93 93 92 89 83 80 76 74 72 69 66 79 81 77 70 68 75 74 84 76 71 70 74 79 80 83 84 85 86 85 86 90 90 92 93 92 93 92 88 90 89 91 92 93 93 92 91 90 91 93 87 87 68 15 6 4 1 2 0 0 0 0 0 0 0 0 0 0 0 0 0 0 0 0 0 0 0 0 0 0 0 0 0 0 0 0 0 0 0 0 0 0 0 
0 0 0 0 0 0 0 0 0 0 0 3 8 7 8 12 51 88 92 92 93 92 92 93 93 93 92 90 91 92 93 93 93 93 93 93 93 92 89 83 80 80 79 79 77 75 82 83 78 72 71 76 77 83 85 76 71 73 76 81 81 78 82 85 86 86 86 86 88 89 88 90 89 85 88 90 89 91 93 93 93 93 93 93 92 87 85 73 16 4 4 3 2 1 1 0 0 0 0 0 0 0 0 0 0 0 0 0 0 0 0 0 0 0 0 0 0 0 0 0 0 0 0 0 0 0 0 0 
0 0 0 0 0 0 0 0 0 0 0 4 7 5 6 9 33 83 93 93 93 93 92 93 93 93 93 93 91 90 92 92 93 93 93 93 93 93 91 83 79 81 80 78 76 78 84 81 78 74 73 76 77 83 83 75 70 70 70 75 78 75 76 84 86 84 85 86 87 87 89 88 83 84 88 90 89 91 91 93 93 93 93 90 85 86 84 52 7 3 4 4 2 2 1 0 0 0 0 0 0 0 0 0 0 0 0 0 0 0 0 0 0 0 0 0 0 0 0 0 0 0 0 0 0 0 0 0 
0 0 0 0 0 0 0 0 0 0 0 4 5 2 6 8 20 71 92 92 93 93 93 92 93 93 93 93 92 90 89 88 92 93 93 93 92 92 91 86 82 79 79 80 75 76 82 75 76 75 74 74 68 78 82 78 71 70 71 73 78 84 84 83 77 75 83 86 87 90 91 86 87 90 92 92 90 91 90 92 92 93 90 86 87 88 81 28 5 3 3 6 2 1 2 0 0 0 0 0 0 0 0 0 0 0 0 0 0 0 0 0 0 0 0 0 0 0 0 0 0 0 0 0 0 0 0 0 
0 0 0 0 0 0 0 0 0 0 0 3 5 3 4 8 16 52 90 92 91 92 93 93 93 93 93 93 93 92 91 89 90 89 90 92 91 90 89 86 80 78 79 78 77 80 85 75 80 84 83 78 72 76 85 86 75 73 74 76 82 85 86 88 78 70 74 77 79 83 88 88 89 92 93 93 93 91 90 92 91 91 89 84 82 85 62 14 7 3 4 3 4 2 2 0 0 0 0 0 0 0 0 0 0 0 0 0 0 0 0 0 0 0 0 0 0 0 0 0 0 0 0 0 0 0 0 0 
0 0 0 0 0 0 0 0 0 0 0 1 6 4 4 8 14 31 83 91 89 90 92 93 92 91 91 91 92 93 93 91 85 86 90 91 90 87 86 81 74 73 78 83 81 84 89 81 84 87 86 84 81 82 89 87 82 80 80 81 80 85 85 88 85 76 71 70 75 79 87 91 91 91 92 93 93 93 92 92 92 91 87 73 79 83 37 8 6 5 6 1 3 3 2 0 0 0 0 0 0 0 0 0 0 0 0 0 0 0 0 0 0 0 0 0 0 0 0 0 0 0 0 0 0 0 0 0 
0 0 0 0 0 0 0 0 0 0 0 2 3 3 4 10 14 16 65 87 86 89 91 93 91 90 92 91 90 93 93 93 88 82 88 92 91 89 81 72 66 74 78 83 83 85 89 87 86 86 89 90 86 83 90 90 86 82 82 84 81 86 86 88 85 81 71 67 75 84 87 92 90 87 90 93 93 93 92 93 92 88 80 72 76 69 20 12 6 6 6 3 4 3 2 0 0 0 0 0 0 0 0 0 0 0 0 0 0 0 0 0 0 0 0 0 0 0 0 0 0 0 0 0 0 0 0 0 
0 0 0 0 0 0 0 0 0 0 0 2 3 2 2 6 11 11 42 85 90 86 91 93 93 92 92 91 92 93 93 92 88 84 84 88 89 84 80 74 70 78 79 80 82 87 88 87 86 90 92 92 92 92 93 91 89 90 90 88 87 91 92 91 87 81 69 70 80 87 85 84 89 86 89 92 93 92 91 93 88 82 75 75 79 48 11 13 6 5 5 2 2 2 2 0 0 0 0 0 0 0 0 0 0 0 0 0 0 0 0 0 0 0 0 0 0 0 0 0 0 0 0 0 0 0 0 0 
0 0 0 0 0 0 0 0 0 0 1 1 3 2 1 4 10 11 24 76 86 81 87 91 93 93 93 92 93 93 93 92 89 88 83 84 82 77 74 80 80 82 81 83 87 92 92 91 92 93 93 93 93 93 92 93 93 93 93 93 93 93 93 93 90 86 84 84 87 88 82 83 89 87 86 92 93 91 92 93 88 76 69 71 73 27 9 12 7 4 4 0 1 2 2 0 0 0 0 0 0 0 0 0 0 0 0 0 0 0 0 0 0 0 0 0 0 0 0 0 0 0 0 0 0 0 0 0 
0 0 0 0 0 0 0 0 0 0 0 1 5 2 0 3 9 11 14 57 85 83 80 89 93 93 93 93 93 91 93 92 89 89 87 86 82 78 78 83 90 89 87 86 90 93 93 93 93 92 91 91 92 92 93 93 93 92 91 92 92 93 93 93 93 92 92 91 92 85 78 80 86 88 81 91 93 91 93 93 89 83 77 77 65 15 7 9 7 4 4 0 1 2 3 0 0 0 0 0 0 0 0 0 0 0 0 0 0 0 0 0 0 0 0 0 0 0 0 0 0 0 0 0 0 0 0 0 
0 0 0 0 0 0 0 0 0 0 1 4 5 1 0 4 8 9 12 36 74 81 80 85 90 93 93 93 92 92 92 93 90 88 86 85 84 85 87 88 90 93 93 93 93 93 93 93 93 93 92 93 92 93 93 93 93 93 92 92 92 93 93 93 92 93 93 93 92 83 76 78 81 86 87 91 93 91 93 89 85 79 78 77 57 14 6 6 5 4 4 0 2 3 3 0 0 0 0 0 0 0 0 0 0 0 0 0 0 0 0 0 0 0 0 0 0 0 0 0 0 0 0 0 0 0 0 0 
0 0 0 0 0 0 0 0 0 0 1 4 11 9 3 4 7 9 10 25 67 83 84 82 84 90 93 93 93 92 91 91 88 86 82 83 82 83 86 88 90 93 93 93 93 93 93 93 92 92 92 93 93 93 93 92 93 93 91 90 91 93 93 93 92 93 93 93 91 80 70 74 82 88 92 93 93 93 93 87 76 65 73 73 50 14 6 3 4 3 3 2 2 3 3 0 0 0 0 0 0 0 0 0 0 0 0 0 0 0 0 0 0 0 0 0 0 0 0 0 0 0 0 0 0 0 0 0 
0 0 0 0 0 0 0 0 0 0 0 4 11 12 9 5 6 11 12 19 56 78 84 84 82 80 91 93 93 91 89 90 88 82 77 79 81 84 85 84 88 91 93 93 93 93 93 93 93 93 93 93 93 93 93 91 91 93 91 88 90 92 92 93 92 93 93 93 91 80 71 74 81 86 93 92 91 91 93 77 70 70 77 73 36 14 6 3 5 6 2 2 2 3 3 0 0 0 0 0 0 0 0 0 0 0 0 0 0 0 0 0 0 0 0 0 0 0 0 0 0 0 0 0 0 0 0 0 
0 0 0 0 0 0 0 0 0 0 0 3 10 10 8 8 7 13 15 14 30 70 84 86 79 84 90 92 93 92 90 88 89 83 72 76 79 82 82 81 83 91 93 93 93 93 93 93 92 93 93 93 93 93 92 86 86 87 89 87 90 93 93 92 88 91 93 93 89 81 75 75 80 89 93 93 92 93 92 72 62 63 66 55 18 14 8 4 5 5 4 4 5 5 3 0 0 0 0 0 0 0 0 0 0 0 0 0 0 0 0 0 0 0 0 0 0 0 0 0 0 0 0 0 0 0 0 0 
0 0 0 0 0 0 0 0 0 0 0 1 10 10 8 9 9 9 12 14 17 44 80 83 82 82 86 93 93 93 93 91 88 87 78 74 75 76 78 79 86 92 93 93 93 92 93 93 92 90 93 93 92 93 93 89 88 89 88 87 92 93 93 91 89 90 93 93 93 89 87 84 90 93 93 93 88 83 81 65 59 71 74 32 11 7 8 5 4 4 4 7 11 6 4 0 0 0 0 0 0 0 0 0 0 0 0 0 0 0 0 0 0 0 0 0 0 0 0 0 0 0 0 0 0 0 0 0 
0 0 0 0 0 0 0 0 0 0 0 0 8 10 7 6 5 5 9 13 18 25 58 76 77 76 82 92 93 93 93 93 90 90 82 75 75 76 81 87 90 92 91 92 92 93 93 93 92 93 93 93 93 90 88 92 93 93 93 93 93 93 88 82 89 89 91 93 93 92 92 92 91 92 85 76 71 69 71 64 74 76 47 18 9 0 1 4 4 4 4 5 7 5 2 0 0 0 0 0 0 0 0 0 0 0 0 0 0 0 0 0 0 0 0 0 0 0 0 0 0 0 0 0 0 0 0 0 
0 0 0 0 0 0 0 0 0 0 0 0 3 6 4 3 2 2 4 10 15 19 35 65 69 66 74 81 80 92 93 93 92 92 87 82 85 87 89 91 92 90 89 91 88 87 91 88 87 92 92 91 91 91 91 93 93 92 90 91 90 88 81 75 86 83 88 89 91 90 92 90 80 72 57 67 65 61 65 63 57 38 25 20 12 1 0 0 1 4 3 5 9 1 1 0 0 0 0 0 0 0 0 0 0 0 0 0 0 0 0 0 0 0 0 0 0 0 0 0 0 0 0 0 0 0 0 0 
0 0 0 0 0 0 0 0 0 0 0 0 0 2 3 2 1 0 1 7 12 19 24 41 64 71 62 53 58 68 76 82 90 90 88 88 86 87 90 93 89 90 92 91 90 87 91 91 91 92 93 92 93 93 93 93 93 93 93 93 92 89 80 89 92 92 92 93 93 90 86 75 67 62 59 69 65 64 57 45 37 33 34 25 17 0 0 0 0 2 1 7 6 1 1 0 0 0 0 0 0 0 0 0 0 0 0 0 0 0 0 0 0 0 0 0 0 0 0 0 0 0 0 0 0 0 0 0 
0 0 0 0 0 0 0 0 0 0 0 0 0 1 3 4 3 3 1 3 8 12 17 20 34 44 32 39 58 55 54 53 71 69 66 77 65 62 63 62 74 85 91 93 93 91 92 88 92 83 77 82 84 82 80 82 78 78 82 81 77 83 75 92 85 92 89 64 53 56 51 52 54 45 50 65 65 64 42 27 26 24 17 7 2 0 3 2 2 2 1 6 4 1 2 0 0 0 0 0 0 0 0 0 0 0 0 0 0 0 0 0 0 0 0 0 0 0 0 0 0 0 0 0 0 0 0 0 
0 0 0 0 0 0 0 0 0 0 0 0 0 0 3 1 2 2 2 0 5 8 12 15 20 20 21 31 57 58 52 52 57 53 48 62 59 49 57 56 66 70 68 64 70 76 68 64 71 69 56 62 71 70 73 74 63 55 63 65 68 76 64 61 59 75 77 79 82 80 59 47 52 52 54 64 66 63 41 27 26 23 15 5 2 0 2 0 0 0 3 4 1 1 2 0 0 0 0 0 0 0 0 0 0 0 0 0 0 0 0 0 0 0 0 0 0 0 0 0 0 0 0 0 0 0 0 0 
0 0 0 0 0 0 0 0 0 0 0 0 0 0 0 0 0 0 0 0 3 8 9 15 19 23 27 34 56 62 56 52 58 56 47 52 60 71 89 87 92 90 82 77 77 79 76 81 83 68 60 75 80 80 77 71 62 59 72 78 79 82 74 68 83 93 66 75 86 77 68 72 67 66 63 69 73 66 45 31 27 20 11 6 1 0 0 0 0 0 1 0 0 0 1 0 0 0 0 0 0 0 0 0 0 0 0 0 0 0 0 0 0 0 0 0 0 0 0 0 0 0 0 0 0 0 0 0 
0 0 0 0 0 0 0 0 0 0 0 0 0 0 0 0 0 0 0 0 0 3 4 7 14 26 28 36 59 67 64 56 63 66 62 65 68 82 85 92 92 93 93 93 93 93 92 93 92 84 80 82 82 80 76 79 80 75 80 89 92 91 89 89 92 92 89 87 83 90 80 77 65 57 56 63 62 61 45 34 23 18 12 11 0 0 0 0 0 0 0 0 0 0 0 0 0 0 0 0 0 0 0 0 0 0 0 0 0 0 0 0 0 0 0 0 0 0 0 0 0 0 0 0 0 0 0 0 
0 0 0 0 0 0 0 0 0 0 0 0 0 0 0 0 0 0 0 0 0 1 5 5 7 19 25 32 49 59 59 56 62 68 65 69 72 77 88 82 92 92 92 93 93 91 93 91 93 93 92 92 93 93 93 93 93 93 92 93 93 93 93 93 92 93 92 85 92 92 81 78 58 51 45 58 60 46 28 18 17 8 5 1 0 0 0 0 0 0 0 0 0 0 0 0 0 0 0 0 0 0 0 0 0 0 0 0 0 0 0 0 0 0 0 0 0 0 0 0 0 0 0 0 0 0 0 0 
0 0 0 0 0 0 0 0 0 0 0 0 0 0 0 0 0 0 0 0 0 0 1 2 7 13 27 34 48 61 66 60 62 61 55 54 56 67 83 86 90 91 86 81 87 92 92 92 93 93 92 88 89 87 90 90 90 88 89 90 93 93 89 90 86 88 92 91 92 92 82 57 33 33 41 64 61 38 19 14 10 8 6 0 0 0 0 0 0 0 0 3 3 6 7 1 0 0 0 0 0 0 0 0 0 0 0 0 0 0 0 0 0 0 0 0 0 0 0 0 0 0 0 0 0 0 0 0 
0 0 0 0 0 0 0 0 0 0 0 0 0 0 0 0 0 0 0 0 0 0 3 5 10 13 18 20 28 45 59 56 57 56 53 57 45 52 61 85 81 82 80 72 74 90 90 91 84 86 87 74 74 77 82 71 77 78 83 84 84 88 86 76 85 87 89 83 90 87 77 61 43 42 54 76 67 40 25 14 13 12 7 0 0 0 0 0 0 0 0 0 0 2 4 0 0 0 0 0 0 0 0 0 0 0 0 0 0 0 0 0 0 0 0 0 0 0 0 0 0 0 0 0 0 0 0 0 
0 0 0 0 0 0 0 0 0 0 0 0 0 0 0 0 0 0 0 0 0 0 1 5 8 13 17 20 24 38 52 64 63 59 54 47 43 60 72 78 75 79 77 79 81 87 90 90 84 83 80 69 74 74 75 72 80 84 87 83 80 83 78 69 69 80 87 87 88 83 73 62 56 57 66 80 69 42 23 18 17 12 5 0 0 0 0 0 0 0 0 0 0 2 4 0 0 0 0 0 0 0 0 0 0 0 0 0 0 0 0 0 0 0 0 0 0 0 0 0 0 0 0 0 0 0 0 0 
0 0 0 0 0 0 0 0 0 0 0 0 0 0 0 0 0 0 0 0 0 0 0 4 7 10 14 19 22 35 47 64 64 59 55 42 37 53 63 73 73 72 73 73 78 83 85 87 88 85 82 75 78 79 76 72 76 77 84 85 84 89 88 81 78 77 81 83 80 74 65 49 45 57 74 82 68 45 23 18 16 10 4 0 0 0 0 0 0 0 0 0 0 2 4 0 0 0 0 0 0 0 0 0 0 0 0 0 0 0 0 0 0 0 0 0 0 0 0 0 0 0 0 0 0 0 0 0 
0 0 0 0 0 0 0 0 0 0 0 0 0 0 0 0 0 0 0 0 0 0 0 2 6 9 12 18 21 32 42 62 63 62 57 45 45 49 46 57 62 63 73 72 75 81 82 85 89 89 87 79 81 83 80 76 76 75 81 85 87 92 88 81 76 74 76 79 79 75 63 54 48 54 77 83 68 48 24 18 14 10 3 0 0 0 0 0 0 0 0 0 0 1 4 0 0 0 0 0 0 0 0 0 0 0 0 0 0 0 0 0 0 0 0 0 0 0 0 0 0 0 0 0 0 0 0 0 
0 0 0 0 0 0 0 0 0 0 0 0 0 0 0 0 0 0 0 0 0 0 0 0 4 7 9 15 18 28 44 58 65 63 60 51 49 47 49 50 53 65 71 70 77 81 80 84 87 83 85 77 78 81 77 78 76 74 78 84 85 87 86 79 77 78 76 78 76 72 67 60 53 57 76 82 66 44 26 16 14 9 1 0 0 0 0 0 0 0 0 0 0 1 4 0 0 0 0 0 0 0 0 0 0 0 0 0 0 0 0 0 0 0 0 0 0 0 0 0 0 0 0 0 0 0 0 0 
0 0 0 0 0 0 0 0 0 0 0 0 0 0 0 0 0 0 0 0 0 0 0 0 2 3 9 11 16 22 39 49 63 62 62 57 53 51 48 46 55 60 69 74 79 78 75 76 81 78 81 79 75 73 73 74 72 71 77 83 82 80 84 78 80 82 80 73 65 60 54 62 59 62 75 80 67 42 18 15 14 8 1 0 0 0 0 0 0 0 0 0 0 2 4 0 0 0 0 0 0 0 0 0 0 0 0 0 0 0 0 0 0 0 0 0 0 0 0 0 0 0 0 0 0 0 0 0 
0 0 0 0 0 0 0 0 0 0 0 0 0 0 0 0 0 0 0 0 0 0 0 0 0 3 6 10 13 19 28 42 56 60 64 67 57 56 47 45 50 58 69 71 78 76 75 71 72 73 79 78 74 70 71 75 75 75 78 82 81 77 77 73 75 75 77 71 59 55 47 62 67 67 77 69 41 21 15 15 15 8 0 0 0 0 0 0 0 0 0 0 0 2 5 0 0 0 0 0 0 0 0 0 0 0 0 0 0 0 0 0 0 0 0 0 0 0 0 0 0 0 0 0 0 0 0 0 
0 0 0 0 0 0 0 0 0 0 0 0 0 0 0 0 0 0 0 0 0 0 0 0 0 3 3 7 13 17 19 31 37 40 62 69 54 59 47 45 46 56 65 66 74 72 73 70 70 74 80 76 77 78 79 80 82 82 78 78 76 70 74 73 75 70 72 66 62 53 48 64 67 73 78 39 16 16 16 17 15 7 0 0 0 0 0 0 0 0 0 0 0 2 5 0 0 0 0 0 0 0 0 0 0 0 0 0 0 0 0 0 0 0 0 0 0 0 0 0 0 0 0 0 0 0 0 0 
0 0 0 0 0 0 0 0 0 0 0 0 0 0 0 0 0 0 0 0 0 0 0 0 0 0 4 4 11 16 18 18 16 14 26 61 59 62 54 56 47 53 62 61 61 61 70 71 69 73 73 70 71 76 77 80 85 81 71 69 74 71 76 74 72 65 63 61 62 55 61 67 69 73 60 23 15 14 15 17 13 6 0 0 0 0 0 0 0 0 0 0 0 1 5 0 0 0 0 0 0 0 0 0 0 0 0 0 0 0 0 0 0 0 0 0 0 0 0 0 0 0 0 0 0 0 0 0 
0 0 0 0 0 0 0 0 0 0 0 0 0 0 0 0 0 0 0 0 0 0 0 0 0 0 1 3 8 12 17 16 17 15 11 33 61 66 67 59 51 56 64 62 62 60 64 71 75 77 71 69 73 77 79 80 85 82 70 67 76 73 78 79 72 64 65 67 65 57 67 76 72 64 33 20 13 14 15 16 11 5 0 0 0 0 0 0 0 0 0 0 0 1 4 0 0 0 0 0 0 0 0 0 0 0 0 0 0 0 0 0 0 0 0 0 0 0 0 0 0 0 0 0 0 0 0 0 
0 0 0 0 0 0 0 0 0 0 0 0 0 0 0 0 0 0 0 0 0 0 0 0 0 0 0 3 6 8 15 16 16 16 12 11 33 59 69 62 57 60 70 65 67 65 69 73 73 78 75 71 72 76 80 83 87 85 77 75 81 79 75 78 75 66 66 73 73 66 69 76 63 34 22 16 12 15 16 14 10 5 1 0 0 0 0 0 0 0 0 0 0 1 4 0 0 0 0 0 0 0 0 0 0 0 0 0 0 0 0 0 0 0 0 0 0 0 0 0 0 0 0 0 0 0 0 0 
0 0 0 0 0 0 0 0 0 0 0 0 0 0 0 0 0 0 0 0 0 0 0 0 0 0 0 2 5 7 11 15 15 17 13 12 15 29 53 64 65 70 76 69 73 72 76 75 67 78 80 73 70 74 79 84 85 85 82 79 76 75 74 79 79 72 74 79 78 72 71 60 31 24 19 15 12 15 14 13 9 4 1 0 0 0 0 0 0 0 0 0 0 1 4 0 0 0 0 0 0 0 0 0 0 0 0 0 0 0 0 0 0 0 0 0 0 0 0 0 0 0 0 0 0 0 0 0 
0 0 0 0 0 0 0 0 0 0 0 0 0 0 0 0 0 0 0 0 0 0 0 0 0 0 0 0 3 7 9 13 15 16 14 11 13 21 27 47 63 72 79 74 78 80 80 78 72 78 78 72 72 80 85 87 86 86 86 83 78 76 79 80 83 79 80 82 80 70 54 33 25 24 20 15 13 13 13 11 9 5 0 0 0 0 0 0 0 0 0 0 0 1 4 0 0 0 0 0 0 0 0 0 0 0 0 0 0 0 0 0 0 0 0 0 0 0 0 0 0 0 0 0 0 0 0 0 
0 0 0 0 0 0 0 0 0 0 0 0 0 0 0 0 0 0 0 0 0 0 0 0 0 0 0 0 1 7 7 12 14 15 15 11 10 19 24 25 35 52 66 73 81 81 83 81 77 79 81 78 80 84 85 85 84 86 87 84 82 78 81 83 84 79 81 78 64 43 30 27 25 22 21 15 12 13 12 11 8 4 0 0 0 0 0 0 0 0 0 0 0 1 4 0 0 0 0 0 0 0 0 0 0 0 0 0 0 0 0 0 0 0 0 0 0 0 0 0 0 0 0 0 0 0 0 0 
0 0 0 0 0 0 0 0 0 0 0 0 0 0 0 0 0 0 0 0 0 0 0 0 0 0 0 0 0 6 7 9 13 15 14 11 10 18 24 26 29 32 38 53 70 77 78 76 76 80 82 84 83 81 80 78 78 81 87 84 83 82 85 83 81 76 69 53 37 33 28 25 23 21 18 14 12 14 13 11 8 3 0 0 0 0 0 0 0 0 0 0 0 2 4 0 0 0 0 0 0 0 0 0 0 0 0 0 0 0 0 0 0 0 0 0 0 0 0 0 0 0 0 0 0 0 0 0 
0 0 0 0 0 0 0 0 0 0 0 0 0 0 0 0 0 0 0 0 0 0 0 0 0 0 0 0 0 4 6 8 13 15 14 12 11 18 24 25 29 31 29 35 45 56 62 69 73 75 79 83 80 77 79 81 81 80 84 84 85 81 81 80 70 55 45 43 37 32 25 25 23 21 15 12 13 13 13 12 7 3 0 0 0 0 0 0 0 0 0 0 0 1 4 0 0 0 0 0 0 0 0 0 0 0 0 0 0 0 0 0 0 0 0 0 0 0 0 0 0 0 0 0 0 0 0 0 
