P2
# teste1.pgm
128 99
219
0 0 0 0 0 0 0 0 0 0 0 0 0 0 0 0 0 0 0 0 0 0 0 0 0 0 0 0 0 0 0 0 0 0 0 0 0 0 0 0 0 0 0 0 0 0 0 0 0 0 0 0 0 0 0 0 0 0 0 0 0 0 0 0 0 0 0 0 0 0 0 0 0 0 0 0 0 0 0 0 0 0 0 0 0 0 0 0 0 0 0 0 0 0 0 1 2 0 0 0 0 0 0 0 0 0 0 0 0 0 0 0 0 0 0 0 0 0 0 0 0 0 0 0 0 0 0 0 
0 0 0 0 0 0 0 0 0 0 0 0 0 0 0 0 0 0 0 0 0 0 0 0 0 0 0 0 0 0 0 0 0 0 0 0 0 0 0 0 0 0 0 0 0 0 0 0 0 0 0 0 0 0 0 0 0 0 0 0 0 0 0 0 0 0 0 0 0 0 0 0 0 0 0 0 0 0 0 0 0 0 0 0 0 0 0 0 0 0 0 0 0 0 0 1 1 0 0 0 0 0 0 0 0 0 0 0 0 0 0 0 0 0 0 0 0 0 0 0 0 0 0 0 0 0 0 0 
0 0 0 0 0 0 0 0 0 0 0 0 0 0 0 0 0 0 0 0 0 0 0 0 0 0 0 0 0 0 0 0 0 0 0 0 0 0 0 0 0 0 0 0 0 0 0 0 0 0 0 1 2 2 1 0 0 0 0 0 0 0 0 0 0 0 0 0 0 0 0 0 0 0 0 0 0 0 0 0 0 0 0 0 0 0 0 0 0 0 0 0 0 0 0 1 1 0 0 0 0 0 0 0 0 0 0 0 0 0 0 0 0 0 0 0 0 0 0 0 0 0 0 0 0 0 0 0 
0 0 0 0 0 0 0 0 0 0 0 0 0 0 0 0 0 0 0 0 0 0 0 0 0 0 0 0 0 0 0 0 0 0 0 0 0 0 0 0 0 0 0 0 6 13 16 18 17 18 21 24 27 27 25 21 18 15 14 11 4 0 0 0 0 0 0 0 0 0 0 0 0 0 0 0 0 0 0 0 0 0 0 0 0 0 0 0 0 0 0 0 0 0 0 1 1 0 0 0 0 0 0 0 0 0 0 0 0 0 0 0 0 0 0 0 0 0 0 0 0 0 0 0 0 0 0 0 
0 0 0 0 0 0 0 0 0 0 0 0 0 0 0 0 0 0 0 0 0 0 0 0 0 0 0 0 0 0 0 0 0 0 0 0 0 0 0 0 5 13 19 23 24 33 54 78 102 124 141 153 158 159 155 144 127 105 80 54 33 21 16 10 2 0 0 0 0 0 0 0 0 0 0 0 0 0 0 0 0 0 0 0 0 0 0 0 0 0 0 0 0 0 0 1 1 0 0 0 0 0 0 0 0 0 0 0 0 0 0 0 0 0 0 0 0 0 0 0 0 0 0 0 0 0 0 0 
0 0 0 0 0 0 0 0 0 0 0 0 0 0 0 0 0 0 0 0 0 0 0 0 0 0 0 0 0 0 0 0 0 0 0 0 0 1 9 16 23 24 35 68 113 154 178 188 194 197 198 196 195 194 195 196 195 193 187 176 155 121 80 44 23 16 10 1 0 0 0 0 0 0 0 0 0 0 0 0 0 0 0 0 0 0 0 0 0 0 0 0 0 0 0 1 1 0 0 0 0 0 0 0 0 0 0 0 0 0 0 0 0 0 0 0 0 0 0 0 0 0 0 0 0 0 0 0 
0 0 0 0 0 0 0 0 0 0 0 0 0 0 0 0 0 0 0 0 0 0 0 0 0 0 0 0 0 0 0 0 0 0 0 0 8 21 24 25 52 105 157 185 196 197 198 199 201 204 206 207 207 207 207 207 205 202 199 197 196 191 181 161 125 77 38 18 13 1 0 0 0 0 0 0 0 0 0 0 0 0 0 0 0 0 0 0 0 0 0 0 0 0 0 1 1 0 0 0 0 0 0 0 0 0 0 0 0 0 0 0 0 0 0 0 0 0 0 0 0 0 0 0 0 0 0 0 
0 0 0 0 0 0 0 0 0 0 0 0 0 0 0 0 0 0 0 0 0 0 0 0 0 0 0 0 0 0 0 0 0 0 7 24 25 26 63 127 174 192 197 199 201 204 202 195 189 185 188 195 193 180 178 191 205 212 210 205 202 199 197 196 193 180 153 102 49 22 13 1 0 0 0 0 0 0 0 0 0 0 0 0 0 0 0 0 0 0 0 0 0 0 0 1 2 0 0 0 0 0 0 0 0 0 0 0 0 0 0 0 0 0 0 0 0 0 0 0 0 0 0 0 0 0 0 0 
0 0 0 0 0 0 0 0 0 0 0 0 0 0 0 0 0 0 0 0 0 0 0 0 0 0 0 0 0 0 0 0 4 27 25 23 59 132 178 191 193 197 201 204 201 192 183 171 162 159 160 161 159 151 153 158 167 186 206 215 213 208 204 200 198 197 196 188 162 105 45 23 10 0 0 0 0 0 0 0 0 0 0 0 0 0 0 0 0 0 0 0 0 0 0 1 1 0 0 0 0 0 0 0 0 0 0 0 0 0 0 0 0 0 0 0 0 0 0 0 0 0 0 0 0 0 0 0 
0 0 0 0 0 0 0 0 0 0 0 0 0 0 0 0 0 0 0 0 0 0 0 0 0 0 0 0 0 0 0 23 26 21 40 115 176 190 191 194 199 204 201 185 170 165 158 147 142 140 144 151 152 148 152 154 156 159 172 191 211 216 215 211 207 202 198 197 196 188 153 81 30 19 2 0 0 0 0 0 0 0 0 0 0 0 0 0 0 0 0 0 0 0 0 1 2 0 0 0 0 0 0 0 0 0 0 0 0 0 0 0 0 0 0 0 0 0 0 0 0 0 0 0 0 0 0 0 
0 0 0 0 0 0 0 0 0 0 0 0 0 0 0 0 0 0 0 0 0 0 0 0 0 0 0 0 0 10 28 22 25 85 164 188 191 193 198 203 207 195 176 170 165 157 150 143 139 138 138 143 142 141 146 150 151 149 153 161 177 198 212 218 217 212 207 203 199 199 197 181 123 46 22 5 0 0 0 0 0 0 0 0 0 0 0 0 0 0 0 0 0 0 0 1 2 0 0 0 0 0 0 0 0 0 0 0 0 0 0 0 0 0 0 0 0 0 0 0 0 0 0 0 0 0 0 0 
0 0 0 0 0 0 0 0 0 0 0 0 0 0 0 0 0 0 0 0 0 0 0 0 0 0 0 0 22 24 18 48 136 183 188 193 199 204 208 203 186 176 169 163 159 155 152 147 145 142 136 138 136 135 145 152 151 151 152 156 162 174 190 203 214 219 216 212 207 204 201 199 192 156 69 23 10 0 0 0 0 0 0 0 0 0 0 0 0 0 0 0 0 0 0 1 2 0 0 0 0 0 0 0 0 0 0 0 0 0 0 0 0 0 0 0 0 0 0 0 0 0 0 0 0 0 0 0 
0 0 0 0 0 0 0 0 0 0 0 0 0 0 0 0 0 0 0 0 0 0 0 0 0 0 4 26 20 19 77 163 185 191 197 204 209 209 195 181 175 170 163 160 155 153 153 149 150 142 133 131 129 129 140 149 149 151 153 154 157 167 177 185 195 206 215 219 216 211 206 202 198 192 168 87 24 12 0 0 0 0 0 0 0 0 0 0 0 0 0 0 0 0 0 1 2 0 0 0 0 0 0 0 0 0 0 0 0 0 0 0 0 0 0 0 0 0 0 0 0 0 0 0 0 0 0 0 
0 0 0 0 0 0 0 0 0 0 0 0 0 0 0 0 0 0 0 0 0 0 0 0 0 10 25 18 25 103 173 185 196 203 208 211 204 189 179 172 169 165 159 155 152 152 153 152 143 137 127 126 123 125 130 141 152 154 156 157 157 159 166 174 181 187 195 206 215 218 214 208 202 195 191 173 97 26 13 0 0 0 0 0 0 0 0 0 0 0 0 0 0 0 0 1 2 0 0 0 0 0 0 0 0 0 0 0 0 0 0 0 0 0 0 0 0 0 0 0 0 0 0 0 0 0 0 0 
0 0 0 0 0 0 0 0 0 0 0 0 0 0 0 0 0 0 0 0 0 0 0 0 13 22 16 34 120 175 186 198 206 211 208 195 182 176 173 169 165 161 160 156 151 149 141 134 133 128 124 123 121 124 126 126 136 148 152 151 152 153 157 163 167 173 178 183 191 203 213 215 211 203 196 193 177 108 30 13 0 0 0 0 0 0 0 0 0 0 0 0 0 0 0 1 2 0 0 0 0 0 0 0 0 0 0 0 0 0 0 0 0 0 0 0 0 0 0 0 0 0 0 0 0 0 0 0 
0 0 0 0 0 0 0 0 0 0 0 0 0 0 0 0 0 0 0 0 0 0 3 18 20 15 44 132 172 188 200 207 211 199 184 176 174 172 169 165 161 156 150 142 138 130 125 126 122 122 122 120 118 123 126 126 125 129 138 147 148 147 149 155 162 164 167 169 173 180 191 205 212 210 203 195 192 179 120 36 12 0 0 0 0 0 0 0 0 0 0 0 0 0 0 1 2 0 0 0 0 0 0 0 0 0 0 0 0 0 0 0 0 0 0 0 0 0 0 0 0 0 0 0 0 0 0 0 
0 0 0 0 0 0 0 0 0 0 0 0 0 0 0 0 0 0 0 0 0 5 17 16 16 57 142 171 189 202 210 208 189 177 171 170 167 166 164 159 154 146 141 138 129 123 122 119 122 121 122 117 115 122 124 125 125 126 126 130 133 135 139 145 151 154 157 162 167 170 172 179 196 208 210 203 198 193 178 129 38 9 0 0 0 0 0 0 0 0 0 0 0 0 0 1 2 0 0 0 0 0 0 0 0 0 0 0 0 0 0 0 0 0 0 0 0 0 0 0 0 0 0 0 0 0 0 0 
0 0 0 0 0 0 0 0 0 0 0 0 0 0 0 0 0 0 0 0 6 16 14 18 72 152 172 189 204 210 202 178 168 168 168 163 157 153 151 148 146 142 136 127 123 121 118 120 121 120 118 112 111 121 122 123 124 125 125 127 129 131 133 137 141 143 146 149 153 158 160 165 171 187 201 207 204 198 192 179 134 36 6 0 0 0 0 0 0 0 0 0 0 0 0 1 2 0 0 0 0 0 0 0 0 0 0 0 0 0 0 0 0 0 0 0 0 0 0 0 0 0 0 0 0 0 0 0 
0 0 0 0 0 0 0 0 0 0 0 0 0 0 0 0 0 0 0 5 15 13 19 80 155 172 187 202 209 198 173 163 164 162 158 152 147 146 141 136 131 127 125 122 122 120 117 119 119 115 116 108 110 119 120 122 124 124 123 124 126 127 127 130 130 131 135 142 148 149 148 151 158 165 180 197 207 204 199 189 177 125 28 3 0 0 0 0 0 0 0 0 0 0 0 1 2 0 0 0 0 0 0 0 0 0 0 0 0 0 0 0 0 0 0 0 0 0 0 0 0 0 0 0 0 0 0 0 
0 0 0 0 0 0 0 0 0 0 0 0 0 0 0 0 0 0 4 15 12 19 85 156 170 183 198 207 192 169 163 160 157 156 149 141 137 135 131 127 125 122 121 122 118 115 115 117 114 114 111 106 109 120 121 120 122 122 123 123 123 123 122 122 125 125 129 134 142 147 146 145 148 153 162 174 192 207 205 197 185 172 109 19 1 0 0 0 0 0 0 0 0 0 0 1 2 0 0 0 0 0 0 0 0 0 0 0 0 0 0 0 0 0 0 0 0 0 0 0 0 0 0 0 0 0 0 0 
0 0 0 0 0 0 0 0 0 0 0 0 0 0 0 0 0 1 14 12 19 82 152 166 179 195 206 189 167 160 157 153 150 147 139 132 130 129 125 124 121 119 118 115 113 113 113 112 114 110 103 103 106 116 118 119 120 120 119 121 123 121 120 118 119 121 124 131 135 137 142 142 144 147 153 159 169 188 207 202 193 181 163 84 10 0 0 0 0 0 0 0 0 0 0 1 2 0 0 0 0 0 0 0 0 0 0 0 0 0 0 0 0 0 0 0 0 0 0 0 0 0 0 0 0 0 0 0 
0 0 0 0 0 0 0 0 0 0 0 0 0 0 0 0 0 11 11 16 74 145 161 174 190 203 188 165 159 155 150 147 146 140 129 127 127 125 123 121 116 113 112 113 113 111 109 109 110 102 101 104 106 109 114 115 117 116 117 119 120 117 117 117 114 116 120 126 131 133 132 134 135 139 146 152 159 166 190 206 201 190 174 146 54 4 0 0 0 0 0 0 0 0 0 1 2 0 0 0 0 0 0 0 0 0 0 0 0 0 0 0 0 0 0 0 0 0 0 0 0 0 0 0 0 0 0 0 
0 0 0 0 0 0 0 0 0 0 0 0 0 0 0 0 5 12 14 60 137 155 169 186 200 189 162 156 152 147 144 141 134 129 126 125 125 124 121 115 113 111 112 111 110 107 107 106 103 99 101 104 105 109 109 108 111 111 109 109 111 113 114 112 111 110 113 123 125 129 129 129 130 133 137 144 150 155 161 192 207 199 184 166 120 25 1 0 0 0 0 0 0 0 0 1 2 0 0 0 0 0 0 0 0 0 0 0 0 0 0 0 0 0 0 0 0 0 0 0 0 0 0 0 0 0 0 0 
0 0 0 0 0 0 0 0 0 0 0 0 0 0 0 1 11 12 47 126 150 164 180 196 191 163 153 149 146 145 138 132 129 129 127 125 122 117 113 112 107 102 101 100 102 102 103 105 105 103 108 106 105 108 105 104 106 106 106 106 107 109 110 109 109 110 110 112 121 124 124 124 124 129 134 139 149 150 150 164 198 203 192 177 152 80 6 0 0 0 0 0 0 0 0 1 2 0 0 0 0 0 0 0 0 0 0 0 0 0 0 0 0 0 0 0 0 0 0 0 0 0 0 0 0 0 0 0 
0 0 0 0 0 0 0 0 0 0 0 0 0 0 0 7 10 26 104 141 156 173 190 191 167 152 147 144 144 142 134 128 128 124 123 118 116 113 110 104 99 99 101 102 101 102 104 104 105 105 110 108 104 105 103 103 103 103 103 106 106 105 108 108 109 109 111 111 115 119 120 121 122 123 130 137 145 146 146 149 173 199 196 183 165 126 30 1 0 0 0 0 0 0 0 1 2 0 0 0 0 0 0 0 0 0 0 0 0 0 0 0 0 0 0 0 0 0 0 0 0 0 0 0 0 0 0 0 
0 0 0 0 0 0 0 0 0 0 0 0 0 0 2 8 13 75 133 148 164 182 186 175 152 142 141 141 142 138 131 126 123 123 121 114 113 109 104 100 100 101 102 102 101 101 104 103 103 104 110 110 105 108 104 104 103 104 103 103 103 106 106 107 106 108 108 109 111 115 117 122 122 123 127 134 142 142 142 141 151 183 195 187 172 147 70 4 0 0 0 0 0 0 0 1 2 0 0 0 0 0 0 0 0 0 0 0 0 0 0 0 0 0 0 0 0 0 0 0 0 0 0 0 0 0 0 0 
0 0 0 0 0 0 0 0 0 0 0 0 0 0 5 8 40 117 139 155 175 181 172 162 141 136 138 141 141 135 129 123 122 119 116 108 107 106 104 101 101 101 100 100 102 104 105 105 102 104 112 113 109 108 99 100 104 104 103 102 100 102 105 105 105 105 105 107 109 111 112 119 122 120 124 134 142 141 139 134 139 166 186 189 177 158 109 16 0 0 0 0 0 0 0 1 2 0 0 0 0 0 0 0 0 0 0 0 0 0 0 0 0 0 0 0 0 0 0 0 0 0 0 0 0 0 0 0 
0 0 0 0 0 0 0 0 0 0 0 0 0 0 7 15 85 129 147 163 180 167 165 147 134 135 136 140 136 132 122 118 117 117 112 106 107 105 102 101 100 99 101 101 101 104 105 105 106 103 106 111 111 104 97 97 98 104 104 102 100 100 102 104 106 108 107 107 108 110 112 115 122 122 125 131 139 141 136 131 133 157 175 185 180 164 132 39 2 0 0 0 0 0 0 1 2 0 0 0 0 0 0 0 0 0 0 0 0 0 0 0 0 0 0 0 0 0 0 0 0 0 0 0 0 0 0 0 
0 0 0 0 0 0 0 0 0 0 0 0 0 2 6 37 113 137 152 172 174 163 157 137 131 132 134 138 133 125 121 119 117 115 109 108 106 102 100 100 100 99 100 101 101 104 106 107 106 101 100 103 110 99 95 93 97 101 98 101 102 102 101 102 105 108 108 109 110 109 110 113 120 121 122 132 138 138 131 128 127 151 167 184 182 168 143 62 3 0 0 0 0 0 0 1 2 0 0 0 0 0 0 0 0 0 0 0 0 0 0 0 0 0 0 0 0 0 0 0 0 0 0 0 0 0 0 0 
0 0 0 0 0 0 0 0 0 0 0 0 0 4 8 69 126 141 158 176 160 155 146 131 131 129 131 133 127 123 123 120 118 111 106 107 106 103 102 101 100 101 100 101 103 104 103 104 104 101 99 101 107 100 95 94 96 96 95 96 98 102 102 103 106 107 109 111 113 112 110 113 118 119 121 131 137 131 128 125 121 144 161 180 183 169 150 83 6 0 0 0 0 0 0 1 2 0 0 0 0 0 0 0 0 0 0 0 0 0 0 0 0 0 0 0 0 0 0 0 0 0 0 0 0 0 0 0 
0 0 0 0 0 0 0 0 0 0 0 0 0 5 16 96 131 147 167 168 147 146 139 127 126 125 128 128 121 122 123 121 118 110 109 109 107 104 101 102 104 100 98 99 104 102 100 102 103 99 97 99 106 99 96 96 96 97 97 97 96 98 102 106 107 108 111 112 113 114 113 114 117 119 120 127 132 128 125 124 121 137 155 176 183 170 153 101 10 0 0 0 0 0 0 1 2 0 0 0 0 0 0 0 0 0 0 0 0 0 0 0 0 0 0 0 0 0 0 0 0 0 0 0 0 0 0 0 
0 0 0 0 0 0 0 0 0 0 0 0 1 5 33 115 136 155 168 151 137 139 136 126 121 121 122 124 119 120 122 119 117 113 110 110 106 102 104 103 98 97 98 99 100 100 99 100 100 98 97 97 105 98 96 95 96 97 98 99 101 102 101 105 110 110 112 113 114 114 115 116 118 119 121 125 126 126 121 118 119 135 158 173 183 174 157 116 16 0 0 0 0 0 0 1 2 0 0 0 0 0 0 0 0 0 0 0 0 0 0 0 0 0 0 0 0 0 0 0 0 0 0 0 0 0 0 0 
0 0 0 0 0 0 0 0 0 0 0 0 1 6 50 123 140 160 160 141 132 136 137 124 116 117 119 122 117 117 119 118 116 113 109 112 107 104 101 95 96 97 97 97 98 99 99 96 97 97 96 99 99 96 95 93 93 94 96 100 101 102 103 102 108 113 112 117 119 117 116 117 117 119 120 125 121 120 118 115 114 133 155 167 184 177 161 130 26 1 0 0 0 0 0 1 2 0 0 0 0 0 0 0 0 0 0 0 0 0 0 0 0 0 0 0 0 0 0 0 0 0 0 0 0 0 0 0 
0 0 0 0 0 0 0 0 0 0 0 0 2 7 64 127 147 163 154 138 130 135 137 122 113 112 117 121 115 112 119 118 116 115 113 112 108 105 99 94 95 95 96 96 96 97 97 95 94 94 99 102 99 94 92 90 90 93 94 95 99 100 102 102 104 108 111 114 119 119 118 118 118 119 119 124 116 112 116 115 115 134 156 168 185 182 165 141 38 2 0 0 0 0 0 1 2 0 0 0 0 0 0 0 0 0 0 0 0 0 0 0 0 0 0 0 0 0 0 0 0 0 0 0 0 0 0 0 
0 0 0 0 0 0 0 0 0 0 0 0 2 8 74 132 151 161 152 141 132 135 136 124 115 110 116 117 108 110 120 118 117 114 113 114 109 107 108 99 99 96 94 96 95 95 94 94 94 94 99 102 99 94 92 91 88 89 92 95 95 99 100 100 99 107 111 117 124 123 121 120 120 121 120 123 113 109 113 111 114 139 157 169 184 184 170 151 50 2 0 0 0 0 0 1 2 0 0 0 0 0 0 0 0 0 0 0 0 0 0 0 0 0 0 0 0 0 0 0 0 0 0 0 0 0 0 0 
0 0 0 0 0 0 0 0 0 0 0 0 3 11 82 137 157 164 153 144 136 135 137 126 115 110 114 112 105 110 121 118 116 116 115 117 114 111 113 115 112 105 98 98 97 98 97 97 94 94 98 100 100 95 93 92 88 87 91 93 94 100 99 99 104 111 117 123 123 124 126 126 124 123 123 128 115 110 110 109 118 141 155 167 185 186 174 159 63 4 0 0 0 0 0 1 2 0 0 0 0 0 0 0 0 0 0 0 0 0 0 0 0 0 0 0 0 0 0 0 0 0 0 0 0 0 0 0 
0 0 0 0 0 0 0 0 0 0 0 0 3 12 87 140 160 168 156 148 140 138 139 127 118 112 112 110 104 109 123 120 118 120 122 119 111 102 98 98 95 96 102 104 102 99 98 98 96 96 100 99 104 96 93 93 89 85 89 91 93 98 104 108 103 99 97 98 101 105 111 119 130 134 129 133 128 115 110 113 125 140 153 162 183 189 177 161 78 5 0 0 0 0 0 1 2 0 0 0 0 0 0 0 0 0 0 0 0 0 0 0 0 0 0 0 0 0 0 0 0 0 0 0 0 0 0 0 
0 0 0 0 0 0 0 0 0 0 0 0 4 13 90 144 163 169 154 149 145 143 141 131 122 115 112 105 103 114 127 121 125 127 116 107 98 88 82 85 85 84 86 92 98 106 103 98 93 93 97 99 106 100 95 93 89 85 87 88 96 106 102 96 93 90 93 93 93 96 99 102 112 128 141 141 141 125 114 121 130 140 148 156 178 190 180 164 93 7 0 0 0 0 0 1 2 0 0 0 0 0 0 0 0 0 0 0 0 0 0 0 0 0 0 0 0 0 0 0 0 0 0 0 0 0 0 0 
0 0 0 0 0 0 0 0 0 0 0 0 5 13 94 148 166 167 155 149 144 142 143 139 130 121 114 104 105 122 129 127 130 115 100 93 89 85 83 86 85 84 84 86 89 95 102 103 94 94 97 100 104 104 99 94 89 86 86 93 104 94 91 90 91 95 97 97 99 102 101 99 100 112 136 153 148 138 126 128 133 135 141 150 166 188 182 167 106 10 0 0 0 0 0 1 2 0 0 0 0 0 0 0 0 0 0 0 0 0 0 0 0 0 0 0 0 0 0 0 0 0 0 0 0 0 0 0 
0 0 0 0 0 0 0 0 0 0 0 0 7 14 97 151 166 168 153 147 142 139 139 139 135 126 121 113 111 127 135 136 114 97 93 91 88 87 90 92 90 87 84 86 90 94 95 102 97 97 100 102 108 110 109 101 93 89 87 102 96 87 87 87 92 96 98 100 101 104 106 107 109 116 130 154 154 145 137 132 130 130 134 143 155 181 184 169 121 16 0 0 0 0 0 1 2 0 0 0 0 0 0 0 0 0 0 0 0 0 0 0 0 0 0 0 0 0 0 0 0 0 0 0 0 0 0 0 
0 0 0 0 0 0 0 0 0 0 0 0 7 14 98 152 169 169 148 142 139 138 134 132 133 130 124 123 130 131 140 128 101 94 91 90 88 89 90 89 89 88 86 86 88 90 96 99 101 99 105 111 118 116 121 106 97 90 90 103 87 82 81 86 93 96 100 103 103 107 109 108 114 126 132 139 148 144 144 134 127 125 129 135 146 172 183 169 131 24 0 0 0 0 0 1 2 0 0 0 0 0 0 0 0 0 0 0 0 0 0 0 0 0 0 0 0 0 0 0 0 0 0 0 0 0 0 0 
0 0 0 0 0 0 0 0 0 0 0 0 7 15 101 155 171 170 139 135 137 135 132 126 129 131 125 122 135 140 146 126 110 102 99 95 92 91 88 87 87 88 88 87 88 90 96 100 100 100 106 115 124 117 125 109 99 93 97 100 82 78 83 90 95 99 99 102 104 106 109 109 116 121 122 125 133 142 146 135 124 122 125 125 135 163 182 169 138 34 1 0 0 0 0 1 2 0 0 0 0 0 0 0 0 0 0 0 0 0 0 0 0 0 0 0 0 0 0 0 0 0 0 0 0 0 0 0 
0 0 0 0 0 0 0 0 0 0 0 0 7 16 101 155 172 171 136 135 135 132 127 121 122 123 121 123 132 134 137 127 121 112 104 100 98 94 90 88 88 90 89 88 90 91 94 99 98 100 106 116 118 114 119 116 105 100 100 92 79 81 88 94 96 97 98 99 100 103 107 109 112 114 118 120 125 138 142 135 121 116 117 117 123 152 178 170 142 44 2 0 0 0 0 1 2 0 0 0 0 0 0 0 0 0 0 0 0 0 0 0 0 0 0 0 0 0 0 0 0 0 0 0 0 0 0 0 
0 0 0 0 0 0 0 0 0 0 0 0 7 16 105 158 175 169 132 133 132 126 120 113 115 118 120 122 125 125 125 117 110 108 101 97 95 92 90 85 86 87 89 92 91 91 91 96 100 101 106 105 105 110 109 115 109 106 100 86 81 85 90 92 93 94 93 94 98 100 102 105 111 113 117 115 124 137 141 133 116 112 112 114 116 139 172 169 145 52 3 0 0 0 0 1 2 0 0 0 0 0 0 0 0 0 0 0 0 0 0 0 0 0 0 0 0 0 0 0 0 0 0 0 0 0 0 0 
0 0 0 0 0 0 0 0 0 0 0 0 7 17 105 159 176 164 127 127 123 118 110 105 108 113 117 126 124 119 118 114 103 103 97 93 90 90 90 86 84 86 89 91 89 89 91 92 98 102 111 108 103 105 104 114 110 111 105 87 85 86 90 87 84 89 92 93 96 99 102 103 107 110 111 113 124 135 136 134 119 110 107 109 109 127 158 167 148 59 3 0 0 0 0 1 2 0 0 0 0 0 0 0 0 0 0 0 0 0 0 0 0 0 0 0 0 0 0 0 0 0 0 0 0 0 0 0 
0 0 0 0 0 0 0 0 0 0 0 0 8 17 103 160 175 157 120 118 115 111 103 99 101 105 111 125 125 119 115 113 102 99 93 89 88 87 87 84 84 87 87 88 86 86 90 88 89 104 120 123 112 99 101 94 114 108 100 90 90 90 90 80 82 88 90 93 96 97 100 102 103 109 109 112 124 131 131 137 128 110 107 110 110 123 139 157 149 64 3 0 0 0 0 1 2 0 0 0 0 0 0 0 0 0 0 0 0 0 0 0 0 0 0 0 0 0 0 0 0 0 0 0 0 0 0 0 
0 0 0 0 0 0 0 0 0 0 0 0 7 17 101 159 174 148 118 113 108 106 102 100 100 101 114 121 122 118 114 112 104 97 93 91 89 89 89 87 84 84 88 90 88 90 93 87 84 99 116 122 102 91 94 83 102 116 92 95 91 89 84 82 86 89 91 93 94 96 98 99 101 105 106 114 125 132 138 140 132 111 105 107 111 121 135 156 149 65 3 0 0 0 0 1 2 0 0 0 0 0 0 0 0 0 0 0 0 0 0 0 0 0 0 0 0 0 0 0 0 0 0 0 0 0 0 0 
0 0 0 0 0 0 0 0 0 0 0 0 7 16 95 157 172 139 117 110 108 107 103 101 101 103 115 116 119 118 116 112 105 97 93 91 89 90 90 89 86 83 83 85 87 89 92 84 83 101 117 109 86 81 87 79 86 122 87 91 89 86 82 87 90 90 92 93 95 97 98 97 101 104 105 119 134 141 137 136 132 111 105 104 110 119 134 159 144 62 3 0 0 0 0 1 2 0 0 0 0 0 0 0 0 0 0 0 0 0 0 0 0 0 0 0 0 0 0 0 0 0 0 0 0 0 0 0 
0 0 0 0 0 0 0 0 0 0 0 0 5 15 86 155 170 135 114 109 107 106 103 100 99 103 115 115 116 118 120 114 104 102 94 89 91 92 91 89 87 86 80 79 81 85 89 83 88 104 110 91 84 82 89 77 79 112 104 89 86 82 81 90 90 90 92 94 97 96 96 97 102 101 103 119 140 135 130 134 130 109 104 103 108 116 134 158 139 57 2 0 0 0 0 1 2 0 0 0 0 0 0 0 0 0 0 0 0 0 0 0 0 0 0 0 0 0 0 0 0 0 0 0 0 0 0 0 
0 0 0 0 0 0 0 0 0 0 0 0 4 14 80 151 168 137 116 110 105 104 104 99 98 99 112 116 115 116 121 116 103 102 96 94 95 96 94 91 88 86 83 78 80 83 85 76 88 106 105 88 86 89 95 81 77 90 114 92 85 79 81 89 90 92 94 95 94 93 94 97 100 98 102 119 134 129 127 133 128 108 105 103 106 114 136 154 132 51 2 0 0 0 0 1 2 0 0 0 0 0 0 0 0 0 0 0 0 0 0 0 0 0 0 0 0 0 0 0 0 0 0 0 0 0 0 0 
0 0 0 0 0 0 0 0 0 0 0 0 2 14 73 146 164 142 117 109 104 103 103 102 98 95 108 117 116 117 122 116 103 100 97 95 96 96 95 94 89 85 80 78 77 80 80 78 93 108 92 85 85 93 100 86 80 78 108 102 96 86 83 89 91 92 93 92 90 91 93 98 97 96 101 117 127 126 125 130 126 106 105 102 104 113 140 149 123 45 2 0 0 0 0 1 2 0 0 0 0 0 0 0 0 0 0 0 0 0 0 0 0 0 0 0 0 0 0 0 0 0 0 0 0 0 0 0 
0 0 0 0 0 0 0 0 0 5 5 0 0 12 64 138 160 144 118 107 102 101 103 103 98 93 103 116 117 117 122 113 104 99 99 95 95 93 93 93 91 89 83 79 85 95 91 88 97 98 88 83 84 97 99 88 83 80 92 110 111 108 101 96 94 94 97 95 91 92 94 97 94 94 102 116 122 124 128 132 125 106 102 99 100 114 142 142 112 38 2 0 0 0 0 1 2 0 0 0 0 0 0 0 0 0 0 0 0 0 0 0 0 0 0 0 0 0 0 0 0 0 0 0 0 0 0 0 
0 0 0 0 0 0 0 0 0 3 8 3 0 9 53 129 157 142 118 106 99 100 102 103 97 91 104 118 118 116 119 114 103 99 98 96 94 92 91 92 98 98 94 87 90 94 98 91 103 92 88 83 84 95 95 91 89 85 87 117 121 121 112 101 97 93 94 97 93 89 90 93 93 93 102 118 122 123 127 133 130 108 98 98 100 114 144 136 102 33 1 0 0 0 0 1 2 0 0 0 0 0 0 0 0 0 0 0 0 0 0 0 0 0 0 0 0 0 0 0 0 0 0 0 0 0 0 0 
0 0 0 0 0 0 0 0 0 1 4 8 2 7 42 119 151 141 114 104 97 97 103 104 100 92 104 119 119 116 119 117 104 100 100 97 93 93 92 95 98 96 92 94 104 109 103 97 106 83 85 82 84 97 93 85 90 89 95 121 125 115 108 111 111 108 105 100 95 90 89 94 99 104 107 123 128 124 127 136 138 117 98 98 101 121 144 131 94 27 1 0 0 0 0 1 2 0 0 0 0 0 0 0 0 0 0 0 0 0 0 0 0 0 0 0 0 0 0 0 0 0 0 0 0 0 0 0 
0 0 0 0 0 0 0 0 0 0 3 9 4 7 32 104 146 144 115 105 101 100 102 102 101 94 107 117 119 121 126 124 116 104 100 97 94 95 100 101 102 102 102 105 98 99 95 107 108 83 82 83 83 103 93 85 86 85 90 118 133 116 106 108 114 124 137 132 125 122 125 123 127 128 133 138 126 121 129 139 140 128 104 99 109 131 144 122 87 18 1 0 0 7 4 1 2 0 0 0 0 0 0 0 0 0 0 0 0 0 0 0 0 0 0 0 0 0 0 0 0 0 0 0 0 0 0 0 
0 0 0 0 0 0 0 0 0 0 2 9 5 6 25 93 141 149 119 111 107 98 98 102 101 100 110 115 119 120 126 125 126 129 119 112 111 113 117 115 113 107 92 91 100 100 97 106 108 81 82 87 86 101 92 80 81 83 89 123 133 112 106 107 111 123 148 153 146 149 153 150 145 132 132 138 136 129 129 139 140 130 120 112 109 140 137 118 79 12 3 2 5 3 1 1 2 0 0 0 0 0 0 0 0 0 0 0 0 0 0 0 0 0 0 0 0 0 0 0 0 0 0 0 0 0 0 0 
0 0 0 0 0 0 0 0 0 0 1 8 5 7 19 82 133 155 135 113 107 96 95 101 106 113 113 117 120 121 121 122 118 122 126 128 129 121 116 112 111 105 100 101 101 96 95 104 108 88 84 92 90 105 94 80 81 88 99 129 132 115 107 108 113 128 147 151 150 155 150 144 139 128 133 129 141 144 139 138 139 134 127 129 144 143 122 115 68 9 3 2 4 1 0 1 2 0 0 0 0 0 0 0 0 0 0 0 0 0 0 0 0 0 0 0 0 0 0 0 0 0 0 0 0 0 0 0 
0 0 0 0 0 0 0 0 0 0 0 7 6 9 13 69 124 151 150 118 108 97 99 111 119 116 119 124 122 122 126 131 133 131 125 127 125 123 123 120 113 105 97 94 94 92 95 101 110 100 88 89 92 107 96 83 88 97 107 118 120 117 113 113 120 132 146 147 147 147 142 143 148 150 146 148 150 155 161 157 151 150 146 154 165 141 112 110 53 6 3 2 2 1 0 1 2 0 0 0 0 0 0 0 0 0 0 0 0 0 0 0 0 0 0 0 0 0 0 0 0 0 0 0 0 0 0 0 
0 0 0 0 0 0 0 0 0 0 0 6 7 9 12 55 116 147 155 133 114 112 117 119 126 125 126 134 130 122 134 145 150 156 155 143 141 139 129 114 103 96 96 92 88 89 96 111 111 94 94 95 89 108 95 88 90 101 108 110 116 108 114 117 121 136 153 155 156 155 152 156 156 147 134 141 142 151 163 167 173 177 171 178 181 131 122 105 32 7 4 3 2 1 0 1 2 0 0 0 0 0 0 0 0 0 0 0 0 0 0 0 0 0 0 0 0 0 0 0 0 0 0 0 0 0 0 0 
0 0 0 0 0 0 0 0 0 0 0 7 10 8 8 37 110 145 153 149 137 147 137 136 141 141 141 137 131 131 139 153 158 162 158 148 151 147 135 115 108 105 100 93 92 92 106 114 99 89 92 97 96 118 101 87 85 95 104 104 112 112 110 117 119 124 136 144 151 156 152 148 143 134 135 135 140 148 160 169 174 181 186 182 163 124 122 87 16 6 5 2 2 0 0 1 2 0 0 0 0 0 0 0 0 0 0 0 0 0 0 0 0 0 0 0 0 0 0 0 0 0 0 0 0 0 0 0 
0 0 0 0 0 0 0 0 0 0 0 4 10 7 7 12 62 130 150 150 153 172 179 161 160 156 145 139 138 140 153 160 158 156 161 153 148 148 141 119 110 110 109 101 97 95 104 111 102 91 93 101 99 114 118 95 84 89 96 105 107 106 113 116 117 119 122 134 138 137 129 134 134 129 136 143 145 147 153 161 168 170 172 168 147 122 118 95 17 6 7 4 2 1 0 1 2 0 0 0 0 0 0 0 0 0 0 0 0 0 0 0 0 0 0 0 0 0 0 0 0 0 0 0 0 0 0 0 
0 0 0 0 0 0 0 0 0 0 0 6 8 5 6 9 37 117 153 153 158 174 175 172 168 166 161 153 137 130 142 152 161 160 161 158 153 153 138 113 106 110 111 107 101 100 111 108 103 96 95 103 105 120 118 100 84 82 87 97 104 101 101 113 117 118 123 131 135 126 122 124 118 127 137 145 141 142 141 148 156 171 159 141 122 123 120 63 8 4 7 5 2 1 0 1 2 0 0 0 0 0 0 0 0 0 0 0 0 0 0 0 0 0 0 0 0 0 0 0 0 0 0 0 0 0 0 0 
0 0 0 0 0 0 0 0 0 0 0 6 6 4 4 8 22 93 148 151 151 158 161 150 166 168 163 152 142 136 132 139 148 158 161 158 152 145 131 119 109 107 112 113 101 99 112 102 98 100 100 99 93 112 121 108 85 84 93 96 103 110 109 109 103 102 117 129 132 132 132 124 125 140 148 149 144 148 140 141 148 159 136 124 127 128 111 32 6 4 6 5 2 1 0 1 2 0 0 0 0 0 0 0 0 0 0 0 0 0 0 0 0 0 0 0 0 0 0 0 0 0 0 0 0 0 0 0 
0 0 0 0 0 0 0 0 0 0 0 4 4 4 3 8 16 62 137 150 146 140 149 149 143 151 152 146 142 144 134 128 135 141 144 148 145 138 130 123 106 104 104 101 99 104 116 101 106 112 109 102 94 102 119 121 95 93 99 95 105 118 120 124 109 92 95 104 110 116 124 122 125 144 154 158 154 151 143 142 135 139 133 120 120 121 78 15 7 6 7 4 3 1 0 1 2 0 0 0 0 0 0 0 0 0 0 0 0 0 0 0 0 0 0 0 0 0 0 0 0 0 0 0 0 0 0 0 
0 0 0 0 0 0 0 0 0 0 0 3 4 3 3 8 14 33 115 139 136 134 144 148 145 139 134 132 138 150 150 132 121 124 138 144 141 133 128 109 96 93 101 107 105 108 126 110 117 118 117 110 100 100 124 124 106 102 105 107 108 122 125 127 120 97 88 89 98 106 114 128 138 141 149 159 161 156 152 148 143 140 123 103 104 114 43 10 6 6 6 2 2 2 0 1 2 0 0 0 0 0 0 0 0 0 0 0 0 0 0 0 0 0 0 0 0 0 0 0 0 0 0 0 0 0 0 0 
0 0 0 0 0 0 0 0 0 0 0 3 4 3 2 9 14 17 83 125 125 131 139 147 141 138 135 131 134 148 154 140 120 116 133 143 143 139 119 97 86 97 103 108 108 113 124 123 122 121 129 129 114 112 138 132 116 107 114 117 113 127 128 128 123 106 88 86 96 112 118 135 134 131 142 152 161 163 176 165 148 126 109 87 96 88 20 11 6 7 5 2 2 2 0 1 1 0 0 0 0 0 0 0 0 0 0 0 0 0 0 0 0 0 0 0 0 0 0 0 0 0 0 0 0 0 0 0 
0 0 0 0 0 0 0 0 0 0 0 2 4 3 1 5 13 13 48 119 132 125 138 151 150 144 141 138 143 147 150 135 118 118 119 125 123 117 108 98 91 102 104 111 120 125 126 131 134 136 143 145 149 153 153 141 138 140 133 130 129 142 142 136 127 109 93 91 105 123 117 114 127 123 135 149 162 172 182 172 138 116 97 90 104 58 12 12 7 7 5 2 2 2 0 1 1 0 0 0 0 0 0 0 0 0 0 0 0 0 0 0 0 0 0 0 0 0 0 0 0 0 0 0 0 0 0 0 
0 0 0 0 0 0 0 0 0 0 0 2 4 3 1 4 10 13 25 103 126 114 125 136 159 157 155 146 150 149 150 142 131 127 115 118 109 96 92 105 107 112 113 118 130 140 139 142 149 152 152 155 164 173 175 167 160 154 145 143 148 162 166 154 136 125 121 119 122 126 112 113 125 122 125 150 160 178 174 164 130 105 86 87 99 32 10 11 6 6 5 2 2 2 0 1 1 0 0 0 0 0 0 0 0 0 0 0 0 0 0 0 0 0 0 0 0 0 0 0 0 0 0 0 0 0 0 0 
0 0 0 0 0 0 0 0 0 0 0 2 5 2 1 4 10 12 15 69 120 120 112 122 151 165 163 155 149 146 150 148 135 131 122 120 113 104 102 109 136 133 131 131 137 148 153 151 152 144 143 147 147 148 154 157 153 146 138 140 146 162 171 168 152 146 143 138 144 120 106 107 115 120 116 143 157 179 164 148 129 116 96 101 82 19 8 9 5 5 4 2 2 2 1 1 1 0 0 0 0 0 0 0 0 0 0 0 0 0 0 0 0 0 0 0 0 0 0 0 0 0 0 0 0 0 0 0 
0 0 0 0 0 0 0 0 0 0 1 3 5 2 1 4 9 9 12 41 95 114 114 116 137 157 165 164 150 147 145 148 139 130 120 120 120 120 125 131 138 154 157 151 154 154 155 161 153 148 143 148 146 151 148 149 149 150 142 144 147 157 171 169 170 165 155 158 148 114 99 98 106 118 124 142 160 174 154 131 113 103 110 100 67 16 8 8 5 4 4 2 3 3 1 1 1 0 0 0 0 0 0 0 0 0 0 0 0 0 0 0 0 0 0 0 0 0 0 0 0 0 0 0 0 0 0 0 
0 0 0 0 0 0 0 0 0 0 0 4 12 9 2 4 8 8 11 28 82 115 122 110 121 140 161 164 155 141 140 141 135 124 111 111 113 117 123 131 140 158 169 171 166 162 163 162 154 151 149 158 160 159 154 147 150 154 140 141 143 150 160 167 172 165 157 159 148 111 89 96 112 125 145 156 163 167 151 129 98 87 98 99 59 15 7 5 6 4 3 3 3 3 1 1 1 0 0 0 0 0 0 0 0 0 0 0 0 0 0 0 0 0 0 0 0 0 0 0 0 0 0 0 0 0 0 0 
0 0 0 0 0 0 0 0 0 0 0 4 12 12 9 6 7 10 13 20 66 103 119 116 114 119 148 153 165 142 130 130 134 111 102 104 107 113 117 120 130 148 164 169 169 165 168 165 161 159 159 167 166 164 157 136 137 144 131 128 135 147 149 168 174 172 168 164 150 111 94 97 108 121 162 177 178 175 155 108 88 85 99 93 39 15 5 3 5 4 3 3 3 3 2 1 1 0 0 0 0 0 0 0 0 0 0 0 0 0 0 0 0 0 0 0 0 0 0 0 0 0 0 0 0 0 0 0 
0 0 0 0 0 0 0 0 0 0 0 3 10 10 9 8 8 12 15 15 34 86 118 117 103 114 140 154 168 151 141 132 135 113 94 100 106 110 110 110 116 142 163 164 164 161 158 155 157 157 162 173 167 165 144 119 120 128 129 126 133 151 155 166 182 178 171 163 148 118 98 99 111 135 166 168 176 161 144 97 78 79 80 64 19 14 7 4 4 5 5 5 6 4 2 1 1 0 0 0 0 0 0 0 0 0 0 0 0 0 0 0 0 0 0 0 0 0 0 0 0 0 0 0 0 0 0 0 
0 0 0 0 0 0 0 0 0 0 0 2 10 10 9 9 8 9 13 14 17 50 108 111 109 109 126 152 168 168 157 141 130 125 104 94 95 96 99 107 125 148 158 159 158 154 152 148 148 143 155 156 145 163 157 131 126 131 130 124 142 162 154 172 178 178 171 170 165 130 122 120 136 148 149 148 128 107 106 76 66 87 92 36 11 8 9 6 5 5 5 6 12 5 2 0 1 0 0 0 0 0 0 0 0 0 0 0 0 0 0 0 0 0 0 0 0 0 0 0 0 0 0 0 0 0 0 0 
0 0 0 0 0 0 0 0 0 0 0 0 9 10 6 6 5 5 9 14 19 27 71 99 94 92 113 147 155 168 168 150 134 134 121 104 104 108 114 133 140 167 181 173 173 166 163 168 173 171 170 159 161 180 183 166 157 160 160 154 163 168 181 186 177 176 170 180 174 170 148 145 143 141 116 96 90 88 93 76 95 98 53 18 10 1 1 4 4 5 5 7 8 4 0 0 1 0 0 0 0 0 0 0 0 0 0 0 0 0 0 0 0 0 0 0 0 0 0 0 0 0 0 0 0 0 0 0 
0 0 0 0 0 0 0 0 0 0 0 0 3 7 4 2 2 2 4 10 17 21 36 82 87 75 91 105 103 144 149 151 144 141 131 112 114 121 131 142 170 185 189 189 194 199 190 199 193 182 181 183 181 178 178 170 167 175 180 182 187 190 204 205 200 209 187 194 148 145 151 142 107 87 77 83 84 82 86 74 71 46 28 22 13 1 0 0 1 3 4 7 7 0 0 0 0 0 0 0 0 0 0 0 0 0 0 0 0 0 0 0 0 0 0 0 0 0 0 0 0 0 0 0 0 0 0 0 
0 0 0 0 0 0 0 0 0 0 0 0 0 2 3 1 1 0 0 7 13 20 24 45 80 84 65 55 66 76 96 110 135 137 129 125 119 132 150 169 178 176 182 183 190 196 190 187 185 173 164 171 170 166 163 160 158 160 164 169 171 190 200 185 175 188 182 175 161 142 125 106 89 78 75 90 92 89 70 48 41 39 36 25 18 0 0 0 0 1 2 7 7 0 0 0 1 0 0 0 0 0 0 0 0 0 0 0 0 0 0 0 0 0 0 0 0 0 0 0 0 0 0 0 0 0 0 0 
0 0 0 0 0 0 0 0 0 0 0 0 0 2 4 4 4 2 2 3 9 13 19 22 36 51 35 43 67 63 64 62 80 85 81 93 83 73 76 76 91 120 143 149 140 137 136 120 130 104 98 110 117 118 114 110 96 91 106 102 98 114 102 138 131 157 126 83 63 64 57 65 62 55 56 78 83 83 49 29 28 25 19 7 2 0 3 3 2 1 2 8 5 0 0 0 1 0 0 0 0 0 0 0 0 0 0 0 0 0 0 0 0 0 0 0 0 0 0 0 0 0 0 0 0 0 0 0 
0 0 0 0 0 0 0 0 0 0 0 0 0 0 2 2 2 2 2 1 5 9 13 16 21 22 22 33 67 65 60 62 62 65 62 66 69 60 67 69 82 88 83 82 90 95 82 71 76 79 60 74 89 91 90 89 73 61 74 74 82 100 87 79 77 94 91 99 106 101 64 63 62 55 56 76 84 81 47 29 27 24 15 6 2 0 1 1 1 2 3 5 1 0 0 0 1 0 0 0 0 0 0 0 0 0 0 0 0 0 0 0 0 0 0 0 0 0 0 0 0 0 0 0 0 0 0 0 
0 0 0 0 0 0 0 0 0 0 0 0 0 0 0 0 0 0 0 0 3 8 9 14 20 25 27 36 69 75 65 64 67 70 67 66 76 94 123 128 139 141 109 101 103 104 96 99 106 90 76 90 97 98 96 94 88 78 96 108 107 116 102 93 118 144 103 86 107 91 88 88 79 74 75 87 91 83 49 33 28 23 13 8 1 0 0 0 0 0 1 0 0 0 0 0 1 0 0 0 0 0 0 0 0 0 0 0 0 0 0 0 0 0 0 0 0 0 0 0 0 0 0 0 0 0 0 0 
0 0 0 0 0 0 0 0 0 0 0 0 0 0 0 0 0 0 0 0 0 3 4 7 15 29 34 44 75 88 79 73 78 85 85 88 101 121 126 142 157 171 159 136 142 162 162 160 146 124 117 124 123 122 119 123 122 114 119 140 148 153 146 152 160 164 131 134 109 127 119 112 97 88 85 85 83 78 50 36 24 17 9 8 0 0 0 0 0 0 0 0 0 0 0 0 0 0 0 0 0 0 0 0 0 0 0 0 0 0 0 0 0 0 0 0 0 0 0 0 0 0 0 0 0 0 0 0 
0 0 0 0 0 0 0 0 0 0 0 0 0 0 0 0 0 0 0 0 0 1 3 4 8 23 29 38 62 79 73 74 84 92 97 97 102 114 125 117 163 172 173 162 173 178 175 182 159 168 167 160 163 164 163 159 158 154 155 155 154 171 168 161 166 157 154 133 147 149 129 129 101 78 60 69 77 57 32 24 16 9 6 1 0 0 0 0 0 0 0 0 0 0 0 0 0 0 0 0 0 0 0 0 0 0 0 0 0 0 0 0 0 0 0 0 0 0 0 0 0 0 0 0 0 0 0 0 
0 0 0 0 0 0 0 0 0 0 0 0 0 0 0 0 0 0 0 0 0 0 2 3 7 16 28 35 53 76 76 71 74 76 75 70 78 93 106 108 128 129 121 107 128 138 154 171 163 154 146 137 141 137 140 131 137 135 134 132 140 147 129 136 138 126 135 144 150 155 114 71 49 50 60 82 80 47 25 21 13 7 6 1 0 0 0 0 1 1 1 1 1 1 2 2 2 1 0 0 0 0 0 0 0 0 0 0 0 0 0 0 0 0 0 0 0 0 0 0 0 0 0 0 0 0 0 0 
0 0 0 0 0 0 0 0 0 0 0 0 0 0 0 0 0 0 0 0 0 0 3 6 8 15 19 21 32 54 68 67 65 66 58 56 55 72 94 116 113 114 109 95 103 120 133 136 123 122 118 97 108 100 104 93 104 106 106 108 113 130 128 105 117 129 137 120 134 122 99 68 52 54 72 101 86 46 24 17 17 12 7 1 0 0 0 0 0 0 0 0 0 1 1 1 1 0 0 0 0 0 0 0 0 0 0 0 0 0 0 0 0 0 0 0 0 0 0 0 0 0 0 0 0 0 0 0 
0 0 0 0 0 0 0 0 0 0 0 0 0 0 0 0 0 0 0 0 0 0 1 6 8 12 18 20 25 44 63 75 73 70 58 51 53 66 86 102 100 101 101 103 110 125 133 132 119 115 108 88 94 93 95 90 103 111 115 109 106 116 108 94 86 106 125 129 125 108 93 67 54 59 82 108 88 49 24 19 18 12 6 0 0 0 0 0 0 0 0 0 0 0 1 1 1 0 0 0 0 0 0 0 0 0 0 0 0 0 0 0 0 0 0 0 0 0 0 0 0 0 0 0 0 0 0 0 
0 0 0 0 0 0 0 0 0 0 0 0 0 0 0 0 0 0 0 0 0 0 0 4 8 9 15 21 22 38 58 76 78 72 62 53 48 57 73 97 93 86 90 93 101 112 121 131 128 117 112 99 102 101 98 92 104 103 117 121 115 123 121 108 102 98 111 118 109 96 79 60 55 64 90 112 87 51 25 19 16 11 5 0 0 0 0 0 0 0 0 0 1 1 1 1 1 0 0 0 0 0 0 0 0 0 0 0 0 0 0 0 0 0 0 0 0 0 0 0 0 0 0 0 0 0 0 0 
0 0 0 0 0 0 0 0 0 0 0 0 0 0 0 0 0 0 0 0 0 0 0 2 6 9 13 19 22 32 49 70 78 75 67 57 52 55 59 66 72 78 87 92 99 107 114 121 137 128 118 108 106 104 98 95 101 99 109 119 122 143 133 111 103 95 100 108 110 100 80 64 59 67 96 114 82 51 26 18 15 10 3 0 0 0 0 0 0 0 0 0 1 1 1 1 0 0 0 0 0 0 0 0 0 0 0 0 0 0 0 0 0 0 0 0 0 0 0 0 0 0 0 0 0 0 0 0 
0 0 0 0 0 0 0 0 0 0 0 0 0 0 0 0 0 0 0 0 0 0 0 0 4 7 10 15 20 28 45 62 81 79 71 63 56 52 53 59 65 74 87 92 102 104 104 111 127 119 115 107 102 102 95 95 97 100 106 113 121 128 122 107 103 103 99 93 96 96 82 72 66 72 96 110 81 52 26 17 14 9 2 0 0 0 0 0 0 0 0 0 1 1 1 1 0 0 0 0 0 0 0 0 0 0 0 0 0 0 0 0 0 0 0 0 0 0 0 0 0 0 0 0 0 0 0 0 
0 0 0 0 0 0 0 0 0 0 0 0 0 0 0 0 0 0 0 0 0 0 0 0 2 4 9 12 18 24 42 54 79 78 76 71 62 55 54 58 64 70 85 98 107 104 97 95 103 108 114 105 97 98 96 94 96 101 107 107 115 112 110 103 107 108 104 88 78 74 68 69 71 81 98 106 79 45 19 15 14 8 1 0 0 0 0 0 0 0 0 0 1 1 1 1 0 0 0 0 0 0 0 0 0 0 0 0 0 0 0 0 0 0 0 0 0 0 0 0 0 0 0 0 0 0 0 0 
0 0 0 0 0 0 0 0 0 0 0 0 0 0 0 0 0 0 0 0 0 0 0 0 0 4 5 11 14 19 33 52 67 73 79 75 66 60 55 54 60 69 84 94 100 98 96 89 88 96 110 101 92 91 93 97 97 101 100 103 109 108 101 92 96 98 97 85 74 66 61 71 79 86 102 88 48 23 17 16 15 8 1 0 0 0 0 0 0 0 0 0 1 1 2 1 0 0 0 0 0 0 0 0 0 0 0 0 0 0 0 0 0 0 0 0 0 0 0 0 0 0 0 0 0 0 0 0 
0 0 0 0 0 0 0 0 0 0 0 0 0 0 0 0 0 0 0 0 0 0 0 0 0 2 4 8 14 17 20 32 40 46 73 80 70 64 58 51 56 67 78 80 91 94 94 88 86 96 113 105 96 95 98 99 99 100 100 100 102 98 94 89 91 89 85 77 74 64 60 73 82 92 100 43 17 16 17 17 15 7 1 0 0 0 0 0 0 0 0 0 1 1 1 1 0 0 0 0 0 0 0 0 0 0 0 0 0 0 0 0 0 0 0 0 0 0 0 0 0 0 0 0 0 0 0 0 
0 0 0 0 0 0 0 0 0 0 0 0 0 0 0 0 0 0 0 0 0 0 0 0 0 0 5 4 11 16 19 19 18 16 31 77 79 73 65 62 58 61 68 72 79 82 88 88 90 100 101 101 95 92 88 93 104 101 95 93 99 97 97 89 86 84 73 71 71 68 70 81 88 97 71 23 15 15 17 17 13 6 0 0 0 0 0 0 0 0 0 0 0 1 1 1 0 0 0 0 0 0 0 0 0 0 0 0 0 0 0 0 0 0 0 0 0 0 0 0 0 0 0 0 0 0 0 0 
0 0 0 0 0 0 0 0 0 0 0 0 0 0 0 0 0 0 0 0 0 0 0 0 0 0 1 4 8 13 17 18 18 18 13 37 77 80 74 69 66 66 68 72 79 78 81 88 101 104 96 97 99 96 92 92 103 105 94 91 98 101 106 97 91 83 80 79 76 76 82 89 91 78 35 19 14 15 17 16 11 5 1 0 0 0 0 0 0 0 0 0 1 1 1 0 0 0 0 0 0 0 0 0 0 0 0 0 0 0 0 0 0 0 0 0 0 0 0 0 0 0 0 0 0 0 0 0 
0 0 0 0 0 0 0 0 0 0 0 0 0 0 0 0 0 0 0 0 0 0 0 0 0 0 0 3 6 9 15 18 17 18 13 12 36 71 82 81 76 73 74 80 88 88 87 87 95 102 96 99 100 97 96 104 113 112 108 103 105 111 107 97 94 89 87 88 86 90 94 94 76 37 23 17 13 15 16 14 10 5 1 0 0 0 0 0 0 0 0 0 0 1 1 1 0 0 0 0 0 0 0 0 0 0 0 0 0 0 0 0 0 0 0 0 0 0 0 0 0 0 0 0 0 0 0 0 
0 0 0 0 0 0 0 0 0 0 0 0 0 0 0 0 0 0 0 0 0 0 0 0 0 0 0 2 5 7 11 17 17 18 13 12 16 32 63 80 84 87 86 87 99 100 91 89 89 103 102 98 99 97 97 107 110 110 111 108 101 103 106 102 98 99 101 100 97 95 92 72 36 26 22 16 13 15 15 13 9 5 1 0 0 0 0 0 0 0 0 0 0 1 1 1 0 0 0 0 0 0 0 0 0 0 0 0 0 0 0 0 0 0 0 0 0 0 0 0 0 0 0 0 0 0 0 0 
0 0 0 0 0 0 0 0 0 0 0 0 0 0 0 0 0 0 0 0 0 0 0 0 0 0 0 0 4 6 8 15 16 19 14 12 16 21 29 51 75 88 94 98 106 110 102 97 101 109 102 95 95 102 106 110 112 108 114 116 108 104 114 109 107 108 111 108 100 87 61 34 28 26 22 16 14 14 14 12 9 5 0 0 0 0 0 0 0 0 0 0 0 1 1 0 0 0 0 0 0 0 0 0 0 0 0 0 0 0 0 0 0 0 0 0 0 0 0 0 0 0 0 0 0 0 0 0 
0 0 0 0 0 0 0 0 0 0 0 0 0 0 0 0 0 0 0 0 0 0 0 0 0 0 0 0 1 7 7 12 15 18 15 11 12 20 25 28 38 61 83 94 107 113 109 107 107 108 108 102 104 104 101 103 105 108 113 115 113 106 114 117 113 110 111 104 81 49 30 28 27 24 20 16 13 14 13 12 9 5 0 0 0 0 0 0 0 0 0 0 0 1 1 0 0 0 0 0 0 0 0 0 0 0 0 0 0 0 0 0 0 0 0 0 0 0 0 0 0 0 0 0 0 0 0 0 
0 0 0 0 0 0 0 0 0 0 0 0 0 0 0 0 0 0 0 0 0 0 0 0 0 0 0 0 0 6 5 10 14 18 15 11 12 19 25 29 31 33 41 59 85 98 100 101 101 106 113 111 108 101 98 100 100 106 115 108 110 114 118 115 110 101 87 62 42 37 29 27 26 22 18 15 13 14 14 12 9 4 0 0 0 0 0 0 0 0 0 0 1 1 1 0 0 0 0 0 0 0 0 0 0 0 0 0 0 0 0 0 0 0 0 0 0 0 0 0 0 0 0 0 0 0 0 0 
0 0 0 0 0 0 0 0 0 0 0 0 0 0 0 0 0 0 0 0 0 0 0 0 0 0 0 0 0 4 6 8 13 17 15 12 11 18 25 28 31 32 32 37 50 68 81 88 91 94 105 108 104 102 103 104 105 106 116 114 115 107 106 100 90 71 53 47 41 36 27 27 25 22 17 14 14 14 14 12 8 3 0 0 0 0 0 0 0 0 0 0 0 1 1 0 0 0 0 0 0 0 0 0 0 0 0 0 0 0 0 0 0 0 0 0 0 0 0 0 0 0 0 0 0 0 0 0 
