P2
# teste3.pgm
128 99
93
0 0 0 0 0 0 0 0 0 0 0 0 0 0 0 0 0 0 0 0 0 0 0 0 0 0 0 0 0 0 0 0 2 3 1 0 0 0 0 0 0 0 0 0 0 0 0 0 0 0 0 0 0 0 0 0 0 0 0 0 0 0 0 0 0 0 0 0 0 0 0 0 0 0 0 0 0 0 0 0 0 0 0 0 0 0 0 0 0 0 0 0 1 2 3 4 0 0 0 0 0 0 0 0 0 0 0 0 0 0 0 0 0 0 0 0 0 0 0 0 0 0 0 0 0 0 0 0 
0 0 0 0 0 0 0 0 0 0 0 0 0 0 0 0 0 0 0 0 0 0 0 0 0 0 0 0 0 0 0 0 2 3 1 0 0 0 0 0 0 0 0 0 0 0 0 0 0 0 0 0 0 0 0 0 0 0 0 0 0 0 0 0 0 0 0 0 0 0 0 0 0 0 0 0 0 0 0 0 0 0 0 0 0 0 0 0 0 0 0 0 1 2 3 3 0 0 0 0 0 0 0 0 0 0 0 0 0 0 0 0 0 0 0 0 0 0 0 0 0 0 0 0 0 0 0 0 
0 0 0 0 0 0 0 0 0 0 0 0 0 0 0 0 0 0 0 0 0 0 0 0 0 0 0 0 0 0 0 0 2 2 1 0 0 0 0 0 0 0 0 0 0 0 0 0 0 0 0 1 0 2 1 0 0 0 0 0 0 0 0 0 0 0 0 0 0 0 0 0 0 0 0 0 0 0 0 0 0 0 0 0 0 0 0 0 0 0 0 0 1 2 3 4 0 0 0 0 0 0 0 0 0 0 0 0 0 0 0 0 0 0 0 0 0 0 0 0 0 0 0 0 0 0 0 0 
0 0 0 0 0 0 0 0 0 0 0 0 0 0 0 0 0 0 0 0 0 0 0 0 0 0 0 0 0 0 0 0 1 2 1 0 0 0 0 0 0 0 0 1 6 13 16 17 17 18 20 22 25 25 23 19 17 15 14 12 3 0 0 0 0 0 0 0 0 0 0 0 0 0 0 0 0 0 0 0 0 0 0 0 0 0 0 0 0 0 0 0 1 2 3 4 0 0 0 0 0 0 0 0 0 0 0 0 0 0 0 0 0 0 0 0 0 0 0 0 0 0 0 0 0 0 0 0 
0 0 0 0 0 0 0 0 0 0 0 0 0 0 0 0 0 0 0 0 0 0 0 0 0 0 0 0 0 0 0 0 1 1 0 0 0 0 0 0 6 13 18 21 22 30 48 64 78 87 92 93 93 93 93 92 88 80 65 48 30 20 17 10 1 0 0 0 0 0 0 0 0 0 0 0 0 0 0 0 0 0 0 0 0 0 0 0 0 0 0 0 1 2 2 3 0 0 0 0 0 0 0 0 0 0 0 0 0 0 0 0 0 0 0 0 0 0 0 0 0 0 0 0 0 0 0 0 
0 0 0 0 0 0 0 0 0 0 0 0 0 0 0 0 0 0 0 0 0 0 0 0 0 0 0 0 0 0 0 0 1 1 0 0 0 0 8 16 20 24 33 56 82 93 92 89 87 86 86 86 87 87 87 86 87 88 90 92 93 86 66 40 23 16 10 1 0 0 0 0 0 0 0 0 0 0 0 0 0 0 0 0 0 0 0 0 0 0 0 0 1 2 2 4 0 0 0 0 0 0 0 0 0 0 0 0 0 0 0 0 0 0 0 0 0 0 0 0 0 0 0 0 0 0 0 0 
0 0 0 0 0 0 0 0 0 0 0 0 0 0 0 0 0 0 0 0 0 0 0 0 0 0 0 0 0 0 0 0 0 0 0 0 9 19 20 25 46 78 93 90 86 85 85 84 82 80 79 78 78 78 78 78 79 80 83 85 87 89 91 93 87 63 34 18 12 1 0 0 0 0 0 0 0 0 0 0 0 0 0 0 0 0 0 0 0 0 0 0 1 2 3 3 0 0 0 0 0 0 0 0 0 0 0 0 0 0 0 0 0 0 0 0 0 0 0 0 0 0 0 0 0 0 0 0 
0 0 0 0 0 0 0 0 0 0 0 0 0 0 0 0 0 0 0 0 0 0 0 0 0 0 0 0 0 0 0 0 0 0 7 22 24 25 53 87 92 87 85 86 85 82 82 86 89 91 90 88 89 92 93 90 84 78 79 81 81 82 84 86 88 91 93 78 44 22 12 1 0 0 0 0 0 0 0 0 0 0 0 0 0 0 0 0 0 0 0 0 1 2 3 4 0 0 0 0 0 0 0 0 0 0 0 0 0 0 0 0 0 0 0 0 0 0 0 0 0 0 0 0 0 0 0 0 
0 0 0 0 0 0 0 0 0 0 0 0 0 0 0 0 0 0 0 0 0 0 0 0 0 0 0 0 0 0 0 0 5 28 24 21 49 87 91 88 87 86 84 81 83 86 90 92 93 93 93 93 93 93 93 93 93 90 82 76 78 80 82 82 83 85 86 89 93 78 41 21 10 0 0 0 0 0 0 0 0 0 0 0 0 0 0 0 0 0 0 0 2 3 3 4 0 0 0 0 0 0 0 0 0 0 0 0 0 0 0 0 0 0 0 0 0 0 0 0 0 0 0 0 0 0 0 0 
0 0 0 0 0 0 0 0 0 0 0 0 0 0 0 0 0 0 0 0 0 0 0 0 0 0 0 0 0 0 0 22 24 22 36 81 92 88 88 88 85 80 82 90 93 93 93 92 92 92 92 93 93 92 93 93 93 93 91 86 76 74 76 78 81 82 83 84 86 89 92 65 29 17 2 0 0 0 0 0 0 0 0 0 0 0 0 0 0 0 0 0 2 3 3 4 0 0 0 0 0 0 0 0 0 0 0 0 0 0 0 0 0 0 0 0 0 0 0 0 0 0 0 0 0 0 0 0 
0 0 0 0 0 0 0 0 0 0 0 0 0 0 0 0 0 0 0 0 0 0 0 0 0 0 0 0 0 9 26 20 24 67 92 89 88 87 85 80 79 87 93 93 93 93 93 93 92 90 90 91 90 90 91 92 93 93 93 93 91 82 74 70 73 79 82 82 82 84 86 91 85 40 21 5 0 0 0 0 0 0 0 0 0 0 0 0 0 0 0 0 2 3 3 4 0 0 0 0 0 0 0 0 0 0 0 0 0 0 0 0 0 0 0 0 0 0 0 0 0 0 0 0 0 0 0 0 
0 0 0 0 0 0 0 0 0 0 0 0 0 0 0 0 0 0 0 0 0 0 0 0 0 0 0 0 21 22 15 43 88 90 90 88 84 80 78 83 90 92 93 93 93 91 90 91 91 92 91 91 90 91 92 92 91 92 92 92 93 92 89 83 73 68 71 78 81 82 82 84 88 92 57 22 11 0 0 0 0 0 0 0 0 0 0 0 0 0 0 0 1 2 3 4 0 0 0 0 0 0 0 0 0 0 0 0 0 0 0 0 0 0 0 0 0 0 0 0 0 0 0 0 0 0 0 0 
0 0 0 0 0 0 0 0 0 0 0 0 0 0 0 0 0 0 0 0 0 0 0 0 0 0 5 25 19 20 62 92 90 89 86 80 77 79 87 91 92 93 93 93 93 93 93 92 91 90 87 87 87 87 91 93 93 93 93 93 93 93 93 91 87 81 73 68 71 78 82 83 84 89 92 67 23 12 0 0 0 0 0 0 0 0 0 0 0 0 0 0 2 3 3 4 0 0 0 0 0 0 0 0 0 0 0 0 0 0 0 0 0 0 0 0 0 0 0 0 0 0 0 0 0 0 0 0 
0 0 0 0 0 0 0 0 0 0 0 0 0 0 0 0 0 0 0 0 0 0 0 0 0 9 25 16 23 76 92 90 87 82 78 77 83 89 91 93 93 93 93 93 93 93 93 93 92 92 90 90 90 90 90 92 93 93 93 93 93 93 93 93 92 91 87 82 75 71 74 81 84 86 89 92 72 24 13 0 0 0 0 0 0 0 0 0 0 0 0 0 2 3 3 4 0 0 0 0 0 0 0 0 0 0 0 0 0 0 0 0 0 0 0 0 0 0 0 0 0 0 0 0 0 0 0 0 
0 0 0 0 0 0 0 0 0 0 0 0 0 0 0 0 0 0 0 0 0 0 0 0 13 21 16 30 82 92 90 85 79 77 80 88 91 93 92 92 93 93 93 93 93 93 91 90 91 90 88 87 86 86 86 87 90 92 93 93 93 93 93 93 92 93 93 91 89 83 75 74 79 83 86 87 92 77 28 12 0 0 0 0 0 0 0 0 0 0 0 0 2 3 3 4 0 0 0 0 0 0 0 0 0 0 0 0 0 0 0 0 0 0 0 0 0 0 0 0 0 0 0 0 0 0 0 0 
0 0 0 0 0 0 0 0 0 0 0 0 0 0 0 0 0 0 0 0 0 0 3 17 18 13 39 87 93 90 84 80 78 87 92 92 91 91 93 93 93 93 93 93 93 90 88 87 86 86 84 82 82 85 87 87 86 88 90 92 92 92 92 93 93 92 92 93 93 92 88 80 75 77 83 86 87 91 83 32 11 0 0 0 0 0 0 0 0 0 0 0 1 3 3 3 0 0 0 0 0 0 0 0 0 0 0 0 0 0 0 0 0 0 0 0 0 0 0 0 0 0 0 0 0 0 0 0 
0 0 0 0 0 0 0 0 0 0 0 0 0 0 0 0 0 0 0 0 0 4 17 15 16 48 90 93 89 82 78 81 90 92 92 92 93 93 93 93 93 93 93 91 87 86 87 87 88 88 88 88 88 89 90 90 88 87 86 87 88 88 89 92 93 93 93 92 93 93 93 92 85 79 77 83 85 87 92 86 34 7 0 0 0 0 0 0 0 0 0 0 2 3 3 4 0 0 0 0 0 0 0 0 0 0 0 0 0 0 0 0 0 0 0 0 0 0 0 0 0 0 0 0 0 0 0 0 
0 0 0 0 0 0 0 0 0 0 0 0 0 0 0 0 0 0 0 0 6 15 13 18 58 92 93 88 80 77 84 93 92 91 93 93 92 92 93 93 92 92 90 85 83 84 82 84 85 85 87 87 86 86 85 85 86 89 89 90 89 89 88 89 91 91 91 93 93 93 93 93 93 88 83 79 81 85 88 91 87 34 5 0 0 0 0 0 0 0 0 0 2 3 3 4 0 0 0 0 0 0 0 0 0 0 0 0 0 0 0 0 0 0 0 0 0 0 0 0 0 0 0 0 0 0 0 0 
0 0 0 0 0 0 0 0 0 0 0 0 0 0 0 0 0 0 0 5 15 12 18 63 93 93 88 82 79 86 93 93 92 93 93 91 92 93 92 90 89 88 87 84 84 81 80 81 81 81 82 71 71 80 78 79 80 81 83 86 87 88 88 89 88 88 89 90 92 93 93 93 93 93 90 85 79 80 85 89 92 85 26 3 0 0 0 0 0 0 0 0 1 2 3 4 0 0 0 0 0 0 0 0 0 0 0 0 0 0 0 0 0 0 0 0 0 0 0 0 0 0 0 0 0 0 0 0 
0 0 0 0 0 0 0 0 0 0 0 0 0 0 0 0 0 0 4 14 11 19 65 93 93 90 85 80 88 93 93 93 93 93 90 92 92 90 86 86 87 85 82 80 79 77 76 76 77 79 76 67 71 82 82 82 82 83 83 84 86 86 86 87 87 86 87 89 90 92 92 93 93 92 93 91 88 80 80 86 89 92 78 18 1 0 0 0 0 0 0 0 2 3 3 4 0 0 0 0 0 0 0 0 0 0 0 0 0 0 0 0 0 0 0 0 0 0 0 0 0 0 0 0 0 0 0 0 
0 0 0 0 0 0 0 0 0 0 0 0 0 0 0 0 0 2 13 12 18 63 93 93 91 86 80 89 93 93 93 93 92 90 92 91 86 86 87 86 81 79 81 81 79 80 80 80 79 74 70 72 76 85 88 88 87 87 87 88 89 87 85 84 84 85 86 88 88 90 92 91 92 93 93 93 92 90 79 81 87 91 93 65 11 0 0 0 0 0 0 0 2 3 3 4 0 0 0 0 0 0 0 0 0 0 0 0 0 0 0 0 0 0 0 0 0 0 0 0 0 0 0 0 0 0 0 0 
0 0 0 0 0 0 0 0 0 0 0 0 0 0 0 0 0 10 12 15 60 92 93 92 88 83 89 93 93 93 93 92 90 91 89 84 86 87 87 85 84 85 86 86 85 83 80 79 78 74 79 83 83 83 84 85 88 87 86 85 84 83 82 81 78 80 86 87 86 88 91 91 87 91 93 92 93 93 89 78 82 89 92 91 46 4 0 0 0 0 0 0 2 3 3 4 0 0 0 0 0 0 0 0 0 0 0 0 0 0 0 0 0 0 0 0 0 0 0 0 0 0 0 0 0 0 0 0 
0 0 0 0 0 0 0 0 0 0 0 0 0 0 0 0 5 12 14 51 90 93 92 89 84 88 93 93 93 92 91 89 88 88 83 86 89 89 89 88 86 84 84 84 83 82 83 84 82 83 85 86 85 86 85 84 83 82 81 82 81 81 81 81 81 80 80 88 86 85 88 90 90 85 92 93 92 93 93 88 79 86 91 93 84 24 1 0 0 0 0 0 2 3 3 4 0 0 0 0 0 0 0 0 0 0 0 0 0 0 0 0 0 0 0 0 0 0 0 0 0 0 0 0 0 0 0 0 
0 0 0 0 0 0 0 0 0 0 0 0 0 0 0 2 11 12 43 87 92 93 91 86 88 93 93 93 92 91 89 86 87 86 89 89 90 90 86 83 79 75 72 72 76 79 82 84 85 87 87 85 84 87 86 85 86 86 85 84 81 80 78 78 80 82 81 82 88 85 83 88 90 88 86 92 93 92 93 93 85 81 89 92 92 64 7 0 0 0 0 0 2 3 3 4 0 0 0 0 0 0 0 0 0 0 0 0 0 1 0 0 0 0 0 0 0 0 0 0 0 0 0 0 0 0 0 0 
0 0 0 0 0 0 0 0 0 0 0 0 0 0 0 8 11 24 78 91 93 92 89 89 93 93 93 92 91 90 87 85 88 88 90 89 88 84 81 77 71 69 70 73 76 79 82 82 84 85 85 81 79 82 81 81 82 82 83 85 83 79 77 78 79 81 83 82 85 86 79 82 89 90 86 87 93 93 92 92 92 84 86 91 93 85 29 1 0 0 0 0 2 3 3 4 0 0 0 0 0 0 0 0 0 0 0 0 0 1 0 0 0 0 0 0 0 0 0 0 0 0 0 0 0 0 0 0 
0 0 0 0 0 0 0 0 0 0 0 0 0 0 2 8 14 62 89 92 93 91 91 93 93 93 92 90 90 89 86 87 89 90 88 86 83 80 76 70 67 70 75 79 80 79 78 75 75 78 81 80 77 78 79 79 80 79 81 84 84 83 80 77 76 79 82 82 83 85 83 81 85 90 89 85 90 93 92 89 92 91 84 90 93 92 56 3 0 0 0 0 2 3 3 4 0 0 0 0 0 0 0 0 0 0 0 0 0 0 0 0 0 0 0 0 0 0 0 0 0 0 0 0 0 0 0 0 
0 0 0 0 0 0 0 0 0 0 0 0 0 0 5 9 35 84 91 93 92 91 93 93 93 92 91 90 90 88 88 89 90 87 86 80 77 75 71 67 70 76 81 82 81 79 78 75 74 78 80 81 79 79 72 74 80 80 79 80 81 83 83 81 77 76 78 80 82 84 85 83 83 84 89 90 88 92 92 89 89 93 89 88 92 93 77 14 0 0 0 0 2 3 3 4 0 0 0 0 0 0 0 0 0 0 0 0 0 0 0 0 0 0 0 0 0 0 0 0 0 0 0 0 0 0 0 0 
0 0 0 0 0 0 0 0 0 0 0 0 0 0 5 14 67 89 92 93 92 93 93 93 92 90 87 90 88 89 89 89 86 86 82 75 73 73 69 72 79 83 84 82 81 82 81 79 79 81 81 83 82 77 74 77 78 81 82 83 83 82 82 82 82 80 79 79 79 83 84 83 85 82 88 92 90 89 91 91 87 93 92 89 92 93 88 34 1 0 0 0 2 3 3 4 0 0 0 0 0 0 0 0 0 0 0 0 0 0 0 0 0 0 0 0 0 0 0 0 0 0 0 0 0 0 0 0 
0 0 0 0 0 0 0 0 0 0 0 0 0 2 6 32 83 90 93 92 92 93 93 93 90 88 89 90 88 90 89 86 86 85 76 72 73 73 74 80 83 83 83 83 83 84 85 83 84 84 83 84 86 80 79 80 80 81 84 85 84 83 83 81 81 83 82 81 80 82 83 83 87 83 84 91 92 88 88 91 87 92 93 89 91 93 92 51 2 0 0 0 2 3 3 4 0 0 0 0 0 0 0 0 0 0 0 0 0 0 0 0 0 0 0 0 0 0 0 0 0 0 0 0 0 0 0 0 
0 0 0 0 0 0 0 0 0 0 0 0 0 4 8 57 88 90 93 92 93 93 93 91 86 88 90 87 87 90 87 86 88 80 70 72 75 78 82 84 83 81 81 83 83 84 87 88 89 89 87 87 88 85 84 84 83 84 85 84 84 84 83 82 80 81 84 84 82 81 82 83 86 85 84 90 92 87 86 90 87 91 93 91 90 93 93 65 5 0 0 0 2 3 4 4 0 0 0 0 0 0 0 0 0 0 0 0 0 1 0 0 0 0 0 0 0 0 0 0 0 0 0 0 0 0 0 0 
0 0 0 0 0 0 0 0 0 0 0 0 0 6 15 75 89 92 93 93 92 92 93 87 85 88 87 85 88 89 86 88 86 74 70 76 80 85 86 83 81 71 68 75 84 87 87 89 90 88 85 84 85 82 81 80 80 82 86 87 86 86 86 85 82 79 81 86 86 82 81 82 86 85 84 88 91 86 86 88 87 89 93 92 90 93 93 75 9 0 0 0 2 3 4 4 0 0 0 0 0 0 0 0 0 0 0 0 0 1 0 0 0 0 0 0 0 0 0 0 0 0 0 0 0 0 0 0 
0 0 0 0 0 0 0 0 0 0 0 0 1 6 31 84 90 93 93 93 90 91 91 84 86 86 85 86 90 87 87 87 81 73 74 82 87 87 84 76 67 65 67 73 77 84 85 82 81 78 77 76 80 77 77 74 73 73 75 83 86 87 85 84 85 81 80 84 88 85 81 80 84 85 86 86 88 86 84 84 87 89 93 92 90 93 93 81 14 0 0 0 2 3 3 4 0 0 0 0 0 0 0 0 0 0 0 0 0 1 0 0 0 0 0 0 0 0 0 0 0 0 0 0 0 0 0 0 
0 0 0 0 0 0 0 0 0 0 0 0 2 5 43 86 90 93 93 91 89 92 89 83 86 83 85 86 88 85 88 83 76 73 82 89 88 84 74 63 64 68 72 72 70 77 79 70 70 72 74 76 76 76 75 74 75 76 76 71 66 74 78 80 80 83 84 84 85 88 85 80 81 84 84 85 86 83 83 83 85 89 93 93 90 92 93 87 23 0 0 0 2 3 3 5 0 0 0 0 0 0 0 0 0 0 0 0 0 1 0 0 0 0 0 0 0 0 0 0 0 0 0 0 0 0 0 0 
0 0 0 0 0 0 0 0 0 0 0 0 2 6 53 88 92 93 93 89 89 91 88 85 84 81 84 85 88 85 87 78 72 80 89 91 86 79 66 61 66 70 72 70 66 64 72 71 70 71 74 76 76 77 76 75 74 75 71 59 60 66 74 77 82 84 83 84 82 85 88 85 81 84 82 85 85 80 83 84 85 91 93 93 90 91 93 90 32 1 0 0 2 3 3 4 0 0 0 0 0 0 0 0 0 0 0 0 0 1 0 0 0 0 0 0 0 0 0 0 0 0 0 0 0 0 0 0 
0 0 0 0 0 0 0 0 0 0 0 0 2 8 59 89 92 93 93 89 91 90 88 86 84 81 85 83 86 86 85 74 77 88 90 89 82 74 72 65 68 69 70 71 67 61 58 64 68 73 78 79 79 79 77 73 66 66 65 59 60 64 72 77 81 81 83 86 82 82 86 89 86 86 83 84 83 80 82 80 84 91 93 93 90 90 93 92 42 2 0 0 2 3 3 5 0 0 0 0 0 0 0 0 0 0 0 0 0 0 0 0 0 0 0 0 0 0 0 0 0 0 0 0 0 0 0 0 
0 0 0 0 0 0 0 0 0 0 0 0 4 11 65 90 93 93 92 90 92 89 90 88 83 81 84 82 85 86 83 76 85 90 89 86 82 76 78 80 78 72 70 71 70 63 60 60 61 70 78 81 82 82 80 72 66 61 60 60 60 66 71 72 73 83 88 87 84 82 84 88 90 91 84 84 81 82 82 80 83 92 93 93 90 89 93 93 51 3 0 0 2 4 3 5 0 0 0 0 0 0 0 0 0 0 0 0 0 0 0 0 0 0 0 0 0 0 0 0 0 0 0 0 0 0 0 0 
0 0 0 0 0 0 0 0 0 0 0 0 3 13 69 91 93 93 93 91 93 88 91 88 85 82 84 82 83 84 84 85 89 88 88 84 75 71 73 72 70 70 74 75 74 69 62 61 62 65 74 82 85 85 82 75 71 64 60 60 62 70 72 72 70 75 79 79 76 71 73 83 91 93 91 84 84 84 81 81 86 92 93 93 91 89 92 93 60 5 0 0 2 3 3 4 0 0 0 0 0 0 0 0 0 0 0 0 0 0 0 0 0 0 0 0 0 0 0 0 0 0 0 0 0 0 0 0 
0 0 0 0 0 0 0 0 0 0 0 0 3 13 70 91 93 93 92 92 93 90 92 89 84 82 85 80 81 85 88 86 88 89 82 75 70 62 59 61 64 59 61 64 72 75 69 62 60 63 70 79 86 86 80 76 72 65 61 60 67 72 71 68 71 76 82 83 80 77 77 79 87 92 93 91 88 87 83 84 88 92 92 93 91 87 92 93 68 6 0 0 2 3 3 4 0 0 0 0 0 0 0 0 0 0 0 0 0 0 0 0 0 0 0 0 0 0 0 0 0 0 0 0 0 0 0 0 
0 0 0 0 0 0 0 0 0 0 0 0 6 13 72 92 93 93 92 92 93 89 92 89 87 85 85 80 79 88 90 85 89 81 79 79 74 68 67 72 72 67 61 58 61 69 71 69 62 64 72 78 85 85 81 80 74 64 63 66 72 66 64 64 63 71 78 79 79 75 73 76 81 86 92 93 92 89 87 87 89 92 90 92 93 88 91 93 75 9 0 0 2 3 3 4 0 0 0 0 0 0 0 0 0 0 0 0 0 0 0 0 0 0 0 0 0 0 0 0 0 0 0 0 0 0 0 0 
0 0 0 0 0 0 0 0 0 0 0 0 6 12 74 93 93 93 92 92 93 88 91 90 89 89 88 85 81 90 92 91 85 82 83 74 66 64 65 65 68 68 66 67 65 62 66 71 67 68 76 82 85 86 83 83 73 65 61 71 70 63 57 55 60 68 77 78 78 76 72 74 81 86 90 93 93 90 89 88 89 91 88 91 93 91 91 93 82 14 0 0 2 3 4 4 0 0 0 0 0 0 0 0 0 0 0 0 0 0 0 0 0 0 0 0 0 0 0 0 0 0 0 0 0 0 0 0 
0 0 0 0 0 0 0 0 0 0 0 0 6 12 74 93 92 92 91 92 92 88 90 89 89 88 89 89 90 90 92 89 84 84 77 65 59 59 60 63 65 65 61 60 66 65 67 71 74 73 78 85 89 88 88 81 70 62 64 78 66 57 54 59 66 70 78 82 81 80 78 78 84 90 91 91 91 90 89 89 90 89 85 89 92 92 92 93 87 21 0 0 2 3 3 4 0 0 0 0 0 0 0 0 0 0 0 0 0 0 0 0 0 0 0 0 0 0 0 0 0 0 0 0 0 0 0 0 
0 0 0 0 0 0 0 0 0 0 0 0 6 12 76 93 92 92 90 92 91 88 90 87 88 87 88 87 92 91 92 87 85 82 75 65 62 63 62 64 65 67 66 62 62 71 74 78 81 82 85 88 91 86 88 80 70 63 74 75 58 56 59 62 65 71 80 85 84 84 80 78 84 90 91 87 84 89 88 89 90 89 83 86 89 93 91 93 89 30 0 0 2 3 4 5 0 0 0 0 0 0 0 0 0 0 0 0 0 0 0 0 0 0 0 0 0 0 0 0 0 0 0 0 0 0 0 0 
0 0 0 0 0 0 0 0 0 0 0 0 7 13 75 93 92 92 90 91 91 88 87 85 86 83 88 87 91 91 90 86 90 89 81 71 66 63 62 64 64 66 66 68 68 73 80 82 83 84 86 90 87 86 84 84 79 72 79 68 59 59 60 67 69 74 78 82 83 80 77 76 81 89 92 86 83 88 86 88 88 87 81 83 86 93 92 93 90 38 0 0 2 4 4 5 0 0 0 0 0 0 0 0 0 0 0 0 0 0 0 0 0 0 0 0 0 0 0 0 0 0 0 0 0 0 0 0 
0 0 0 0 0 0 0 0 0 0 0 0 8 15 77 93 92 92 87 88 90 86 84 84 85 81 85 87 88 88 85 82 85 84 74 69 69 68 67 63 62 62 64 70 75 77 79 82 83 84 86 85 84 87 86 87 85 81 78 63 60 62 68 68 69 72 75 79 79 77 75 76 82 89 91 85 84 88 87 86 86 86 78 81 83 91 92 93 91 43 1 0 2 4 4 5 0 0 0 0 0 0 0 0 0 0 0 0 0 0 0 0 0 0 0 0 0 0 0 0 0 0 0 0 0 0 0 0 
0 0 0 0 0 0 0 0 0 0 0 0 8 15 77 93 92 92 84 88 88 82 81 82 84 78 84 90 87 84 81 80 81 81 71 64 60 64 69 71 69 67 70 72 76 78 77 75 79 80 87 87 80 83 85 87 83 81 78 64 65 68 64 60 60 71 77 80 80 77 74 75 81 87 90 83 84 88 86 86 87 85 77 79 79 88 93 93 92 49 2 0 2 4 4 5 0 0 0 0 0 0 0 0 0 0 0 0 0 0 0 0 0 0 0 0 0 0 0 0 0 0 0 0 0 0 0 0 
0 0 0 0 0 0 0 0 0 0 0 0 6 15 75 93 92 92 83 86 87 79 78 80 76 72 81 90 88 84 77 79 82 80 72 63 61 61 63 68 70 69 73 79 78 75 76 74 75 82 89 89 86 81 84 81 86 81 74 69 68 66 65 57 60 72 76 81 80 75 72 74 81 87 90 83 85 86 84 89 91 85 77 79 82 87 90 93 92 52 2 0 2 4 4 5 0 0 0 0 0 0 0 0 0 0 0 0 0 0 0 0 0 0 0 0 0 0 0 0 0 0 0 0 0 0 0 0 
0 0 0 0 0 0 0 0 0 0 0 0 7 15 74 93 92 91 82 83 84 77 77 80 75 71 78 88 88 84 76 77 82 80 71 64 61 59 63 70 67 63 71 76 76 77 78 75 76 83 86 87 81 77 80 75 84 88 76 68 64 64 61 58 64 70 74 80 78 74 70 73 80 87 88 84 86 84 86 90 92 86 78 76 83 85 89 93 92 53 2 0 2 3 3 4 0 0 0 0 0 0 0 0 0 0 0 0 0 0 0 0 0 0 0 0 0 0 0 0 0 0 0 0 0 0 0 0 
0 0 0 0 0 0 0 0 0 0 0 0 6 15 71 93 93 91 83 81 83 79 77 79 75 72 75 85 89 85 77 75 81 81 72 64 60 60 62 68 69 67 68 76 76 77 78 71 73 83 83 85 76 75 75 73 76 88 74 69 62 61 58 59 66 69 75 79 78 74 71 73 81 87 86 85 87 86 86 88 92 87 80 75 83 84 89 93 91 51 2 0 2 3 4 5 0 0 0 0 0 0 0 0 0 0 0 0 0 0 0 0 0 0 0 0 0 0 0 0 0 0 0 0 0 0 0 0 
0 0 0 0 0 0 0 0 0 0 0 0 6 13 66 93 93 90 84 82 83 79 77 77 75 77 72 82 88 88 83 77 78 84 74 64 62 62 62 64 69 70 70 72 72 73 74 70 75 85 82 80 74 74 77 74 73 84 83 73 62 58 57 61 64 69 76 79 79 73 73 77 84 86 81 86 88 83 80 88 91 86 80 76 81 84 89 93 90 48 1 0 2 3 4 5 0 0 0 0 0 0 0 0 0 0 0 0 0 0 0 0 0 0 0 0 0 0 0 0 0 0 0 0 0 0 0 0 
0 0 0 0 0 0 0 0 0 0 0 0 4 14 63 92 93 90 84 81 80 80 77 77 75 76 70 80 88 91 89 79 75 82 76 66 64 63 68 67 69 72 72 71 73 75 75 67 75 86 83 80 75 78 82 77 74 75 85 78 64 58 59 60 63 70 75 81 76 72 75 80 84 84 76 84 87 80 79 87 91 86 79 78 80 84 90 93 89 43 1 0 2 3 3 4 0 0 0 0 0 0 0 0 0 0 0 0 0 0 0 0 0 0 0 0 0 0 0 0 0 0 0 0 0 0 0 0 
0 0 0 0 0 0 0 0 0 0 0 0 2 14 59 92 93 91 84 82 77 81 77 78 76 76 70 78 89 93 92 82 76 79 79 68 63 66 73 72 70 71 69 73 73 75 72 69 79 86 81 80 78 80 85 80 75 72 79 82 78 66 61 60 67 70 75 78 74 72 77 80 83 79 67 80 84 79 79 85 89 86 78 79 78 83 91 92 87 39 1 0 2 3 3 4 0 0 0 0 0 0 0 0 0 0 0 0 0 0 0 0 0 0 0 0 0 0 0 0 0 0 0 0 0 0 0 0 
0 0 0 0 0 0 0 0 0 7 5 0 0 12 50 90 93 91 85 82 74 80 77 78 76 75 71 76 89 93 92 83 79 78 78 71 64 65 68 71 71 75 72 73 75 80 82 82 85 84 80 79 77 83 85 84 79 71 69 79 85 82 71 67 69 70 78 80 76 74 76 79 84 70 60 80 83 82 86 85 86 84 77 77 77 82 92 91 83 33 1 0 2 3 4 5 0 0 0 0 0 0 0 0 0 0 0 0 0 0 0 0 0 0 0 0 0 0 0 0 0 0 0 0 0 0 0 0 
0 0 0 0 0 0 0 0 0 0 6 2 0 8 43 88 93 90 84 82 73 77 78 79 74 74 75 76 88 90 90 84 80 76 77 74 67 65 64 69 74 79 79 75 78 86 88 81 88 78 77 76 76 79 82 80 77 74 71 78 83 88 77 68 67 71 80 81 75 71 72 78 81 62 64 84 85 89 92 87 88 83 74 74 78 81 92 89 79 27 0 0 1 3 3 4 0 0 0 0 0 0 0 0 0 0 0 0 0 0 0 0 0 0 0 0 0 0 0 0 0 0 0 0 0 0 0 0 
0 0 0 0 0 0 0 0 0 0 5 7 2 6 35 84 93 90 83 79 76 72 78 81 76 74 78 77 87 88 85 86 84 84 80 73 69 67 66 69 74 79 76 81 88 89 88 85 88 74 77 74 73 80 79 76 76 74 80 83 83 83 79 78 75 77 81 80 75 73 72 80 81 73 75 86 87 89 92 88 91 85 75 75 77 84 92 88 73 22 0 0 2 3 4 4 0 0 0 0 0 0 0 0 0 0 0 0 0 0 0 0 0 0 0 0 0 0 0 0 0 0 0 0 0 0 0 0 
0 0 0 0 0 0 0 0 0 0 7 10 2 5 27 77 92 91 82 78 82 74 77 81 78 74 79 78 86 89 89 88 88 85 81 74 65 64 68 72 77 83 84 87 87 84 82 84 85 71 69 70 69 78 74 71 73 72 73 81 87 81 76 77 81 86 91 88 84 83 87 89 86 83 89 91 85 84 89 91 91 89 82 76 79 89 92 87 69 14 0 0 2 11 8 4 0 0 0 0 0 0 0 0 0 0 0 0 0 0 0 0 0 0 0 0 0 0 0 0 0 0 0 0 0 0 0 0 
0 0 0 0 0 0 0 0 0 0 1 11 8 6 21 71 91 93 84 81 82 76 72 79 82 76 80 76 83 88 90 84 84 88 84 78 73 78 80 82 85 83 81 80 85 85 76 80 83 63 63 67 65 69 65 59 64 67 72 82 87 80 73 75 84 91 93 93 93 93 93 93 91 87 89 93 90 87 85 92 89 90 88 79 81 92 91 85 62 9 1 1 6 3 3 4 0 0 0 0 0 0 0 0 0 0 0 0 0 0 0 0 0 0 0 0 0 0 0 0 0 0 0 0 0 0 0 0 
0 0 0 0 0 0 0 0 0 0 0 8 11 8 17 66 89 93 89 84 78 78 72 75 85 81 81 81 83 86 88 82 80 85 89 89 88 85 80 80 81 81 83 82 85 77 70 77 83 63 60 70 63 71 68 56 58 64 72 83 89 82 72 75 84 89 90 91 92 93 93 93 90 83 88 89 92 88 89 92 88 92 91 83 91 92 86 84 55 7 0 0 8 6 3 5 0 0 0 0 0 0 0 0 0 0 0 0 0 0 0 0 0 0 0 0 0 0 0 0 0 0 0 0 0 0 0 0 
0 0 0 0 0 0 0 0 0 0 0 6 10 9 11 57 86 92 92 86 79 79 77 80 89 84 81 88 82 80 91 91 88 85 84 88 84 79 82 85 85 83 79 78 75 74 71 75 80 65 62 69 62 72 65 57 61 71 80 82 83 84 82 82 87 89 92 91 92 93 92 92 93 93 92 93 93 91 92 92 92 93 93 93 93 89 79 83 45 5 1 2 3 4 4 5 0 0 0 0 0 0 0 0 0 0 0 0 0 0 0 0 0 0 0 0 0 0 0 0 0 0 0 0 0 0 0 0 
0 0 0 0 0 0 0 0 0 0 0 6 8 7 12 47 83 92 93 89 83 85 85 86 87 89 85 91 88 77 90 93 93 93 92 92 92 92 88 81 78 75 75 64 57 62 71 81 80 68 72 75 66 74 67 64 63 72 80 83 85 80 85 87 90 93 93 93 93 93 93 92 93 93 92 91 90 92 92 91 93 91 92 92 89 87 84 79 29 6 6 0 3 3 4 5 0 0 0 0 0 0 0 0 0 0 0 0 0 0 0 0 0 0 0 0 0 0 0 0 0 0 0 0 0 0 0 0 
0 0 0 0 0 0 0 0 0 0 0 6 11 6 5 34 81 92 93 92 90 93 90 91 91 93 92 92 90 87 92 93 92 93 92 92 93 93 92 84 75 74 70 65 60 71 79 81 72 67 74 79 76 82 71 63 59 65 72 79 83 84 84 85 86 87 91 92 93 93 93 90 90 90 91 93 92 93 93 93 93 91 89 93 92 86 86 69 15 8 8 1 3 3 4 5 0 0 0 0 0 0 0 0 0 0 0 0 0 0 0 0 0 0 0 0 0 0 0 0 0 0 0 0 0 0 0 0 
0 0 0 0 0 0 0 0 0 0 0 2 9 5 5 8 53 88 92 93 93 92 90 93 93 93 92 92 91 92 93 93 93 93 93 92 93 93 92 81 74 75 77 71 71 78 82 79 72 71 80 81 81 88 87 72 62 64 69 73 78 77 85 85 84 86 90 92 92 90 86 85 89 90 92 93 93 93 93 93 93 93 93 93 93 85 81 71 18 7 10 3 1 4 4 6 0 0 0 0 0 0 0 0 0 0 0 0 0 0 0 0 0 0 0 0 0 0 0 0 0 0 0 0 0 0 0 0 
0 0 0 0 0 0 0 0 0 0 0 5 6 5 5 8 33 82 92 93 93 92 91 92 92 93 92 93 91 83 93 93 93 92 93 92 93 93 90 80 76 78 80 75 78 80 85 76 76 79 81 83 85 89 89 78 64 64 67 76 79 78 81 82 82 85 91 93 91 85 78 80 86 89 92 92 92 92 92 93 93 92 92 93 89 81 85 53 10 8 10 3 1 4 4 6 0 0 0 0 0 0 0 0 0 0 0 0 0 0 0 0 0 0 0 0 0 0 0 0 0 0 0 0 0 0 0 0 
0 0 0 0 0 0 0 0 0 0 0 5 4 8 5 9 20 71 92 92 93 92 93 93 91 91 93 93 91 85 92 93 93 93 93 93 93 92 89 84 80 78 80 81 77 81 89 75 80 82 77 78 75 85 87 85 67 62 71 77 81 81 79 78 76 81 91 92 88 82 79 79 84 90 93 93 92 93 93 93 92 93 90 89 88 87 80 30 8 6 9 5 1 4 4 6 0 0 0 0 0 0 0 0 0 0 0 0 0 0 0 0 0 0 0 0 0 0 0 0 0 0 0 0 0 0 0 0 
0 0 0 0 0 0 0 0 0 0 0 2 5 10 3 10 14 53 89 90 93 90 91 91 91 93 93 93 92 90 91 92 93 93 91 93 92 91 90 88 76 78 81 76 77 82 89 75 76 83 82 79 75 77 85 86 73 69 74 77 79 83 88 86 83 79 78 73 71 77 79 79 82 91 93 93 93 93 93 91 91 92 90 88 86 89 64 16 7 7 4 4 3 4 4 6 0 0 0 0 0 0 0 0 0 0 0 0 0 0 0 0 0 0 0 0 0 0 0 0 0 0 0 0 0 0 0 0 
0 0 0 0 0 0 0 0 0 0 0 2 0 5 4 10 14 29 82 87 92 92 91 89 91 92 91 90 86 92 93 88 89 92 92 91 92 92 90 83 74 71 72 75 77 75 85 75 73 78 82 80 78 78 87 84 71 70 80 80 80 90 93 93 87 69 62 65 74 76 75 81 89 91 93 93 93 93 92 93 92 91 89 73 81 84 37 9 7 5 3 3 6 5 4 6 0 0 0 0 0 0 0 0 0 0 0 0 0 0 0 0 0 0 0 0 0 0 0 0 0 0 0 0 0 0 0 0 
0 0 0 0 0 0 0 0 0 0 1 4 1 4 1 9 16 18 66 81 88 92 92 91 88 93 89 84 82 88 93 91 82 88 93 91 86 89 90 85 74 76 74 79 83 86 88 84 84 84 87 88 84 82 90 89 81 80 84 86 90 92 92 90 85 73 66 68 73 77 83 89 86 86 89 93 93 92 89 93 93 90 79 58 85 72 19 8 1 5 4 0 1 4 4 6 0 0 0 0 0 0 0 0 0 0 0 0 0 0 0 0 0 0 0 0 0 0 0 0 0 0 0 0 0 0 0 0 
0 0 0 0 0 0 0 0 0 0 1 2 5 4 0 4 17 16 42 80 87 90 92 92 92 92 90 86 86 89 92 89 88 88 90 89 80 71 72 76 80 82 83 87 89 92 90 90 92 93 93 93 93 93 93 92 92 92 90 89 91 92 90 89 86 76 73 70 79 88 87 80 84 86 89 92 93 91 92 93 93 90 63 59 86 52 13 11 2 5 6 0 0 4 4 6 0 0 0 0 0 0 0 0 0 0 0 0 0 0 0 0 0 0 0 0 0 0 0 0 0 0 0 0 0 0 0 0 
0 0 0 0 0 0 0 0 0 0 1 2 4 3 1 4 12 16 25 77 87 85 90 90 93 93 91 92 91 89 92 90 91 92 88 86 82 75 66 70 78 83 86 88 92 93 90 92 93 93 93 93 93 93 91 92 93 93 92 92 92 93 93 93 91 87 88 87 90 89 80 84 88 85 85 92 93 92 93 93 92 85 55 72 81 31 10 12 4 5 3 0 1 4 4 6 0 0 0 0 0 0 0 0 0 0 0 0 0 0 0 0 0 0 0 0 0 0 0 0 0 0 0 0 0 0 0 0 
0 0 0 0 0 0 0 0 0 0 0 2 2 0 2 6 12 12 15 55 83 83 80 85 91 93 92 91 93 88 90 92 91 92 89 86 85 79 79 81 90 92 89 90 91 91 89 92 91 90 89 92 93 93 93 93 93 92 88 89 91 93 93 93 93 91 90 91 92 84 75 78 83 84 81 92 93 93 93 92 91 87 69 77 67 21 9 11 6 5 1 0 1 4 5 6 0 0 0 0 0 0 0 0 0 0 0 0 0 0 0 0 0 0 0 0 0 0 0 0 0 0 0 0 0 0 0 0 
0 0 0 0 0 0 0 0 0 0 0 0 2 1 2 7 10 9 11 37 72 80 83 78 88 93 93 92 92 92 88 89 92 90 85 88 90 87 88 91 92 93 93 92 93 92 92 93 92 91 92 93 93 93 92 92 92 93 91 90 91 92 93 93 93 93 92 93 92 80 73 73 82 88 86 92 93 93 93 89 82 82 82 71 55 17 9 11 7 5 1 0 2 5 5 6 0 0 0 0 0 0 0 0 0 0 0 0 0 0 0 0 0 0 0 0 0 0 0 0 0 0 0 0 0 0 0 0 
0 0 0 0 0 0 0 0 0 0 1 5 12 8 4 8 9 10 11 29 65 77 85 69 81 90 93 93 93 89 90 87 91 89 83 80 84 86 88 90 92 93 92 93 92 93 93 93 93 92 93 93 93 93 93 90 91 93 91 92 92 91 92 92 93 93 93 93 91 80 75 79 85 87 91 93 93 93 93 84 72 82 72 70 52 13 8 8 9 5 0 0 2 5 5 7 0 0 0 0 0 0 0 0 0 0 0 0 0 0 0 0 0 0 0 0 0 0 0 0 0 0 0 0 0 0 0 0 
0 0 0 0 0 0 0 0 0 0 0 4 12 12 12 10 8 11 14 19 57 68 81 85 87 86 92 93 93 92 91 87 90 79 80 80 79 82 83 83 87 93 93 93 92 93 92 92 93 93 93 93 93 93 92 90 87 89 85 88 91 93 93 91 92 93 93 93 92 79 71 74 85 88 93 92 91 92 93 75 73 78 75 73 40 13 6 4 7 4 0 0 2 5 4 7 0 0 0 0 0 0 0 0 0 0 0 0 0 0 0 0 0 0 0 0 0 0 0 0 0 0 0 0 0 0 0 0 
0 0 0 0 0 0 0 0 0 0 0 2 9 11 10 7 7 11 15 16 32 67 83 81 68 77 92 93 92 93 93 91 91 77 63 72 81 84 80 78 80 91 93 93 91 92 93 93 93 93 92 93 93 93 88 83 83 85 87 91 92 93 93 92 89 92 92 93 91 78 71 78 85 90 93 93 93 93 90 75 68 75 66 59 19 12 6 3 2 6 2 3 4 3 3 6 0 0 0 0 0 0 0 0 0 0 0 0 0 0 0 0 0 0 0 0 0 0 0 0 0 0 0 0 0 0 0 0 
0 0 0 0 0 0 0 0 0 0 0 2 10 10 7 7 8 9 15 14 16 44 83 83 79 73 87 92 93 93 93 92 90 90 76 64 65 70 72 76 86 92 93 93 93 93 93 93 93 93 93 93 92 93 93 90 88 90 90 88 91 92 92 87 90 93 93 93 93 91 85 85 90 93 93 91 87 77 73 55 60 68 68 33 10 9 7 5 2 4 10 10 12 7 6 6 0 0 0 0 0 0 0 0 0 0 0 0 0 0 0 0 0 0 0 0 0 0 0 0 0 0 0 0 0 0 0 0 
0 0 0 0 0 0 0 0 0 0 0 0 9 10 7 6 4 4 7 14 19 27 59 80 76 64 80 92 93 93 93 92 90 89 85 80 78 80 79 88 87 92 93 93 92 93 93 93 93 93 93 93 93 93 93 93 93 92 91 91 93 92 91 88 93 92 93 92 90 85 91 92 92 93 86 73 74 71 63 47 74 74 40 13 7 2 2 3 4 4 3 7 8 6 3 6 0 0 0 0 0 0 0 0 0 0 0 0 0 0 0 0 0 0 0 0 0 0 0 0 0 0 0 0 0 0 0 0 
0 0 0 0 0 0 0 0 0 0 0 0 4 7 4 2 2 3 5 10 17 22 28 67 74 62 76 86 79 92 93 91 89 90 90 89 91 89 87 92 93 87 88 86 86 84 84 84 91 92 91 92 93 93 92 92 93 93 91 86 87 84 84 85 83 80 90 90 92 91 91 87 75 71 59 60 73 79 70 65 60 34 19 18 10 1 0 0 1 0 4 6 7 1 2 6 0 0 0 0 0 0 0 0 0 0 0 0 0 0 0 0 0 0 0 0 0 0 0 0 0 0 0 0 0 0 0 0 
0 0 0 0 0 0 0 0 0 0 0 0 0 2 2 1 1 0 0 7 15 14 11 37 71 75 62 59 60 70 75 76 87 87 85 83 79 85 92 93 90 92 92 91 90 88 87 89 91 93 93 88 91 92 92 93 93 93 91 87 89 84 81 91 91 83 90 92 92 91 83 72 63 61 53 57 66 69 59 42 34 32 31 27 17 0 0 0 0 0 3 7 7 1 2 6 0 0 0 0 0 0 0 0 0 0 0 0 0 0 0 0 0 0 0 0 0 0 0 0 0 0 0 0 0 0 0 0 
0 0 0 0 0 0 0 0 0 0 0 0 0 1 6 3 3 2 1 2 9 12 18 21 33 40 29 48 57 55 57 45 62 65 72 74 57 57 64 68 71 72 92 88 93 85 79 81 85 79 83 87 83 79 71 72 73 67 76 73 70 84 74 87 81 92 85 63 50 53 54 69 50 39 43 62 70 63 42 24 27 24 15 5 3 0 3 3 3 2 2 10 3 1 3 6 0 0 0 0 0 0 0 0 0 0 0 0 0 0 0 0 0 0 0 0 0 0 0 0 0 0 0 0 0 0 0 0 
0 0 0 0 0 0 0 0 0 0 0 0 0 0 1 2 3 3 2 1 5 9 12 14 21 20 21 37 63 60 55 48 54 49 63 67 52 48 56 52 63 72 68 72 74 65 63 59 73 72 56 60 61 61 63 65 67 60 61 59 60 75 66 56 63 76 85 73 75 84 58 56 39 36 41 60 71 62 40 27 25 22 12 6 3 0 1 2 2 3 2 1 0 0 2 6 0 0 0 0 0 0 0 0 0 0 0 0 0 0 0 0 0 0 0 0 0 0 0 0 0 0 0 0 0 0 0 0 
0 0 0 0 0 0 0 0 0 0 0 0 0 0 0 0 0 2 0 0 2 8 9 13 19 23 24 34 64 64 52 54 58 52 65 68 64 63 91 93 93 92 86 82 83 82 80 82 83 73 72 81 77 79 77 76 77 61 73 81 78 84 81 75 89 93 72 69 77 75 70 84 63 61 62 68 72 62 38 25 25 22 12 9 1 0 0 0 0 0 0 0 0 0 1 5 0 0 0 0 0 0 0 0 0 0 0 0 0 0 0 0 0 0 0 0 0 0 0 0 0 0 0 0 0 0 0 0 
0 0 0 0 0 0 0 0 0 0 0 0 0 0 0 0 0 0 0 0 0 2 3 7 13 28 28 43 70 70 62 58 60 53 67 68 67 81 90 91 92 92 92 93 93 92 92 93 91 83 87 90 88 89 87 90 91 84 86 93 93 91 90 91 91 91 93 67 80 92 86 84 73 69 72 72 71 64 45 37 26 21 11 6 0 0 0 0 0 0 0 0 0 0 0 3 0 0 0 0 0 0 0 0 0 0 0 0 0 0 0 0 0 0 0 0 0 0 0 0 0 0 0 0 0 0 0 0 
0 0 0 0 0 0 0 0 0 0 0 0 0 0 0 0 0 0 0 0 0 3 5 2 7 22 20 37 67 71 64 69 67 62 75 74 62 64 92 92 91 93 89 89 91 85 87 93 90 91 92 93 92 92 88 85 86 89 92 92 93 93 92 93 92 91 92 89 79 93 92 91 80 66 49 54 58 42 21 23 12 2 1 2 0 0 0 0 0 0 0 0 0 0 0 2 0 0 0 0 0 0 0 0 0 0 0 0 0 0 0 0 0 0 0 0 0 0 0 0 0 0 0 0 0 0 0 0 
0 0 0 0 0 0 0 0 0 0 0 0 0 0 0 0 0 0 0 0 0 0 2 1 6 13 23 26 51 64 59 65 55 47 71 69 58 67 65 83 91 90 90 75 87 89 88 93 93 93 92 90 93 93 93 93 93 93 93 93 89 89 86 90 89 93 93 90 91 93 83 67 49 42 47 65 64 43 20 19 12 7 4 0 0 0 0 0 0 0 0 1 2 5 7 9 0 0 0 0 0 0 0 0 0 0 0 0 0 0 0 0 0 0 0 0 0 0 0 0 0 0 0 0 0 0 0 0 
0 0 0 0 0 0 0 0 0 0 0 0 0 0 0 0 0 0 0 0 0 0 3 7 7 12 18 23 35 48 60 59 53 53 72 68 54 42 71 85 85 84 80 65 56 87 91 90 77 72 82 62 78 84 80 70 73 76 77 86 82 79 78 70 75 91 90 89 93 87 71 58 58 50 54 76 65 40 18 18 14 11 5 0 0 0 0 0 0 0 0 0 0 0 3 8 0 0 0 0 0 0 0 0 0 0 0 0 0 0 0 0 0 0 0 0 0 0 0 0 0 0 0 0 0 0 0 0 
0 0 0 0 0 0 0 0 0 0 0 0 0 0 0 0 0 0 0 0 0 0 1 7 8 10 17 20 26 39 55 59 56 52 68 45 46 59 64 77 79 79 81 77 83 92 91 90 85 74 73 63 67 67 71 70 72 76 77 74 74 75 66 54 63 76 85 84 82 78 69 61 70 71 68 77 65 45 22 20 15 10 6 0 0 0 0 0 0 0 0 0 0 0 3 8 0 0 0 0 0 0 0 0 0 0 0 0 0 0 0 0 0 0 0 0 0 0 0 0 0 0 0 0 0 0 0 0 
0 0 0 0 0 0 0 0 0 0 0 0 0 0 0 0 0 0 0 0 0 0 0 4 7 9 16 20 23 38 53 60 63 54 69 37 28 39 60 80 76 71 77 73 80 91 86 85 85 84 77 67 67 68 72 62 67 65 72 73 81 87 86 78 74 72 80 77 70 73 57 35 42 65 75 80 65 47 25 19 15 10 5 0 0 0 0 0 0 0 0 0 0 0 3 7 0 0 0 0 0 0 0 0 0 0 0 0 0 0 0 0 0 0 0 0 0 0 0 0 0 0 0 0 0 0 0 0 
0 0 0 0 0 0 0 0 0 0 0 0 0 0 0 0 0 0 0 0 0 0 0 2 6 7 12 18 22 33 53 56 60 58 68 39 37 50 55 51 51 71 72 69 79 88 84 82 91 90 85 70 71 77 72 65 72 67 68 77 86 92 91 86 79 68 74 83 77 67 64 46 39 60 76 82 63 43 30 18 13 9 3 0 0 0 0 0 0 0 0 0 0 0 3 7 0 0 0 0 0 0 0 0 0 0 0 0 0 0 0 0 0 0 0 0 0 0 0 0 0 0 0 0 0 0 0 0 
0 0 0 0 0 0 0 0 0 0 0 0 0 0 0 0 0 0 0 0 0 0 0 0 5 6 9 15 21 25 43 51 61 64 68 46 47 47 39 42 64 73 67 66 73 84 82 74 90 84 87 82 78 75 71 71 73 69 74 84 86 87 89 85 84 74 72 75 82 68 53 57 50 62 78 80 70 47 27 15 14 8 1 0 0 0 0 0 0 0 0 0 0 0 2 7 0 0 0 0 0 0 0 0 0 0 0 0 0 0 0 0 0 0 0 0 0 0 0 0 0 0 0 0 0 0 0 0 
0 0 0 0 0 0 0 0 0 0 0 0 0 0 0 0 0 0 0 0 0 0 0 0 2 3 8 13 18 24 31 46 63 67 65 53 54 45 36 52 69 52 58 71 73 83 85 78 81 69 82 86 80 76 72 70 72 74 82 86 81 77 85 84 86 75 74 60 63 72 43 53 60 66 83 77 66 43 19 14 13 8 0 0 0 0 0 0 0 0 0 0 0 0 2 7 0 0 0 0 0 0 0 0 0 0 0 0 0 0 0 0 0 0 0 0 0 0 0 0 0 0 0 0 0 0 0 0 
0 0 0 0 0 0 0 0 0 0 0 0 0 0 0 0 0 0 0 0 0 0 0 0 0 4 4 12 15 19 28 46 57 62 60 58 61 42 37 61 64 44 60 73 66 77 86 71 64 65 78 82 82 79 76 75 78 82 87 83 71 78 77 78 84 65 72 64 50 69 51 48 66 60 84 72 42 20 17 14 14 8 0 0 0 0 0 0 0 0 0 0 0 0 3 7 0 0 0 0 0 0 0 0 0 0 0 0 0 0 0 0 0 0 0 0 0 0 0 0 0 0 0 0 0 0 0 0 
0 0 0 0 0 0 0 0 0 0 0 0 0 0 0 0 0 0 0 0 0 0 0 0 0 3 4 9 14 16 20 28 41 36 54 66 61 40 38 61 56 50 63 69 62 78 86 66 58 67 76 81 84 85 86 86 89 89 83 74 70 72 72 73 81 63 64 64 54 64 58 44 64 66 75 36 19 16 17 15 14 8 0 0 0 0 0 0 0 0 0 0 0 0 2 7 0 0 0 0 0 0 0 0 0 0 0 0 0 0 0 0 0 0 0 0 0 0 0 0 0 0 0 0 0 0 0 0 
0 0 0 0 0 0 0 0 0 0 0 0 0 0 0 0 0 0 0 0 0 0 0 0 0 0 4 5 11 16 19 18 17 15 27 62 59 48 54 75 56 47 56 63 63 75 84 71 63 67 62 68 81 86 84 85 90 88 77 63 65 68 75 73 80 73 62 60 49 64 77 62 66 73 63 22 16 13 15 16 12 6 0 0 0 0 0 0 0 0 0 0 0 0 2 7 0 0 0 0 0 0 0 0 0 0 0 0 0 0 0 0 0 0 0 0 0 0 0 0 0 0 0 0 0 0 0 0 
0 0 0 0 0 0 0 0 0 0 0 0 0 0 0 0 0 0 0 0 0 0 0 0 0 0 2 5 8 12 15 16 16 18 14 36 65 69 69 72 60 47 53 58 60 69 77 77 75 68 56 58 70 77 80 83 89 88 75 62 65 72 81 83 82 78 66 60 50 59 79 77 75 66 32 14 13 13 15 15 10 5 0 0 0 0 0 0 0 0 0 0 0 0 1 6 0 0 0 0 0 0 0 0 0 0 0 0 0 0 0 0 0 0 0 0 0 0 0 0 0 0 0 0 0 0 0 0 
0 0 0 0 0 0 0 0 0 0 0 0 0 0 0 0 0 0 0 0 0 0 0 0 0 0 0 3 5 8 14 18 15 20 14 12 30 61 58 65 68 57 56 61 73 74 77 77 78 74 64 65 68 75 79 85 87 84 79 70 70 74 82 83 77 77 73 65 60 70 75 68 61 32 20 14 11 13 15 13 10 5 1 0 0 0 0 0 0 0 0 0 0 0 2 6 0 0 0 0 0 0 0 0 0 0 0 0 0 0 0 0 0 0 0 0 0 0 0 0 0 0 0 0 0 0 0 0 
0 0 0 0 0 0 0 0 0 0 0 0 0 0 0 0 0 0 0 0 0 0 0 0 0 0 0 2 4 7 10 16 17 18 13 13 16 29 46 60 76 69 58 69 82 73 71 81 75 78 65 62 66 75 78 83 82 84 84 77 66 70 80 84 75 76 84 77 68 77 73 52 29 24 21 14 14 14 14 11 9 5 0 0 0 0 0 0 0 0 0 0 0 0 1 6 0 0 0 0 0 0 0 0 0 0 0 0 0 0 0 0 0 0 0 0 0 0 0 0 0 0 0 0 0 0 0 0 
0 0 0 0 0 0 0 0 0 0 0 0 0 0 0 0 0 0 0 0 0 0 0 0 0 0 0 0 4 4 9 14 15 16 14 12 14 20 28 42 65 72 68 80 84 73 78 86 82 74 60 63 72 82 83 83 84 85 87 88 75 66 81 86 80 75 84 83 74 73 51 31 23 24 23 14 14 14 14 10 9 5 0 0 0 0 0 0 0 0 0 0 0 0 1 6 0 0 0 0 0 0 0 0 0 0 0 0 0 0 0 0 0 0 0 0 0 0 0 0 0 0 0 0 0 0 0 0 
0 0 0 0 0 0 0 0 0 0 0 0 0 0 0 0 0 0 0 0 0 0 0 0 0 0 0 0 0 6 8 12 16 17 15 11 15 19 24 28 33 57 71 77 81 73 77 83 80 65 70 77 84 88 83 81 82 85 89 90 83 67 82 88 82 70 82 84 74 48 29 27 24 23 21 15 12 14 14 10 8 5 0 0 0 0 0 0 0 0 0 0 0 0 0 6 0 0 0 0 0 0 0 0 0 0 0 0 0 0 0 0 0 0 0 0 0 0 0 0 0 0 0 0 0 0 0 0 
0 0 0 0 0 0 0 0 0 0 0 0 0 0 0 0 0 0 0 0 0 0 0 0 0 0 0 0 0 6 6 8 16 18 15 11 13 19 24 27 27 31 37 47 59 60 69 80 75 74 82 84 85 85 81 80 78 81 88 86 85 81 83 87 80 64 59 51 41 36 26 26 24 22 18 14 11 12 14 10 8 4 0 0 0 0 0 0 0 0 0 0 0 0 1 6 0 0 0 0 0 0 0 0 0 0 0 0 0 0 0 0 0 0 0 0 0 0 0 0 0 0 0 0 0 0 0 0 
0 0 0 0 0 0 0 0 0 0 0 0 0 0 0 0 0 0 0 0 0 0 0 0 0 0 0 0 0 4 7 6 15 16 15 12 12 18 22 26 27 31 27 29 35 51 62 69 72 76 80 81 76 78 80 80 79 79 85 86 84 81 84 80 66 53 40 39 36 33 26 27 23 22 17 12 14 11 13 12 9 4 0 0 0 0 0 0 0 0 0 0 0 0 1 6 0 0 0 0 0 0 0 0 0 0 0 0 0 0 0 0 0 0 0 0 0 0 0 0 0 0 0 0 0 0 0 0 
