P2
# teste6.pgm
128 99
221
0 0 0 0 0 0 0 0 0 0 0 0 0 0 0 0 0 0 0 0 0 0 0 0 0 0 0 0 0 0 0 0 0 1 0 0 0 0 0 0 0 0 0 0 0 0 0 0 0 0 0 0 0 0 0 0 0 0 0 0 0 0 0 0 0 0 0 0 0 0 0 0 0 0 0 0 0 0 0 0 0 0 0 0 0 0 0 0 0 0 0 0 0 0 0 0 0 0 0 0 0 0 0 0 0 0 0 0 0 0 0 0 0 0 0 0 0 0 0 0 0 0 0 0 0 0 0 0 
0 0 0 0 0 0 0 0 0 0 0 0 0 0 0 0 0 0 0 0 0 0 0 0 0 0 0 0 0 0 0 0 0 1 0 0 0 0 0 0 0 0 0 0 0 0 0 0 0 0 0 0 0 0 0 0 0 0 0 0 0 0 0 0 0 0 0 0 0 0 0 0 0 0 0 0 0 0 0 0 0 0 0 0 0 0 0 0 0 0 0 0 0 0 0 0 0 0 0 0 0 0 0 0 0 0 0 0 0 0 0 0 0 0 0 0 0 0 0 0 0 0 0 0 0 0 0 0 
0 0 0 0 0 0 0 0 0 0 0 0 0 0 0 0 0 0 0 0 0 0 0 0 0 0 0 0 0 0 0 0 0 0 0 0 0 0 0 0 0 0 0 0 0 0 0 0 0 0 0 1 2 2 0 0 0 0 0 0 0 0 0 0 0 0 0 0 0 0 0 0 0 0 0 0 0 0 0 0 0 0 0 0 0 0 0 0 0 0 0 0 0 0 0 0 0 0 0 0 0 0 0 0 0 0 0 0 0 0 0 0 0 0 0 0 0 0 0 0 0 0 0 0 0 0 0 0 
0 0 0 0 0 0 0 0 0 0 0 0 0 0 0 0 0 0 0 0 0 0 0 0 0 0 0 0 0 0 0 0 0 0 0 0 0 0 0 0 0 0 0 0 6 13 17 18 17 19 21 24 28 28 25 21 18 14 14 11 3 0 0 0 0 0 0 0 0 0 0 0 0 0 0 0 0 0 0 0 0 0 0 0 0 0 0 0 0 0 0 0 0 0 0 0 0 0 0 0 0 0 0 0 0 0 0 0 0 0 0 0 0 0 0 0 0 0 0 0 0 0 0 0 0 0 0 0 
0 0 0 0 0 0 0 0 0 0 0 0 0 0 0 0 0 0 0 0 0 0 0 0 0 0 0 0 0 0 0 0 0 0 0 0 0 0 0 0 5 13 18 23 23 33 54 79 103 125 143 154 161 162 158 146 129 105 80 54 33 21 17 10 1 0 0 0 0 0 0 0 0 0 0 0 0 0 0 0 0 0 0 0 0 0 0 0 0 0 0 0 0 0 0 0 0 0 0 0 0 0 0 0 0 0 0 0 0 0 0 0 0 0 0 0 0 0 0 0 0 0 0 0 0 0 0 0 
0 0 0 0 0 0 0 0 0 0 0 0 0 0 0 0 0 0 0 0 0 0 0 0 0 0 0 0 0 0 0 0 0 0 0 0 0 0 9 16 23 25 36 68 114 156 180 192 197 201 201 199 197 197 199 199 198 195 190 179 158 123 80 44 23 15 10 1 0 0 0 0 0 0 0 0 0 0 0 0 0 0 0 0 0 0 0 0 0 0 0 0 0 0 0 0 0 0 0 0 0 0 0 0 0 0 0 0 0 0 0 0 0 0 0 0 0 0 0 0 0 0 0 0 0 0 0 0 
0 0 0 0 0 0 0 0 0 0 0 0 0 0 0 0 0 0 0 0 0 0 0 0 0 0 0 0 0 0 0 0 0 0 0 0 8 21 23 25 52 105 159 188 199 200 201 202 204 206 210 210 210 210 211 211 209 206 202 199 198 194 184 164 127 78 39 18 13 1 0 0 0 0 0 0 0 0 0 0 0 0 0 0 0 0 0 0 0 0 0 0 0 0 0 0 0 0 0 0 0 0 0 0 0 0 0 0 0 0 0 0 0 0 0 0 0 0 0 0 0 0 0 0 0 0 0 0 
0 0 0 0 0 0 0 0 0 0 0 0 0 0 0 0 0 0 0 0 0 0 0 0 0 0 0 0 0 0 0 0 0 0 7 24 25 26 63 128 178 195 200 201 204 207 205 199 192 188 191 199 196 182 181 194 208 214 212 208 207 203 200 199 195 182 155 103 50 23 13 1 0 0 0 0 0 0 0 0 0 0 0 0 0 0 0 0 0 0 0 0 0 0 0 0 0 0 0 0 0 0 0 0 0 0 0 0 0 0 0 0 0 0 0 0 0 0 0 0 0 0 0 0 0 0 0 0 
0 0 0 0 0 0 0 0 0 0 0 0 0 0 0 0 0 0 0 0 0 0 0 0 0 0 0 0 0 0 0 0 4 27 25 22 58 133 181 194 195 199 203 207 203 193 183 171 163 163 163 163 160 153 154 160 171 191 210 218 215 210 206 204 202 200 199 191 164 106 45 23 10 0 0 0 0 0 0 0 0 0 0 0 0 0 0 0 0 0 0 0 0 0 0 0 0 0 0 0 0 0 0 0 0 0 0 0 0 0 0 0 0 0 0 0 0 0 0 0 0 0 0 0 0 0 0 0 
0 0 0 0 0 0 0 0 0 0 0 0 0 0 0 0 0 0 0 0 0 0 0 0 0 0 0 0 0 0 0 23 25 20 41 115 178 192 193 197 201 206 202 185 169 167 162 152 145 141 144 152 153 149 153 156 157 158 174 194 214 220 218 215 210 205 202 199 200 191 155 82 30 18 2 0 0 0 0 0 0 0 0 0 0 0 0 0 0 0 0 0 0 0 0 0 0 0 0 0 0 0 0 0 0 0 0 0 0 0 0 0 0 0 0 0 0 0 0 0 0 0 0 0 0 0 0 0 
0 0 0 0 0 0 0 0 0 0 0 0 0 0 0 0 0 0 0 0 0 0 0 0 0 0 0 0 0 9 27 23 25 85 166 190 194 197 201 207 209 195 179 175 168 157 151 142 140 139 144 149 147 148 148 152 153 150 153 163 179 198 214 221 221 216 210 207 202 201 200 184 124 46 22 5 0 0 0 0 0 0 0 0 0 0 0 0 0 0 0 0 0 0 0 0 0 0 0 0 0 0 0 0 0 0 0 0 0 0 0 0 0 0 0 0 0 0 0 0 0 0 0 0 0 0 0 0 
0 0 0 0 0 0 0 0 0 0 0 0 0 0 0 0 0 0 0 0 0 0 0 0 0 0 0 0 22 25 18 48 137 186 191 196 202 206 210 205 190 179 168 162 158 156 153 150 147 142 133 135 132 131 145 150 153 154 154 159 167 178 192 206 216 221 220 215 210 207 204 202 195 158 69 24 10 0 0 0 0 0 0 0 0 0 0 0 0 0 0 0 0 0 0 0 0 0 0 0 0 0 0 0 0 0 0 0 0 0 0 0 0 0 0 0 0 0 0 0 0 0 0 0 0 0 0 0 
0 0 0 0 0 0 0 0 0 0 0 0 0 0 0 0 0 0 0 0 0 0 0 0 0 0 4 26 21 19 77 166 188 195 201 206 211 211 199 183 176 170 165 164 160 157 159 157 154 145 135 133 131 132 142 148 149 156 159 158 159 167 179 188 199 209 217 220 220 214 208 205 201 195 170 87 24 12 0 0 0 0 0 0 0 0 0 0 0 0 0 0 0 0 0 0 0 0 0 0 0 0 0 0 0 0 0 0 0 0 0 0 0 0 0 0 0 0 0 0 0 0 0 0 0 0 0 0 
0 0 0 0 0 0 0 0 0 0 0 0 0 0 0 0 0 0 0 0 0 0 0 0 0 10 25 18 25 105 175 188 199 206 211 215 208 191 179 173 174 170 162 156 152 151 153 153 142 137 131 132 128 128 131 143 153 153 154 157 159 163 168 174 182 190 199 209 216 220 217 211 204 198 194 176 97 26 13 0 0 0 0 0 0 0 0 0 0 0 0 0 0 0 0 0 0 0 0 0 0 0 0 0 0 0 0 0 0 0 0 0 0 0 0 0 0 0 0 0 0 0 0 0 0 0 0 0 
0 0 0 0 0 0 0 0 0 0 0 0 0 0 0 0 0 0 0 0 0 0 0 0 14 23 15 34 122 178 189 201 209 215 211 198 182 176 177 174 168 162 160 154 150 152 146 138 139 134 127 124 121 126 129 126 135 150 155 154 156 158 160 164 169 175 180 186 194 206 216 218 213 205 198 196 180 109 30 13 0 0 0 0 0 0 0 0 0 0 0 0 0 0 0 0 0 0 0 0 0 0 0 0 0 0 0 0 0 0 0 0 0 0 0 0 0 0 0 0 0 0 0 0 0 0 0 0 
0 0 0 0 0 0 0 0 0 0 0 0 0 0 0 0 0 0 0 0 0 0 3 18 20 14 45 134 175 191 203 211 214 202 186 176 176 178 172 165 159 154 151 147 146 137 129 126 119 117 116 115 113 116 120 120 120 123 133 144 145 145 151 162 166 165 168 171 175 183 194 208 216 212 206 198 195 182 121 36 12 0 0 0 0 0 0 0 0 0 0 0 0 0 0 0 0 0 0 0 0 0 0 0 0 0 0 0 0 0 0 0 0 0 0 0 0 0 0 0 0 0 0 0 0 0 0 0 
0 0 0 0 0 0 0 0 0 0 0 0 0 0 0 0 0 0 0 0 0 5 17 15 15 57 143 174 193 204 214 210 190 179 174 174 170 169 162 156 155 149 145 140 129 123 122 118 120 118 122 119 119 125 127 129 131 133 133 135 137 140 138 139 149 158 160 163 168 172 176 181 198 211 212 206 201 195 182 131 39 8 0 0 0 0 0 0 0 0 0 0 0 0 0 0 0 0 0 0 0 0 0 0 0 0 0 0 0 0 0 0 0 0 0 0 0 0 0 0 0 0 0 0 0 0 0 0 
0 0 0 0 0 0 0 0 0 0 0 0 0 0 0 0 0 0 0 0 6 16 14 18 71 154 175 193 207 214 204 178 170 172 172 165 156 149 150 151 149 149 145 134 126 122 117 118 117 115 116 115 114 120 117 116 118 124 126 129 129 131 136 141 139 139 146 154 154 155 162 166 174 189 206 209 206 202 194 182 136 37 6 0 0 0 0 0 0 0 0 0 0 0 0 0 0 0 0 0 0 0 0 0 0 0 0 0 0 0 0 0 0 0 0 0 0 0 0 0 0 0 0 0 0 0 0 0 
0 0 0 0 0 0 0 0 0 0 0 0 0 0 0 0 0 0 0 5 15 14 19 80 156 174 190 205 213 198 172 166 167 165 158 150 145 151 145 139 140 135 124 114 114 114 116 119 119 116 118 109 111 122 122 123 126 126 124 124 125 127 126 129 132 135 135 142 152 150 147 154 160 168 180 202 209 207 203 192 181 127 29 2 0 0 0 0 0 0 0 0 0 0 0 0 0 0 0 0 0 0 0 0 0 0 0 0 0 0 0 0 0 0 0 0 0 0 0 0 0 0 0 0 0 0 0 0 
0 0 0 0 0 0 0 0 0 0 0 0 0 0 0 0 0 0 4 15 13 19 86 157 172 186 202 210 192 171 167 161 159 158 148 141 145 139 135 133 125 113 113 118 117 115 118 121 121 121 116 111 115 129 127 125 128 127 126 126 127 127 127 125 123 123 132 136 141 152 146 144 150 155 162 174 197 209 208 200 188 175 110 19 1 0 0 0 0 0 0 0 0 0 0 0 0 0 0 0 0 0 0 0 0 0 0 0 0 0 0 0 0 0 0 0 0 0 0 0 0 0 0 0 0 0 0 0 
0 0 0 0 0 0 0 0 0 0 0 0 0 0 0 0 0 1 14 12 18 82 153 168 181 198 208 188 170 164 158 153 150 147 141 139 131 132 127 118 113 118 124 122 118 116 117 118 119 115 104 105 107 120 121 118 118 117 118 123 128 127 126 126 122 117 121 135 137 135 147 141 143 150 155 158 169 194 208 205 197 183 165 85 10 0 0 0 0 0 0 0 0 0 0 0 0 0 0 0 0 0 0 0 0 0 0 0 0 0 0 0 0 0 0 0 0 0 0 0 0 0 0 0 0 0 0 0 
0 0 0 0 0 0 0 0 0 0 0 0 0 0 0 0 0 11 11 16 75 147 162 176 192 206 189 166 164 155 151 147 147 144 135 128 129 125 117 116 120 123 121 119 117 114 109 108 109 101 99 100 101 107 111 113 116 113 113 113 114 111 115 118 116 114 117 124 135 134 132 138 133 139 149 154 159 166 194 208 203 193 177 148 54 3 0 0 0 0 0 0 0 0 0 0 0 0 0 0 0 0 0 0 0 0 0 0 0 0 0 0 0 0 0 0 0 0 0 0 0 0 0 0 0 0 0 0 
0 0 0 0 0 0 0 0 0 0 0 0 0 0 0 0 5 12 14 61 139 156 170 188 203 189 162 162 152 147 143 144 137 133 128 125 124 118 117 119 117 113 114 112 108 105 106 105 103 97 98 102 104 107 107 107 111 112 111 109 107 107 107 109 112 110 110 120 125 133 130 130 133 132 138 148 151 154 163 195 208 202 187 169 121 25 1 0 0 0 0 0 0 0 0 0 0 0 0 0 0 0 0 0 0 0 0 0 0 0 0 0 0 0 0 0 0 0 0 0 0 0 0 0 0 0 0 0 
0 0 0 0 0 0 0 0 0 0 0 0 0 0 0 1 11 12 47 127 151 166 181 199 192 162 158 149 146 143 140 133 130 134 129 122 115 114 114 112 109 105 104 103 104 106 108 111 107 103 111 112 111 109 109 109 112 113 112 113 113 114 113 108 107 113 112 109 119 125 128 126 128 130 133 140 155 148 150 166 201 206 195 179 155 81 6 0 0 0 0 0 0 0 0 0 0 0 0 0 0 0 0 0 0 0 0 0 0 0 0 0 0 0 0 0 0 0 0 0 0 0 0 0 0 0 0 0 
0 0 0 0 0 0 0 0 0 0 0 0 0 0 0 7 11 26 105 142 158 173 193 192 167 157 149 141 144 145 136 127 132 125 122 113 110 109 109 108 106 105 108 109 109 110 113 113 108 106 111 112 111 108 107 110 110 111 110 112 113 114 117 112 107 110 114 112 113 118 120 124 123 127 129 136 150 149 143 151 176 202 199 186 168 128 30 1 0 0 0 0 0 0 0 0 0 0 0 0 0 0 0 0 0 0 0 0 0 0 0 0 0 0 0 0 0 0 0 0 0 0 0 0 0 0 0 0 
0 0 0 0 0 0 0 0 0 0 0 0 0 0 2 8 12 77 134 150 166 184 187 174 155 146 138 141 145 141 131 130 124 122 115 105 108 111 113 110 110 109 109 111 109 107 110 107 104 107 110 110 106 110 104 103 103 104 103 104 107 114 116 116 111 106 107 113 108 111 115 123 125 126 127 132 142 149 140 143 153 187 198 191 173 149 71 3 0 0 0 0 0 0 0 0 0 0 0 0 0 0 0 0 0 0 0 0 0 0 0 0 0 0 0 0 0 0 0 0 0 0 0 0 0 0 0 0 
0 0 0 0 0 0 0 0 0 0 0 0 0 0 6 7 41 118 140 158 177 184 173 165 145 137 138 143 144 131 133 127 118 116 109 103 114 120 116 110 107 105 104 102 103 103 103 98 94 101 113 113 108 108 94 97 101 100 98 94 94 99 107 114 116 112 103 106 110 105 109 121 124 124 129 133 141 145 142 132 141 169 187 191 180 160 111 17 0 0 0 0 0 0 0 0 0 0 0 0 0 0 0 0 0 0 0 0 0 0 0 0 0 0 0 0 0 0 0 0 0 0 0 0 0 0 0 0 
0 0 0 0 0 0 0 0 0 0 0 0 0 0 6 15 86 130 150 165 184 170 167 153 135 135 138 144 134 133 128 114 111 116 111 114 121 113 106 104 102 98 97 95 93 96 97 100 103 106 114 116 116 109 97 98 101 103 101 97 95 94 95 101 113 120 111 104 108 110 106 111 124 122 131 132 136 142 141 130 131 158 177 187 183 165 135 39 1 0 0 0 0 0 0 0 0 0 0 0 0 0 0 0 0 0 0 0 0 0 0 0 0 0 0 0 0 0 0 0 0 0 0 0 0 0 0 0 
0 0 0 0 0 0 0 0 0 0 0 0 0 2 7 38 114 139 153 174 177 164 157 139 134 131 136 141 132 131 121 113 116 117 116 122 112 100 100 103 98 93 91 92 96 102 108 112 113 107 99 103 112 92 88 96 101 105 107 107 105 101 95 93 100 117 117 110 107 110 108 105 119 123 126 136 136 137 138 130 124 152 169 186 185 170 146 61 2 0 0 0 0 0 0 0 0 0 0 0 0 0 0 0 0 0 0 0 0 0 0 0 0 0 0 0 0 0 0 0 0 0 0 0 0 0 0 0 
0 0 0 0 0 0 0 0 0 0 0 0 0 3 8 70 127 143 159 179 162 155 148 131 131 126 135 135 129 127 117 114 121 118 122 114 103 100 105 101 93 89 93 101 108 111 110 106 101 94 89 89 100 90 91 91 88 87 93 102 108 111 107 99 94 102 115 118 111 110 112 109 114 118 125 136 139 128 131 131 121 144 165 182 185 172 152 83 5 0 0 1 0 0 0 0 0 0 0 0 0 0 0 0 0 0 0 0 0 0 0 0 0 0 0 0 0 0 0 0 0 0 0 0 0 0 0 0 
0 0 0 0 0 0 0 0 0 0 0 0 0 5 15 98 133 151 168 173 147 150 140 126 127 124 133 128 124 119 116 120 125 123 119 106 101 101 101 96 96 96 103 106 109 102 92 95 99 97 97 96 99 97 99 97 94 93 92 90 90 101 110 113 105 97 109 120 116 109 113 117 116 113 122 134 134 121 128 127 124 134 158 179 184 173 156 102 9 0 0 1 0 0 0 0 0 0 0 0 0 0 0 0 0 0 0 0 0 0 0 0 0 0 0 0 0 0 0 0 0 0 0 0 0 0 0 0 
0 0 0 0 0 0 0 0 0 0 0 0 1 5 33 116 137 156 171 153 137 143 137 126 120 125 127 124 121 114 117 126 129 125 109 103 105 98 97 96 105 113 110 100 92 92 98 101 103 105 105 102 104 103 104 100 100 100 100 101 97 92 96 111 116 110 108 114 121 117 113 119 122 116 118 132 130 121 121 120 125 133 160 177 185 177 158 119 16 0 0 1 0 0 0 0 0 0 0 0 0 0 0 0 0 0 0 0 0 0 0 0 0 0 0 0 0 0 0 0 0 0 0 0 0 0 0 0 
0 0 0 0 0 0 0 0 0 0 0 0 1 6 50 122 143 161 163 139 135 137 138 124 116 124 119 121 114 113 122 132 127 116 102 108 106 97 94 101 111 111 102 94 92 98 102 99 100 102 100 100 99 96 91 89 89 94 98 102 101 98 93 100 116 126 115 109 117 124 119 115 119 124 114 125 126 116 117 116 119 132 155 171 184 180 163 132 25 0 0 0 0 0 0 0 0 0 0 0 0 0 0 0 0 0 0 0 0 0 0 0 0 0 0 0 0 0 0 0 0 0 0 0 0 0 0 0 
0 0 0 0 0 0 0 0 0 0 0 0 2 7 65 127 148 164 158 136 132 137 139 121 117 116 118 118 111 112 128 131 120 111 107 109 106 102 103 108 108 102 98 102 99 96 100 97 96 95 99 102 97 95 92 90 89 91 89 96 110 108 106 101 105 111 112 108 110 120 123 117 114 125 118 118 122 111 116 116 118 134 156 172 185 184 168 142 37 1 0 0 0 0 0 0 0 0 0 0 0 0 0 0 0 0 0 0 0 0 0 0 0 0 0 0 0 0 0 0 0 0 0 0 0 0 0 0 
0 0 0 0 0 0 0 0 0 0 0 0 2 7 75 133 152 162 155 140 136 137 137 121 118 112 116 110 106 116 134 127 114 109 108 109 110 114 118 112 110 103 99 102 102 97 92 92 92 90 98 105 102 100 96 91 86 85 84 90 103 103 99 90 90 110 118 118 120 121 125 121 114 123 127 120 115 110 112 111 115 141 156 171 186 187 172 153 50 2 0 0 0 0 0 0 0 0 0 0 0 0 0 0 0 0 0 0 0 0 0 0 0 0 0 0 0 0 0 0 0 0 0 0 0 0 0 0 
0 0 0 0 0 0 0 0 0 0 0 0 3 11 83 138 158 166 154 145 137 136 136 125 119 111 112 106 105 119 134 121 109 110 110 114 121 121 123 124 121 117 106 96 97 103 99 90 83 87 98 104 107 104 99 91 85 82 81 89 99 98 97 96 102 113 119 121 121 125 130 126 120 123 127 130 118 114 108 110 119 144 154 168 188 188 176 161 63 3 0 0 0 0 0 0 0 0 0 0 0 0 0 0 0 0 0 0 0 0 0 0 0 0 0 0 0 0 0 0 0 0 0 0 0 0 0 0 
0 0 0 0 0 0 0 0 0 0 0 0 3 11 88 142 163 172 157 151 142 140 137 130 123 113 109 105 104 120 135 120 109 114 122 122 115 107 101 99 98 98 102 98 95 91 101 92 82 85 96 103 110 106 97 95 89 80 78 85 92 94 102 107 99 95 92 94 97 106 121 125 129 131 129 132 131 121 108 114 125 144 153 164 186 191 179 164 79 4 0 1 0 0 0 0 0 0 0 0 0 0 0 0 0 0 0 0 0 0 0 0 0 0 0 0 0 0 0 0 0 0 0 0 0 0 0 0 
0 0 0 0 0 0 0 0 0 0 0 0 4 13 91 147 164 171 153 152 147 145 140 135 127 115 109 100 104 124 136 117 116 128 120 112 99 88 84 89 89 81 79 85 91 101 101 97 84 88 99 104 110 107 99 103 96 84 81 81 89 104 102 98 97 94 96 97 92 97 110 117 115 118 137 139 143 135 113 122 128 144 148 158 180 192 183 166 93 6 0 1 0 0 0 0 0 0 0 0 0 0 0 0 0 0 0 0 0 0 0 0 0 0 0 0 0 0 0 0 0 0 0 0 0 0 0 0 
0 0 0 0 0 0 0 0 0 0 0 0 5 13 95 150 166 169 154 152 145 144 142 143 134 119 112 99 106 130 137 126 128 119 107 99 97 94 92 94 90 83 76 75 81 88 94 97 88 88 100 109 108 107 106 103 95 83 75 83 98 90 90 91 92 92 93 94 93 95 101 108 107 105 130 152 149 146 128 127 132 139 142 153 169 191 185 169 107 9 0 1 0 0 0 0 0 0 0 0 0 0 0 0 0 0 0 0 0 0 0 0 0 0 0 0 0 0 0 0 0 0 0 0 0 0 0 0 
0 0 0 0 0 0 0 0 0 0 0 0 6 14 97 153 167 172 153 149 143 142 138 143 139 123 118 113 113 137 139 137 115 104 98 90 88 89 90 89 85 80 76 80 85 89 91 101 94 93 102 109 112 113 113 101 89 76 78 94 88 83 85 87 91 93 96 99 97 99 107 114 115 114 127 153 155 148 139 131 129 133 134 145 159 184 186 171 122 15 0 1 0 0 0 0 0 0 0 0 0 0 0 0 0 0 0 0 0 0 0 0 0 0 0 0 0 0 0 0 0 0 0 0 0 0 0 0 
0 0 0 0 0 0 0 0 0 0 0 0 6 14 98 155 171 172 147 145 140 139 132 137 138 127 120 122 136 140 142 127 102 98 89 86 89 90 87 83 81 80 78 78 85 89 96 101 103 100 109 121 124 118 123 110 97 84 81 96 80 76 80 86 93 97 100 104 103 104 108 113 118 127 131 137 147 145 146 134 127 127 128 137 149 174 187 172 134 24 0 1 0 0 0 0 0 0 0 0 0 0 0 0 0 0 0 0 0 0 0 0 0 0 0 0 0 0 0 0 0 0 0 0 0 0 0 0 
0 0 0 0 0 0 0 0 0 0 0 0 7 15 101 157 173 174 136 139 139 136 131 133 133 132 123 119 141 148 148 122 108 103 96 93 93 90 85 81 80 80 81 85 86 91 99 101 97 95 104 119 126 119 124 116 104 89 93 95 74 71 80 94 99 100 100 102 100 100 107 115 120 120 121 127 132 146 150 136 125 126 125 127 139 164 184 172 140 34 1 1 0 0 0 0 0 0 0 0 0 0 0 0 0 0 0 0 0 0 0 0 0 0 0 0 0 0 0 0 0 0 0 0 0 0 0 0 
0 0 0 0 0 0 0 0 0 0 0 0 7 15 103 158 174 175 134 140 137 134 125 129 125 124 119 121 142 145 140 122 118 112 103 101 101 92 84 81 83 87 89 88 91 90 94 101 95 95 105 117 117 113 119 119 107 97 100 88 72 74 84 91 94 92 94 99 99 99 106 117 117 112 120 122 125 144 144 134 123 120 116 119 127 152 182 172 144 43 1 1 1 0 0 0 0 0 0 0 0 0 0 0 0 0 0 0 0 0 0 0 0 0 0 0 0 0 0 0 0 0 0 0 0 0 0 0 
0 0 0 0 0 0 0 0 0 0 0 0 7 16 106 160 177 172 133 138 133 128 117 119 120 119 118 121 132 136 128 113 110 108 100 97 96 90 87 80 77 80 88 96 93 90 89 94 95 93 106 105 101 112 114 119 116 105 98 83 75 78 84 91 93 92 91 94 98 97 103 114 116 105 117 117 122 142 142 128 120 115 110 116 117 139 176 172 148 52 3 1 1 0 0 0 0 0 0 0 0 0 0 0 0 0 0 0 0 0 0 0 0 0 0 0 0 0 0 0 0 0 0 0 0 0 0 0 
0 0 0 0 0 0 0 0 0 0 0 0 8 17 106 162 177 166 126 129 126 119 107 111 112 112 117 127 125 127 122 111 102 102 94 94 91 87 85 77 77 81 87 92 90 90 89 89 91 92 107 106 103 108 108 119 116 109 100 85 77 79 85 89 87 90 90 91 95 98 104 112 111 104 110 113 121 139 135 127 125 113 104 111 109 127 160 168 151 58 2 1 1 0 0 0 0 0 0 0 0 0 0 0 0 0 0 0 0 0 0 0 0 0 0 0 0 0 0 0 0 0 0 0 0 0 0 0 
0 0 0 0 0 0 0 0 0 0 0 0 8 17 104 162 178 160 121 119 117 113 98 105 107 101 111 127 123 124 121 109 100 98 91 91 90 85 82 76 76 82 87 92 88 85 89 88 87 97 116 120 109 97 100 97 120 107 98 87 84 84 84 80 83 87 88 91 96 98 103 110 105 102 109 111 120 136 129 134 137 112 104 112 111 125 141 160 152 64 2 1 1 0 0 0 0 0 0 0 0 0 0 0 0 0 0 0 0 0 0 0 0 0 0 0 0 0 0 0 0 0 0 0 0 0 0 0 
0 0 0 0 0 0 0 0 0 0 0 0 7 16 102 161 177 150 120 114 110 108 97 107 105 97 111 124 117 120 119 108 102 96 92 91 90 88 84 79 80 86 96 96 91 88 90 87 80 95 113 120 99 90 98 90 113 123 94 90 85 82 80 82 86 89 88 89 94 97 103 107 99 99 110 113 126 141 136 141 140 112 104 110 112 124 135 158 151 65 3 1 1 0 0 0 0 0 0 0 0 0 0 0 0 0 0 0 0 0 0 0 0 0 0 0 0 0 0 0 0 0 0 0 0 0 0 0 
0 0 0 0 0 0 0 0 0 0 0 0 7 16 97 158 175 141 121 108 111 109 97 104 106 98 110 119 114 115 118 110 104 100 94 92 91 90 87 81 82 84 88 88 88 89 91 85 82 102 114 104 81 77 88 80 89 128 90 90 83 77 78 90 95 94 90 90 96 98 102 102 97 100 110 118 138 149 137 137 140 112 104 106 112 121 136 162 145 62 2 0 1 0 0 0 0 0 0 0 0 0 0 0 0 0 0 0 0 0 0 0 0 0 0 0 0 0 0 0 0 0 0 0 0 0 0 0 
0 0 0 0 0 0 0 0 0 0 0 0 6 14 88 157 172 136 119 105 109 108 97 102 105 102 107 117 111 111 122 112 100 105 95 90 92 92 90 83 82 87 85 82 80 83 86 81 84 100 104 86 81 78 88 78 82 118 110 88 83 75 77 93 94 91 89 93 98 99 99 98 98 102 107 119 145 141 133 136 138 110 105 104 110 119 137 159 139 57 2 1 1 0 0 0 0 0 0 0 0 0 0 0 0 0 0 0 0 0 0 0 0 0 0 0 0 0 0 0 0 0 0 0 0 0 0 0 
0 0 0 0 0 0 0 0 0 0 0 0 4 14 81 153 170 138 121 108 106 107 99 99 101 100 104 120 108 109 119 117 100 105 96 91 93 94 91 86 85 91 87 81 80 80 81 72 80 102 101 82 79 81 93 82 79 93 121 93 80 73 76 92 93 94 91 94 96 96 95 95 96 101 105 122 140 131 131 136 137 109 107 103 107 115 137 156 132 51 1 0 0 0 0 0 0 0 0 0 0 0 0 0 0 0 0 0 0 0 0 0 0 0 0 0 0 0 0 0 0 0 0 0 0 0 0 0 
0 0 0 0 0 0 0 0 0 0 0 0 2 14 75 148 166 143 120 109 102 106 100 102 98 99 102 122 109 110 120 117 101 103 98 90 93 95 90 89 91 93 87 81 78 79 75 71 84 105 87 78 76 86 99 89 82 81 112 110 96 82 78 91 94 93 91 92 93 95 92 93 95 101 102 121 132 125 129 135 132 108 109 103 105 114 141 151 124 45 1 0 0 0 0 0 0 0 0 0 0 0 0 0 0 0 0 0 0 0 0 0 0 0 0 0 0 0 0 0 0 0 0 0 0 0 0 0 
0 0 0 0 0 0 0 0 0 5 4 0 0 12 64 140 161 146 120 109 99 106 101 102 97 96 100 120 112 114 120 114 100 100 100 91 92 93 89 90 93 97 90 82 87 96 91 79 97 97 82 78 78 92 93 86 87 84 94 114 114 109 99 98 100 97 96 94 92 94 90 90 97 100 103 120 122 115 127 139 128 107 107 99 102 114 143 144 111 38 1 1 0 0 0 0 0 0 0 0 0 0 0 0 0 0 0 0 0 0 0 0 0 0 0 0 0 0 0 0 0 0 0 0 0 0 0 0 
0 0 0 0 0 0 0 0 0 3 8 3 0 9 53 131 158 145 117 110 97 102 105 102 96 93 103 122 118 116 122 114 99 98 95 96 90 90 86 90 103 103 98 91 94 99 98 84 105 89 89 84 81 92 94 89 89 87 96 120 118 119 119 103 96 91 94 97 97 91 84 89 100 94 105 126 120 126 133 137 132 112 102 97 102 113 144 138 102 33 1 0 0 0 0 0 0 0 0 0 0 0 0 0 0 0 0 0 0 0 0 0 0 0 0 0 0 0 0 0 0 0 0 0 0 0 0 0 
0 0 0 0 0 0 0 0 0 0 4 9 2 8 42 121 153 144 113 108 96 96 107 105 100 92 104 120 123 114 123 119 101 99 96 93 89 89 88 95 102 102 102 101 108 110 101 94 110 84 89 87 87 100 93 85 92 93 104 127 123 116 107 118 116 109 104 100 102 95 87 94 101 99 110 129 131 124 130 134 139 124 98 95 104 121 145 133 94 26 0 0 0 0 0 0 0 0 0 0 0 0 0 0 0 0 0 0 0 0 0 0 0 0 0 0 0 0 0 0 0 0 0 0 0 0 0 0 
0 0 0 0 0 0 0 0 0 0 3 8 3 7 31 106 149 147 115 106 103 97 105 106 103 94 106 118 122 120 132 129 115 102 99 91 90 92 97 105 108 110 113 115 104 106 91 105 119 87 93 92 90 109 97 89 88 88 89 124 138 117 104 116 123 131 141 136 130 124 124 118 123 128 134 144 134 127 131 139 142 136 102 101 107 132 142 120 88 17 1 1 1 7 4 0 0 0 0 0 0 0 0 0 0 0 0 0 0 0 0 0 0 0 0 0 0 0 0 0 0 0 0 0 0 0 0 0 
0 0 0 0 0 0 0 0 0 0 3 9 4 6 25 94 144 151 122 109 110 95 97 108 103 99 107 116 122 121 127 127 126 128 118 108 109 116 122 116 117 115 99 93 108 104 98 107 113 86 92 95 97 110 99 83 83 81 88 127 137 110 96 101 108 121 140 144 138 145 149 145 140 132 131 135 136 137 132 140 144 133 118 115 108 142 133 116 79 11 3 3 7 3 1 0 0 0 0 0 0 0 0 0 0 0 0 0 0 0 0 0 0 0 0 0 0 0 0 0 0 0 0 0 0 0 0 0 
0 0 0 0 0 0 0 0 0 0 1 7 5 7 19 82 135 158 139 113 109 96 92 104 111 111 110 116 123 121 118 128 115 119 122 129 130 122 120 114 111 108 103 106 104 99 87 95 113 92 93 100 96 112 96 79 83 85 93 124 128 111 101 106 110 118 135 139 140 148 143 141 144 129 132 125 138 150 141 134 143 134 131 131 145 142 119 112 69 7 2 2 3 1 0 0 0 0 0 0 0 0 0 0 0 0 0 0 0 0 0 0 0 0 0 0 0 0 0 0 0 0 0 0 0 0 0 0 
0 0 0 0 0 0 0 0 0 0 0 4 7 8 12 69 125 154 153 120 109 103 95 111 127 120 115 124 123 121 126 136 133 126 120 125 124 124 127 125 115 109 98 84 84 89 90 99 114 107 89 86 92 103 96 81 81 95 99 104 114 113 114 120 122 128 140 139 137 144 138 143 147 147 144 138 149 158 163 158 154 150 153 155 170 140 114 110 53 5 2 4 2 1 0 0 0 0 0 0 0 0 0 0 0 0 0 0 0 0 0 0 0 0 0 0 0 0 0 0 0 0 0 0 0 0 0 0 
0 0 0 0 0 0 0 0 0 0 0 3 10 9 12 56 118 150 157 136 114 117 117 119 127 128 127 131 126 120 135 138 152 159 154 141 141 140 131 114 102 97 89 79 77 76 88 103 111 93 92 92 88 111 96 84 85 98 105 107 115 110 118 126 125 136 156 155 159 159 148 159 157 140 134 140 150 156 168 175 176 182 174 176 187 141 128 107 32 5 3 3 2 0 0 0 0 0 0 0 0 0 0 0 0 0 0 0 0 0 0 0 0 0 0 0 0 0 0 0 0 0 0 0 0 0 0 0 
0 0 0 0 0 0 0 0 0 0 0 4 12 8 8 36 111 147 155 150 140 147 138 139 139 141 144 139 135 132 142 157 163 168 166 153 152 144 133 116 108 99 95 90 86 81 105 109 101 88 84 98 96 118 100 89 88 95 105 108 115 116 120 122 119 123 136 138 150 156 145 153 146 129 137 133 139 146 161 175 176 185 188 181 166 127 125 87 16 6 4 1 2 0 0 0 0 0 0 0 0 0 0 0 0 0 0 0 0 0 0 0 0 0 0 0 0 0 0 0 0 0 0 0 0 0 0 0 
0 0 0 0 0 0 0 0 0 0 0 3 8 7 8 13 61 132 149 150 154 174 180 161 157 153 147 138 140 147 154 156 156 159 167 166 154 148 133 114 108 106 106 105 100 97 112 114 103 90 89 98 100 114 120 99 90 94 99 110 109 103 112 119 122 123 121 123 130 132 127 137 135 121 129 138 133 143 152 163 171 175 173 166 145 125 121 95 17 4 4 3 2 1 1 0 0 0 0 0 0 0 0 0 0 0 0 0 0 0 0 0 0 0 0 0 0 0 0 0 0 0 0 0 0 0 0 0 
0 0 0 0 0 0 0 0 0 0 0 4 8 5 6 10 37 119 155 150 157 175 176 166 167 163 154 152 141 136 146 148 157 158 154 160 154 156 141 116 106 109 107 102 98 104 117 109 104 95 93 99 102 115 115 97 88 87 88 97 103 96 99 118 124 117 121 123 126 125 134 129 115 118 128 137 133 141 141 151 157 174 160 138 121 123 119 64 7 3 4 5 2 2 1 0 0 0 0 0 0 0 0 0 0 0 0 0 0 0 0 0 0 0 0 0 0 0 0 0 0 0 0 0 0 0 0 0 
0 0 0 0 0 0 0 0 0 0 0 4 5 2 6 8 22 94 150 146 152 166 164 147 165 171 167 155 146 137 131 128 145 160 155 153 147 149 140 123 113 106 106 107 97 99 112 96 99 97 94 94 85 103 111 103 89 87 90 93 104 116 116 114 100 97 116 124 127 138 140 123 125 138 150 148 138 139 138 147 150 157 138 123 126 131 113 31 5 3 3 7 2 1 2 0 0 0 0 0 0 0 0 0 0 0 0 0 0 0 0 0 0 0 0 0 0 0 0 0 0 0 0 0 0 0 0 0 
0 0 0 0 0 0 0 0 0 0 0 3 5 3 4 8 17 62 140 148 144 147 160 160 152 163 163 155 150 150 143 132 134 133 138 143 140 138 132 122 107 103 104 103 102 108 121 96 107 118 115 103 92 100 120 122 98 94 95 98 111 120 123 127 104 88 95 102 106 115 129 128 132 145 154 159 158 140 136 148 139 141 132 119 113 121 77 14 7 3 4 3 4 2 2 0 0 0 0 0 0 0 0 0 0 0 0 0 0 0 0 0 0 0 0 0 0 0 0 0 0 0 0 0 0 0 0 0 
0 0 0 0 0 0 0 0 0 0 0 1 6 4 4 8 15 35 119 142 134 136 150 159 148 141 142 143 148 158 167 145 121 124 135 141 137 126 123 109 96 94 103 114 111 117 133 110 119 125 124 119 110 112 132 127 113 108 107 109 108 118 119 129 121 99 89 89 98 105 126 141 141 138 147 162 162 153 149 150 146 142 127 94 107 116 43 8 6 5 6 1 3 3 2 0 0 0 0 0 0 0 0 0 0 0 0 0 0 0 0 0 0 0 0 0 0 0 0 0 0 0 0 0 0 0 0 0 
0 0 0 0 0 0 0 0 0 0 0 2 3 3 4 10 14 17 83 126 123 133 143 155 143 136 144 142 139 153 162 152 130 112 129 149 142 131 110 92 81 95 104 114 115 120 132 127 123 122 134 137 122 116 138 135 122 113 113 118 110 121 124 128 120 111 90 83 97 116 125 145 137 127 138 155 161 159 179 164 149 130 109 93 101 89 21 12 6 6 6 3 4 3 2 0 0 0 0 0 0 0 0 0 0 0 0 0 0 0 0 0 0 0 0 0 0 0 0 0 0 0 0 0 0 0 0 0 
0 0 0 0 0 0 0 0 0 0 0 2 3 2 2 6 12 11 48 122 136 123 142 157 156 145 147 142 147 151 157 145 130 119 117 128 131 118 109 96 88 103 105 108 112 124 127 125 124 136 145 145 146 149 151 139 134 137 135 129 125 141 144 139 127 110 86 88 108 126 121 117 132 123 133 150 160 175 185 175 132 114 98 98 105 57 11 14 7 5 5 2 2 2 2 0 0 0 0 0 0 0 0 0 0 0 0 0 0 0 0 0 0 0 0 0 0 0 0 0 0 0 0 0 0 0 0 0 
0 0 0 0 0 0 0 0 0 0 1 1 3 2 1 4 10 11 26 103 125 109 127 141 167 160 153 150 154 155 160 148 133 131 115 118 112 100 96 107 108 111 109 113 127 147 146 143 147 152 156 158 166 174 176 169 162 157 154 152 150 158 166 156 136 123 117 118 127 128 112 114 132 128 122 146 161 185 175 167 132 101 87 90 93 29 9 12 7 4 4 0 1 2 2 0 0 0 0 0 0 0 0 0 0 0 0 0 0 0 0 0 0 0 0 0 0 0 0 0 0 0 0 0 0 0 0 0 
0 0 0 0 0 0 0 0 0 0 0 1 5 2 0 3 10 11 14 69 121 114 109 133 158 168 165 162 153 143 154 151 133 131 125 124 114 103 104 115 138 133 124 124 139 152 155 153 156 150 143 142 143 150 158 161 156 146 141 145 150 164 171 168 152 149 149 142 148 120 104 107 124 128 111 140 161 185 163 153 136 115 101 101 81 16 7 9 7 4 4 0 1 2 3 0 0 0 0 0 0 0 0 0 0 0 0 0 0 0 0 0 0 0 0 0 0 0 0 0 0 0 0 0 0 0 0 0 
0 0 0 0 0 0 0 0 0 0 1 4 5 1 0 4 9 9 12 40 95 110 109 121 138 155 167 173 152 147 145 152 138 131 123 119 117 121 125 128 138 157 156 150 160 164 162 170 162 155 146 152 149 152 152 159 155 151 148 149 147 160 172 173 177 175 159 155 147 114 100 103 110 125 127 141 167 179 154 136 119 105 104 101 68 15 6 7 5 4 4 0 2 3 3 0 0 0 0 0 0 0 0 0 0 0 0 0 0 0 0 0 0 0 0 0 0 0 0 0 0 0 0 0 0 0 0 0 
0 0 0 0 0 0 0 0 0 0 1 4 12 10 3 4 7 9 10 27 84 116 118 112 117 138 162 168 154 147 144 141 130 124 114 115 111 113 123 130 137 151 162 164 166 168 167 161 150 147 146 161 165 166 160 148 153 157 143 138 140 154 163 168 178 172 158 152 141 109 88 96 113 130 151 159 166 171 156 127 101 79 95 94 59 15 6 3 5 3 3 2 2 3 3 0 0 0 0 0 0 0 0 0 0 0 0 0 0 0 0 0 0 0 0 0 0 0 0 0 0 0 0 0 0 0 0 0 
0 0 0 0 0 0 0 0 0 0 0 4 11 12 9 5 6 11 12 20 66 104 118 119 112 109 141 151 161 142 134 136 129 113 102 105 111 117 119 119 128 143 161 161 164 166 174 161 152 152 161 171 170 172 164 140 145 152 141 128 139 147 149 171 182 175 167 158 142 107 90 96 111 124 162 180 184 182 157 103 89 89 103 96 40 15 6 3 6 6 2 2 2 3 3 0 0 0 0 0 0 0 0 0 0 0 0 0 0 0 0 0 0 0 0 0 0 0 0 0 0 0 0 0 0 0 0 0 
0 0 0 0 0 0 0 0 0 0 0 3 10 10 8 8 8 13 15 14 33 90 118 123 107 117 136 148 165 150 137 130 134 115 93 99 105 113 113 110 115 144 170 168 157 164 168 154 149 158 164 173 167 166 148 123 124 127 133 126 139 153 153 177 195 184 170 153 133 109 98 98 107 137 168 172 178 168 148 92 75 77 82 66 19 14 8 4 5 6 4 4 5 5 3 0 0 0 0 0 0 0 0 0 0 0 0 0 0 0 0 0 0 0 0 0 0 0 0 0 0 0 0 0 0 0 0 0 
0 0 0 0 0 0 0 0 0 0 0 1 10 10 9 9 9 9 12 15 18 51 109 114 112 113 123 152 168 171 157 141 129 124 103 95 98 100 103 105 123 151 168 168 157 149 163 152 146 138 158 160 149 165 157 133 130 133 130 125 148 165 158 183 191 187 174 167 162 132 127 118 136 151 153 151 129 114 110 80 70 91 95 35 11 7 8 5 4 4 4 7 11 6 5 0 0 0 0 0 0 0 0 0 0 0 0 0 0 0 0 0 0 0 0 0 0 0 0 0 0 0 0 0 0 0 0 0 
0 0 0 0 0 0 0 0 0 0 0 0 8 10 7 6 5 5 9 13 19 27 69 100 101 99 114 150 158 173 169 153 137 136 112 97 98 100 109 126 137 169 185 177 178 163 168 172 182 175 173 167 166 187 194 178 163 166 164 156 167 169 192 209 192 192 180 167 174 163 147 147 142 145 120 99 89 85 90 78 96 100 54 19 9 0 1 4 4 4 4 5 7 5 2 0 0 0 0 0 0 0 0 0 0 0 0 0 0 0 0 0 0 0 0 0 0 0 0 0 0 0 0 0 0 0 0 0 
0 0 0 0 0 0 0 0 0 0 0 0 3 6 4 3 2 2 4 11 15 20 39 79 87 81 96 111 107 151 154 153 145 147 126 113 120 127 133 144 175 189 189 182 194 195 184 193 195 179 177 185 182 183 183 170 162 176 187 183 188 192 209 218 201 205 195 191 144 139 148 138 108 92 67 84 79 73 79 76 67 42 27 21 12 1 0 0 1 4 3 6 9 1 1 0 0 0 0 0 0 0 0 0 0 0 0 0 0 0 0 0 0 0 0 0 0 0 0 0 0 0 0 0 0 0 0 0 
0 0 0 0 0 0 0 0 0 0 0 0 0 2 3 2 1 0 1 7 12 20 26 46 79 91 75 62 70 85 99 112 138 138 131 131 124 126 138 170 192 184 179 185 185 198 182 181 182 175 170 179 173 166 159 156 153 151 160 171 178 190 209 188 171 181 181 172 161 137 124 97 83 75 70 87 80 78 67 50 41 36 37 27 18 0 0 0 0 2 1 7 7 1 1 0 0 0 0 0 0 0 0 0 0 0 0 0 0 0 0 0 0 0 0 0 0 0 0 0 0 0 0 0 0 0 0 0 
0 0 0 0 0 0 0 0 0 0 0 0 0 2 3 4 3 3 1 3 9 13 18 21 37 50 35 44 70 65 63 62 90 87 82 101 80 75 76 74 96 120 145 160 156 145 148 129 146 117 102 111 116 111 106 111 104 103 113 109 101 113 96 147 121 151 136 78 61 65 59 60 63 51 57 80 80 78 47 28 28 25 18 7 2 0 3 2 2 2 1 6 4 1 2 0 0 0 0 0 0 0 0 0 0 0 0 0 0 0 0 0 0 0 0 0 0 0 0 0 0 0 0 0 0 0 0 0 
0 0 0 0 0 0 0 0 0 0 0 0 0 0 3 1 2 2 2 0 5 9 13 15 21 20 23 34 67 69 60 60 68 62 54 74 70 57 67 65 82 88 85 77 88 99 84 79 91 87 65 74 89 89 93 96 77 65 76 80 85 98 78 73 71 99 102 107 113 110 70 53 60 61 64 79 82 77 46 28 28 25 16 5 2 0 2 0 0 0 3 4 1 1 2 0 0 0 0 0 0 0 0 0 0 0 0 0 0 0 0 0 0 0 0 0 0 0 0 0 0 0 0 0 0 0 0 0 
0 0 0 0 0 0 0 0 0 0 0 0 0 0 0 0 0 0 0 0 3 8 10 16 19 24 28 37 67 75 66 60 69 66 54 59 71 91 132 129 147 138 111 102 100 106 100 110 116 84 71 97 109 106 102 90 75 70 91 103 106 112 96 85 118 154 84 98 126 101 87 93 84 81 76 87 94 81 50 33 29 21 12 7 1 0 0 0 0 0 1 0 0 0 1 0 0 0 0 0 0 0 0 0 0 0 0 0 0 0 0 0 0 0 0 0 0 0 0 0 0 0 0 0 0 0 0 0 
0 0 0 0 0 0 0 0 0 0 0 0 0 0 0 0 0 0 0 0 0 3 4 8 15 27 30 39 71 83 77 65 76 80 74 79 85 112 122 152 149 172 172 155 152 164 170 174 152 117 107 113 112 107 99 104 106 97 107 132 143 143 133 139 154 166 133 126 115 140 108 103 79 67 65 76 75 73 51 37 25 19 13 11 0 0 0 0 0 0 0 0 0 0 0 0 0 0 0 0 0 0 0 0 0 0 0 0 0 0 0 0 0 0 0 0 0 0 0 0 0 0 0 0 0 0 0 0 
0 0 0 0 0 0 0 0 0 0 0 0 0 0 0 0 0 0 0 0 0 1 5 5 8 20 26 34 56 70 70 66 74 84 80 86 90 104 130 114 163 177 181 163 169 186 173 182 163 162 147 150 160 154 152 158 157 150 144 150 157 172 169 161 178 158 149 121 149 152 110 105 68 58 51 69 72 53 30 18 17 8 6 2 0 0 0 0 0 0 0 0 0 0 0 0 0 0 0 0 0 0 0 0 0 0 0 0 0 0 0 0 0 0 0 0 0 0 0 0 0 0 0 0 0 0 0 0 
0 0 0 0 0 0 0 0 0 0 0 0 0 0 0 0 0 0 0 0 0 0 1 2 7 14 29 37 56 74 82 71 76 73 64 62 66 82 116 126 139 145 125 110 127 150 152 177 167 151 145 130 130 127 137 136 138 128 132 136 151 156 133 140 123 129 149 144 153 152 116 67 35 36 46 78 74 43 20 15 11 8 6 0 0 0 0 0 0 0 0 3 4 6 7 1 0 0 0 0 0 0 0 0 0 0 0 0 0 0 0 0 0 0 0 0 0 0 0 0 0 0 0 0 0 0 0 0 
0 0 0 0 0 0 0 0 0 0 0 0 0 0 0 0 0 0 0 0 0 0 3 5 10 14 18 21 30 51 70 65 68 66 62 68 51 61 75 121 111 112 107 92 95 138 140 146 116 121 125 95 96 100 111 89 102 103 115 116 118 131 122 99 121 127 135 119 140 128 101 73 49 47 63 100 83 45 26 14 14 13 7 0 0 0 0 0 0 0 0 0 0 2 4 0 0 0 0 0 0 0 0 0 0 0 0 0 0 0 0 0 0 0 0 0 0 0 0 0 0 0 0 0 0 0 0 0 
0 0 0 0 0 0 0 0 0 0 0 0 0 0 0 0 0 0 0 0 0 0 1 5 8 13 17 20 25 42 61 78 76 70 64 53 49 72 93 103 98 106 102 105 109 126 139 137 117 115 109 88 95 96 97 92 109 118 127 115 109 116 104 86 86 108 127 127 131 115 94 75 66 69 82 109 88 47 24 19 17 12 5 0 0 0 0 0 0 0 0 0 0 2 4 0 0 0 0 0 0 0 0 0 0 0 0 0 0 0 0 0 0 0 0 0 0 0 0 0 0 0 0 0 0 0 0 0 
0 0 0 0 0 0 0 0 0 0 0 0 0 0 0 0 0 0 0 0 0 0 0 4 7 10 15 20 23 38 53 79 78 71 66 47 41 61 76 94 95 91 93 93 104 114 121 125 128 121 112 98 104 106 100 92 101 101 119 119 119 133 129 110 104 100 111 116 109 94 80 55 50 68 96 112 86 51 24 18 16 11 4 0 0 0 0 0 0 0 0 0 0 2 4 0 0 0 0 0 0 0 0 0 0 0 0 0 0 0 0 0 0 0 0 0 0 0 0 0 0 0 0 0 0 0 0 0 
0 0 0 0 0 0 0 0 0 0 0 0 0 0 0 0 0 0 0 0 0 0 0 2 6 9 12 18 22 35 47 75 77 74 68 51 51 56 52 68 75 76 93 90 97 110 112 120 131 132 126 105 110 115 108 100 101 97 111 120 126 149 130 109 99 96 100 106 106 98 77 63 55 63 103 116 85 55 26 18 15 10 3 0 0 0 0 0 0 0 0 0 0 1 4 0 0 0 0 0 0 0 0 0 0 0 0 0 0 0 0 0 0 0 0 0 0 0 0 0 0 0 0 0 0 0 0 0 
0 0 0 0 0 0 0 0 0 0 0 0 0 0 0 0 0 0 0 0 0 0 0 0 4 8 10 15 19 30 49 69 79 78 72 59 56 54 57 57 61 79 89 88 101 110 109 117 126 115 119 102 104 109 100 102 99 95 103 117 121 125 123 106 101 104 98 103 100 92 83 71 61 66 100 112 82 50 27 17 14 9 1 0 0 0 0 0 0 0 0 0 0 1 4 0 0 0 0 0 0 0 0 0 0 0 0 0 0 0 0 0 0 0 0 0 0 0 0 0 0 0 0 0 0 0 0 0 
0 0 0 0 0 0 0 0 0 0 0 0 0 0 0 0 0 0 0 0 0 0 0 0 2 3 9 12 17 24 44 56 77 76 75 68 62 59 55 52 64 71 86 95 105 102 97 99 109 102 109 106 97 92 92 96 91 88 101 115 113 106 117 104 107 112 107 94 79 71 63 76 71 74 99 109 83 47 19 15 15 8 1 0 0 0 0 0 0 0 0 0 0 2 4 0 0 0 0 0 0 0 0 0 0 0 0 0 0 0 0 0 0 0 0 0 0 0 0 0 0 0 0 0 0 0 0 0 
0 0 0 0 0 0 0 0 0 0 0 0 0 0 0 0 0 0 0 0 0 0 0 0 0 3 6 11 14 19 30 47 66 72 79 83 68 67 53 51 58 68 87 89 103 99 97 89 92 92 105 103 96 89 89 98 96 96 104 113 109 101 102 94 97 97 101 90 70 64 53 76 83 84 102 88 46 22 16 16 15 8 0 0 0 0 0 0 0 0 0 0 0 2 5 0 0 0 0 0 0 0 0 0 0 0 0 0 0 0 0 0 0 0 0 0 0 0 0 0 0 0 0 0 0 0 0 0 
0 0 0 0 0 0 0 0 0 0 0 0 0 0 0 0 0 0 0 0 0 0 0 0 0 3 3 7 13 18 20 34 40 45 77 88 63 71 53 51 52 67 79 82 95 91 94 87 88 94 107 99 103 104 106 108 111 112 104 103 99 88 95 95 97 87 91 81 76 62 55 78 82 93 105 44 17 16 17 17 15 7 0 0 0 0 0 0 0 0 0 0 0 2 5 0 0 0 0 0 0 0 0 0 0 0 0 0 0 0 0 0 0 0 0 0 0 0 0 0 0 0 0 0 0 0 0 0 
0 0 0 0 0 0 0 0 0 0 0 0 0 0 0 0 0 0 0 0 0 0 0 0 0 0 4 4 11 17 19 18 17 14 28 73 69 76 63 66 53 61 75 73 73 73 88 91 87 93 92 87 90 100 101 109 120 111 91 86 95 90 99 96 91 79 76 74 75 64 73 83 86 93 74 25 16 14 16 17 13 6 0 0 0 0 0 0 0 0 0 0 0 1 5 0 0 0 0 0 0 0 0 0 0 0 0 0 0 0 0 0 0 0 0 0 0 0 0 0 0 0 0 0 0 0 0 0 
0 0 0 0 0 0 0 0 0 0 0 0 0 0 0 0 0 0 0 0 0 0 0 0 0 0 1 3 9 13 18 16 18 16 11 36 74 83 84 70 58 65 78 74 75 71 78 89 97 100 89 85 93 102 107 110 121 114 88 83 99 93 103 106 92 77 79 84 79 67 84 100 93 78 36 21 14 15 16 16 11 5 0 0 0 0 0 0 0 0 0 0 0 1 4 0 0 0 0 0 0 0 0 0 0 0 0 0 0 0 0 0 0 0 0 0 0 0 0 0 0 0 0 0 0 0 0 0 
0 0 0 0 0 0 0 0 0 0 0 0 0 0 0 0 0 0 0 0 0 0 0 0 0 0 0 3 7 8 16 16 17 17 12 11 36 71 87 75 67 72 89 80 83 79 86 93 93 104 97 89 91 100 108 115 126 121 101 97 110 105 97 104 98 80 81 95 94 82 86 100 76 37 23 17 13 15 16 14 10 5 1 0 0 0 0 0 0 0 0 0 0 1 4 0 0 0 0 0 0 0 0 0 0 0 0 0 0 0 0 0 0 0 0 0 0 0 0 0 0 0 0 0 0 0 0 0 
0 0 0 0 0 0 0 0 0 0 0 0 0 0 0 0 0 0 0 0 0 0 0 0 0 0 0 2 5 7 12 16 16 17 13 12 15 31 62 79 79 88 100 86 93 91 99 98 82 104 108 93 87 96 106 118 122 121 113 104 98 98 94 106 107 92 94 107 106 92 91 72 34 25 20 15 12 16 15 13 9 5 1 0 0 0 0 0 0 0 0 0 0 1 4 0 0 0 0 0 0 0 0 0 0 0 0 0 0 0 0 0 0 0 0 0 0 0 0 0 0 0 0 0 0 0 0 0 
0 0 0 0 0 0 0 0 0 0 0 0 0 0 0 0 0 0 0 0 0 0 0 0 0 0 0 0 3 7 9 14 15 17 15 12 13 22 28 54 77 93 106 95 102 108 109 103 91 103 103 90 91 109 121 126 124 124 122 114 103 98 104 109 115 106 106 112 110 88 64 36 27 25 21 15 13 13 13 12 9 5 0 0 0 0 0 0 0 0 0 0 0 1 4 0 0 0 0 0 0 0 0 0 0 0 0 0 0 0 0 0 0 0 0 0 0 0 0 0 0 0 0 0 0 0 0 0 
0 0 0 0 0 0 0 0 0 0 0 0 0 0 0 0 0 0 0 0 0 0 0 0 0 0 0 0 1 7 7 12 14 15 15 11 11 20 25 27 38 60 81 95 110 111 116 110 101 105 109 104 109 118 120 119 118 123 126 118 112 102 109 116 119 106 111 104 78 48 32 28 27 24 22 15 13 14 12 11 8 4 0 0 0 0 0 0 0 0 0 0 0 1 4 0 0 0 0 0 0 0 0 0 0 0 0 0 0 0 0 0 0 0 0 0 0 0 0 0 0 0 0 0 0 0 0 0 
0 0 0 0 0 0 0 0 0 0 0 0 0 0 0 0 0 0 0 0 0 0 0 0 0 0 0 0 0 6 7 9 14 16 14 12 10 18 25 27 31 34 41 63 89 102 103 100 100 108 112 118 117 110 107 104 104 110 125 119 115 112 119 114 111 100 88 62 41 36 30 27 25 22 19 14 12 14 13 11 8 3 0 0 0 0 0 0 0 0 0 0 0 2 4 0 0 0 0 0 0 0 0 0 0 0 0 0 0 0 0 0 0 0 0 0 0 0 0 0 0 0 0 0 0 0 0 0 
0 0 0 0 0 0 0 0 0 0 0 0 0 0 0 0 0 0 0 0 0 0 0 0 0 0 0 0 0 4 6 8 13 15 14 12 11 19 25 27 31 34 31 38 51 65 75 87 95 98 105 114 108 101 107 111 109 108 119 117 120 110 111 108 87 64 50 48 41 34 27 27 25 23 16 12 14 13 13 12 8 3 0 0 0 0 0 0 0 0 0 0 0 1 4 0 0 0 0 0 0 0 0 0 0 0 0 0 0 0 0 0 0 0 0 0 0 0 0 0 0 0 0 0 0 0 0 0 
