P2
# teste7.pgm
128 99
246
0 0 0 0 0 0 0 0 0 0 0 0 0 0 0 0 0 0 0 0 0 0 0 0 0 0 0 0 0 0 0 0 0 0 0 0 0 0 0 0 0 0 0 0 0 0 0 0 0 0 0 0 0 0 0 0 0 0 0 0 0 0 0 0 0 0 0 0 0 0 0 0 0 0 0 0 0 0 0 0 0 0 0 0 0 0 0 0 0 0 0 0 0 0 0 0 0 0 0 0 0 0 0 0 0 0 0 0 0 0 0 0 0 0 0 0 0 0 0 0 0 0 0 0 0 0 0 0 
0 0 0 0 0 0 0 0 0 0 0 0 0 0 0 0 0 0 0 0 0 0 0 0 0 0 0 0 0 0 0 0 0 0 0 0 0 0 0 0 0 0 0 0 0 0 0 0 0 0 0 0 0 0 0 0 0 0 0 0 0 0 0 0 0 0 0 0 0 0 0 0 0 0 0 0 0 0 0 0 0 0 0 0 0 0 0 0 0 0 0 0 0 0 0 0 0 0 0 0 0 0 0 0 0 0 0 0 0 0 0 0 0 0 0 0 0 0 0 0 0 0 0 0 0 0 0 0 
0 0 0 0 0 0 0 0 0 0 0 0 0 0 0 0 0 0 0 0 0 0 0 0 0 0 0 0 0 0 0 0 0 0 0 0 0 0 0 0 0 0 0 0 0 0 0 0 0 0 0 1 1 0 1 0 0 0 0 0 0 0 0 0 0 0 0 0 0 0 0 0 0 0 0 0 0 0 0 0 0 0 0 0 0 0 0 0 0 0 0 0 0 0 0 0 0 0 0 0 0 0 0 0 0 0 0 0 0 0 0 0 0 0 0 0 0 0 0 0 0 0 0 0 0 0 0 0 
0 0 0 0 0 0 0 0 0 0 0 0 0 0 0 0 0 0 0 0 0 0 0 0 0 0 0 0 0 0 0 0 0 0 0 0 0 0 0 0 0 0 0 0 6 12 13 20 22 23 25 29 32 30 27 20 16 15 16 13 4 0 0 0 0 0 0 0 0 0 0 0 0 0 0 0 0 0 0 0 0 0 0 0 0 0 0 0 0 0 0 0 0 0 0 0 0 0 0 0 0 0 0 0 0 0 0 0 0 0 0 0 0 0 0 0 0 0 0 0 0 0 0 0 0 0 0 0 
0 0 0 0 0 0 0 0 0 0 0 0 0 0 0 0 0 0 0 0 0 0 0 0 0 0 0 0 0 0 0 0 0 0 0 0 0 0 0 0 6 13 18 27 25 32 56 82 107 130 150 163 169 170 165 152 134 110 84 57 31 21 18 8 2 0 0 0 0 0 0 0 0 0 0 0 0 0 0 0 0 0 0 0 0 0 0 0 0 0 0 0 0 0 0 0 0 0 0 0 0 0 0 0 0 0 0 0 0 0 0 0 0 0 0 0 0 0 0 0 0 0 0 0 0 0 0 0 
0 0 0 0 0 0 0 0 0 0 0 0 0 0 0 0 0 0 0 0 0 0 0 0 0 0 0 0 0 0 0 0 0 0 0 0 0 2 10 16 22 26 37 67 116 161 185 196 205 209 207 202 199 199 203 203 202 199 196 188 164 125 82 41 22 18 9 1 0 0 0 0 0 0 0 0 0 0 0 0 0 0 0 0 0 0 0 0 0 0 0 0 0 0 0 0 0 0 0 0 0 0 0 0 0 0 0 0 0 0 0 0 0 0 0 0 0 0 0 0 0 0 0 0 0 0 0 0 
0 0 0 0 0 0 0 0 0 0 0 0 0 0 0 0 0 0 0 0 0 0 0 0 0 0 0 0 0 0 0 0 0 0 0 1 11 19 22 28 51 107 160 192 208 208 202 202 202 201 204 206 207 208 210 209 204 200 198 201 202 198 193 171 129 78 37 19 11 1 0 0 0 0 0 0 0 0 0 0 0 0 0 0 0 0 0 0 0 0 0 0 0 0 0 0 0 0 0 0 0 0 0 0 0 0 0 0 0 0 0 0 0 0 0 0 0 0 0 0 0 0 0 0 0 0 0 0 
0 0 0 0 0 0 0 0 0 0 0 0 0 0 0 0 0 0 0 0 0 0 0 0 0 0 0 0 0 0 0 0 0 0 9 22 27 27 64 131 178 200 205 200 199 202 202 196 195 200 207 212 208 193 192 204 218 223 220 208 202 199 198 202 199 193 162 104 48 23 14 1 0 0 0 0 0 0 0 0 0 0 0 0 0 0 0 0 0 0 0 0 0 0 0 0 0 0 0 0 0 0 0 0 0 0 0 0 0 0 0 0 0 0 0 0 0 0 0 0 0 0 0 0 0 0 0 0 
0 0 0 0 0 0 0 0 0 0 0 0 0 0 0 0 0 0 0 0 0 0 0 0 0 0 0 0 0 0 0 0 5 26 27 25 61 136 184 198 200 197 203 208 210 207 203 193 179 171 168 166 166 160 160 165 176 199 220 229 228 222 212 201 196 199 202 199 172 107 41 20 9 0 0 0 0 0 0 0 0 0 0 0 0 0 0 0 0 0 0 0 0 0 0 0 0 0 0 0 0 0 0 0 0 0 0 0 0 0 0 0 0 0 0 0 0 0 0 0 0 0 0 0 0 0 0 0 
0 0 0 0 0 0 0 0 0 0 0 0 0 0 0 0 0 0 0 0 0 0 0 0 0 0 0 0 0 0 0 23 23 21 41 119 182 195 195 196 202 211 211 204 192 175 157 147 149 148 153 164 165 161 162 154 156 164 172 195 223 231 232 229 219 204 196 198 203 199 162 81 29 18 1 0 0 0 0 0 0 0 0 0 0 0 0 0 0 0 0 0 0 0 0 0 0 0 0 0 0 0 0 0 0 0 0 0 0 0 0 0 0 0 0 0 0 0 0 0 0 0 0 0 0 0 0 0 
0 0 0 0 0 0 0 0 0 0 0 0 0 0 0 0 0 0 0 0 0 0 0 0 0 0 0 0 0 10 26 18 28 91 171 195 197 194 203 212 219 211 189 181 165 141 133 138 147 161 141 139 141 147 171 175 168 157 160 165 175 204 221 228 233 231 222 208 197 199 206 192 126 43 22 5 0 0 0 0 0 0 0 0 0 0 0 0 0 0 0 0 0 0 0 0 0 0 0 0 0 0 0 0 0 0 0 0 0 0 0 0 0 0 0 0 0 0 0 0 0 0 0 0 0 0 0 0 
0 0 0 0 0 0 0 0 0 0 0 0 0 0 0 0 0 0 0 0 0 0 0 0 0 0 0 0 20 22 24 53 141 188 195 198 205 211 220 218 194 179 179 173 158 157 152 140 142 133 128 139 137 122 128 145 138 140 145 149 156 168 197 210 218 226 232 231 226 209 201 208 204 163 67 25 11 0 0 0 0 0 0 0 0 0 0 0 0 0 0 0 0 0 0 0 0 0 0 0 0 0 0 0 0 0 0 0 0 0 0 0 0 0 0 0 0 0 0 0 0 0 0 0 0 0 0 0 
0 0 0 0 0 0 0 0 0 0 0 0 0 0 0 0 0 0 0 0 0 0 0 0 0 0 5 24 21 22 82 170 188 201 207 211 219 221 199 186 189 183 164 154 148 144 139 136 137 110 104 102 101 100 108 134 134 130 133 135 144 164 183 192 203 212 219 224 229 229 220 204 202 201 177 88 24 13 0 0 0 0 0 0 0 0 0 0 0 0 0 0 0 0 0 0 0 0 0 0 0 0 0 0 0 0 0 0 0 0 0 0 0 0 0 0 0 0 0 0 0 0 0 0 0 0 0 0 
0 0 0 0 0 0 0 0 0 0 0 0 0 0 0 0 0 0 0 0 0 0 0 0 0 12 23 20 28 106 178 190 206 210 215 227 217 191 188 185 167 154 150 144 134 132 140 140 126 127 121 123 126 133 142 149 165 166 160 152 145 141 148 175 185 194 202 212 218 223 228 227 207 192 197 184 99 27 13 0 0 0 0 0 0 0 0 0 0 0 0 0 0 0 0 0 0 0 0 0 0 0 0 0 0 0 0 0 0 0 0 0 0 0 0 0 0 0 0 0 0 0 0 0 0 0 0 0 
0 0 0 0 0 0 0 0 0 0 0 0 0 0 0 0 0 0 0 0 0 0 0 0 14 20 17 35 127 178 193 212 211 219 225 207 190 192 178 150 144 143 139 139 144 151 156 155 150 138 134 134 135 138 145 149 159 173 176 171 169 168 161 159 162 171 178 185 199 208 214 222 229 215 194 199 189 112 30 13 0 0 0 0 0 0 0 0 0 0 0 0 0 0 0 0 0 0 0 0 0 0 0 0 0 0 0 0 0 0 0 0 0 0 0 0 0 0 0 0 0 0 0 0 0 0 0 0 
0 0 0 0 0 0 0 0 0 0 0 0 0 0 0 0 0 0 0 0 0 0 4 17 19 16 47 137 171 197 212 211 221 214 194 189 186 160 144 141 151 166 180 175 166 159 148 140 135 131 137 146 146 145 144 144 145 150 160 172 176 171 167 169 178 172 169 168 173 185 200 207 217 229 221 194 197 190 126 37 11 0 0 0 0 0 0 0 0 0 0 0 0 0 0 0 0 0 0 0 0 0 0 0 0 0 0 0 0 0 0 0 0 0 0 0 0 0 0 0 0 0 0 0 0 0 0 0 
0 0 0 0 0 0 0 0 0 0 0 0 0 0 0 0 0 0 0 0 0 5 18 14 18 61 149 169 199 210 210 221 205 184 178 169 144 137 152 181 199 187 161 156 151 140 140 138 142 139 141 143 143 137 133 133 131 133 134 137 147 156 169 173 165 164 172 167 165 169 173 187 201 213 226 221 193 196 189 136 41 10 0 0 0 0 0 0 0 0 0 0 0 0 0 0 0 0 0 0 0 0 0 0 0 0 0 0 0 0 0 0 0 0 0 0 0 0 0 0 0 0 0 0 0 0 0 0 
0 0 0 0 0 0 0 0 0 0 0 0 0 0 0 0 0 0 0 0 6 15 13 22 75 158 174 202 211 213 221 194 168 168 157 137 136 166 195 182 158 151 141 137 133 131 129 133 138 138 141 129 128 135 131 134 129 134 129 132 135 138 141 157 169 169 156 154 162 155 159 166 174 191 205 223 221 192 193 189 139 39 6 0 0 0 0 0 0 0 0 0 0 0 0 0 0 0 0 0 0 0 0 0 0 0 0 0 0 0 0 0 0 0 0 0 0 0 0 0 0 0 0 0 0 0 0 0 
0 0 0 0 0 0 0 0 0 0 0 0 0 0 0 0 0 0 0 5 14 10 21 85 160 171 202 207 210 215 184 155 161 150 139 151 180 188 165 144 135 133 129 128 130 129 131 133 134 134 139 105 110 136 131 132 132 131 125 126 124 126 128 133 139 151 161 162 158 160 140 151 163 171 177 200 224 219 196 192 186 132 31 2 0 0 0 0 0 0 0 0 0 0 0 0 0 0 0 0 0 0 0 0 0 0 0 0 0 0 0 0 0 0 0 0 0 0 0 0 0 0 0 0 0 0 0 0 
0 0 0 0 0 0 0 0 0 0 0 0 0 0 0 0 0 0 4 13 12 23 86 163 170 199 204 207 209 180 154 159 148 147 159 169 169 145 130 119 124 126 128 133 132 131 129 131 136 144 138 111 122 150 144 140 139 137 133 135 134 128 122 121 122 124 139 155 163 168 155 133 145 159 168 173 198 223 218 198 190 180 114 19 0 0 0 0 0 0 0 0 0 0 0 0 0 0 0 0 0 0 0 0 0 0 0 0 0 0 0 0 0 0 0 0 0 0 0 0 0 0 0 0 0 0 0 0 
0 0 0 0 0 0 0 0 0 0 0 0 0 0 0 0 0 2 12 13 22 80 158 166 195 204 208 205 179 150 157 146 147 158 161 161 138 124 122 125 121 121 132 136 135 139 146 146 143 116 113 121 124 138 141 140 142 144 143 150 152 135 123 113 108 110 121 141 155 166 169 147 125 140 161 169 166 192 221 212 195 186 170 85 9 0 0 0 0 0 0 0 0 0 0 0 0 0 0 0 0 0 0 0 0 0 0 0 0 0 0 0 0 0 0 0 0 0 0 0 0 0 0 0 0 0 0 0 
0 0 0 0 0 0 0 0 0 0 0 0 0 0 0 0 0 11 9 17 71 147 163 182 195 205 200 177 147 154 152 153 155 153 153 127 122 126 124 123 120 129 137 139 135 125 114 112 98 80 84 97 95 88 91 103 118 125 126 132 134 127 119 111 100 98 117 125 137 155 166 160 115 108 141 161 170 158 198 215 209 195 177 152 52 2 0 0 0 0 0 0 0 0 0 0 0 0 0 0 0 0 0 0 0 0 0 0 0 0 0 0 0 0 0 0 0 0 0 0 0 0 0 0 0 0 0 0 
0 0 0 0 0 0 0 0 0 0 0 0 0 0 0 0 5 8 18 57 135 157 180 191 202 199 176 141 150 157 158 143 139 152 130 122 125 127 130 127 118 112 114 108 97 88 85 84 80 74 75 80 81 83 87 86 90 91 93 97 112 124 131 125 113 97 97 125 124 137 153 170 154 97 108 139 166 165 156 208 213 213 188 170 128 22 0 0 0 0 0 0 0 0 0 0 0 0 0 0 0 0 0 0 0 0 0 0 0 0 0 0 0 0 0 0 0 0 0 0 0 0 0 0 0 0 0 0 
0 0 0 0 0 0 0 0 0 0 0 0 0 0 0 2 11 12 45 129 154 176 183 199 200 169 143 147 157 161 136 133 153 134 127 129 133 133 120 113 107 98 95 92 89 85 87 86 82 78 80 88 94 93 98 97 98 99 101 100 103 109 119 129 127 110 97 104 127 131 138 154 169 139 92 107 141 166 155 173 204 214 202 177 159 86 4 0 0 0 0 0 0 0 0 0 0 0 0 0 0 0 0 0 0 0 0 0 0 0 0 0 0 0 0 0 0 0 0 0 0 0 0 0 0 0 0 0 
0 0 0 0 0 0 0 0 0 0 0 0 0 0 0 9 7 32 110 141 168 176 192 200 171 154 142 149 161 143 127 147 137 123 129 131 127 116 112 106 101 101 103 103 100 98 98 99 97 93 94 98 99 95 96 99 100 102 101 103 104 104 112 121 131 126 108 96 107 120 114 137 160 168 123 96 119 149 162 156 183 197 209 187 166 132 34 0 0 0 0 0 0 0 0 0 0 0 0 0 0 0 0 0 0 0 0 0 0 0 0 0 0 0 0 0 0 0 0 0 0 0 0 0 0 0 0 0 
0 0 0 0 0 0 0 0 0 0 0 0 0 0 3 8 13 84 129 155 177 185 195 174 150 144 138 156 151 125 140 147 126 129 133 127 121 108 104 105 106 104 104 103 103 101 102 98 98 99 98 100 97 100 98 96 98 101 102 101 98 102 102 109 118 131 125 105 96 107 115 126 147 166 164 111 107 122 151 153 166 175 201 201 169 152 81 3 0 0 0 0 0 0 0 0 0 0 0 0 0 0 0 0 0 0 0 0 0 0 0 0 0 0 0 0 0 0 0 0 0 0 0 0 0 0 0 0 
0 0 0 0 0 0 0 0 0 0 0 0 0 0 6 4 50 118 135 171 180 191 171 156 146 126 138 157 137 136 152 131 129 127 130 118 106 100 106 105 103 99 97 97 97 93 96 94 94 97 97 99 98 99 94 98 96 97 96 91 86 92 97 101 104 115 130 119 101 97 105 121 134 144 172 157 115 108 131 141 158 153 181 207 177 159 114 20 0 0 0 0 0 0 0 0 0 0 0 0 0 0 0 0 0 0 0 0 0 0 0 0 0 0 0 0 0 0 0 0 0 0 0 0 0 0 0 0 
0 0 0 0 0 0 0 0 0 0 0 0 0 1 6 16 97 118 156 175 182 174 165 140 138 121 154 148 127 150 136 125 130 134 123 103 95 102 101 98 94 89 91 91 86 86 84 84 88 87 96 97 96 98 85 88 93 90 90 79 76 78 82 94 101 103 120 135 122 104 98 101 129 128 156 179 138 111 120 122 156 150 171 199 187 163 137 41 1 0 0 0 0 0 0 0 0 0 0 0 0 0 0 0 0 0 0 0 0 0 0 0 0 0 0 0 0 0 0 0 0 0 0 0 0 0 0 0 
0 0 0 0 0 0 0 0 0 0 0 0 0 2 5 41 118 132 173 178 180 164 154 132 124 137 161 134 137 146 123 130 140 135 106 91 100 99 88 91 92 86 79 77 76 77 75 80 80 80 82 91 92 90 80 79 80 81 79 74 75 77 75 81 95 99 103 128 138 115 100 99 129 124 135 174 165 121 114 113 137 158 161 191 198 164 148 64 2 0 0 0 0 0 0 0 0 0 0 0 0 0 0 0 0 0 0 0 0 0 0 0 0 0 0 0 0 0 0 0 0 0 0 0 0 0 0 0 
0 0 0 0 0 0 0 0 0 0 0 0 0 5 5 75 122 149 174 175 165 159 138 124 125 154 148 119 135 134 124 140 149 117 92 96 101 94 90 91 92 88 79 76 72 73 79 82 87 90 95 101 106 107 101 98 92 88 83 78 77 78 76 78 85 92 95 109 135 135 112 104 126 124 127 156 173 124 105 111 120 164 157 178 200 165 156 87 5 0 0 0 0 0 0 0 0 0 0 0 0 0 0 0 0 0 0 0 0 0 0 0 0 0 0 0 0 0 0 0 0 0 0 0 0 0 0 0 
0 0 0 0 0 0 0 0 0 0 0 0 0 5 15 103 123 166 173 165 153 150 121 117 136 149 124 111 131 129 131 154 143 106 99 103 98 90 88 91 93 93 90 79 78 89 103 114 122 127 129 133 137 137 133 128 126 127 123 114 101 88 80 79 81 90 94 94 111 136 131 110 123 130 127 142 161 128 109 108 114 159 156 177 201 171 157 108 12 0 0 0 0 0 0 0 0 0 0 0 0 0 0 0 0 0 0 0 0 0 0 0 0 0 0 0 0 0 0 0 0 0 0 0 0 0 0 0 
0 0 0 0 0 0 0 0 0 0 0 0 2 5 36 118 135 174 167 148 147 140 118 130 141 129 110 111 135 133 145 154 126 104 101 98 93 90 92 93 95 93 94 104 115 130 138 138 134 123 111 116 128 114 95 90 91 104 123 139 142 128 105 86 83 90 94 88 95 121 137 126 115 128 127 132 147 132 104 104 109 152 163 173 198 180 160 125 19 0 0 0 0 0 0 0 0 0 0 0 0 0 0 0 0 0 0 0 0 0 0 0 0 0 0 0 0 0 0 0 0 0 0 0 0 0 0 0 
0 0 0 0 0 0 0 0 0 0 0 0 2 5 57 122 146 174 159 143 143 131 125 142 134 121 99 114 139 137 149 135 112 102 94 92 94 92 90 92 94 97 109 132 141 135 126 112 103 85 76 96 98 76 71 68 67 73 79 122 148 154 141 116 101 90 77 83 89 100 128 136 120 124 124 120 134 131 109 104 102 145 161 166 196 185 160 139 26 0 0 0 0 0 0 0 0 0 0 0 0 0 0 0 0 0 0 0 0 0 0 0 0 0 0 0 0 0 0 0 0 0 0 0 0 0 0 0 
0 0 0 0 0 0 0 0 0 0 0 0 2 7 72 120 160 170 154 143 141 125 125 146 125 111 101 115 142 145 149 124 107 98 89 86 90 90 92 91 99 112 126 141 147 130 108 88 74 68 72 87 73 69 64 61 63 69 76 91 119 141 143 123 96 83 79 75 84 92 114 135 129 128 123 119 118 127 117 104 106 144 162 167 194 195 163 146 37 1 0 0 0 0 0 0 0 0 0 0 0 0 0 0 0 0 0 0 0 0 0 0 0 0 0 0 0 0 0 0 0 0 0 0 0 0 0 0 
0 0 0 0 0 0 0 0 0 0 0 0 2 7 80 125 170 160 153 149 138 117 132 154 129 106 105 110 143 154 141 116 103 90 83 84 86 92 95 100 105 116 120 135 139 130 107 76 69 62 66 74 65 65 60 58 60 64 71 87 81 125 137 129 102 85 80 74 88 95 101 123 132 143 142 124 110 116 126 98 109 150 165 168 191 201 168 156 48 2 0 0 0 0 0 0 0 0 0 0 0 0 0 0 0 0 0 0 0 0 0 0 0 0 0 0 0 0 0 0 0 0 0 0 0 0 0 0 
0 0 0 0 0 0 0 0 0 0 0 0 3 8 87 131 175 161 151 154 136 116 141 158 126 105 107 104 141 152 133 107 91 82 83 86 85 86 93 105 111 107 117 131 126 116 108 87 73 66 67 68 67 67 62 64 66 63 70 83 74 122 132 136 122 95 89 82 79 84 97 113 130 147 153 140 108 111 124 94 111 145 163 165 190 203 173 164 61 2 0 0 0 0 0 0 0 0 0 0 0 0 0 0 0 0 0 0 0 0 0 0 0 0 0 0 0 0 0 0 0 0 0 0 0 0 0 0 
0 0 0 0 0 0 0 0 0 0 0 0 4 12 91 138 176 168 156 162 129 121 151 155 122 106 107 102 139 150 133 102 86 87 87 78 76 81 92 100 98 93 107 123 123 109 94 90 78 71 71 69 74 70 68 79 80 71 75 72 71 120 131 128 115 101 85 83 82 81 82 99 141 152 149 148 120 112 126 106 117 144 164 166 185 208 176 170 86 5 0 0 0 0 0 0 0 0 0 0 0 0 0 0 0 0 0 0 0 0 0 0 0 0 0 0 0 0 0 0 0 0 0 0 0 0 0 0 
0 0 0 0 0 0 0 0 0 0 0 0 4 15 92 145 174 171 157 162 134 132 158 156 126 114 102 100 135 151 131 95 92 88 73 78 81 78 76 78 79 61 60 68 87 106 111 79 71 73 79 73 74 72 75 71 68 73 69 57 89 119 113 105 106 102 102 102 96 102 111 119 136 139 144 144 135 120 133 124 130 136 157 154 175 205 180 168 103 7 0 0 0 0 0 0 0 0 0 0 0 0 0 0 0 0 0 0 0 0 0 0 0 0 0 0 0 0 0 0 0 0 0 0 0 0 0 0 
0 0 0 0 0 0 0 0 0 0 0 0 5 18 99 152 177 170 158 159 134 133 163 156 135 126 107 102 129 144 128 104 93 77 90 109 110 99 97 103 99 82 66 59 59 66 93 112 62 59 58 71 70 67 72 60 59 60 60 75 95 87 91 92 91 93 90 83 81 89 94 109 130 124 125 149 139 141 148 144 131 124 150 152 165 201 182 170 117 10 0 0 0 0 0 0 0 0 0 0 0 0 0 0 0 0 0 0 0 0 0 0 0 0 0 0 0 0 0 0 0 0 0 0 0 0 0 0 
0 0 0 0 0 0 0 0 0 0 0 0 6 19 101 157 174 168 156 156 134 127 164 150 143 122 121 116 127 141 133 118 87 94 112 104 96 89 85 80 81 81 79 79 73 63 69 103 98 64 65 69 72 75 70 61 58 60 79 111 88 80 71 74 78 82 81 77 75 79 83 94 122 133 127 147 154 156 163 147 118 117 141 152 157 203 186 174 130 15 0 0 0 0 0 0 0 0 0 0 0 0 0 0 0 0 0 0 0 0 0 0 0 0 0 0 0 0 0 0 0 0 0 0 0 0 0 0 
0 0 0 0 0 0 0 0 0 0 0 0 8 18 100 160 179 169 143 155 133 127 161 135 140 126 124 136 138 127 135 122 107 106 89 77 77 72 67 66 63 63 62 60 77 77 78 97 124 118 121 98 91 99 109 74 60 65 97 109 82 60 65 77 83 87 91 88 85 86 89 92 112 136 144 140 148 161 172 140 110 111 131 148 153 197 186 176 142 23 0 0 0 0 0 0 0 0 0 0 0 0 0 0 0 0 0 0 0 0 0 0 0 0 0 0 0 0 0 0 0 0 0 0 0 0 0 0 
0 0 0 0 0 0 0 0 0 0 0 0 9 19 102 163 181 161 131 153 127 128 154 124 137 135 126 148 140 122 129 123 114 96 81 77 78 72 64 64 63 66 67 62 66 93 102 112 138 148 151 141 140 127 130 105 97 109 116 95 66 59 66 79 92 95 91 88 88 88 88 90 106 135 146 131 126 156 174 141 104 105 128 131 143 188 185 176 149 34 1 0 0 0 0 0 0 0 0 0 0 0 0 0 0 0 0 0 0 0 0 0 0 0 0 0 0 0 0 0 0 0 0 0 0 0 0 0 
0 0 0 0 0 0 0 0 0 0 0 0 9 18 105 162 185 163 131 153 124 129 144 124 127 133 125 136 135 115 110 108 116 98 80 81 89 81 73 72 73 70 67 70 79 101 122 128 139 159 155 143 141 140 139 123 122 124 119 77 60 60 74 86 90 91 92 88 89 90 94 91 103 132 146 132 108 144 170 146 105 98 123 115 128 177 177 172 154 44 1 0 0 0 0 0 0 0 0 0 0 0 0 0 0 0 0 0 0 0 0 0 0 0 0 0 0 0 0 0 0 0 0 0 0 0 0 0 
0 0 0 0 0 0 0 0 0 0 0 0 8 17 111 164 186 159 127 146 125 122 136 112 115 128 122 127 130 115 106 103 108 103 86 84 85 74 67 67 72 73 74 86 97 109 118 128 141 155 149 120 127 133 123 124 135 140 110 67 64 71 72 74 80 84 88 88 89 91 92 93 103 126 144 129 104 131 163 135 96 94 124 115 115 167 177 171 156 54 1 0 0 0 0 0 0 0 0 0 0 0 0 0 0 0 0 0 0 0 0 0 0 0 0 0 0 0 0 0 0 0 0 0 0 0 0 0 
0 0 0 0 0 0 0 0 0 0 0 0 8 15 111 165 187 155 117 136 114 105 131 103 107 121 130 129 135 116 102 103 103 101 82 83 86 77 72 67 59 64 75 98 112 111 111 111 118 142 144 123 120 117 120 120 102 126 98 70 72 63 63 71 80 81 87 87 88 90 93 97 100 115 136 127 103 125 152 130 103 93 117 112 107 147 165 169 159 61 2 0 0 0 0 0 0 0 0 0 0 0 0 0 0 0 0 0 0 0 0 0 0 0 0 0 0 0 0 0 0 0 0 0 0 0 0 0 
0 0 0 0 0 0 0 0 0 0 0 0 8 16 107 166 187 151 125 139 96 93 123 103 109 123 120 116 134 118 104 105 105 96 85 80 80 76 70 64 57 60 74 96 114 121 117 109 113 144 140 136 132 132 141 124 107 125 99 72 71 75 76 69 76 79 84 88 88 87 89 93 99 115 138 129 102 116 143 134 130 99 118 112 113 139 143 153 160 62 1 0 0 0 0 0 0 0 0 0 0 0 0 0 0 0 0 0 0 0 0 0 0 0 0 0 0 0 0 0 0 0 0 0 0 0 0 0 
0 0 0 0 0 0 0 0 0 0 0 0 8 15 101 165 183 145 133 138 85 90 118 109 113 118 101 109 130 117 108 99 112 94 81 82 86 79 70 66 54 61 79 103 113 116 116 103 103 125 129 134 118 115 124 106 102 129 79 84 89 92 76 72 76 79 85 88 86 85 89 94 101 122 139 129 107 125 147 128 138 107 113 111 118 132 138 153 164 62 2 0 0 0 0 0 0 0 0 0 0 0 0 0 0 0 0 0 0 0 0 0 0 0 0 0 0 0 0 0 0 0 0 0 0 0 0 0 
0 0 0 0 0 0 0 0 0 0 0 0 6 13 94 165 178 142 133 120 84 90 115 113 118 121 98 104 121 118 114 94 108 97 78 81 87 82 73 71 60 61 81 114 128 122 115 103 98 99 118 125 107 102 121 119 111 129 66 75 69 71 67 75 77 80 85 87 90 92 91 89 101 127 139 134 121 148 144 117 139 115 112 106 121 121 139 160 160 56 1 0 0 0 0 0 0 0 0 0 0 0 0 0 0 0 0 0 0 0 0 0 0 0 0 0 0 0 0 0 0 0 0 0 0 0 0 0 
0 0 0 0 0 0 0 0 0 0 0 0 6 13 85 165 175 145 129 118 90 84 106 118 122 127 100 101 109 112 117 99 95 113 87 73 82 84 79 71 62 64 83 113 118 113 116 100 102 108 114 103 101 104 113 109 104 112 84 71 68 64 68 75 79 79 83 88 93 94 94 79 98 128 134 132 147 155 134 109 136 124 111 107 119 118 142 159 147 48 1 0 0 0 0 0 0 0 0 0 0 0 0 0 0 0 0 0 0 0 0 0 0 0 0 0 0 0 0 0 0 0 0 0 0 0 0 0 
0 0 0 0 0 0 0 0 0 0 0 0 5 14 72 158 173 147 133 122 99 85 99 118 123 128 100 106 111 103 114 104 89 110 100 85 90 85 77 68 64 69 92 108 112 109 106 104 106 110 114 105 105 108 118 114 105 94 96 66 62 59 68 75 78 79 87 91 92 94 91 73 91 128 124 130 151 157 132 104 133 127 108 110 116 114 140 154 138 40 1 0 0 0 0 0 0 0 0 0 0 0 0 0 0 0 0 0 0 0 0 0 0 0 0 0 0 0 0 0 0 0 0 0 0 0 0 0 
0 0 0 0 0 0 0 0 0 0 0 0 2 15 63 153 171 149 133 121 106 87 91 116 124 129 102 106 114 91 110 107 84 91 101 91 86 81 73 67 70 77 98 113 112 114 109 105 105 117 108 111 111 117 123 116 109 96 97 73 72 69 66 69 76 84 84 86 88 92 88 68 93 122 110 125 151 155 130 100 125 123 109 111 108 117 137 147 121 33 1 0 0 0 0 0 0 0 0 0 0 0 0 0 0 0 0 0 0 0 0 0 0 0 0 0 0 0 0 0 0 0 0 0 0 0 0 0 
0 0 0 0 0 0 0 0 0 3 4 0 0 11 54 142 167 151 132 116 108 86 86 106 121 131 101 105 111 85 103 104 91 86 96 95 83 77 71 71 81 90 102 110 120 127 119 105 113 114 113 112 113 124 126 113 109 101 87 92 73 68 70 75 79 82 80 77 83 88 81 69 99 108 101 129 153 138 127 107 114 121 106 109 102 121 132 148 108 30 0 0 0 0 0 0 0 0 0 0 0 0 0 0 0 0 0 0 0 0 0 0 0 0 0 0 0 0 0 0 0 0 0 0 0 0 0 0 
0 0 0 0 0 0 0 0 0 8 10 4 0 9 45 133 159 142 129 117 109 87 84 94 110 128 120 113 115 93 103 105 85 81 81 100 90 77 69 71 84 94 100 108 120 118 113 122 125 112 121 110 112 125 123 117 111 97 88 107 90 88 80 76 79 74 80 85 84 84 72 72 101 103 104 145 144 108 118 114 112 116 103 107 101 115 132 149 94 27 0 0 0 0 0 0 0 0 0 0 0 0 0 0 0 0 0 0 0 0 0 0 0 0 0 0 0 0 0 0 0 0 0 0 0 0 0 0 
0 0 0 0 0 0 0 0 0 6 0 5 4 7 36 120 156 143 122 118 107 87 83 85 101 127 127 121 116 107 104 99 81 75 75 79 82 70 68 67 77 90 101 118 127 128 136 135 119 106 120 109 110 121 118 101 104 90 94 113 108 90 96 102 91 82 82 82 83 85 69 67 97 116 121 149 119 98 116 118 137 141 102 111 103 109 133 151 82 23 0 0 0 0 0 0 0 0 0 0 0 0 0 0 0 0 0 0 0 0 0 0 0 0 0 0 0 0 0 0 0 0 0 0 0 0 0 0 
0 0 0 0 0 0 0 0 0 0 0 2 6 6 27 101 154 145 119 112 113 99 82 84 90 119 131 133 121 109 99 107 107 82 75 72 74 74 65 64 77 81 101 125 102 100 100 127 114 103 102 101 100 114 102 85 83 72 78 100 111 90 88 84 99 107 128 125 118 109 107 115 146 160 165 154 106 110 118 120 138 153 116 126 94 119 145 142 68 16 0 0 2 8 1 0 0 0 0 0 0 0 0 0 0 0 0 0 0 0 0 0 0 0 0 0 0 0 0 0 0 0 0 0 0 0 0 0 
0 0 0 0 0 0 0 0 0 0 0 3 3 7 20 85 149 148 119 118 123 108 84 86 81 102 133 139 132 110 104 133 139 130 111 91 83 104 101 96 101 94 82 101 102 94 80 106 118 84 91 97 89 94 85 63 65 63 71 96 112 83 76 79 86 95 122 127 136 147 156 167 172 161 183 166 129 129 108 121 134 152 154 122 83 137 155 135 62 14 6 2 2 2 4 0 0 0 0 0 0 0 0 0 0 0 0 0 0 0 0 0 0 0 0 0 0 0 0 0 0 0 0 0 0 0 0 0 
0 0 0 0 0 0 0 0 0 0 0 8 3 6 18 72 146 154 128 120 122 110 88 88 103 97 131 140 142 126 119 136 128 119 115 121 131 128 104 104 95 94 88 80 86 73 71 85 95 74 79 97 85 96 83 64 55 58 73 113 96 91 98 102 101 103 116 129 135 145 135 147 153 165 189 175 155 145 106 121 136 162 178 112 127 148 143 120 53 10 1 0 1 0 0 0 0 0 0 0 0 0 0 0 0 0 0 0 0 0 0 0 0 0 0 0 0 0 0 0 0 0 0 0 0 0 0 0 
0 0 0 0 0 0 0 0 0 0 0 9 6 8 13 59 134 155 141 121 123 114 100 109 133 92 121 150 138 134 146 166 160 134 111 114 118 112 103 84 77 65 56 58 80 75 59 66 76 83 78 90 85 95 82 67 77 85 109 128 84 86 89 94 93 91 109 114 106 99 131 156 164 189 184 169 161 157 151 163 167 172 181 135 166 154 138 100 41 8 0 0 1 0 0 0 0 0 0 0 0 0 0 0 0 0 0 0 0 0 0 0 0 0 0 0 0 0 0 0 0 0 0 0 0 0 0 0 
0 0 0 0 0 0 0 0 0 0 0 10 7 10 10 48 126 148 151 127 133 138 116 132 134 93 105 157 144 121 152 170 151 144 140 125 130 141 121 96 70 62 64 62 68 84 67 83 101 105 118 87 76 90 99 105 94 94 88 89 87 83 102 106 112 116 128 127 117 123 171 201 191 172 138 144 159 159 149 164 188 196 173 162 185 119 121 102 24 6 1 0 2 0 0 0 0 0 0 0 0 0 0 0 0 0 0 0 0 0 0 0 0 0 0 0 0 0 0 0 0 0 0 0 0 0 0 0 
0 0 0 0 0 0 0 0 0 0 1 11 12 11 11 38 123 149 154 141 147 168 120 153 165 117 126 161 163 143 157 174 153 146 170 165 163 146 127 104 96 84 79 69 74 80 90 108 106 103 104 102 98 121 108 95 83 93 94 87 100 91 96 115 131 126 119 111 114 135 177 187 176 155 127 134 142 150 161 173 192 200 188 195 168 126 137 85 11 6 1 2 2 0 0 0 0 0 0 0 0 0 0 0 0 0 0 0 0 0 0 0 0 0 0 0 0 0 0 0 0 0 0 0 0 0 0 0 
0 0 0 0 0 0 0 0 0 0 0 6 19 13 3 15 66 143 159 154 127 186 192 157 179 167 124 144 177 177 168 171 166 135 156 185 160 140 122 103 105 104 89 81 80 78 92 98 116 98 82 88 99 109 111 94 82 83 89 102 105 112 93 102 137 131 105 96 93 136 166 164 157 151 144 137 137 149 145 150 173 181 185 166 125 94 135 100 15 9 9 6 0 1 0 0 0 0 0 0 0 0 0 0 0 0 0 0 0 0 0 0 0 0 0 0 0 0 0 0 0 0 0 0 0 0 0 0 
0 0 0 0 0 0 0 0 0 0 0 4 19 7 1 11 38 127 162 154 138 171 187 175 185 167 153 175 186 180 175 168 162 149 142 160 130 125 126 101 99 107 104 104 94 93 99 99 118 94 71 78 95 108 104 91 96 83 78 93 99 91 100 126 145 138 121 97 121 152 166 156 126 127 144 139 140 143 130 132 144 153 168 137 112 127 137 61 4 3 8 9 0 1 0 0 0 0 0 0 0 0 0 0 0 0 0 0 0 0 0 0 0 0 0 0 0 0 0 0 0 0 0 0 0 0 0 0 
0 0 0 0 0 0 0 0 0 0 0 4 6 8 2 9 23 100 163 171 166 148 173 164 201 207 202 193 147 162 169 155 151 153 148 138 125 122 137 121 93 85 89 98 99 95 98 87 99 96 82 76 78 95 113 100 94 97 95 91 104 108 94 107 117 97 98 114 131 153 174 144 90 119 141 154 151 148 139 143 132 134 109 117 140 160 120 26 4 2 7 7 0 1 0 0 0 0 0 0 0 0 0 0 0 0 0 0 0 0 0 0 0 0 0 0 0 0 0 0 0 0 0 0 0 0 0 0 
0 0 0 0 0 0 0 0 0 0 0 3 1 4 4 9 18 62 153 162 155 129 141 163 181 190 188 175 155 174 155 137 149 160 149 141 130 121 137 142 107 103 90 88 89 101 93 88 106 115 113 99 83 93 111 113 101 97 86 93 128 126 108 109 108 85 98 112 111 144 159 112 78 109 146 168 156 150 153 145 111 116 112 112 138 151 74 12 5 0 6 0 0 2 0 0 0 0 0 0 0 0 0 0 0 0 0 0 0 0 0 0 0 0 0 0 0 0 0 0 0 0 0 0 0 0 0 0 
0 0 0 0 0 0 0 0 0 0 1 3 0 0 6 11 20 36 128 132 139 142 138 144 166 170 162 160 179 175 158 144 155 176 158 144 140 132 119 122 99 82 83 105 99 99 109 86 118 148 140 123 95 86 117 131 109 102 96 111 127 113 95 116 126 110 105 109 119 131 126 111 101 103 151 162 154 154 163 155 131 131 102 94 118 126 37 9 2 2 0 0 0 3 0 0 0 0 0 0 0 0 0 0 0 0 0 0 0 0 0 0 0 0 0 0 0 0 0 0 0 0 0 0 0 0 0 0 
0 0 0 0 0 0 0 0 0 0 1 3 1 0 5 14 22 23 85 124 128 143 148 146 140 161 178 163 161 166 169 148 143 126 125 134 120 125 119 107 72 64 78 101 116 115 118 120 138 139 145 145 125 123 157 162 152 117 108 121 119 116 118 125 135 121 113 119 115 100 98 129 118 127 140 150 156 164 177 179 138 110 100 107 138 87 23 15 6 3 0 0 0 3 0 0 0 0 0 0 0 0 0 0 0 0 0 0 0 0 0 0 0 0 0 0 0 0 0 0 0 0 0 0 0 0 0 0 
0 0 0 0 0 0 0 0 0 0 2 4 1 0 6 9 18 15 41 134 144 144 153 151 143 161 190 168 144 136 163 161 141 113 120 141 141 118 109 106 87 77 86 110 134 151 133 133 132 136 150 153 149 149 153 151 147 156 149 138 144 148 137 134 141 139 124 108 92 87 92 124 159 129 106 142 168 177 184 167 145 118 102 128 133 48 13 18 10 6 1 0 0 3 0 0 0 0 0 0 0 0 0 0 0 0 0 0 0 0 0 0 0 0 0 0 0 0 0 0 0 0 0 0 0 0 0 0 
0 0 0 0 0 0 0 0 0 0 1 4 2 0 7 8 10 11 21 103 124 108 136 149 149 154 184 159 138 116 142 175 159 128 99 122 138 123 114 113 115 125 122 116 133 148 131 150 147 145 147 150 155 164 188 184 179 168 152 132 146 176 174 162 149 152 136 103 107 106 101 127 159 128 107 152 156 173 164 153 144 115 114 112 101 27 6 16 10 8 0 0 0 3 0 0 0 0 0 0 0 0 0 0 0 0 0 0 0 0 0 0 0 0 0 0 0 0 0 0 0 0 0 0 0 0 0 0 
0 0 0 0 0 0 0 0 0 0 0 3 3 0 1 4 6 7 12 69 120 131 123 131 142 148 151 155 151 136 138 170 161 144 98 92 113 129 128 127 141 149 138 137 161 166 159 163 152 142 140 155 161 161 165 176 170 160 157 151 151 165 178 178 155 135 133 125 123 100 111 127 138 138 127 145 163 169 139 141 140 127 123 113 92 16 4 11 11 10 2 0 1 3 1 0 0 0 0 0 0 0 0 0 0 0 0 0 0 0 0 0 0 0 0 0 0 0 0 0 0 0 0 0 0 0 0 0 
0 0 0 0 0 0 0 0 0 0 0 0 4 0 0 0 7 5 6 42 104 102 125 124 130 149 156 136 161 147 141 160 157 133 121 118 103 105 121 140 154 160 158 156 166 169 178 185 159 150 165 190 198 202 187 177 183 189 168 156 154 149 146 149 136 143 154 153 135 109 112 126 146 156 155 142 157 162 137 134 130 135 122 114 83 17 6 8 11 10 4 0 2 4 1 0 0 0 0 0 0 0 0 0 0 0 0 0 0 0 0 0 0 0 0 0 0 0 0 0 0 0 0 0 0 0 0 0 
0 0 0 0 0 0 0 0 0 0 0 1 12 4 1 0 6 5 5 27 104 112 125 121 119 137 148 140 152 128 143 159 145 116 107 111 125 121 106 106 115 129 136 156 172 176 174 167 151 158 188 202 204 221 206 183 193 202 168 141 149 143 115 138 154 156 168 181 169 137 125 137 162 162 166 142 143 162 144 145 107 96 93 111 67 18 11 9 11 10 4 0 3 4 1 0 0 0 0 0 0 0 0 0 0 0 0 0 0 0 0 0 0 0 0 0 0 0 0 0 0 0 0 0 0 0 0 0 
0 0 0 0 0 0 0 0 0 0 0 4 13 8 9 7 12 11 12 22 87 111 126 122 150 150 161 144 169 130 130 149 152 129 109 102 102 112 118 123 116 112 101 121 142 139 140 140 143 175 209 211 194 209 203 151 151 171 150 125 159 151 136 150 159 162 180 201 182 146 126 114 114 111 166 188 176 189 169 122 88 68 77 98 41 16 7 9 13 10 4 0 3 4 0 0 0 0 0 0 0 0 0 0 0 0 0 0 0 0 0 0 0 0 0 0 0 0 0 0 0 0 0 0 0 0 0 0 
0 0 0 0 0 0 0 0 0 0 0 1 11 11 12 16 14 14 15 15 46 103 125 110 130 147 162 167 175 135 143 111 128 120 98 116 125 127 131 134 132 131 128 134 138 139 124 134 163 168 186 196 178 183 167 134 139 153 145 144 159 169 167 176 190 176 189 200 154 97 88 96 108 135 173 178 178 168 148 113 108 88 60 62 22 13 7 7 11 6 0 0 6 1 0 0 0 0 0 0 0 0 0 0 0 0 0 0 0 0 0 0 0 0 0 0 0 0 0 0 0 0 0 0 0 0 0 0 
0 0 0 0 0 0 0 0 0 0 0 1 9 11 10 8 9 9 12 13 16 58 114 122 118 110 134 164 174 152 169 128 117 122 109 97 108 127 138 141 144 136 139 152 149 155 148 155 183 162 179 204 193 202 189 148 154 177 174 172 197 198 186 219 215 192 185 178 129 87 83 101 119 140 162 170 131 102 107 95 83 106 102 44 12 6 5 5 11 0 3 3 7 0 0 0 0 0 0 0 0 0 0 0 0 0 0 0 0 0 0 0 0 0 0 0 0 0 0 0 0 0 0 0 0 0 0 0 
0 0 0 0 0 0 0 0 0 0 0 0 8 8 2 2 7 8 8 18 18 24 87 120 107 101 126 137 175 176 178 145 118 106 114 114 121 119 105 96 109 146 179 166 147 140 143 159 186 192 174 176 177 195 203 180 146 153 156 160 182 196 210 228 211 166 151 196 182 192 150 137 144 151 146 138 97 102 76 69 103 106 55 15 11 0 2 2 2 8 9 7 9 6 0 0 0 0 0 0 0 0 0 0 0 0 0 0 0 0 0 0 0 0 0 0 0 0 0 0 0 0 0 0 0 0 0 0 
0 0 0 0 0 0 0 0 0 0 0 0 2 10 6 2 0 5 9 9 15 17 38 107 140 108 95 86 120 153 161 159 144 133 132 128 137 134 141 135 165 182 200 207 180 184 189 209 200 190 178 166 175 176 181 180 157 158 180 194 192 225 236 246 215 212 212 179 126 107 137 121 97 89 75 79 83 116 76 58 81 51 18 9 22 2 0 0 0 1 3 5 6 0 0 0 0 0 0 0 0 0 0 0 0 0 0 0 0 0 0 0 0 0 0 0 0 0 0 0 0 0 0 0 0 0 0 0 
0 0 0 0 0 0 0 0 0 0 0 0 0 3 7 1 0 0 2 4 11 14 20 58 103 81 65 38 62 64 90 106 114 122 131 142 131 162 183 183 169 163 200 186 192 182 209 211 200 168 148 157 175 144 136 174 176 183 198 213 187 160 181 194 142 179 171 189 173 158 131 79 37 54 61 65 74 115 64 40 39 43 38 15 16 0 0 0 0 1 3 6 4 0 0 0 0 0 0 0 0 0 0 0 0 0 0 0 0 0 0 0 0 0 0 0 0 0 0 0 0 0 0 0 0 0 0 0 
0 0 0 0 0 0 0 0 0 0 0 0 0 3 6 3 2 1 0 4 8 14 22 22 26 34 26 24 58 43 56 68 58 68 66 90 108 107 117 111 113 114 152 138 106 110 116 132 188 104 73 110 139 118 115 134 109 83 112 127 112 111 90 179 170 180 163 142 81 70 56 50 49 57 85 80 74 103 50 32 26 26 20 7 3 0 1 2 2 2 2 8 3 0 0 0 0 0 0 0 0 0 0 0 0 0 0 0 0 0 0 0 0 0 0 0 0 0 0 0 0 0 0 0 0 0 0 0 
0 0 0 0 0 0 0 0 0 0 0 0 0 0 0 0 2 2 1 0 7 9 11 19 21 21 22 23 55 52 47 87 40 40 51 70 93 65 79 65 80 87 73 70 87 89 83 85 97 69 50 81 101 89 82 97 72 45 72 74 71 93 69 56 62 112 159 141 136 161 84 58 59 50 74 72 74 93 46 28 27 25 15 5 4 1 2 2 2 1 2 5 1 0 0 0 0 0 0 0 0 0 0 0 0 0 0 0 0 0 0 0 0 0 0 0 0 0 0 0 0 0 0 0 0 0 0 0 
0 0 0 0 0 0 0 0 0 0 0 0 0 0 0 0 0 1 0 0 5 8 8 14 22 26 24 23 58 68 45 82 45 39 42 58 85 80 155 171 173 143 125 120 123 121 96 104 126 88 79 109 119 102 99 97 92 78 113 97 72 89 81 71 117 176 119 116 96 125 106 132 84 66 61 70 68 84 41 26 20 20 10 4 0 0 0 0 0 0 0 0 0 0 0 0 0 0 0 0 0 0 0 0 0 0 0 0 0 0 0 0 0 0 0 0 0 0 0 0 0 0 0 0 0 0 0 0 
0 0 0 0 0 0 0 0 0 0 0 0 0 0 0 0 0 0 0 0 0 5 3 2 9 20 25 25 49 74 60 80 59 65 68 70 99 131 142 146 188 197 198 180 177 178 182 180 195 170 146 145 143 122 128 135 126 149 152 140 119 123 137 137 139 169 150 122 51 167 91 115 92 81 79 68 71 69 39 24 22 20 6 3 0 0 0 0 0 0 0 0 0 0 0 0 0 0 0 0 0 0 0 0 0 0 0 0 0 0 0 0 0 0 0 0 0 0 0 0 0 0 0 0 0 0 0 0 
0 0 0 0 0 0 0 0 0 0 0 0 0 0 0 0 0 0 0 0 0 0 0 2 11 18 14 14 25 62 65 63 50 62 86 83 88 91 174 183 192 214 224 200 200 204 197 229 218 219 199 183 166 151 179 190 203 193 195 184 175 201 193 161 172 171 164 55 122 169 152 115 104 114 102 77 71 49 26 8 19 6 0 0 0 0 0 0 0 0 0 0 0 0 0 0 0 0 0 0 0 0 0 0 0 0 0 0 0 0 0 0 0 0 0 0 0 0 0 0 0 0 0 0 0 0 0 0 
0 0 0 0 0 0 0 0 0 0 0 0 0 0 0 0 0 0 0 0 0 0 1 1 6 13 23 29 36 81 77 86 62 57 80 62 63 76 83 146 149 157 159 128 140 162 175 204 192 164 146 136 124 108 121 131 164 154 145 147 153 154 137 143 124 132 161 172 176 189 137 67 58 65 53 70 78 27 14 17 12 3 7 2 0 0 0 0 0 0 0 0 0 0 0 0 0 0 0 0 0 0 0 0 0 0 0 0 0 0 0 0 0 0 0 0 0 0 0 0 0 0 0 0 0 0 0 0 
0 0 0 0 0 0 0 0 0 0 0 0 0 0 0 0 0 0 0 0 0 0 5 4 8 13 21 23 21 66 80 92 68 57 101 103 86 52 72 114 124 142 124 83 87 81 92 119 133 119 92 81 69 55 57 59 77 104 115 119 101 112 127 108 133 119 148 151 149 147 111 57 43 63 67 108 105 44 26 20 15 6 7 1 0 0 0 0 0 0 0 0 0 0 0 0 0 0 0 0 0 0 0 0 0 0 0 0 0 0 0 0 0 0 0 0 0 0 0 0 0 0 0 0 0 0 0 0 
0 0 0 0 0 0 0 0 0 0 0 0 0 0 0 0 0 0 0 0 0 0 2 6 6 13 19 22 20 47 82 91 83 49 97 70 81 97 94 112 119 130 117 96 112 92 104 136 119 85 80 68 53 55 54 54 62 83 106 122 101 93 107 107 101 100 133 133 131 118 109 98 99 115 108 106 107 50 26 21 19 8 6 1 0 0 0 0 0 0 0 0 0 0 0 0 0 0 0 0 0 0 0 0 0 0 0 0 0 0 0 0 0 0 0 0 0 0 0 0 0 0 0 0 0 0 0 0 
0 0 0 0 0 0 0 0 0 0 0 0 0 0 0 0 0 0 0 0 0 0 2 5 8 11 17 23 22 40 91 83 98 52 97 58 41 43 66 113 112 103 110 95 106 71 82 138 120 75 93 102 91 79 69 66 76 99 133 143 110 99 100 104 93 86 106 110 82 74 61 64 58 93 137 116 103 53 26 21 19 8 4 0 0 0 0 0 0 0 0 0 0 0 0 0 0 0 0 0 0 0 0 0 0 0 0 0 0 0 0 0 0 0 0 0 0 0 0 0 0 0 0 0 0 0 0 0 
0 0 0 0 0 0 0 0 0 0 0 0 0 0 0 0 0 0 0 0 0 0 0 4 6 8 13 21 24 34 73 64 96 52 100 62 35 34 40 55 71 91 111 99 102 85 80 121 145 113 127 133 117 104 95 92 90 110 109 124 125 106 119 95 105 105 106 119 98 80 42 45 58 64 132 116 87 49 24 20 17 8 4 0 0 0 0 0 0 0 0 0 0 0 0 0 0 0 0 0 0 0 0 0 0 0 0 0 0 0 0 0 0 0 0 0 0 0 0 0 0 0 0 0 0 0 0 0 
0 0 0 0 0 0 0 0 0 0 0 0 0 0 0 0 0 0 0 0 0 0 0 0 5 8 10 18 21 34 66 52 97 55 101 68 37 35 51 65 70 99 85 105 113 100 82 113 154 131 109 113 116 113 108 101 102 111 100 113 132 123 109 67 95 113 99 102 114 86 57 39 56 57 118 119 76 59 25 22 14 9 2 0 0 0 0 0 0 0 0 0 0 0 0 0 0 0 0 0 0 0 0 0 0 0 0 0 0 0 0 0 0 0 0 0 0 0 0 0 0 0 0 0 0 0 0 0 
0 0 0 0 0 0 0 0 0 0 0 0 0 0 0 0 0 0 0 0 0 0 0 0 2 3 9 14 19 29 51 42 92 52 106 75 38 44 64 69 78 58 68 110 101 100 94 96 118 147 114 100 109 116 116 103 109 116 107 107 109 133 101 63 98 113 117 72 72 87 71 56 61 77 112 109 76 57 24 19 13 7 1 0 0 0 0 0 0 0 0 0 0 0 0 0 0 0 0 0 0 0 0 0 0 0 0 0 0 0 0 0 0 0 0 0 0 0 0 0 0 0 0 0 0 0 0 0 
0 0 0 0 0 0 0 0 0 0 0 0 0 0 0 0 0 0 0 0 0 0 0 0 2 4 6 14 13 19 49 77 80 56 107 78 38 53 64 69 59 36 63 113 113 104 99 86 97 140 116 89 99 107 112 109 105 113 104 110 116 136 113 60 72 103 116 73 50 74 67 69 55 78 114 79 66 33 19 18 15 6 0 0 0 0 0 0 0 0 0 0 0 0 0 0 0 0 0 0 0 0 0 0 0 0 0 0 0 0 0 0 0 0 0 0 0 0 0 0 0 0 0 0 0 0 0 0 
0 0 0 0 0 0 0 0 0 0 0 0 0 0 0 0 0 0 0 0 0 0 0 0 0 3 1 9 13 16 23 31 28 40 78 72 36 56 68 65 48 38 55 92 111 95 87 83 106 142 136 105 102 104 112 107 91 92 106 119 134 143 104 57 61 91 105 66 54 63 72 77 49 73 119 44 16 19 19 18 13 5 0 0 0 0 0 0 0 0 0 0 0 0 0 0 0 0 0 0 0 0 0 0 0 0 0 0 0 0 0 0 0 0 0 0 0 0 0 0 0 0 0 0 0 0 0 0 
0 0 0 0 0 0 0 0 0 0 0 0 0 0 0 0 0 0 0 0 0 0 0 0 0 0 4 2 12 16 20 19 16 9 27 81 50 63 95 92 48 41 54 87 90 70 65 67 108 152 145 113 99 87 82 87 96 91 93 119 148 143 98 69 66 80 91 62 49 58 108 108 78 96 92 23 14 20 20 17 10 4 0 0 0 0 0 0 0 0 0 0 0 0 0 0 0 0 0 0 0 0 0 0 0 0 0 0 0 0 0 0 0 0 0 0 0 0 0 0 0 0 0 0 0 0 0 0 
0 0 0 0 0 0 0 0 0 0 0 0 0 0 0 0 0 0 0 0 0 0 0 0 0 0 3 2 10 15 19 20 17 13 13 56 96 105 126 85 42 41 55 106 105 59 63 80 121 157 153 127 108 89 70 62 90 97 83 101 140 137 116 82 72 79 119 85 44 45 103 140 116 106 48 21 16 20 21 16 7 4 0 0 0 0 0 0 0 0 0 0 0 0 0 0 0 0 0 0 0 0 0 0 0 0 0 0 0 0 0 0 0 0 0 0 0 0 0 0 0 0 0 0 0 0 0 0 
0 0 0 0 0 0 0 0 0 0 0 0 0 0 0 0 0 0 0 0 0 0 0 0 0 0 2 4 5 10 17 18 15 12 11 14 37 74 87 68 45 39 62 123 114 68 68 77 114 146 136 130 128 108 94 95 105 112 117 117 128 133 118 76 64 84 130 109 52 44 71 101 78 42 26 22 15 20 20 12 5 3 0 0 0 0 0 0 0 0 0 0 0 0 0 0 0 0 0 0 0 0 0 0 0 0 0 0 0 0 0 0 0 0 0 0 0 0 0 0 0 0 0 0 0 0 0 0 
0 0 0 0 0 0 0 0 0 0 0 0 0 0 0 0 0 0 0 0 0 0 0 0 0 0 0 5 4 7 12 16 14 12 11 10 20 25 43 68 54 53 80 129 132 89 70 81 122 146 135 119 103 91 91 91 93 103 104 103 118 115 123 85 60 84 143 129 74 61 74 57 31 27 27 18 12 22 17 9 5 3 0 0 0 0 0 0 0 0 0 0 0 0 0 0 0 0 0 0 0 0 0 0 0 0 0 0 0 0 0 0 0 0 0 0 0 0 0 0 0 0 0 0 0 0 0 0 
0 0 0 0 0 0 0 0 0 0 0 0 0 0 0 0 0 0 0 0 0 0 0 0 0 0 0 0 6 6 9 15 16 16 10 8 19 26 29 53 69 71 85 122 128 109 87 111 138 155 138 100 80 91 96 91 90 99 107 103 114 102 125 110 82 109 141 130 82 74 64 36 29 28 27 18 12 19 13 9 4 3 0 0 0 0 0 0 0 0 0 0 0 0 0 0 0 0 0 0 0 0 0 0 0 0 0 0 0 0 0 0 0 0 0 0 0 0 0 0 0 0 0 0 0 0 0 0 
0 0 0 0 0 0 0 0 0 0 0 0 0 0 0 0 0 0 0 0 0 0 0 0 0 0 0 0 0 8 7 13 15 16 10 9 14 28 27 31 42 59 68 83 127 135 122 128 134 132 126 103 85 83 76 76 77 87 110 109 114 108 130 128 116 122 133 90 63 50 35 31 29 25 24 19 12 15 11 8 4 3 0 0 0 0 0 0 0 0 0 0 0 0 0 0 0 0 0 0 0 0 0 0 0 0 0 0 0 0 0 0 0 0 0 0 0 0 0 0 0 0 0 0 0 0 0 0 
0 0 0 0 0 0 0 0 0 0 0 0 0 0 0 0 0 0 0 0 0 0 0 0 0 0 0 0 0 6 4 11 16 17 12 10 11 24 26 30 30 32 36 42 94 136 126 129 117 100 108 104 91 74 62 67 68 77 99 110 106 109 117 131 126 121 83 35 30 35 32 28 25 22 19 17 12 17 13 9 4 2 0 0 0 0 0 0 0 0 0 0 0 0 0 0 0 0 0 0 0 0 0 0 0 0 0 0 0 0 0 0 0 0 0 0 0 0 0 0 0 0 0 0 0 0 0 0 
0 0 0 0 0 0 0 0 0 0 0 0 0 0 0 0 0 0 0 0 0 0 0 0 0 0 0 0 0 5 5 9 16 15 15 11 11 19 27 30 31 33 33 43 56 82 111 105 76 78 108 112 94 84 80 86 83 79 94 116 135 115 83 89 106 73 40 33 29 33 29 28 23 20 18 15 12 17 15 10 4 2 0 0 0 0 0 0 0 0 0 0 0 0 0 0 0 0 0 0 0 0 0 0 0 0 0 0 0 0 0 0 0 0 0 0 0 0 0 0 0 0 0 0 0 0 0 0 
