P2
# teste2.pgm
128 99
93
0 0 0 0 0 0 0 0 0 0 0 0 0 0 0 0 0 0 0 0 0 0 0 0 0 0 0 0 0 0 0 0 0 0 0 0 0 0 0 0 0 0 0 0 0 0 0 0 0 0 0 0 0 0 0 0 0 0 0 0 0 0 0 0 0 0 0 0 0 0 0 0 0 0 0 0 0 0 0 0 0 0 0 0 0 0 0 0 0 0 0 0 0 0 0 0 0 2 0 0 0 0 0 0 0 0 0 0 0 0 0 0 0 0 0 0 0 0 0 0 0 0 0 0 0 0 0 0 
0 0 0 0 0 0 0 0 0 0 0 0 0 0 0 0 0 0 0 0 0 0 0 0 0 0 0 0 0 0 0 0 0 0 0 0 0 0 0 0 0 0 0 0 0 0 0 0 0 0 0 0 0 0 0 0 0 0 0 0 0 0 0 0 0 0 0 0 0 0 0 0 0 0 0 0 0 0 0 0 0 0 0 0 0 0 0 0 0 0 0 0 0 0 0 0 0 2 0 0 0 0 0 0 0 0 0 0 0 0 0 0 0 0 0 0 0 0 0 0 0 0 0 0 0 0 0 0 
0 0 0 0 0 0 0 0 0 0 0 0 0 0 0 0 0 0 0 0 0 0 0 0 0 0 0 0 0 0 0 0 0 0 0 0 0 0 0 0 0 0 0 0 0 0 0 0 0 0 0 1 1 2 1 0 0 0 0 0 0 0 0 0 0 0 0 0 0 0 0 0 0 0 0 0 0 0 0 0 0 0 0 0 0 0 0 0 0 0 0 0 0 0 0 0 0 2 0 0 0 0 0 0 0 0 0 0 0 0 0 0 0 0 0 0 0 0 0 0 0 0 0 0 0 0 0 0 
0 0 0 0 0 0 0 0 0 0 0 0 0 0 0 0 0 0 0 0 0 0 0 0 0 0 0 0 0 0 0 0 0 0 0 0 0 0 0 0 0 0 0 0 6 13 16 17 16 18 20 23 26 25 24 20 17 15 14 11 3 0 0 0 0 0 0 0 0 0 0 0 0 0 0 0 0 0 0 0 0 0 0 0 0 0 0 0 0 0 0 0 0 0 0 0 0 2 0 0 0 0 0 0 0 0 0 0 0 0 0 0 0 0 0 0 0 0 0 0 0 0 0 0 0 0 0 0 
0 0 0 0 0 0 0 0 0 0 0 0 0 0 0 0 0 0 0 0 0 0 0 0 0 0 0 0 0 0 0 0 0 0 0 0 0 0 0 0 5 13 19 21 22 30 47 65 78 87 91 93 93 93 93 92 88 79 66 48 30 20 16 9 1 0 0 0 0 0 0 0 0 0 0 0 0 0 0 0 0 0 0 0 0 0 0 0 0 0 0 0 0 0 0 0 0 2 0 0 0 0 0 0 0 0 0 0 0 0 0 0 0 0 0 0 0 0 0 0 0 0 0 0 0 0 0 0 
0 0 0 0 0 0 0 0 0 0 0 0 0 0 0 0 0 0 0 0 0 0 0 0 0 0 0 0 0 0 0 0 0 0 0 0 0 0 8 15 22 24 33 58 82 93 92 89 87 86 85 86 87 87 86 86 86 88 90 92 93 85 66 39 22 15 10 1 0 0 0 0 0 0 0 0 0 0 0 0 0 0 0 0 0 0 0 0 0 0 0 0 0 0 0 0 0 2 0 0 0 0 0 0 0 0 0 0 0 0 0 0 0 0 0 0 0 0 0 0 0 0 0 0 0 0 0 0 
0 0 0 0 0 0 0 0 0 0 0 0 0 0 0 0 0 0 0 0 0 0 0 0 0 0 0 0 0 0 0 0 0 0 0 0 8 20 23 23 46 79 93 90 86 85 85 85 83 82 80 80 80 80 80 80 81 83 85 86 86 88 91 93 87 64 36 17 13 1 0 0 0 0 0 0 0 0 0 0 0 0 0 0 0 0 0 0 0 0 0 0 0 0 0 0 0 1 0 0 0 0 0 0 0 0 0 0 0 0 0 0 0 0 0 0 0 0 0 0 0 0 0 0 0 0 0 0 
0 0 0 0 0 0 0 0 0 0 0 0 0 0 0 0 0 0 0 0 0 0 0 0 0 0 0 0 0 0 0 0 0 0 7 23 23 24 53 87 92 88 86 84 84 82 84 87 89 90 89 87 88 92 92 88 81 76 77 81 83 85 86 86 87 91 93 77 43 21 13 1 0 0 0 0 0 0 0 0 0 0 0 0 0 0 0 0 0 0 0 0 0 0 0 0 0 1 0 0 0 0 0 0 0 0 0 0 0 0 0 0 0 0 0 0 0 0 0 0 0 0 0 0 0 0 0 0 
0 0 0 0 0 0 0 0 0 0 0 0 0 0 0 0 0 0 0 0 0 0 0 0 0 0 0 0 0 0 0 0 4 25 23 22 50 88 91 88 88 86 84 81 83 87 90 93 93 93 93 93 93 93 93 93 93 90 81 75 76 79 82 84 85 86 86 89 93 78 40 22 10 0 0 0 0 0 0 0 0 0 0 0 0 0 0 0 0 0 0 0 0 0 0 0 0 2 0 0 0 0 0 0 0 0 0 0 0 0 0 0 0 0 0 0 0 0 0 0 0 0 0 0 0 0 0 0 
0 0 0 0 0 0 0 0 0 0 0 0 0 0 0 0 0 0 0 0 0 0 0 0 0 0 0 0 0 0 0 22 25 21 36 81 92 89 88 87 85 81 83 90 93 93 93 92 92 91 91 93 93 92 93 93 93 93 93 87 77 73 75 78 80 83 85 85 86 89 92 64 28 18 2 0 0 0 0 0 0 0 0 0 0 0 0 0 0 0 0 0 0 0 0 0 0 2 0 0 0 0 0 0 0 0 0 0 0 0 0 0 0 0 0 0 0 0 0 0 0 0 0 0 0 0 0 0 
0 0 0 0 0 0 0 0 0 0 0 0 0 0 0 0 0 0 0 0 0 0 0 0 0 0 0 0 0 9 27 21 24 67 92 89 88 87 85 82 80 87 92 93 93 93 93 92 91 91 91 92 92 91 92 93 93 93 93 93 92 85 76 71 72 76 80 82 85 85 85 91 85 41 21 5 0 0 0 0 0 0 0 0 0 0 0 0 0 0 0 0 0 0 0 0 0 2 0 0 0 0 0 0 0 0 0 0 0 0 0 0 0 0 0 0 0 0 0 0 0 0 0 0 0 0 0 0 
0 0 0 0 0 0 0 0 0 0 0 0 0 0 0 0 0 0 0 0 0 0 0 0 0 0 0 0 21 23 18 43 88 91 89 88 84 82 80 83 89 92 93 93 93 93 92 92 92 92 91 91 90 90 92 93 93 93 93 93 93 92 89 83 75 70 72 77 80 82 84 85 88 92 57 22 10 0 0 0 0 0 0 0 0 0 0 0 0 0 0 0 0 0 0 0 0 2 0 0 0 0 0 0 0 0 0 0 0 0 0 0 0 0 0 0 0 0 0 0 0 0 0 0 0 0 0 0 
0 0 0 0 0 0 0 0 0 0 0 0 0 0 0 0 0 0 0 0 0 0 0 0 0 0 4 24 19 18 62 92 90 88 86 82 79 79 86 91 92 93 93 93 93 93 93 92 92 91 88 88 88 88 91 93 93 93 93 93 93 93 92 90 86 80 74 71 72 78 81 83 85 88 92 67 23 12 0 0 0 0 0 0 0 0 0 0 0 0 0 0 0 0 0 0 0 2 0 0 0 0 0 0 0 0 0 0 0 0 0 0 0 0 0 0 0 0 0 0 0 0 0 0 0 0 0 0 
0 0 0 0 0 0 0 0 0 0 0 0 0 0 0 0 0 0 0 0 0 0 0 0 0 9 23 17 24 76 92 90 86 82 79 77 81 88 92 93 93 93 93 93 93 93 93 93 92 91 88 88 87 88 89 91 93 93 93 93 93 93 93 93 91 89 86 80 75 71 74 79 83 86 88 92 73 24 13 0 0 0 0 0 0 0 0 0 0 0 0 0 0 0 0 0 0 3 0 0 0 0 0 0 0 0 0 0 0 0 0 0 0 0 0 0 0 0 0 0 0 0 0 0 0 0 0 0 
0 0 0 0 0 0 0 0 0 0 0 0 0 0 0 0 0 0 0 0 0 0 0 0 14 21 15 30 83 92 90 85 81 77 79 86 91 92 93 93 93 93 93 93 92 92 91 89 90 89 89 88 87 88 88 89 91 93 93 93 93 93 93 93 93 93 92 91 88 82 76 74 77 82 86 88 91 78 27 12 0 0 0 0 0 0 0 0 0 0 0 0 0 0 0 0 0 3 0 0 0 0 0 0 0 0 0 0 0 0 0 0 0 0 0 0 0 0 0 0 0 0 0 0 0 0 0 0 
0 0 0 0 0 0 0 0 0 0 0 0 0 0 0 0 0 0 0 0 0 0 3 18 19 14 40 88 93 89 84 80 78 85 90 92 93 93 93 93 93 93 93 92 91 89 87 87 86 86 85 83 82 85 87 86 85 87 90 91 92 92 93 93 93 93 93 93 93 91 88 81 76 77 82 87 88 91 84 32 12 0 0 0 0 0 0 0 0 0 0 0 0 0 0 0 0 3 0 0 0 0 0 0 0 0 0 0 0 0 0 0 0 0 0 0 0 0 0 0 0 0 0 0 0 0 0 0 
0 0 0 0 0 0 0 0 0 0 0 0 0 0 0 0 0 0 0 0 0 4 16 16 15 49 90 93 89 83 79 79 89 92 93 93 93 93 93 93 93 92 91 90 88 86 86 84 86 86 84 83 82 85 88 88 87 87 88 89 90 89 90 91 93 93 93 93 93 93 92 91 86 79 78 82 85 87 92 86 35 8 0 0 0 0 0 0 0 0 0 0 0 0 0 0 0 3 0 0 0 0 0 0 0 0 0 0 0 0 0 0 0 0 0 0 0 0 0 0 0 0 0 0 0 0 0 0 
0 0 0 0 0 0 0 0 0 0 0 0 0 0 0 0 0 0 0 0 6 15 13 17 59 92 93 88 82 78 82 92 93 93 93 93 93 93 92 92 92 92 91 90 88 87 84 85 86 84 84 84 84 87 86 86 86 86 86 87 88 89 90 91 91 91 92 93 93 93 93 93 93 89 84 80 81 85 88 91 88 33 5 0 0 0 0 0 0 0 0 0 0 0 0 0 0 3 0 0 0 0 0 0 0 0 0 0 0 0 0 0 0 0 0 0 0 0 0 0 0 0 0 0 0 0 0 0 
0 0 0 0 0 0 0 0 0 0 0 0 0 0 0 0 0 0 0 5 14 12 18 64 93 92 89 83 79 85 93 93 93 93 93 92 92 92 92 91 90 89 89 86 85 84 83 85 85 85 86 83 84 87 86 86 87 88 89 89 89 88 87 88 89 89 89 91 92 93 93 93 93 93 91 85 80 81 85 88 92 85 26 3 0 0 0 0 0 0 0 0 0 0 0 0 0 3 0 0 0 0 0 0 0 0 0 0 0 0 0 0 0 0 0 0 0 0 0 0 0 0 0 0 0 0 0 0 
0 0 0 0 0 0 0 0 0 0 0 0 0 0 0 0 0 0 4 15 12 19 67 93 93 90 85 80 88 93 93 93 93 93 92 91 92 90 89 88 88 85 84 86 85 84 85 85 85 84 82 80 81 86 86 86 87 86 86 87 88 89 88 87 86 87 89 90 91 93 92 92 92 93 93 92 88 80 81 86 90 92 78 19 2 0 0 0 0 0 0 0 0 0 0 0 0 3 0 0 0 0 0 0 0 0 0 0 0 0 0 0 0 0 0 0 0 0 0 0 0 0 0 0 0 0 0 0 
0 0 0 0 0 0 0 0 0 0 0 0 0 0 0 0 0 2 14 12 18 64 93 93 91 86 80 88 93 93 93 93 92 91 91 91 89 88 88 87 85 85 86 85 83 82 82 82 82 81 76 77 78 83 83 82 83 83 82 84 86 85 87 88 88 85 86 90 90 90 92 91 92 92 93 93 93 89 80 82 87 91 93 66 11 0 0 0 0 0 0 0 0 0 0 0 0 3 0 0 0 0 0 0 0 0 0 0 0 0 0 0 0 0 0 0 0 0 0 0 0 0 0 0 0 0 0 0 
0 0 0 0 0 0 0 0 0 0 0 0 0 0 0 0 0 10 10 16 60 92 93 92 89 82 88 93 93 93 93 92 92 92 90 88 88 88 85 85 85 85 84 82 81 81 80 80 81 78 76 76 77 80 83 83 84 83 83 83 84 81 81 83 85 86 85 86 89 90 89 90 89 92 93 93 93 93 88 80 83 88 92 91 46 4 0 0 0 0 0 0 0 0 0 0 0 3 0 0 0 0 0 0 0 0 0 0 0 0 0 0 0 0 0 0 0 0 0 0 0 0 0 0 0 0 0 0 
0 0 0 0 0 0 0 0 0 0 0 0 0 0 0 0 5 12 13 50 90 93 93 90 84 88 93 93 93 92 92 91 90 89 87 87 88 85 84 85 84 82 81 81 80 79 79 79 80 78 78 79 80 82 82 82 84 84 83 82 82 81 80 79 79 81 84 85 86 89 88 89 88 88 91 92 92 93 93 87 80 85 90 93 84 24 1 0 0 0 0 0 0 0 0 0 0 4 0 0 0 0 0 0 0 0 0 0 0 0 0 0 0 0 0 0 0 0 0 0 0 0 0 0 0 0 0 0 
0 0 0 0 0 0 0 0 0 0 0 0 0 0 0 1 11 11 42 87 93 93 91 86 87 93 93 93 92 92 91 89 89 89 88 86 83 82 84 82 79 77 78 79 80 81 81 81 80 78 81 82 82 81 80 80 81 82 83 83 84 84 83 80 78 80 82 84 84 86 87 87 88 87 89 91 93 92 93 93 85 82 88 92 93 64 7 0 0 0 0 0 0 0 0 0 0 4 0 0 0 0 0 0 0 0 0 0 0 0 0 0 0 0 0 0 0 0 0 0 0 0 0 0 0 0 0 0 
0 0 0 0 0 0 0 0 0 0 0 0 0 0 0 7 11 23 78 91 93 93 88 87 93 93 93 92 92 92 90 88 88 85 85 82 81 83 82 80 80 80 83 83 82 82 83 82 79 78 81 81 80 79 77 78 77 77 78 80 82 84 85 82 80 79 81 83 84 83 85 86 87 87 88 90 92 92 92 93 92 85 86 91 93 86 28 1 0 0 0 0 0 0 0 0 0 3 0 0 0 0 0 0 0 0 0 0 0 0 0 0 0 0 0 0 0 0 0 0 0 0 0 0 0 0 0 0 
0 0 0 0 0 0 0 0 0 0 0 0 0 0 2 8 12 61 89 92 93 91 90 92 93 92 92 90 92 92 88 88 85 85 83 80 84 83 82 82 83 83 82 80 78 78 79 79 77 79 81 81 79 81 77 77 76 76 73 73 76 81 83 84 83 80 78 80 82 84 83 86 86 88 87 89 92 91 91 91 93 90 86 89 92 92 56 4 0 0 0 0 0 0 0 0 0 4 0 0 0 0 0 0 0 0 0 0 0 0 0 0 0 0 0 0 0 0 0 0 0 0 0 0 0 0 0 0 
0 0 0 0 0 0 0 0 0 0 0 0 0 0 5 8 35 84 91 93 92 91 93 93 91 91 90 91 92 89 88 86 84 83 81 81 84 84 82 81 80 78 75 72 73 76 77 77 76 80 85 84 81 83 78 78 79 78 77 74 72 73 76 81 84 83 79 78 80 82 82 84 86 86 88 89 91 92 90 90 91 93 90 88 92 93 79 15 0 0 0 0 0 0 0 0 0 4 0 0 0 0 0 0 0 0 0 0 0 0 0 0 0 0 0 0 0 0 0 0 0 0 0 0 0 0 0 0 
0 0 0 0 0 0 0 0 0 0 0 0 0 0 6 14 67 88 92 93 91 93 93 92 91 89 89 91 91 89 87 83 82 83 83 83 84 80 79 78 75 71 71 72 74 77 79 80 80 79 80 81 81 76 72 71 73 79 80 79 77 75 73 74 79 85 83 79 79 81 81 83 86 86 87 89 90 92 90 88 89 93 92 89 91 93 89 33 1 0 0 0 0 0 0 0 0 4 0 0 0 0 0 0 0 0 0 0 0 0 0 0 0 0 0 0 0 0 0 0 0 0 0 0 0 0 0 0 
0 0 0 0 0 0 0 0 0 0 0 0 0 2 6 33 83 90 93 92 92 93 93 91 89 88 89 91 89 88 85 83 84 84 84 85 79 75 76 76 71 71 75 78 80 81 81 80 78 75 74 74 78 73 74 72 72 74 73 77 79 79 78 76 74 81 84 82 80 79 80 81 85 85 87 89 90 91 89 87 87 93 93 90 91 93 91 50 2 0 0 0 0 0 0 0 0 4 0 0 0 0 0 0 0 0 0 0 0 0 0 0 0 0 0 0 0 0 0 0 0 0 0 0 0 0 0 0 
0 0 0 0 0 0 0 0 0 0 0 0 0 4 8 57 87 91 93 92 93 93 92 89 88 87 90 90 87 87 85 84 86 84 83 80 76 76 77 75 73 77 80 81 79 78 75 77 78 77 77 77 77 77 76 75 75 74 72 70 71 77 79 80 78 77 81 84 82 81 80 81 84 84 86 89 90 89 89 87 85 92 93 91 90 93 92 64 5 0 0 0 0 0 0 0 0 4 0 0 0 0 0 0 0 0 0 0 0 0 0 0 0 0 0 0 0 0 0 0 0 0 0 0 0 0 0 0 
0 0 0 0 0 0 0 0 0 0 0 0 0 5 16 73 89 92 93 93 92 92 91 87 87 86 89 88 86 86 84 85 87 84 82 78 78 77 77 77 80 80 79 77 77 76 76 77 77 76 75 75 76 76 74 72 73 74 75 74 73 72 75 80 82 80 80 83 84 82 81 83 84 84 85 89 89 87 88 87 84 90 93 92 90 93 93 75 10 0 0 0 0 0 0 0 0 4 0 0 0 0 0 0 0 0 0 0 0 0 0 0 0 0 0 0 0 0 0 0 0 0 0 0 0 0 0 0 
0 0 0 0 0 0 0 0 0 0 0 0 0 5 30 83 90 93 93 93 90 91 90 87 85 86 87 87 86 84 84 88 87 83 79 78 78 76 79 80 79 77 73 73 75 75 73 72 72 71 72 72 76 73 71 71 75 75 71 74 77 77 76 78 82 82 83 83 84 84 83 83 85 85 85 88 87 86 85 85 84 89 93 92 90 92 93 82 15 0 0 0 0 0 0 0 0 5 0 0 0 0 0 0 0 0 0 0 0 0 0 0 0 0 0 0 0 0 0 0 0 0 0 0 0 0 0 0 
0 0 0 0 0 0 0 0 0 0 0 0 1 5 43 86 91 93 93 92 89 90 90 86 84 85 87 86 84 82 86 89 85 81 79 81 79 78 79 77 74 75 77 75 72 74 71 69 73 76 77 77 79 78 76 75 75 77 76 74 74 75 75 73 79 84 85 86 84 84 85 83 83 86 85 87 86 84 85 84 83 88 93 93 90 92 93 87 23 0 0 0 0 0 0 0 0 5 0 0 0 0 0 0 0 0 0 0 0 0 0 0 0 0 0 0 0 0 0 0 0 0 0 0 0 0 0 0 
0 0 0 0 0 0 0 0 0 0 0 0 2 6 52 88 92 93 93 91 88 90 90 86 83 84 85 86 81 82 88 87 83 81 80 81 82 81 78 74 71 75 78 76 71 71 72 73 75 77 80 79 79 76 74 72 73 77 78 77 77 76 79 80 79 78 80 82 85 85 85 85 82 85 86 86 85 81 84 84 84 89 93 93 90 91 93 90 33 1 0 0 0 0 0 0 0 5 0 0 0 0 0 0 0 0 0 0 0 0 0 0 0 0 0 0 0 0 0 0 0 0 0 0 0 0 0 0 
0 0 0 0 0 0 0 0 0 0 0 0 2 8 59 89 93 93 93 91 89 90 90 87 84 82 84 83 78 84 88 86 83 79 80 83 85 82 81 76 72 75 77 76 71 68 73 77 77 76 77 76 75 69 65 67 64 70 76 77 78 76 77 74 73 78 81 82 86 88 86 84 83 85 86 87 83 81 82 82 84 91 93 93 91 90 93 92 42 1 0 0 0 0 0 0 0 4 0 0 0 0 0 0 0 0 0 0 0 0 0 0 0 0 0 0 0 0 0 0 0 0 0 0 0 0 0 0 
0 0 0 0 0 0 0 0 0 0 0 0 3 10 65 90 93 93 93 92 91 90 91 87 85 81 84 80 78 85 88 85 81 80 84 86 84 82 84 86 83 78 75 73 74 76 75 78 77 76 77 76 73 67 66 64 61 62 72 75 79 74 71 73 77 81 83 83 84 86 89 88 86 85 86 89 84 82 80 81 85 91 93 93 90 89 92 93 50 3 0 0 0 0 0 0 0 4 0 0 0 0 0 0 0 0 0 0 0 0 0 0 0 0 0 0 0 0 0 0 0 0 0 0 0 0 0 0 
0 0 0 0 0 0 0 0 0 0 0 0 3 11 68 91 93 93 93 92 92 91 91 87 86 82 83 78 79 84 89 85 81 84 87 84 81 77 76 75 73 72 75 72 70 75 79 78 78 77 77 77 77 71 70 65 61 57 68 75 76 71 75 78 76 74 74 74 74 77 84 88 90 89 87 89 89 85 80 83 87 91 93 93 90 88 92 93 60 5 0 0 0 0 0 0 0 4 0 0 0 0 0 0 0 0 0 0 0 0 0 0 0 0 0 0 0 0 0 0 0 0 0 0 0 0 0 0 
0 0 0 0 0 0 0 0 0 0 0 0 4 13 70 91 93 93 93 92 92 91 91 89 87 84 82 77 79 85 89 84 86 87 83 79 74 69 67 68 68 64 63 69 73 79 80 80 78 76 75 76 79 75 73 72 66 61 70 74 72 77 77 76 74 71 73 74 73 74 79 83 86 87 90 91 92 89 82 85 89 91 92 93 91 88 91 93 68 6 0 0 0 0 0 0 0 4 0 0 0 0 0 0 0 0 0 0 0 0 0 0 0 0 0 0 0 0 0 0 0 0 0 0 0 0 0 0 
0 0 0 0 0 0 0 0 0 0 0 0 5 13 72 92 93 93 93 92 92 91 91 91 89 86 82 78 79 87 89 89 88 83 77 74 72 71 69 70 68 67 66 68 71 75 77 79 79 80 78 77 80 79 77 76 71 71 74 72 76 72 74 73 70 71 72 73 73 75 77 78 79 82 88 93 93 92 87 87 90 90 91 93 93 89 91 93 75 9 0 0 0 0 0 0 0 4 0 0 0 0 0 0 0 0 0 0 0 0 0 0 0 0 0 0 0 0 0 0 0 0 0 0 0 0 0 0 
0 0 0 0 0 0 0 0 0 0 0 0 6 13 73 93 93 93 93 92 92 91 90 91 90 88 83 83 82 88 91 91 84 76 73 69 67 67 68 68 67 65 68 72 74 74 73 77 74 77 77 78 81 81 83 78 75 75 70 77 74 70 71 70 70 72 74 76 76 76 80 82 83 84 86 93 93 92 91 89 89 89 89 92 93 91 90 93 82 15 0 0 0 0 0 0 0 4 0 0 0 0 0 0 0 0 0 0 0 0 0 0 0 0 0 0 0 0 0 0 0 0 0 0 0 0 0 0 
0 0 0 0 0 0 0 0 0 0 0 0 7 15 74 93 93 93 92 91 91 91 89 90 89 89 85 86 89 90 92 89 76 72 70 69 69 68 70 68 68 68 68 70 71 73 73 75 75 77 79 81 83 81 86 81 79 77 71 80 71 68 67 71 75 75 75 77 77 78 81 83 85 88 88 90 92 92 92 88 88 87 88 90 92 92 91 93 87 22 0 0 0 0 0 0 0 4 0 0 0 0 0 0 0 0 0 0 0 0 0 0 0 0 0 0 0 0 0 0 0 0 0 0 0 0 0 0 
0 0 0 0 0 0 0 0 0 0 0 0 6 15 75 93 93 93 91 90 91 90 88 88 88 89 86 87 91 92 93 87 80 76 73 72 72 72 69 68 68 72 72 70 70 71 73 76 75 76 79 81 84 82 87 82 78 76 77 79 69 66 69 72 73 73 74 78 79 80 82 84 86 86 86 87 89 92 92 89 87 86 86 87 90 93 91 93 90 30 0 0 0 0 0 0 0 4 0 0 0 0 0 0 0 0 0 0 0 0 0 0 0 0 0 0 0 0 0 0 0 0 0 0 0 0 0 0 
0 0 0 0 0 0 0 0 0 0 0 0 7 15 75 93 93 92 90 90 90 89 87 87 86 86 84 86 91 91 91 88 87 82 77 75 74 71 68 69 69 73 73 71 70 70 72 77 77 78 80 84 85 84 84 82 79 81 78 74 68 67 70 73 75 75 75 76 78 77 79 83 83 81 84 86 87 92 91 89 86 84 84 85 87 93 92 93 91 37 1 0 0 0 0 0 0 4 0 0 0 0 0 0 0 0 0 0 0 0 0 0 0 0 0 0 0 0 0 0 0 0 0 0 0 0 0 0 
0 0 0 0 0 0 0 0 0 0 0 0 7 16 76 93 92 93 90 89 89 87 85 83 84 84 83 86 89 90 88 82 81 79 76 73 71 70 68 65 69 71 70 71 71 70 71 75 77 77 81 79 80 81 81 85 81 81 77 72 69 69 72 73 73 72 71 71 74 75 76 80 83 81 83 85 87 91 91 88 84 81 82 83 84 91 92 93 91 43 2 0 0 0 0 0 0 4 0 0 0 0 0 0 0 0 0 0 0 0 0 0 0 0 0 0 0 0 0 0 0 0 0 0 0 0 0 0 
0 0 0 0 0 0 0 0 0 0 0 0 8 17 77 93 92 93 87 87 87 84 80 80 81 83 83 87 88 87 85 80 78 77 75 71 70 69 68 69 69 70 70 70 69 72 73 72 77 78 82 80 78 79 79 84 82 83 80 73 70 71 72 68 67 69 72 73 73 74 76 81 81 80 81 84 86 90 90 89 85 80 81 81 81 88 93 93 92 48 2 0 0 0 0 0 0 4 0 0 0 0 0 0 0 0 0 0 0 0 0 0 0 0 0 0 0 0 0 0 0 0 0 0 0 0 0 0 
0 0 0 0 0 0 0 0 0 0 0 0 8 17 76 93 92 92 86 84 84 82 77 76 79 81 80 86 87 86 83 81 77 75 72 70 70 68 67 69 73 74 72 70 68 68 72 71 70 78 85 86 82 77 77 73 83 81 78 74 74 71 69 64 67 71 71 74 72 73 76 80 79 78 80 84 87 89 88 90 88 80 81 82 81 86 91 93 92 51 2 0 0 0 0 0 0 3 0 0 0 0 0 0 0 0 0 0 0 0 0 0 0 0 0 0 0 0 0 0 0 0 0 0 0 0 0 0 
0 0 0 0 0 0 0 0 0 0 0 0 7 16 75 93 92 92 85 82 81 79 77 76 79 78 80 85 85 86 82 80 78 74 71 70 71 70 69 71 71 70 69 71 70 71 73 68 68 75 82 86 78 71 74 68 76 83 74 76 75 73 66 65 71 71 73 74 72 72 76 79 76 75 80 86 90 90 90 91 89 80 80 81 81 86 90 93 92 52 2 0 0 0 0 0 0 3 0 0 0 0 0 0 0 0 0 0 0 0 0 0 0 0 0 0 0 0 0 0 0 0 0 0 0 0 0 0 
0 0 0 0 0 0 0 0 0 0 0 0 6 16 72 93 93 90 84 81 81 80 78 75 80 79 80 84 83 85 83 80 79 74 71 70 70 73 71 73 73 71 67 65 68 70 72 64 65 74 83 82 69 66 72 66 68 85 70 74 72 70 66 69 70 70 72 73 73 73 76 77 75 75 80 87 92 91 90 90 89 81 80 79 82 85 90 93 91 50 2 0 0 0 0 0 0 3 0 0 0 0 0 0 0 0 0 0 0 0 0 0 0 0 0 0 0 0 0 0 0 0 0 0 0 0 0 0 
0 0 0 0 0 0 0 0 0 0 0 0 5 14 67 93 93 89 83 81 80 80 78 74 79 79 80 84 82 85 85 80 77 78 72 68 70 74 73 71 73 73 67 64 66 68 71 66 69 77 82 71 67 67 70 60 65 82 77 72 70 68 67 72 71 70 72 74 74 73 76 75 74 76 81 88 92 89 89 90 88 80 80 77 81 84 89 93 90 47 1 0 0 0 0 0 0 3 0 0 0 0 0 0 0 0 0 0 0 0 0 0 0 0 0 0 0 0 0 0 0 0 0 0 0 0 0 0 
0 0 0 0 0 0 0 0 0 0 0 0 4 15 63 92 93 90 83 81 79 80 79 73 77 78 79 84 82 84 86 81 75 78 72 71 72 75 75 73 74 70 69 64 64 66 67 63 71 78 80 70 67 69 73 64 62 72 82 73 70 66 67 70 71 72 74 74 72 72 75 76 75 78 81 88 91 87 87 90 88 81 80 78 81 83 90 93 89 42 2 0 0 0 0 0 0 3 0 0 0 0 0 0 0 0 0 0 0 0 0 0 0 0 0 0 0 0 0 0 0 0 0 0 0 0 0 0 
0 0 0 0 0 0 0 0 0 0 0 0 2 14 59 92 93 91 84 81 78 78 79 76 75 77 78 84 83 84 87 83 74 76 74 70 73 74 76 76 73 69 64 62 62 65 62 65 73 81 72 67 65 71 76 68 64 63 81 75 76 71 67 70 72 72 73 72 71 72 75 77 74 78 81 86 88 85 86 90 87 80 79 77 79 82 91 92 86 38 1 0 0 0 0 0 0 2 0 0 0 0 0 0 0 0 0 0 0 0 0 0 0 0 0 0 0 0 0 0 0 0 0 0 0 0 0 0 
0 0 0 0 0 0 0 0 0 5 5 0 0 12 54 90 93 91 84 81 78 76 80 78 74 76 77 83 84 85 88 82 75 73 75 70 72 75 75 75 73 70 65 62 66 73 70 67 72 75 70 65 64 73 74 69 66 63 73 80 83 80 77 75 72 72 75 75 73 73 76 75 73 77 77 85 85 84 87 90 87 81 76 76 78 83 92 91 81 34 1 0 0 0 0 0 0 3 0 0 0 0 0 0 0 0 0 0 0 0 0 0 0 0 0 0 0 0 0 0 0 0 0 0 0 0 0 0 
0 0 0 0 0 0 0 0 0 3 9 2 0 9 46 88 93 91 85 79 77 75 79 78 73 73 79 84 85 85 89 83 76 73 73 73 72 74 73 75 76 76 74 67 68 71 73 69 77 71 70 65 62 71 71 69 70 66 68 85 86 87 83 78 75 71 74 75 73 74 72 72 74 72 76 85 84 86 89 89 89 83 73 78 76 84 92 90 77 29 1 0 0 0 0 0 0 3 0 0 0 0 0 0 0 0 0 0 0 0 0 0 0 0 0 0 0 0 0 0 0 0 0 0 0 0 0 0 
0 0 0 0 0 0 0 0 0 1 4 9 2 7 37 84 93 91 83 78 76 75 78 80 75 72 80 84 84 84 88 86 77 75 74 74 74 76 75 75 76 76 71 71 78 80 74 72 79 63 69 65 65 74 70 65 71 70 75 87 87 84 80 80 82 80 79 77 73 73 72 73 75 76 79 86 89 89 89 89 91 85 75 77 77 86 92 89 73 24 0 0 0 0 0 0 0 3 0 0 0 0 0 0 0 0 0 0 0 0 0 0 0 0 0 0 0 0 0 0 0 0 0 0 0 0 0 0 
0 0 0 0 0 0 0 0 0 0 3 9 3 6 30 78 92 92 83 79 77 77 76 79 76 73 81 84 84 85 88 87 83 78 76 74 74 77 79 77 78 76 75 78 77 74 71 78 78 62 67 66 66 77 71 66 65 65 70 85 90 82 82 80 81 84 90 90 88 88 87 86 86 87 89 90 87 88 90 90 92 88 79 76 81 88 92 86 68 16 0 0 0 6 3 0 0 3 0 0 0 0 0 0 0 0 0 0 0 0 0 0 0 0 0 0 0 0 0 0 0 0 0 0 0 0 0 0 
0 0 0 0 0 0 0 0 0 0 2 8 5 5 22 72 91 93 85 82 79 77 74 78 78 75 81 85 84 85 89 88 86 88 85 81 81 85 87 84 83 79 73 75 77 76 73 80 77 64 69 70 69 78 73 64 66 68 71 88 90 81 81 81 81 85 92 93 92 93 93 93 92 89 89 91 90 89 89 90 92 88 85 82 82 91 90 84 63 11 3 2 6 1 1 0 0 3 0 0 0 0 0 0 0 0 0 0 0 0 0 0 0 0 0 0 0 0 0 0 0 0 0 0 0 0 0 0 
0 0 0 0 0 0 0 0 0 0 0 8 6 7 18 66 89 93 89 83 79 76 75 75 81 82 82 86 85 84 86 86 82 86 87 87 87 87 86 83 83 81 79 77 77 75 75 80 80 73 74 75 77 82 77 67 66 71 79 89 89 82 81 81 81 87 92 93 93 93 92 91 90 87 89 89 90 92 91 90 91 89 87 88 92 91 85 83 57 7 2 1 3 3 0 0 0 3 0 0 0 0 0 0 0 0 0 0 0 0 0 0 0 0 0 0 0 0 0 0 0 0 0 0 0 0 0 0 
0 0 0 0 0 0 0 0 0 0 0 8 8 8 13 57 86 93 93 84 80 74 78 81 86 85 85 87 86 86 86 89 90 90 89 88 86 84 85 83 82 76 73 77 76 74 74 80 82 79 76 76 77 83 78 69 71 73 78 83 84 82 80 82 83 89 92 93 93 93 91 92 92 92 93 92 93 93 93 93 93 93 92 93 93 91 83 81 46 6 1 2 1 1 0 0 0 3 0 0 0 0 0 0 0 0 0 0 0 0 0 0 0 0 0 0 0 0 0 0 0 0 0 0 0 0 0 0 
0 0 0 0 0 0 0 0 0 0 0 7 10 9 13 48 84 92 93 89 84 80 85 85 88 87 87 89 89 85 89 91 92 93 93 92 92 91 89 82 76 73 71 73 73 71 72 80 82 78 76 73 71 81 75 72 71 75 78 80 82 80 83 83 85 90 93 93 93 93 92 93 93 92 91 90 90 93 93 93 92 92 93 92 90 88 86 78 29 5 3 3 1 0 0 0 0 3 0 0 0 0 0 0 0 0 0 0 0 0 0 0 0 0 0 0 0 0 0 0 0 0 0 0 0 0 0 0 
0 0 0 0 0 0 0 0 0 0 0 9 12 7 8 34 81 92 93 92 91 92 91 90 92 91 92 90 89 89 91 93 93 93 93 92 93 93 91 84 80 77 74 70 72 69 75 82 76 72 73 71 71 84 77 70 67 71 77 77 80 81 82 84 88 88 90 92 92 93 93 92 91 89 89 91 92 93 93 93 93 91 91 91 93 84 86 68 14 5 4 3 1 0 0 0 0 2 0 0 0 0 0 0 0 0 0 0 0 0 0 0 0 0 0 0 0 0 0 0 0 0 0 0 0 0 0 0 
0 0 0 0 0 0 0 0 0 0 0 5 11 6 6 12 52 89 92 92 93 92 92 93 93 93 92 91 90 90 93 93 93 93 93 93 92 93 91 86 84 85 81 74 72 72 77 82 79 70 70 74 76 83 82 74 68 69 76 81 82 81 82 82 85 85 85 90 90 90 87 88 88 88 92 93 93 93 93 93 93 93 93 93 92 85 83 72 15 4 6 2 1 0 0 0 0 2 0 0 0 0 0 0 0 0 0 0 0 0 0 0 0 0 0 0 0 0 0 0 0 0 0 0 0 0 0 0 
0 0 0 0 0 0 0 0 0 0 0 6 9 5 3 8 34 84 93 93 93 92 92 92 93 93 93 93 89 87 91 92 93 93 93 93 92 93 91 84 79 82 81 79 76 76 82 82 78 74 73 77 79 85 84 77 70 67 74 76 80 78 75 83 85 85 87 88 89 85 85 87 85 91 92 93 93 92 92 93 93 93 93 91 85 84 85 53 8 3 6 3 2 0 0 0 0 2 0 0 0 0 0 0 0 0 0 0 0 0 0 0 0 0 0 0 0 0 0 0 0 0 0 0 0 0 0 0 
0 0 0 0 0 0 0 0 0 0 0 7 7 5 4 9 21 72 92 92 93 93 93 92 93 93 93 93 92 90 88 91 93 92 93 93 93 93 90 86 80 78 81 81 76 76 81 78 75 75 77 76 70 80 84 80 70 68 75 72 77 81 79 81 80 78 83 88 89 89 90 87 89 92 92 93 93 93 92 91 92 93 88 83 87 86 81 30 5 3 6 6 2 0 0 0 0 2 0 0 0 0 0 0 0 0 0 0 0 0 0 0 0 0 0 0 0 0 0 0 0 0 0 0 0 0 0 0 
0 0 0 0 0 0 0 0 0 0 0 5 6 5 7 11 16 52 90 92 92 91 92 93 91 93 93 92 91 92 89 89 91 91 90 92 93 92 90 89 81 77 77 75 74 75 81 77 80 82 81 75 71 74 84 85 72 73 77 72 82 88 87 88 80 71 72 79 82 84 87 85 88 92 93 93 93 93 92 91 89 90 86 80 83 85 64 16 6 3 6 3 4 0 0 0 0 1 0 0 0 0 0 0 0 0 0 0 0 0 0 0 0 0 0 0 0 0 0 0 0 0 0 0 0 0 0 0 
0 0 0 0 0 0 0 0 0 0 0 4 5 5 6 10 14 30 83 90 90 89 92 93 93 91 89 89 88 92 93 89 85 86 91 91 92 91 90 84 77 74 77 80 80 81 87 82 87 84 83 82 79 78 87 89 81 79 80 82 86 89 87 87 83 73 71 72 76 78 80 88 91 92 92 93 93 93 93 92 91 90 84 74 79 83 38 11 5 4 4 3 4 1 0 0 0 1 0 0 0 0 0 0 0 0 0 0 0 0 0 0 0 0 0 0 0 0 0 0 0 0 0 0 0 0 0 0 
0 0 0 0 0 0 0 0 0 0 0 3 3 1 3 9 14 16 66 85 86 89 91 92 91 91 88 87 88 92 93 90 84 84 89 92 92 91 85 77 69 76 80 85 86 87 88 88 89 87 90 90 84 82 92 91 85 82 84 84 84 87 84 86 87 82 73 68 70 81 87 91 88 90 91 92 93 93 91 93 92 84 79 71 78 70 19 10 6 5 2 4 5 0 0 0 0 1 0 0 0 0 0 0 0 0 0 0 0 0 0 0 0 0 0 0 0 0 0 0 0 0 0 0 0 0 0 0 
0 0 0 0 0 0 0 0 0 0 0 3 5 2 0 3 13 13 41 85 90 86 91 93 93 92 90 90 92 93 93 88 83 82 82 85 89 85 80 75 73 76 78 83 87 88 87 89 90 88 91 92 92 93 93 90 88 90 88 86 88 92 91 90 89 83 75 69 78 89 85 83 88 88 88 92 93 92 90 92 91 81 74 74 80 49 12 12 4 5 4 3 3 1 0 0 0 1 0 0 0 0 0 0 0 0 0 0 0 0 0 0 0 0 0 0 0 0 0 0 0 0 0 0 0 0 0 0 
0 0 0 0 0 0 0 0 0 0 0 1 6 3 0 3 11 13 24 77 87 79 88 90 93 93 93 93 93 93 93 91 88 85 81 84 82 75 75 81 80 82 84 87 90 92 91 91 93 93 92 93 93 92 92 93 93 93 92 91 92 93 93 93 90 87 86 84 87 88 82 83 88 87 86 92 93 91 92 93 89 78 69 69 75 29 11 12 4 4 5 3 2 1 0 0 0 1 0 0 0 0 0 0 0 0 0 0 0 0 0 0 0 0 0 0 0 0 0 0 0 0 0 0 0 0 0 0 
0 0 0 0 0 0 0 0 0 0 0 1 5 3 1 4 10 11 15 57 86 82 83 88 92 93 93 93 93 92 93 92 89 86 85 85 84 78 78 83 91 90 88 88 91 93 93 93 93 92 91 91 92 93 93 93 93 93 91 90 92 93 93 93 93 92 91 90 92 84 80 80 84 85 84 92 93 92 93 92 89 84 76 80 67 19 10 10 5 2 3 2 3 1 0 0 0 0 0 0 0 0 0 0 0 0 0 0 0 0 0 0 0 0 0 0 0 0 0 0 0 0 0 0 0 0 0 0 
0 0 0 0 0 0 0 0 0 0 1 4 5 2 0 4 9 9 11 37 75 83 83 86 90 93 93 93 93 92 92 92 90 85 83 85 85 86 87 89 91 93 93 92 93 93 93 93 93 93 93 93 93 93 92 92 92 93 92 92 92 93 93 93 92 93 93 93 92 82 76 75 82 86 86 91 93 92 93 87 83 79 78 78 57 15 9 9 6 1 2 4 4 1 0 0 0 0 0 0 0 0 0 0 0 0 0 0 0 0 0 0 0 0 0 0 0 0 0 0 0 0 0 0 0 0 0 0 
0 0 0 0 0 0 0 0 0 0 1 4 12 9 3 5 7 9 10 26 67 82 86 82 84 90 93 93 93 91 92 91 90 84 79 81 81 84 86 88 90 93 93 93 93 93 93 93 93 93 93 93 93 93 92 91 92 93 90 92 91 92 93 93 92 93 93 93 91 81 73 77 82 88 91 93 93 93 91 85 72 68 71 74 50 14 8 6 6 1 1 4 4 1 0 0 0 0 0 0 0 0 0 0 0 0 0 0 0 0 0 0 0 0 0 0 0 0 0 0 0 0 0 0 0 0 0 0 
0 0 0 0 0 0 0 0 0 0 0 4 10 11 10 5 6 9 11 20 56 76 85 85 84 85 92 92 93 92 90 89 90 83 77 76 79 83 85 86 88 92 93 93 93 93 93 93 93 93 93 93 93 93 93 89 89 91 88 88 89 92 93 93 92 93 93 93 91 80 72 74 79 85 93 91 91 92 93 77 63 72 77 73 36 15 6 4 4 3 0 3 3 1 1 0 0 0 0 0 0 0 0 0 0 0 0 0 0 0 0 0 0 0 0 0 0 0 0 0 0 0 0 0 0 0 0 0 
0 0 0 0 0 0 0 0 0 0 0 3 9 10 8 7 8 11 15 15 30 70 85 83 79 84 90 92 93 93 92 88 89 80 72 77 80 80 79 81 85 92 93 93 93 93 93 93 93 93 93 93 93 93 90 85 85 87 88 87 88 93 93 93 91 92 93 93 90 80 74 75 80 90 93 93 93 93 91 71 66 71 65 54 19 14 8 6 5 5 5 3 4 3 1 0 0 0 0 0 0 0 0 0 0 0 0 0 0 0 0 0 0 0 0 0 0 0 0 0 0 0 0 0 0 0 0 0 
0 0 0 0 0 0 0 0 0 0 0 2 10 9 9 9 8 9 13 14 16 45 81 79 81 81 87 92 93 93 93 91 88 87 79 74 75 76 77 79 87 92 93 93 93 93 92 92 92 91 93 93 92 93 93 87 86 89 89 87 91 93 93 93 93 92 93 93 93 92 90 86 90 92 92 93 88 79 79 63 56 70 72 32 11 9 8 7 4 4 6 7 11 5 2 0 0 0 0 0 0 0 0 0 0 0 0 0 0 0 0 0 0 0 0 0 0 0 0 0 0 0 0 0 0 0 0 0 
0 0 0 0 0 0 0 0 0 0 0 0 8 9 5 7 5 5 8 12 19 27 57 76 73 71 81 92 93 93 93 92 90 90 85 77 75 78 82 90 91 92 91 93 92 93 93 93 93 93 93 93 93 91 91 93 93 93 93 93 93 92 92 92 93 91 93 91 92 92 92 92 92 92 83 72 72 68 71 61 73 76 45 16 10 2 2 4 5 3 4 5 7 4 0 0 0 0 0 0 0 0 0 0 0 0 0 0 0 0 0 0 0 0 0 0 0 0 0 0 0 0 0 0 0 0 0 0 
0 0 0 0 0 0 0 0 0 0 0 0 2 6 4 2 2 2 5 9 15 22 30 66 67 60 74 80 83 92 93 93 93 92 88 79 82 86 87 89 92 91 89 90 86 86 90 88 91 92 91 91 92 91 91 93 93 92 92 92 89 90 87 86 89 82 85 86 92 93 93 88 80 69 64 70 70 69 66 59 57 38 26 21 14 2 1 1 1 2 5 6 7 0 0 0 0 0 0 0 0 0 0 0 0 0 0 0 0 0 0 0 0 0 0 0 0 0 0 0 0 0 0 0 0 0 0 0 
0 0 0 0 0 0 0 0 0 0 0 0 0 2 3 1 0 0 0 5 10 18 22 41 68 70 54 46 62 64 76 80 89 90 88 86 85 88 92 92 91 91 92 92 89 85 89 89 90 93 93 93 93 93 93 93 93 93 93 93 93 88 80 91 93 86 85 89 92 91 88 83 71 65 62 72 76 72 60 45 35 35 33 25 20 0 1 1 0 0 2 6 7 0 0 0 0 0 0 0 0 0 0 0 0 0 0 0 0 0 0 0 0 0 0 0 0 0 0 0 0 0 0 0 0 0 0 0 
0 0 0 0 0 0 0 0 0 0 0 0 0 2 5 3 3 1 2 3 9 13 17 21 34 44 32 37 60 51 55 52 67 69 70 68 65 60 61 60 71 85 91 93 92 90 88 79 84 78 80 83 83 85 81 76 69 67 76 75 73 82 76 89 87 93 88 67 55 56 48 54 49 47 46 61 68 67 45 28 26 23 18 7 2 0 3 4 2 1 2 6 4 0 0 0 0 0 0 0 0 0 0 0 0 0 0 0 0 0 0 0 0 0 0 0 0 0 0 0 0 0 0 0 0 0 0 0 
0 0 0 0 0 0 0 0 0 0 0 0 0 0 3 1 3 2 1 1 5 9 12 15 21 20 21 27 56 53 55 53 58 54 60 54 54 50 55 57 66 68 67 68 73 74 65 57 60 65 51 59 66 69 71 69 61 52 58 59 65 74 67 65 62 73 73 81 84 80 51 59 53 43 42 60 68 65 43 26 26 22 15 6 2 0 2 3 3 1 2 4 1 0 0 0 0 0 0 0 0 0 0 0 0 0 0 0 0 0 0 0 0 0 0 0 0 0 0 0 0 0 0 0 0 0 0 0 
0 0 0 0 0 0 0 0 0 0 0 0 0 0 0 0 0 0 0 0 3 9 9 14 19 25 25 31 55 57 56 53 59 57 58 55 63 75 87 86 92 90 82 78 77 76 71 76 76 68 62 73 76 77 76 70 64 55 72 81 76 83 78 76 85 92 76 82 82 78 66 75 65 58 62 70 73 66 45 29 25 22 13 10 1 0 0 0 0 0 1 0 0 0 0 0 0 0 0 0 0 0 0 0 0 0 0 0 0 0 0 0 0 0 0 0 0 0 0 0 0 0 0 0 0 0 0 0 
0 0 0 0 0 0 0 0 0 0 0 0 0 0 0 0 0 0 0 0 0 3 3 8 14 32 32 38 55 63 62 57 61 65 67 63 73 86 82 92 93 93 93 91 90 93 93 92 90 84 80 82 79 80 79 81 83 78 83 90 92 92 91 92 92 93 89 86 73 85 76 80 69 63 69 67 69 67 55 43 29 19 10 8 0 0 0 0 0 0 0 0 0 0 0 0 0 0 0 0 0 0 0 0 0 0 0 0 0 0 0 0 0 0 0 0 0 0 0 0 0 0 0 0 0 0 0 0 
0 0 0 0 0 0 0 0 0 0 0 0 0 0 0 0 0 0 0 0 0 2 2 4 9 26 28 34 47 58 58 59 65 67 73 69 74 79 86 77 91 93 93 93 93 93 92 90 92 92 93 93 93 93 93 93 92 92 93 93 93 93 93 93 91 93 93 86 86 93 77 83 72 59 47 55 62 45 28 16 14 8 1 1 0 0 0 0 0 0 0 0 0 0 0 0 0 2 0 0 0 0 0 0 0 0 0 0 0 0 0 0 0 0 0 0 0 0 0 0 0 0 0 0 0 0 0 0 
0 0 0 0 0 0 0 0 0 0 0 0 0 0 0 0 0 0 0 0 0 0 2 3 7 18 28 35 45 60 63 61 63 63 60 51 58 66 81 83 89 91 86 79 86 91 92 93 93 93 93 90 91 91 91 89 91 90 89 89 92 93 89 90 85 92 93 89 93 90 79 47 38 33 46 65 63 36 18 16 11 9 4 0 0 1 2 2 1 0 0 0 0 0 0 0 0 8 0 0 0 0 0 0 0 0 0 0 0 0 0 0 0 0 0 0 0 0 0 0 0 0 0 0 0 0 0 0 
0 0 0 0 0 0 0 0 0 0 0 0 0 0 0 0 0 0 0 0 0 0 4 6 8 14 17 21 26 44 56 58 53 57 54 53 48 54 55 83 83 83 81 70 73 79 89 91 89 91 86 73 82 78 76 73 81 81 77 79 81 86 86 76 88 88 90 84 90 88 74 56 48 43 54 77 67 40 23 15 16 14 5 0 0 0 1 1 1 0 0 0 0 0 0 0 0 0 0 0 0 0 0 0 0 0 0 0 0 0 0 0 0 0 0 0 0 0 0 0 0 0 0 0 0 0 0 0 
0 0 0 0 0 0 0 0 0 0 0 0 0 0 0 0 0 0 0 0 0 0 1 4 7 13 17 19 22 37 53 64 58 57 54 50 50 54 65 79 76 78 78 79 82 86 90 91 87 84 81 74 74 70 70 69 77 78 78 78 78 79 80 76 74 82 87 87 88 79 74 60 50 56 64 81 68 42 24 17 17 10 6 0 0 0 1 1 1 0 0 0 0 0 0 0 0 0 0 0 0 0 0 0 0 0 0 0 0 0 0 0 0 0 0 0 0 0 0 0 0 0 0 0 0 0 0 0 
0 0 0 0 0 0 0 0 0 0 0 0 0 0 0 0 0 0 0 0 0 0 0 4 8 10 15 19 21 33 51 63 61 58 54 48 42 45 60 76 73 70 73 73 80 83 87 89 88 80 79 78 75 74 72 69 75 76 80 82 85 85 83 79 78 77 83 82 80 76 63 50 45 60 72 83 70 44 24 17 15 10 5 0 0 0 0 1 1 0 0 0 0 0 0 0 0 0 0 0 0 0 0 0 0 0 0 0 0 0 0 0 0 0 0 0 0 0 0 0 0 0 0 0 0 0 0 0 
0 0 0 0 0 0 0 0 0 0 0 0 0 0 0 0 0 0 0 0 0 0 0 2 6 8 12 18 22 30 43 58 63 61 57 49 41 48 55 59 62 64 74 72 78 80 84 88 90 86 83 80 78 80 79 77 79 79 78 85 88 92 88 82 81 75 75 79 79 75 67 50 47 58 74 83 70 49 25 16 14 9 3 0 0 0 0 1 1 1 0 0 0 0 0 0 0 0 0 0 0 0 0 0 0 0 0 0 0 0 0 0 0 0 0 0 0 0 0 0 0 0 0 0 0 0 0 0 
0 0 0 0 0 0 0 0 0 0 0 0 0 0 0 0 0 0 0 0 0 0 0 0 4 7 10 15 20 27 42 53 65 65 59 54 43 54 49 47 52 65 72 69 79 80 81 82 87 86 83 77 77 77 74 75 76 79 79 84 87 91 86 82 79 78 73 76 75 72 68 60 50 59 76 81 65 44 24 16 14 8 2 0 0 0 1 1 2 1 0 0 0 0 0 0 0 0 0 0 0 0 0 0 0 0 0 0 0 0 0 0 0 0 0 0 0 0 0 0 0 0 0 0 0 0 0 0 
0 0 0 0 0 0 0 0 0 0 0 0 0 0 0 0 0 0 0 0 0 0 0 0 2 4 9 12 17 24 37 47 66 65 61 57 52 57 44 47 54 62 66 74 82 81 77 78 77 83 86 77 74 72 72 71 72 78 82 81 84 82 80 79 78 81 77 70 70 60 55 65 57 63 78 79 63 39 18 15 14 7 1 0 0 0 0 1 1 1 0 0 0 0 0 0 0 0 0 0 0 0 0 0 0 0 0 0 0 0 0 0 0 0 0 0 0 0 0 0 0 0 0 0 0 0 0 0 
0 0 0 0 0 0 0 0 0 0 0 0 0 0 0 0 0 0 0 0 0 0 0 0 0 4 5 12 14 18 32 51 57 62 64 61 61 57 46 44 52 59 66 72 78 76 76 73 67 77 85 77 68 67 69 72 73 75 77 82 83 79 75 75 70 77 74 66 63 57 48 62 68 65 78 70 44 22 16 15 15 8 1 0 0 0 0 1 1 1 0 0 0 0 0 0 0 0 0 0 0 0 0 0 0 0 0 0 0 0 0 0 0 0 0 0 0 0 0 0 0 0 0 0 0 0 0 0 
0 0 0 0 0 0 0 0 0 0 0 0 0 0 0 0 0 0 0 0 0 0 0 0 0 3 4 8 13 17 20 29 37 40 62 68 62 57 49 42 48 58 60 67 74 74 74 70 64 74 86 82 72 68 71 73 75 75 76 82 80 71 71 73 69 73 72 63 64 56 48 61 69 72 76 39 16 15 16 17 15 7 0 0 0 0 0 1 1 1 0 0 0 0 0 0 0 0 0 0 0 0 0 0 0 0 0 0 0 0 0 0 0 0 0 0 0 0 0 0 0 0 0 0 0 0 0 0 
0 0 0 0 0 0 0 0 0 0 0 0 0 0 0 0 0 0 0 0 0 0 0 0 0 0 5 3 11 16 18 19 17 15 30 64 62 62 54 53 49 55 56 62 65 69 69 69 64 77 82 79 71 66 65 68 76 76 77 79 78 71 71 72 68 72 61 60 63 58 57 64 69 74 60 24 15 14 16 17 14 6 0 0 0 0 0 1 1 1 0 0 0 0 0 0 0 0 0 0 0 0 0 0 0 0 0 0 0 0 0 0 0 0 0 0 0 0 0 0 0 0 0 0 0 0 0 0 
0 0 0 0 0 0 0 0 0 0 0 0 0 0 0 0 0 0 0 0 0 0 0 0 0 0 1 4 8 13 17 18 16 16 13 35 61 67 65 59 53 59 58 60 62 66 67 70 72 78 78 80 77 73 69 69 75 78 77 81 80 74 76 77 72 69 62 67 65 63 67 73 73 64 33 19 14 14 16 15 11 5 0 0 0 0 0 0 1 1 0 0 0 0 0 0 0 0 0 0 0 0 0 0 0 0 0 0 0 0 0 0 0 0 0 0 0 0 0 0 0 0 0 0 0 0 0 0 
0 0 0 0 0 0 0 0 0 0 0 0 0 0 0 0 0 0 0 0 0 0 0 0 0 0 0 3 6 8 15 17 16 16 14 13 33 61 70 62 59 64 64 63 67 73 75 72 71 75 76 80 78 74 72 78 84 82 81 85 82 78 80 77 76 73 65 71 72 71 69 75 63 34 22 16 13 14 15 14 10 5 0 0 0 0 0 0 1 1 0 0 0 0 0 0 0 0 0 0 0 0 0 0 0 0 0 0 0 0 0 0 0 0 0 0 0 0 0 0 0 0 0 0 0 0 0 0 
0 0 0 0 0 0 0 0 0 0 0 0 0 0 0 0 0 0 0 0 0 0 0 0 0 0 0 2 5 7 11 16 18 15 13 14 17 30 53 64 66 73 72 65 75 81 77 70 67 77 81 82 79 74 73 81 84 82 82 85 78 75 79 79 79 79 72 76 77 75 70 59 33 24 21 16 13 15 14 13 9 5 0 0 0 0 0 0 1 1 0 0 0 0 0 0 0 0 0 0 0 0 0 0 0 0 0 0 0 0 0 0 0 0 0 0 0 0 0 0 0 0 0 0 0 0 0 0 
0 0 0 0 0 0 0 0 0 0 0 0 0 0 0 0 0 0 0 0 0 0 0 0 0 0 0 0 4 6 8 14 17 16 15 12 18 20 29 47 63 74 75 72 79 84 78 71 73 82 83 80 75 75 79 81 82 81 83 86 85 81 80 79 83 84 80 78 79 70 53 32 27 24 22 15 14 15 14 13 9 4 0 0 0 0 0 0 1 1 1 0 0 0 0 0 0 0 0 0 0 0 0 0 0 0 0 0 0 0 0 0 0 0 0 0 0 0 0 0 0 0 0 0 0 0 0 0 
0 0 0 0 0 0 0 0 0 0 0 0 0 0 0 0 0 0 0 0 0 0 0 0 0 0 0 0 1 6 6 11 15 16 15 11 14 19 23 26 33 51 66 73 80 85 80 77 78 82 84 79 75 76 77 77 78 79 79 83 86 84 82 81 83 84 81 78 64 43 27 27 26 23 20 15 14 14 13 12 9 4 0 0 0 0 0 0 1 1 1 0 0 0 0 0 0 0 0 0 0 0 0 0 0 0 0 0 0 0 0 0 0 0 0 0 0 0 0 0 0 0 0 0 0 0 0 0 
0 0 0 0 0 0 0 0 0 0 0 0 0 0 0 0 0 0 0 0 0 0 0 0 0 0 0 0 0 7 6 10 12 16 14 11 12 19 24 26 28 30 36 53 70 76 76 75 75 82 85 80 75 73 73 73 76 78 80 76 81 86 86 82 79 77 70 54 37 34 27 26 24 21 17 15 13 14 14 12 9 4 0 0 0 0 0 0 1 1 0 0 0 0 0 0 0 0 0 0 0 0 0 0 0 0 0 0 0 0 0 0 0 0 0 0 0 0 0 0 0 0 0 0 0 0 0 0 
0 0 0 0 0 0 0 0 0 0 0 0 0 0 0 0 0 0 0 0 0 0 0 0 0 0 0 0 0 4 6 9 12 14 15 12 13 18 24 25 30 29 28 35 44 54 64 71 73 74 78 79 77 76 77 78 79 80 82 79 81 80 81 79 72 60 45 40 35 33 26 26 23 21 16 14 14 14 14 11 8 3 0 0 0 0 0 0 1 1 1 0 0 0 0 0 0 0 0 0 0 0 0 0 0 0 0 0 0 0 0 0 0 0 0 0 0 0 0 0 0 0 0 0 0 0 0 0 
